<svg width="284" height="90" fill="none" xmlns="http://www.w3.org/2000/svg"><path d="M0 20.666a4.403 4.403 0 014.148-4.396L279.105.285a4.403 4.403 0 014.653 4.612l-3.954 80.08a4.404 4.404 0 01-4.398 4.185H4.403A4.403 4.403 0 010 84.76V20.666z" fill="#fff"/><path d="M35.987 68h-9.399V49.86c0-2.204.047-4.22.141-6.047-.578.703-1.297 1.437-2.156 2.203l-3.89 3.21-4.806-5.906 11.766-9.586h8.344V68zM69.91 50.914c0 6.063-1.015 10.508-3.047 13.336-2.03 2.813-5.14 4.219-9.328 4.219-4.093 0-7.18-1.469-9.258-4.406-2.078-2.954-3.117-7.336-3.117-13.149 0-6.094 1.016-10.562 3.047-13.406 2.031-2.844 5.14-4.266 9.328-4.266 4.078 0 7.156 1.485 9.235 4.453 2.093 2.953 3.14 7.36 3.14 13.22zm-15.539 0c0 3.875.242 6.54.727 7.992.484 1.453 1.297 2.18 2.437 2.18 1.157 0 1.969-.75 2.438-2.25.484-1.5.726-4.14.726-7.922 0-3.797-.242-6.453-.726-7.969-.485-1.53-1.297-2.297-2.438-2.297-1.14 0-1.953.735-2.437 2.204-.485 1.468-.727 4.156-.727 8.062zM95.117 68h-9.399V49.86c0-2.204.047-4.22.141-6.047-.578.703-1.297 1.437-2.156 2.203l-3.89 3.21-4.806-5.906 11.766-9.586h8.344V68zm49.966-23.367c0 3.828-1.133 6.789-3.399 8.883-2.25 2.078-5.453 3.117-9.609 3.117h-2.602V68h-9.257V33.734h11.859c4.328 0 7.578.946 9.75 2.836 2.172 1.89 3.258 4.578 3.258 8.063zm-15.61 4.453h1.688c1.391 0 2.492-.39 3.305-1.172.828-.781 1.242-1.86 1.242-3.234 0-2.313-1.281-3.47-3.844-3.47h-2.391v7.876zm54.573 1.734c0 5.766-1.414 10.149-4.242 13.149-2.828 3-6.969 4.5-12.422 4.5-5.375 0-9.5-1.508-12.375-4.524-2.859-3.015-4.289-7.406-4.289-13.172 0-5.703 1.422-10.054 4.266-13.054 2.859-3.016 7.008-4.524 12.445-4.524 5.453 0 9.586 1.492 12.398 4.477 2.813 2.984 4.219 7.367 4.219 13.148zm-23.578 0c0 6.625 2.305 9.938 6.914 9.938 2.344 0 4.078-.805 5.203-2.414 1.141-1.61 1.711-4.117 1.711-7.524 0-3.422-.578-5.945-1.734-7.57-1.141-1.64-2.852-2.46-5.133-2.46-4.641 0-6.961 3.343-6.961 10.03zm55.909-9.07c0 4.516-2.688 7.234-8.063 8.156v.188c3.094.265 5.43 1.093 7.008 2.484 1.578 1.39 2.367 3.266 2.367 5.625 0 2.063-.578 3.875-1.734 5.438-1.141 1.547-2.797 2.742-4.969 3.586-2.172.828-4.742 1.242-7.711 1.242-5.453 0-9.804-.617-13.054-1.852v-7.969c1.328.672 3.015 1.22 5.062 1.641 2.063.406 3.93.61 5.602.61 2.64 0 4.515-.274 5.625-.82 1.109-.548 1.664-1.462 1.664-2.743 0-2.297-2.625-3.445-7.875-3.445h-4.031v-7.5h3.609c1.812 0 3.226-.086 4.242-.258 1.031-.188 1.781-.485 2.25-.89.469-.407.703-1.016.703-1.829 0-1.719-1.648-2.578-4.945-2.578-3.109 0-5.844.797-8.203 2.39l-3.891-6.374c2.047-1.313 4.125-2.243 6.235-2.79 2.109-.546 4.656-.82 7.64-.82 3.766 0 6.781.781 9.047 2.344 2.281 1.562 3.422 3.617 3.422 6.164zm33.174 14.883c0 3.656-1.25 6.469-3.75 8.437-2.484 1.953-6.015 2.93-10.593 2.93h-10.125V33.734h9.304v12.188h.469c4.781 0 8.422.906 10.922 2.719 2.515 1.797 3.773 4.46 3.773 7.992zm-15.164 4.219h.375c3.625 0 5.438-1.344 5.438-4.032 0-2.593-1.828-3.89-5.485-3.89h-.328v7.922zM261.997 68h-9.329V33.734h9.329V68z" fill="#C54493"/></svg>