<svg width="42" height="43" viewBox="0 0 42 43" fill="none" xmlns="http://www.w3.org/2000/svg">
<ellipse cx="21" cy="21.5" rx="21" ry="21.5" fill="#3657C8"/>
<path d="M18.6705 30.6673L17.9634 29.9602L17.2563 30.6673L17.9634 31.3744L18.6705 30.6673ZM23.2968 24.6269L17.9634 29.9602L19.3776 31.3744L24.711 26.0411L23.2968 24.6269ZM17.9634 31.3744L23.2968 36.7078L24.711 35.2935L19.3776 29.9602L17.9634 31.3744Z" fill="white"/>
<path d="M29.4201 16.6667C30.2393 18.0855 30.6705 19.695 30.6705 21.3333C30.6705 22.9717 30.2393 24.5812 29.4201 26C28.6009 27.4188 27.4227 28.5971 26.0039 29.4162C24.585 30.2354 22.9755 30.6667 21.3372 30.6667" stroke="white" stroke-width="2" stroke-linecap="round"/>
<path d="M24.0013 12.3327L24.7084 13.0398L25.4156 12.3327L24.7084 11.6256L24.0013 12.3327ZM19.3751 18.3731L24.7084 13.0398L23.2942 11.6256L17.9609 16.9589L19.3751 18.3731ZM24.7084 11.6256L19.3751 6.29224L17.9609 7.70646L23.2942 13.0398L24.7084 11.6256Z" fill="white"/>
<path d="M13.2518 26.3333C12.4326 24.9145 12.0013 23.305 12.0013 21.6667C12.0013 20.0283 12.4326 18.4188 13.2518 17C14.0709 15.5812 15.2492 14.4029 16.668 13.5838C18.0869 12.7646 19.6963 12.3333 21.3347 12.3333" stroke="white" stroke-width="2" stroke-linecap="round"/>
</svg>
