<svg width="42" height="43" viewBox="0 0 42 43" fill="none" xmlns="http://www.w3.org/2000/svg">
<ellipse cx="21" cy="21.5" rx="21" ry="21.5" fill="#BFC6E0"/>
<path d="M18.6706 30.6673L17.9635 29.9602L17.2564 30.6673L17.9635 31.3744L18.6706 30.6673ZM23.2968 24.6269L17.9635 29.9602L19.3777 31.3744L24.711 26.0411L23.2968 24.6269ZM17.9635 31.3744L23.2968 36.7078L24.711 35.2935L19.3777 29.9602L17.9635 31.3744Z" fill="white"/>
<path d="M29.4202 16.6667C30.2393 18.0855 30.6706 19.695 30.6706 21.3333C30.6706 22.9717 30.2393 24.5812 29.4202 26C28.601 27.4188 27.4228 28.5971 26.0039 29.4162C24.5851 30.2354 22.9756 30.6667 21.3373 30.6667" stroke="white" stroke-width="2" stroke-linecap="round"/>
<path d="M24.0013 12.3327L24.7084 13.0398L25.4155 12.3327L24.7084 11.6256L24.0013 12.3327ZM19.3751 18.3731L24.7084 13.0398L23.2942 11.6256L17.9608 16.9589L19.3751 18.3731ZM24.7084 11.6256L19.3751 6.29224L17.9608 7.70646L23.2942 13.0398L24.7084 11.6256Z" fill="white"/>
<path d="M13.2517 26.3333C12.4325 24.9145 12.0013 23.305 12.0013 21.6667C12.0013 20.0283 12.4325 18.4188 13.2517 17C14.0709 15.5812 15.2491 14.4029 16.6679 13.5838C18.0868 12.7646 19.6963 12.3333 21.3346 12.3333" stroke="white" stroke-width="2" stroke-linecap="round"/>
</svg>
