<svg width="32" height="29" viewBox="0 0 32 29" fill="none" xmlns="http://www.w3.org/2000/svg">
<path fill-rule="evenodd" clip-rule="evenodd" d="M1 9.65331C1 8.95628 1 8.60631 1.104 8.29631V8.29729C1.19601 8.0233 1.34698 7.77129 1.54599 7.56126C1.76636 7.32713 2.06802 7.16557 2.66428 6.84624L2.694 6.83031L14.494 0.536301C15.045 0.242294 15.32 0.0962982 15.611 0.0383148C15.8678 -0.0127716 16.1322 -0.0127716 16.389 0.0383148C16.68 0.0962982 16.955 0.242294 17.506 0.536301L29.306 6.83031C29.922 7.15831 30.23 7.32231 30.454 7.56029C30.653 7.77061 30.8038 8.02177 30.896 8.29631C31 8.60631 31 8.95531 31 9.65331V10.7333H1V9.65331ZM13.8787 3.61198C14.4413 3.04936 15.2043 2.73326 16 2.73326C16.7957 2.73326 17.5587 3.04936 18.1213 3.61198C18.6839 4.17461 19 4.93767 19 5.73326C19 6.52892 18.6839 7.29198 18.1213 7.8546C17.5587 8.41722 16.7957 8.73326 16 8.73326C15.2043 8.73326 14.4413 8.41722 13.8787 7.8546C13.3161 7.29198 13 6.52892 13 5.73326C13 4.93767 13.3161 4.17461 13.8787 3.61198ZM19 21.7333V12.7333H13V21.7333C13 22.2637 12.7893 22.7724 12.4142 23.1475C12.0392 23.5226 11.5304 23.7333 11 23.7333C10.4696 23.7333 9.96085 23.5226 9.58578 23.1475C9.21072 22.7724 9 22.2637 9 21.7333V12.7333H4V23.7333H3.60001C3.04001 23.7333 2.76001 23.7333 2.54599 23.8423C2.358 23.9393 2.20499 24.0913 2.10901 24.2793C2 24.4933 2 24.7733 2 25.3333V25.7333H1.60001C1.04001 25.7333 0.76001 25.7333 0.54599 25.8423C0.358002 25.9393 0.204987 26.0913 0.109009 26.2793C0 26.4933 0 26.7733 0 27.3333V28.7333H32V27.3333C32 26.7733 32 26.4933 31.891 26.2793C31.795 26.0913 31.642 25.9383 31.454 25.8433C31.24 25.7333 30.96 25.7333 30.4 25.7333H30V25.3333C30 24.7733 30 24.4933 29.891 24.2793C29.795 24.0913 29.642 23.9383 29.454 23.8433C29.24 23.7333 28.96 23.7333 28.4 23.7333H28V12.7333H23V21.7333C23 22.2637 22.7893 22.7724 22.4142 23.1475C22.0392 23.5226 21.5304 23.7333 21 23.7333C20.4696 23.7333 19.9608 23.5226 19.5858 23.1475C19.2107 22.7724 19 22.2637 19 21.7333Z" fill="#89DBF8"/>
</svg>
