<svg width="18" height="19" viewBox="0 0 18 19" fill="none" xmlns="http://www.w3.org/2000/svg">
<path d="M16.3252 2.67711H11.9397V1.91488C11.9397 0.859008 11.1259 0 10.1256 0H7.87124C6.87094 0 6.05714 0.859008 6.05714 1.91488V2.67711H1.67161C1.52568 2.67711 1.40741 2.80194 1.40741 2.95598V5.93056C1.40741 6.0846 1.52568 6.20944 1.67161 6.20944H2.81644V16.3415C2.81644 17.8074 3.94629 19 5.33503 19H12.6618C14.0506 19 15.1804 17.8074 15.1804 16.3415V10.8757C15.1804 10.7217 15.0622 10.5968 14.9162 10.5968C14.7703 10.5968 14.652 10.7217 14.652 10.8757V16.3415C14.652 17.4999 13.7592 18.4423 12.6618 18.4423H5.335C4.23759 18.4423 3.34476 17.4999 3.34476 16.3415V6.2094H14.652V9.51859C14.652 9.67263 14.7703 9.79747 14.9162 9.79747C15.0621 9.79747 15.1804 9.67263 15.1804 9.51859V6.2094H16.3252C16.4712 6.2094 16.5894 6.08456 16.5894 5.93052V2.95598C16.5894 2.80191 16.4712 2.67711 16.3252 2.67711ZM6.5855 1.91488C6.5855 1.16657 7.16228 0.557754 7.8712 0.557754H10.1256C10.8345 0.557754 11.4113 1.16657 11.4113 1.91488V2.67711H11.0943V1.91488C11.0943 1.35108 10.6597 0.892369 10.1256 0.892369H7.87117C7.33704 0.892369 6.90247 1.35108 6.90247 1.91488V2.67711H6.58543V1.91488H6.5855ZM10.5659 1.91488V2.67711H7.4309V1.91488C7.4309 1.6586 7.62841 1.45012 7.8712 1.45012H10.1256C10.3684 1.45009 10.5659 1.65857 10.5659 1.91488ZM16.061 5.65165H1.93581V3.23482H16.0611V5.65165H16.061Z" fill="#BFC6E0"/>
<path d="M9.00029 7.14062C8.38846 7.14062 7.89069 7.66606 7.89069 8.31187V16.0457C7.89069 16.6915 8.38846 17.217 9.00029 17.217C9.61211 17.217 10.1099 16.6915 10.1099 16.0457V8.31183C10.1099 7.66602 9.61211 7.14062 9.00029 7.14062ZM9.58149 16.0457C9.58149 16.384 9.3208 16.6592 9.00029 16.6592C8.67977 16.6592 8.41908 16.384 8.41908 16.0457V8.31183C8.41908 7.97351 8.67977 7.69834 9.00029 7.69834C9.3208 7.69834 9.58149 7.97351 9.58149 8.31183V16.0457Z" fill="#BFC6E0"/>
<path d="M12.3829 7.14062C11.771 7.14062 11.2733 7.66606 11.2733 8.31187V16.0457C11.2733 16.6915 11.771 17.217 12.3829 17.217C12.9947 17.217 13.4925 16.6915 13.4925 16.0457V8.31183C13.4925 7.66602 12.9947 7.14062 12.3829 7.14062ZM12.9641 16.0457C12.9641 16.384 12.7034 16.6592 12.3829 16.6592C12.0623 16.6592 11.8017 16.384 11.8017 16.0457V8.31183C11.8017 7.97351 12.0623 7.69834 12.3829 7.69834C12.7034 7.69834 12.9641 7.97351 12.9641 8.31183V16.0457Z" fill="#BFC6E0"/>
<path d="M5.61656 7.14062C5.00474 7.14062 4.50696 7.66606 4.50696 8.31187V16.0457C4.50696 16.6915 5.00474 17.217 5.61656 17.217C6.22838 17.217 6.72616 16.6915 6.72616 16.0457V8.31183C6.72616 7.66602 6.22838 7.14062 5.61656 7.14062ZM6.19776 16.0457C6.19776 16.384 5.93708 16.6592 5.61656 16.6592C5.29604 16.6592 5.03536 16.384 5.03536 16.0457V8.31183C5.03536 7.97351 5.29604 7.69834 5.61656 7.69834C5.93708 7.69834 6.19776 7.97351 6.19776 8.31183V16.0457Z" fill="#BFC6E0"/>
</svg>
