<svg width="17" height="23" fill="none" xmlns="http://www.w3.org/2000/svg"><path fill-rule="evenodd" clip-rule="evenodd" d="M5 10a1 1 0 01-1-1V4.5a4.5 4.5 0 019 0V9a1 1 0 11-2 0V4.5a2.5 2.5 0 10-5 0V9a1 1 0 01-1 1z" fill="#fff"/><path fill-rule="evenodd" clip-rule="evenodd" d="M4.934 5.833h7.132c.886 0 1.65 0 2.262.083.655.088 1.284.287 1.793.796.51.51.709 1.138.797 1.794C17 9.117 17 9.88 17 10.768v3.796c0 1.59 0 2.871-.12 3.89-.125 1.055-.39 1.957-1.015 2.718-.208.253-.44.485-.693.693-.76.625-1.663.89-2.718 1.015-1.019.12-2.3.12-3.89.12h-.127c-1.59 0-2.872 0-3.891-.12-1.055-.125-1.957-.39-2.718-1.015a5 5 0 01-.693-.693C.51 20.412.245 19.51.12 18.454 0 17.435 0 16.154 0 14.564v-3.796c0-.887 0-1.65.082-2.262C.17 7.85.37 7.222.88 6.712s1.138-.708 1.793-.796c.612-.083 1.376-.083 2.262-.083zM2.94 7.899c-.434.058-.57.152-.646.228-.076.077-.17.212-.229.646C2.002 9.235 2 9.862 2 10.834V14.5c0 1.668.002 2.832.107 3.72.102.865.29 1.338.574 1.683.125.152.264.292.416.416.345.284.818.472 1.684.575.888.105 2.05.106 3.719.106 1.668 0 2.832-.002 3.72-.106.865-.103 1.338-.291 1.683-.575.152-.124.291-.264.416-.416.284-.345.472-.818.574-1.683.105-.888.107-2.052.107-3.72v-3.666c0-.972-.002-1.6-.064-2.062-.059-.434-.153-.57-.229-.646-.076-.076-.212-.17-.646-.228-.462-.062-1.09-.064-2.061-.064H5c-.971 0-1.599.002-2.061.064z" fill="#fff"/></svg>