<svg width="24" height="26" viewBox="0 0 24 26" fill="none" xmlns="http://www.w3.org/2000/svg">
<path fill-rule="evenodd" clip-rule="evenodd" d="M11.5803 2.4487C6.53707 2.4487 2.4487 6.53707 2.4487 11.5803C2.4487 14.8989 4.1656 17.6118 6.25109 19.6835C8.28714 21.7061 10.5704 23.0095 11.5803 23.5313C12.5902 23.0095 14.8735 21.7061 16.9096 19.6835C18.9951 17.6118 20.712 14.8989 20.712 11.5803C20.712 6.53707 16.6236 2.4487 11.5803 2.4487ZM0 11.5803C0 5.18469 5.18469 0 11.5803 0C17.976 0 23.1607 5.18469 23.1607 11.5803C23.1607 15.8004 20.9703 19.1012 18.6353 21.4207C16.2982 23.7424 13.7069 25.1947 12.6264 25.7468C11.9659 26.0844 11.1947 26.0844 10.5343 25.7468C9.45379 25.1947 6.86242 23.7424 4.52533 21.4207C2.1904 19.1012 0 15.8004 0 11.5803ZM11.5803 8.3664C9.80533 8.3664 8.36641 9.80533 8.36641 11.5803C8.36641 13.3553 9.80533 14.7942 11.5803 14.7942C13.3553 14.7942 14.7943 13.3553 14.7943 11.5803C14.7943 9.80533 13.3553 8.3664 11.5803 8.3664ZM5.91771 11.5803C5.91771 8.45294 8.45295 5.9177 11.5803 5.9177C14.7077 5.9177 17.243 8.45294 17.243 11.5803C17.243 14.7077 14.7077 17.243 11.5803 17.243C8.45295 17.243 5.91771 14.7077 5.91771 11.5803Z" fill="#1955A0"/>
</svg>
