<svg width="32" height="32" viewBox="0 0 32 32" fill="none" xmlns="http://www.w3.org/2000/svg">
<path d="M13.333 25.3333L12.6259 24.6262L11.9188 25.3333L12.6259 26.0404L13.333 25.3333ZM17.9592 19.2929L12.6259 24.6262L14.0401 26.0404L19.3734 20.7071L17.9592 19.2929ZM12.6259 26.0404L17.9592 31.3738L19.3734 29.9596L14.0401 24.6262L12.6259 26.0404Z" fill="#395DD0"/>
<path d="M24.0826 11.3346C24.9017 12.7535 25.333 14.363 25.333 16.0013C25.333 17.6396 24.9017 19.2491 24.0826 20.668C23.2634 22.0868 22.0852 23.265 20.6663 24.0842C19.2475 24.9034 17.638 25.3346 15.9997 25.3346" stroke="#395DD0" stroke-width="2" stroke-linecap="round"/>
<path d="M18.667 6.66667L19.3741 7.37377L20.0812 6.66667L19.3741 5.95956L18.667 6.66667ZM14.0408 12.7071L19.3741 7.37377L17.9599 5.95956L12.6266 11.2929L14.0408 12.7071ZM19.3741 5.95956L14.0408 0.626226L12.6266 2.04044L17.9599 7.37377L19.3741 5.95956Z" fill="#395DD0"/>
<path d="M7.91742 20.6654C7.09825 19.2465 6.66699 17.637 6.66699 15.9987C6.66699 14.3604 7.09825 12.7509 7.91742 11.332C8.73659 9.91318 9.91481 8.73496 11.3337 7.91579C12.7525 7.09662 14.362 6.66536 16.0003 6.66536" stroke="#395DD0" stroke-width="2" stroke-linecap="round"/>
</svg>
