<svg width="36" height="27" viewBox="0 0 36 27" fill="none" xmlns="http://www.w3.org/2000/svg">
<path d="M17.9987 26.0776C17.9957 26.0776 17.9924 26.0776 17.9891 26.0776C16.9028 26.0702 7.29967 25.9826 4.5789 25.2468C2.67744 24.7356 1.17643 23.2363 0.663918 21.3345C-0.0479968 18.6618 -0.00267811 13.5161 0.00226575 13.1052C-0.00240345 12.6962 -0.0482715 7.50795 0.661721 4.81327C0.662545 4.8108 0.663095 4.80805 0.663918 4.80558C1.17066 2.92554 2.70546 1.37976 4.57423 0.86725C4.5789 0.865877 4.58385 0.864778 4.58852 0.863405C7.27852 0.156433 16.9006 0.0699158 17.9891 0.0625H18.0086C19.0976 0.0699158 28.7263 0.157532 31.4221 0.894441C33.3186 1.40421 34.8185 2.90165 35.3324 4.80091C36.071 7.49751 36.0026 12.6971 35.9952 13.136C36.0004 13.5683 36.0435 18.6679 35.3357 21.354C35.3352 21.3568 35.3344 21.3593 35.3338 21.3617C34.821 23.2635 33.3203 24.7628 31.4166 25.2745C31.4142 25.2753 31.4114 25.2759 31.4089 25.2767C28.7192 25.9834 19.0968 26.0699 18.0086 26.0776C18.0053 26.0776 18.002 26.0776 17.9987 26.0776ZM3.38029 5.53452C2.75517 7.91307 2.81422 13.0352 2.81477 13.0868V13.1239C2.79609 14.5444 2.86174 18.6583 3.38057 20.6067C3.63215 21.5397 4.37236 22.2788 5.31114 22.5312C7.31862 23.0742 15.1401 23.2451 17.9987 23.2651C20.8648 23.2451 28.6978 23.0789 30.6904 22.5576C31.6262 22.3044 32.3639 21.5677 32.6172 20.6336C33.1365 18.6566 33.2016 14.5628 33.1827 13.1514C33.1827 13.1365 33.1827 13.1217 33.183 13.1069C33.2088 11.6693 33.158 7.5074 32.6196 5.54331C32.6191 5.54139 32.6185 5.53947 32.6183 5.53755C32.3656 4.60041 31.6251 3.8613 30.6863 3.60889C28.6983 3.06534 20.8642 2.89505 17.9987 2.875C15.1346 2.89505 7.30929 3.06095 5.31059 3.5817C4.38966 3.83713 3.6327 4.60261 3.38029 5.53452ZM33.9759 20.9959H33.9767H33.9759ZM14.4142 18.7651V7.37474L24.2579 13.0701L14.4142 18.7651Z" fill="#3657C8"/>
</svg>
