<svg width="36" height="36" viewBox="0 0 36 36" fill="none" xmlns="http://www.w3.org/2000/svg">
<path d="M28.5411 21.9053C27.8782 21.1103 27.0981 20.4317 26.36 19.7111C25.6941 19.0616 25.6521 18.6848 26.1874 17.9352C26.7716 17.117 27.3999 16.3302 27.9894 15.5157C28.5397 14.7546 29.1022 13.9954 29.3918 13.0841C29.5754 12.5042 29.413 12.2481 28.8184 12.1466C28.716 12.1288 28.6101 12.1279 28.5058 12.1279L24.9781 12.1238C24.5437 12.1173 24.3035 12.3067 24.1498 12.6918C23.9424 13.2123 23.7285 13.7324 23.4814 14.2347C22.9207 15.3736 22.2945 16.4744 21.4166 17.4066C21.223 17.6121 21.0089 17.8719 20.6854 17.7649C20.2807 17.6172 20.1614 16.9504 20.1681 16.725L20.1646 12.6533C20.0862 12.0716 19.9572 11.8123 19.3797 11.6992L15.7152 11.6999C15.2261 11.6999 14.9808 11.8889 14.7196 12.1948C14.569 12.3716 14.5235 12.4862 14.8331 12.5448C15.4413 12.6602 15.784 13.0538 15.8749 13.6637C16.0207 14.638 16.0106 15.6163 15.9266 16.5946C15.9019 16.8803 15.8527 17.1652 15.7395 17.4319C15.5623 17.8512 15.2761 17.9366 14.9003 17.6786C14.56 17.4451 14.3209 17.1156 14.087 16.7847C13.2081 15.543 12.5069 14.2038 11.9352 12.7966C11.77 12.39 11.485 12.1436 11.0542 12.1369C9.99588 12.1201 8.93729 12.1173 7.87893 12.1378C7.24211 12.1498 7.05222 12.459 7.31156 13.0363C8.46429 15.6004 9.74738 18.0932 11.4223 20.3641C12.2822 21.5295 13.2695 22.5583 14.545 23.2874C15.9905 24.1139 17.5465 24.3626 19.1854 24.286C19.9528 24.25 20.1833 24.0504 20.2189 23.2856C20.2428 22.7623 20.3021 22.242 20.5603 21.7718C20.8137 21.3103 21.1974 21.2224 21.6397 21.5094C21.861 21.6532 22.0474 21.8361 22.2234 22.029C22.6554 22.5016 23.0718 22.9884 23.5201 23.445C24.0824 24.0172 24.7486 24.3552 25.5861 24.2863L28.8283 24.2869C29.3507 24.2528 29.6216 23.6123 29.3216 23.0292C29.111 22.6208 28.8346 22.2572 28.5411 21.9053Z" fill="#3657C8"/>
<path fill-rule="evenodd" clip-rule="evenodd" d="M33.3 4.7C33.3 3.59543 32.4046 2.7 31.3 2.7H4.7C3.59543 2.7 2.7 3.59543 2.7 4.7V31.3C2.7 32.4046 3.59543 33.3 4.7 33.3H31.3C32.4046 33.3 33.3 32.4046 33.3 31.3V4.7ZM5 0C2.23858 0 0 2.23858 0 5V31C0 33.7614 2.23858 36 5 36H31C33.7614 36 36 33.7614 36 31V5C36 2.23858 33.7614 0 31 0H5Z" fill="#3657C8"/>
</svg>
