<svg width="21" height="17" viewBox="0 0 21 17" fill="none" xmlns="http://www.w3.org/2000/svg">
<path d="M18.4364 0.507812H2.56797C1.15146 0.507812 0 1.65927 0 3.07578V13.9212C0 15.3377 1.15146 16.4892 2.56797 16.4892H18.432C19.8485 16.4892 21 15.3377 21 13.9212V3.08013C21.0043 1.66362 19.8529 0.507812 18.4364 0.507812ZM19.8312 13.9212C19.8312 14.6903 19.2055 15.316 18.4364 15.316H2.56797C1.79888 15.316 1.17318 14.6903 1.17318 13.9212V3.08013C1.17318 2.31104 1.79888 1.68534 2.56797 1.68534H18.432C19.2011 1.68534 19.8268 2.31104 19.8268 3.08013V13.9212H19.8312Z" fill="#3657C8"/>
<path d="M13.2433 8.36382L18.3793 3.75799C18.6182 3.54073 18.64 3.1714 18.4227 2.92807C18.2054 2.68909 17.8361 2.66736 17.5928 2.88462L10.5102 9.24154L9.12848 8.00752C9.12413 8.00318 9.11978 7.99883 9.11978 7.99449C9.08937 7.96407 9.05895 7.938 9.02419 7.91193L3.4016 2.88027C3.15827 2.66302 2.78893 2.68474 2.57168 2.92807C2.35442 3.1714 2.37615 3.54073 2.61947 3.75799L7.81625 8.40293L2.6412 13.2477C2.40656 13.4693 2.39353 13.8387 2.61513 14.0777C2.73245 14.1993 2.88887 14.2645 3.0453 14.2645C3.18869 14.2645 3.33208 14.2124 3.44505 14.1081L8.69831 9.19374L10.1235 10.4669C10.2365 10.5668 10.3755 10.6146 10.5146 10.6146C10.6536 10.6146 10.797 10.5625 10.9056 10.4625L12.3699 9.15029L17.5928 14.1124C17.7058 14.2211 17.8535 14.2732 17.9969 14.2732C18.1533 14.2732 18.3054 14.2124 18.4227 14.0907C18.6443 13.8561 18.6356 13.4824 18.401 13.2608L13.2433 8.36382Z" fill="#3657C8"/>
</svg>
