<svg width="36" height="36" viewBox="0 0 36 36" fill="none" xmlns="http://www.w3.org/2000/svg">
<path d="M18.3543 35.9999C18.2351 35.9999 18.1159 35.9999 17.9959 35.9994C15.174 36.0063 12.5667 35.9346 10.0311 35.7802C7.70636 35.6388 5.58435 34.8354 3.8941 33.4571C2.26318 32.1273 1.14944 30.3291 0.583923 28.1131C0.0917359 26.1839 0.0656433 24.2901 0.0406494 22.4585C0.0225219 21.1442 0.00384521 19.5869 0 18.0032C0.00384521 16.4129 0.0225219 14.8556 0.0406494 13.5414C0.0656433 11.71 0.0917359 9.81619 0.583923 7.88672C1.14944 5.67077 2.26318 3.87258 3.8941 2.54269C5.58435 1.16445 7.70636 0.361075 10.0313 0.219626C12.567 0.0655424 15.1749 -0.00641814 18.0027 0.000448321C20.8254 -0.00559417 23.4319 0.0655424 25.9676 0.219626C28.2923 0.361075 30.4143 1.16445 32.1045 2.54269C33.7357 3.87258 34.8492 5.67077 35.4147 7.88672C35.9069 9.81592 35.933 11.71 35.958 13.5414C35.9761 14.8556 35.9951 16.4129 35.9986 17.9966V18.0032C35.9951 19.5869 35.9761 21.1442 35.958 22.4585C35.933 24.2899 35.9072 26.1836 35.4147 28.1131C34.8492 30.3291 33.7357 32.1273 32.1045 33.4571C30.4143 34.8354 28.2923 35.6388 25.9676 35.7802C23.5393 35.928 21.0449 35.9999 18.3543 35.9999ZM17.9959 33.1869C20.7719 33.1935 23.3207 33.1234 25.7967 32.9729C27.5545 32.8661 29.0786 32.2956 30.3272 31.2775C31.4813 30.3362 32.2762 29.0376 32.6895 27.4177C33.0993 25.8118 33.123 24.0875 33.1458 22.42C33.1636 21.1145 33.1823 19.5682 33.1861 17.9999C33.1823 16.4313 33.1636 14.8853 33.1458 13.5798C33.123 11.9124 33.0993 10.1881 32.6895 8.58188C32.2762 6.96194 31.4813 5.66336 30.3272 4.7221C29.0786 3.70422 27.5545 3.13375 25.7967 3.02691C23.3207 2.87612 20.7719 2.80663 18.0025 2.81268C15.2271 2.80608 12.6779 2.87612 10.2019 3.02691C8.44409 3.13375 6.92001 3.70422 5.67142 4.7221C4.5173 5.66336 3.72244 6.96194 3.30908 8.58188C2.89929 10.1881 2.87567 11.9121 2.85287 13.5798C2.83502 14.8864 2.81635 16.4335 2.8125 18.0032C2.81635 19.566 2.83502 21.1134 2.85287 22.42C2.87567 24.0875 2.89929 25.8118 3.30908 27.4177C3.72244 29.0376 4.5173 30.3362 5.67142 31.2775C6.92001 32.2953 8.44409 32.8658 10.2019 32.9727C12.6779 33.1234 15.2276 33.1938 17.9959 33.1869ZM17.9289 26.789C13.0828 26.789 9.1398 22.8463 9.1398 17.9999C9.1398 13.1536 13.0828 9.21085 17.9289 9.21085C22.7752 9.21085 26.7179 13.1536 26.7179 17.9999C26.7179 22.8463 22.7752 26.789 17.9289 26.789ZM17.9289 12.0233C14.6335 12.0233 11.9523 14.7046 11.9523 17.9999C11.9523 21.2953 14.6335 23.9765 17.9289 23.9765C21.2245 23.9765 23.9054 21.2953 23.9054 17.9999C23.9054 14.7046 21.2245 12.0233 17.9289 12.0233ZM27.7023 6.39834C26.5375 6.39834 25.5929 7.34262 25.5929 8.50772C25.5929 9.67282 26.5375 10.6171 27.7023 10.6171C28.8674 10.6171 29.8117 9.67282 29.8117 8.50772C29.8117 7.34262 28.8674 6.39834 27.7023 6.39834Z" fill="#3657C8"/>
</svg>
