<svg width="36" height="36" viewBox="0 0 36 36" fill="none" xmlns="http://www.w3.org/2000/svg">
<path d="M15.6749 20.8632L15.3176 25.8888C15.8288 25.8888 16.0502 25.6692 16.3157 25.4055L18.7125 23.115L23.6788 26.7519C24.5896 27.2595 25.2313 26.9922 25.477 25.914L28.7369 10.6393L28.7378 10.6384C29.0267 9.29196 28.2509 8.76547 27.3635 9.09576L8.202 16.4316C6.89427 16.9392 6.91407 17.6682 7.9797 17.9985L12.8785 19.5222L24.2575 12.4023C24.793 12.0477 25.2799 12.2439 24.8794 12.5985L15.6749 20.8632Z" fill="#3657C8"/>
<path fill-rule="evenodd" clip-rule="evenodd" d="M33.3 4.7C33.3 3.59543 32.4046 2.7 31.3 2.7H4.7C3.59543 2.7 2.7 3.59543 2.7 4.7V31.3C2.7 32.4046 3.59543 33.3 4.7 33.3H31.3C32.4046 33.3 33.3 32.4046 33.3 31.3V4.7ZM5 0C2.23858 0 0 2.23858 0 5V31C0 33.7614 2.23858 36 5 36H31C33.7614 36 36 33.7614 36 31V5C36 2.23858 33.7614 0 31 0H5Z" fill="#3657C8"/>
</svg>
