<svg width="37" height="36" viewBox="0 0 37 36" fill="none" xmlns="http://www.w3.org/2000/svg">
<path d="M32.6641 0H4.33594C1.94496 0 0 1.8924 0 4.21875V31.7812C0 34.1076 1.94496 36 4.33594 36H32.6641C35.055 36 37 34.1076 37 31.7812V4.21875C37 1.8924 35.055 0 32.6641 0ZM34.1094 31.7812C34.1094 32.5566 33.461 33.1875 32.6641 33.1875H24.1367V22.9219H28.7637L29.3029 18.5625H24.1367V13.8516C24.1367 12.6491 25.0688 11.7422 26.3047 11.7422H29.5566V7.66406C28.7007 7.54651 27.0496 7.38281 26.3047 7.38281C24.6191 7.38281 22.9297 8.07468 21.6695 9.2807C20.3713 10.5233 19.6562 12.1509 19.6562 13.8639V18.5625H14.959V22.9219H19.6562V33.1875H4.33594C3.53904 33.1875 2.89062 32.5566 2.89062 31.7812V4.21875C2.89062 3.44339 3.53904 2.8125 4.33594 2.8125H32.6641C33.461 2.8125 34.1094 3.44339 34.1094 4.21875V31.7812Z" fill="#3657C8"/>
</svg>
