<svg width="20" height="16" fill="none" xmlns="http://www.w3.org/2000/svg"><path d="M.993 3.096H18.87c.263 0 .516-.13.702-.364.186-.232.291-.548.291-.877 0-.33-.105-.645-.29-.878-.187-.232-.44-.363-.703-.363H.993C.73.614.477.744.291.977A1.417 1.417 0 000 1.855c0 .33.105.645.29.877.187.233.44.364.703.364zm17.876 9.927H.993c-.263 0-.516.131-.702.364a1.414 1.414 0 00-.291.877c0 .33.105.645.29.878.187.232.44.363.703.363H18.87c.263 0 .516-.13.702-.363.186-.233.291-.549.291-.878a1.42 1.42 0 00-.29-.877c-.187-.233-.44-.364-.703-.364zm0-6.204H.993c-.263 0-.516.13-.702.363A1.417 1.417 0 000 8.06c0 .329.105.644.29.877.187.233.44.364.703.364H18.87c.263 0 .516-.131.702-.364.186-.233.291-.548.291-.877 0-.33-.105-.645-.29-.878-.187-.233-.44-.363-.703-.363z" fill="#fff"/></svg>