<svg width="13" height="11" fill="none" xmlns="http://www.w3.org/2000/svg"><path d="M.542 5.77v2.71a.542.542 0 00.541.54h.542a1.625 1.625 0 103.25 0h3.25a1.625 1.625 0 103.25 0h.541a.542.542 0 00.542-.54v-6.5A1.625 1.625 0 0010.833.353H5.958A1.625 1.625 0 004.333 1.98v1.084H3.25a1.625 1.625 0 00-1.3.65L.65 5.446a.33.33 0 00-.038.076l-.033.06a.542.542 0 00-.037.189zm8.666 3.25a.542.542 0 111.083 0 .542.542 0 01-1.083 0zM5.416 1.98a.542.542 0 01.542-.542h4.875a.542.542 0 01.542.541v5.959h-.423a1.625 1.625 0 00-2.405 0h-3.13V1.979zM4.333 5.23H2.166l.65-.867a.542.542 0 01.434-.217h1.083v1.083zM2.708 9.02a.542.542 0 111.083 0 .542.542 0 01-1.083 0zM1.625 6.314h2.708v1.505a1.625 1.625 0 00-2.286.12h-.422V6.313z" fill="#B0BFF0"/></svg>