<svg width="33" height="19" viewBox="0 0 33 19" fill="none" xmlns="http://www.w3.org/2000/svg">
<g clip-path="url(#clip0)">
<path d="M16.5 16.5418C18.4965 14.8035 19.7443 12.2912 19.7443 9.49899C19.7443 6.70704 18.4965 4.19677 16.5 2.45818C14.7532 0.929971 12.4191 0 9.8795 0C4.41857 0 0 4.25265 0 9.49899C0 14.7474 4.41857 19 9.8795 19C12.4188 19.0002 14.7529 18.0683 16.5 16.5418Z" fill="#0066CB"/>
<path d="M16.5 16.5426C18.4964 14.8043 19.7443 12.292 19.7443 9.49979C19.7443 6.70784 18.4964 4.19757 16.5 2.45898" fill="#0066CB"/>
<path d="M16.5 16.5426C18.4964 14.8043 19.7443 12.292 19.7443 9.49979C19.7443 6.70784 18.4964 4.19757 16.5 2.45898" stroke="#0066CB" stroke-width="0.3097"/>
<path d="M23.1349 0C20.5806 0 18.2465 0.929971 16.4997 2.45818C16.1473 2.7707 15.8097 3.10649 15.5015 3.46528H17.4979C17.777 3.78362 18.0266 4.11939 18.2468 4.4706H14.7529C14.5474 4.79272 14.3566 5.12851 14.1803 5.47592H18.8191C18.9804 5.8021 19.1126 6.13763 19.23 6.48302H13.7691C13.6516 6.8092 13.5489 7.14497 13.4756 7.48833H19.5238C19.6707 8.13664 19.744 8.80998 19.744 9.49899C19.744 10.5541 19.5677 11.5693 19.23 12.5167H13.7693C13.8868 12.8619 14.019 13.1976 14.1803 13.5236H18.8191C18.6427 13.8712 18.4667 14.2068 18.2465 14.5291H14.7526C14.9728 14.8803 15.2371 15.2161 15.5015 15.5347H17.4979C17.1897 15.8933 16.852 16.229 16.4997 16.5416C18.2465 18.068 20.5806 19 23.1349 19C28.5811 19 32.9997 14.7474 32.9997 9.49899C32.9997 4.25265 28.5808 0 23.1349 0Z" fill="#CC0001"/>
<path d="M31.9575 14.7758H32.0016C32.0166 14.7758 32.0308 14.7778 32.0308 14.7717C32.0458 14.7641 32.0602 14.7525 32.0602 14.7411C32.0602 14.7292 32.0455 14.7179 32.0308 14.7121C32.0308 14.7062 32.0016 14.708 32.0016 14.708H31.9575V14.7758ZM31.9575 14.93H31.8989V14.66H32.0164C32.0455 14.66 32.0602 14.66 32.0897 14.6736C32.1044 14.689 32.1188 14.7141 32.1188 14.7414C32.1188 14.772 32.1041 14.7993 32.0747 14.8104L32.1188 14.9303H32.0455L32.0164 14.8223H31.9572V14.93H31.9575ZM32.0016 15.0286C32.1338 15.0286 32.2513 14.9244 32.2513 14.795C32.2513 14.6655 32.1338 14.5614 32.0016 14.5614C31.8697 14.5614 31.7667 14.6655 31.7667 14.795C31.7667 14.9244 31.8697 15.0286 32.0016 15.0286ZM31.6787 14.795C31.6787 14.6251 31.8256 14.4883 32.0016 14.4883C32.178 14.4883 32.3246 14.6251 32.3246 14.795C32.3246 14.9649 32.1777 15.1017 32.0016 15.1017C31.8256 15.1017 31.6787 14.9649 31.6787 14.795Z" fill="#231F20"/>
<path d="M8.33782 12.1422H7.08998L7.82386 8.4392L6.13563 12.1422H5.10798L4.9025 8.46044L4.08059 12.1422H2.9502L3.90428 7.32617H5.85685L5.88601 10.3072L7.23659 7.32617H9.30635L8.33782 12.1422Z" fill="#231F20"/>
<path d="M22.0627 12.0941C21.7251 12.1831 21.4607 12.2216 21.1819 12.2216C20.5508 12.2216 20.2129 11.9186 20.2129 11.3611C20.2129 11.2511 20.2129 11.1336 20.242 11.0097L20.3154 10.6258L20.3742 10.3171L20.9468 7.32617H22.1652L21.9891 8.22529H22.6203L22.4442 9.17651H21.8131L21.4902 10.8109C21.4754 10.884 21.4754 10.9363 21.4754 10.973C21.4754 11.1755 21.5929 11.2643 21.8864 11.2643C22.0333 11.2643 22.1358 11.2529 22.2241 11.2276L22.0627 12.0941Z" fill="#231F20"/>
<path d="M17.1895 9.46428C17.1895 9.96011 17.4686 10.2999 18.1289 10.5563C18.6281 10.7533 18.7159 10.8112 18.7159 10.9887C18.7159 11.234 18.4957 11.3434 17.997 11.3434C17.6299 11.3434 17.2776 11.2957 16.8813 11.1874L16.7197 12.0921L16.7639 12.1L16.9988 12.1404C17.0721 12.1521 17.1751 12.1637 17.3217 12.1751C17.6152 12.1963 17.8501 12.2082 18.0114 12.2082C19.3181 12.2082 19.9201 11.7933 19.9201 10.9C19.9201 10.3634 19.6705 10.0471 19.0538 9.80943C18.5254 9.61069 18.4668 9.5682 18.4668 9.38514C18.4668 9.17275 18.6723 9.06479 19.0688 9.06479C19.3181 9.06479 19.6558 9.08805 19.964 9.12472L20.1403 8.21774C19.8174 8.17526 19.3329 8.14062 19.0538 8.14062C17.6594 8.14063 17.1748 8.74265 17.1895 9.46428Z" fill="#231F20"/>
<path d="M11.4795 10.3982C11.3476 10.3845 11.2887 10.381 11.2004 10.381C10.5107 10.381 10.1583 10.5815 10.1583 10.977C10.1583 11.22 10.3344 11.3765 10.5987 11.3765C11.0977 11.3767 11.4648 10.9772 11.4795 10.3982ZM12.3161 12.1426H11.2885L11.3179 11.7355C10.995 12.0576 10.584 12.2101 10.0259 12.2101C9.35061 12.2101 8.89551 11.7739 8.89551 11.1411C8.89551 10.1861 9.68826 9.63029 11.0533 9.63029C11.2002 9.63029 11.3762 9.63965 11.5525 9.66089C11.5964 9.53168 11.6111 9.4758 11.6111 9.40627C11.6111 9.14583 11.3909 9.04925 10.8184 9.04925C10.466 9.04925 10.0698 9.09173 9.79073 9.15924L9.62913 9.19969L9.51168 9.22472L9.68772 8.34506C10.3042 8.19436 10.7004 8.13672 11.1555 8.13672C12.2123 8.13672 12.7704 8.53419 12.7704 9.28666C12.7704 9.47959 12.7557 9.62625 12.6677 10.0624L12.4181 11.4516L12.3742 11.7004L12.3448 11.8991L12.3153 12.0361V12.1426" fill="#231F20"/>
<path d="M15.7512 9.72648C15.7512 9.64557 15.7659 9.57806 15.7659 9.52774C15.7659 9.2094 15.5457 9.02204 15.1786 9.02204C14.7824 9.02204 14.5033 9.27286 14.4006 9.7242L15.7512 9.72648ZM16.3529 12.0575C15.9272 12.1657 15.516 12.2175 15.0903 12.2155C13.7106 12.2155 13.0059 11.6135 13.0059 10.4618C13.0059 9.11685 13.9161 8.12695 15.1492 8.12695C16.1619 8.12695 16.808 8.6807 16.808 9.55075C16.808 9.84051 16.7639 10.1199 16.6464 10.5174H14.2096C14.1949 10.5771 14.1949 10.6044 14.1949 10.6408C14.1949 11.0941 14.5619 11.3257 15.2811 11.3257C15.7215 11.3257 16.118 11.2506 16.5584 11.0787L16.3529 12.0575Z" fill="#231F20"/>
<path d="M28.2136 9.89814C28.2136 9.48903 28.0375 9.10115 27.5385 9.10115C26.9074 9.10115 26.5259 9.8152 26.5259 10.444C26.5259 10.9748 26.7899 11.3318 27.2306 11.3237C27.4947 11.3237 28.0672 10.9745 28.1699 10.3646C28.1988 10.2241 28.2136 10.0681 28.2136 9.89814ZM29.4614 10.3667C29.2851 11.6691 28.331 12.2463 27.0687 12.2463C25.6887 12.2463 25.1309 11.436 25.1309 10.4423C25.1309 9.05286 26.0705 8.11328 27.5385 8.11328C28.8156 8.11328 29.4911 8.887 29.4911 9.88095C29.4908 10.1219 29.4908 10.1391 29.4614 10.3667Z" fill="#231F20"/>
<path d="M29.8725 11.5394H29.9164C29.9164 11.5394 29.9314 11.5394 29.9459 11.5336C29.9603 11.5278 29.9606 11.5144 29.9606 11.5028C29.9606 11.4932 29.9606 11.4815 29.9459 11.476C29.9459 11.4702 29.9164 11.4702 29.902 11.4702H29.8725V11.5394ZM29.8725 11.6919H29.8137V11.4219H29.9311C29.9458 11.4219 29.9753 11.4239 30.0044 11.4375C30.0192 11.4509 30.0336 11.478 30.0336 11.505C30.0336 11.5339 30.0189 11.5629 29.9897 11.5743L30.0336 11.6922H29.9603L29.9162 11.586H29.8725V11.6919ZM29.9164 11.7903C30.0489 11.7903 30.1516 11.6861 30.1516 11.5566C30.1516 11.4292 30.0489 11.325 29.9164 11.325C29.7845 11.325 29.6671 11.4292 29.6671 11.5566C29.6671 11.6861 29.7845 11.7903 29.9164 11.7903ZM29.5938 11.5566C29.5938 11.3887 29.7406 11.252 29.9167 11.252C30.093 11.252 30.2396 11.3887 30.2396 11.5566C30.2396 11.7266 30.0927 11.8633 29.9167 11.8633C29.7404 11.8633 29.5938 11.7266 29.5938 11.5566Z" fill="white"/>
<path d="M8.64531 11.8648H7.41218L8.14606 8.16212L6.45783 11.8648H5.34215L5.13668 8.18538L4.40279 11.8648H3.28711L4.24119 7.04883H6.16407L6.25209 10.0319L7.61739 7.04883H9.61384L8.64531 11.8648Z" fill="white"/>
<path d="M22.3716 11.8188C22.0339 11.9076 21.7696 11.946 21.4905 11.946C20.8594 11.946 20.5215 11.6413 20.5215 11.0858C20.5215 10.9756 20.5362 10.8582 20.5509 10.7346L20.6242 10.3503L20.6828 10.0395L21.2556 7.04883H22.4741L22.298 7.94796H22.9292L22.7528 8.90119H22.1217L21.7988 10.5353C21.7841 10.6069 21.784 10.6608 21.784 10.6977C21.784 10.9005 21.9162 10.9872 22.2097 10.9872C22.3419 10.9872 22.4449 10.9756 22.5326 10.9503L22.3716 11.8188Z" fill="white"/>
<path d="M25.5279 9.07339L25.4988 8.95001L25.7484 8.33635C25.6893 8.33053 25.6601 8.32876 25.6601 8.32497C25.5868 8.31132 25.5574 8.30372 25.5427 8.30372C25.5135 8.29588 25.4693 8.29412 25.4255 8.29412C25.0145 8.29412 24.7355 8.4658 24.3537 8.92902L24.4861 8.23242H23.2088L22.46 12.1435H23.6786C23.84 11.2461 23.9135 10.7351 24.0163 10.3103C24.1776 9.60615 24.721 9.28579 25.1172 9.35709C25.1611 9.36493 25.1906 9.36493 25.2492 9.38616L25.3225 9.41297L25.5279 9.07339Z" fill="#231F20"/>
<path d="M25.9533 7.97965C25.8505 7.94097 25.8358 7.94096 25.8214 7.93717C25.7623 7.92351 25.7184 7.91593 25.7184 7.91391C25.6745 7.9081 25.6303 7.9043 25.5862 7.9043C25.19 7.9043 24.8965 8.07801 24.5147 8.54123L24.6321 7.94678H23.5164L22.7676 11.8636H24.0007C24.4411 9.46917 24.6318 9.04869 25.2191 9.04869C25.2633 9.04869 25.3071 9.05249 25.366 9.0583L25.5129 9.08713L25.9533 7.97965Z" fill="white"/>
<path d="M17.4979 9.18725C17.4979 9.68106 17.7914 10.0227 18.4522 10.2793C18.9512 10.4743 19.0248 10.5322 19.0248 10.7117C19.0248 10.9547 18.8046 11.0647 18.3201 11.0647C17.9383 11.0647 17.6006 11.0164 17.2044 10.9102L17.0283 11.8133L17.0869 11.8227L17.3071 11.8611C17.3804 11.875 17.4981 11.8864 17.6448 11.8963C17.9383 11.9175 18.1585 11.9289 18.3201 11.9289C19.6409 11.9289 20.2429 11.516 20.2429 10.6227C20.2429 10.0844 19.9936 9.76983 19.3622 9.5324C18.8485 9.33366 18.7893 9.28941 18.7893 9.10584C18.7893 8.89548 18.9951 8.7875 19.3913 8.7875C19.6407 8.7875 19.9639 8.80874 20.2868 8.8454L20.4628 7.93869C20.1399 7.89621 19.6557 7.86133 19.3622 7.86133C17.9824 7.86158 17.4979 8.4636 17.4979 9.18725Z" fill="white"/>
<path d="M11.7431 10.1208C11.6109 10.1074 11.5521 10.1054 11.464 10.1054C10.774 10.1054 10.4217 10.3059 10.4217 10.7013C10.4217 10.9446 10.5833 11.1008 10.8621 11.1008C11.3613 11.1011 11.7137 10.6996 11.7431 10.1208ZM12.6383 11.8649H11.6107L11.6401 11.4599C11.3319 11.7817 10.9062 11.9324 10.3481 11.9324C9.68752 11.9324 9.23242 11.4963 9.23242 10.8634C9.23242 9.9099 10.0252 9.35263 11.3902 9.35263C11.5224 9.35263 11.6984 9.36401 11.8892 9.38348C11.9186 9.25402 11.9331 9.20016 11.9331 9.12885C11.9331 8.87019 11.7129 8.77386 11.1403 8.77386C10.788 8.77386 10.3914 8.81431 10.1274 8.88182L9.95133 8.9243L9.84859 8.94959L10.0102 8.06765C10.6266 7.9172 11.0229 7.86133 11.478 7.86133C12.5348 7.86133 13.0929 8.25881 13.0929 9.00951C13.0929 9.20244 13.0782 9.34909 13.0049 9.785L12.7405 11.1764L12.6966 11.4252L12.6672 11.624L12.6525 11.7587L12.6383 11.8649Z" fill="white"/>
<path d="M16.0147 9.45107C16.0147 9.36814 16.0147 9.3024 16.0147 9.25031C16.0147 8.93198 15.8092 8.74664 15.4421 8.74664C15.0459 8.74664 14.7668 8.99544 14.6493 9.44905L16.0147 9.45107ZM16.6608 11.7818C16.2496 11.888 15.8386 11.9401 15.4127 11.9401C14.0329 11.9401 13.3135 11.3381 13.3135 10.1843C13.3135 8.84145 14.2234 7.85156 15.4565 7.85156C16.4695 7.85156 17.1153 8.40529 17.1153 9.27357C17.1153 9.56308 17.0712 9.84476 16.9682 10.242H14.5316C14.5169 10.3019 14.5169 10.329 14.5169 10.3654C14.5169 10.819 14.8837 11.0506 15.5885 11.0506C16.0288 11.0506 16.4253 10.9732 16.8655 10.8015L16.6608 11.7818Z" fill="white"/>
<path d="M28.5074 9.58792C28.5074 9.17882 28.3314 8.7912 27.8324 8.7912C27.2013 8.7912 26.8197 9.50498 26.8197 10.1341C26.8197 10.6666 27.0841 11.0238 27.5245 11.0158C27.7888 11.0158 28.3611 10.6666 28.4638 10.0567C28.493 9.91385 28.5074 9.75784 28.5074 9.58792ZM29.7847 10.0898C29.5937 11.392 28.654 11.9708 27.392 11.9708C25.9973 11.9708 25.4395 11.1584 25.4395 10.1647C25.4395 8.7773 26.3935 7.83594 27.8618 7.83594C29.1386 7.83594 29.8141 8.60965 29.8141 9.60334C29.8141 9.84633 29.8141 9.86201 29.7847 10.0898Z" fill="white"/>
</g>
<defs>
<clipPath id="clip0">
<rect width="33" height="19" fill="white"/>
</clipPath>
</defs>
</svg>
