<svg width="56" height="16" viewBox="0 0 56 16" fill="none" xmlns="http://www.w3.org/2000/svg">
<path fill-rule="evenodd" clip-rule="evenodd" d="M8.89692 1.73461C9.33718 1.7321 10.6456 1.61987 11.1998 3.40131C11.5732 4.60131 12.1679 6.56696 12.9839 9.29828H13.3163C14.1914 6.41874 14.7926 4.45308 15.1198 3.40131C15.6798 1.60131 17.0798 1.73464 17.6398 1.73464L21.9604 1.73465V14.5346H17.5568V6.99138H17.2615L14.8067 14.5346H11.4935L9.03874 6.98579H8.74345V14.5346H4.33984V1.73465L8.89692 1.73461ZM28.2839 1.73465V9.2835H28.6352L31.6212 3.07613C32.2008 1.84085 33.4362 1.73465 33.4362 1.73465H37.6976V14.5346H33.202V6.98579H32.8507L29.9233 13.1932C29.3436 14.4229 28.0497 14.5346 28.0497 14.5346H23.7883V1.73465H28.2839ZM53.2363 7.81729C52.6092 9.50968 50.6399 10.7217 48.4596 10.7217H43.7452V14.5346H39.4701V7.81729H53.2363Z" fill="#0F754E"/>
<path fill-rule="evenodd" clip-rule="evenodd" d="M48.666 1.73438H39.2461C39.4703 4.58409 42.0471 7.02363 44.7146 7.02363H53.5335C54.0424 4.65518 52.2905 1.73438 48.666 1.73438Z" fill="url(#paint0_linear)"/>
<defs>
<linearGradient id="paint0_linear" x1="53.62" y1="5.06154" x2="39.2461" y2="5.06154" gradientUnits="userSpaceOnUse">
<stop stop-color="#1F5CD7"/>
<stop offset="1" stop-color="#02AEFF"/>
</linearGradient>
</defs>
</svg>
