<svg width="33" height="33" viewBox="0 0 33 33" fill="none" xmlns="http://www.w3.org/2000/svg">
<circle cx="16.5" cy="16.5" r="16.5" fill="#BFC6E0"/>
<path d="M16.6784 7C14.7536 7 12.872 7.58649 11.2715 8.6853C9.6711 9.78412 8.42371 11.3459 7.68711 13.1732C6.95051 15.0004 6.75778 17.0111 7.13329 18.9509C7.50881 20.8907 8.43571 22.6725 9.79677 24.0711C11.1578 25.4696 12.8919 26.422 14.7798 26.8079C16.6676 27.1937 18.6245 26.9957 20.4028 26.2388C22.1811 25.4819 23.701 24.2002 24.7704 22.5557C25.8398 20.9112 26.4106 18.9778 26.4106 17C26.4106 15.6868 26.1589 14.3864 25.6698 13.1732C25.1807 11.9599 24.4638 10.8575 23.5601 9.92893C22.6564 9.00035 21.5835 8.26375 20.4028 7.7612C19.222 7.25866 17.9565 7 16.6784 7ZM16.6784 25C15.1386 25 13.6333 24.5308 12.3529 23.6518C11.0726 22.7727 10.0747 21.5233 9.48537 20.0615C8.89609 18.5997 8.74191 16.9911 9.04232 15.4393C9.34274 13.8874 10.0843 12.462 11.1731 11.3431C12.262 10.2243 13.6492 9.4624 15.1595 9.15372C16.6698 8.84504 18.2352 9.00346 19.6579 9.60896C21.0806 10.2145 22.2965 11.2398 23.152 12.5554C24.0075 13.871 24.4642 15.4177 24.4642 17C24.4642 19.1217 23.6439 21.1566 22.1838 22.6569C20.7237 24.1571 18.7433 25 16.6784 25ZM18.7222 14.63L17.6517 15.27V12C17.6517 11.7348 17.5491 11.4804 17.3666 11.2929C17.1841 11.1054 16.9365 11 16.6784 11C16.4203 11 16.1728 11.1054 15.9903 11.2929C15.8078 11.4804 15.7052 11.7348 15.7052 12V17C15.7052 17 15.7052 17 15.7052 17.06C15.7006 17.1266 15.7006 17.1934 15.7052 17.26C15.7203 17.3214 15.7398 17.3816 15.7636 17.44C15.7636 17.44 15.7636 17.44 15.7636 17.5C15.8101 17.5709 15.8622 17.6378 15.9193 17.7C15.9979 17.7801 16.0903 17.8445 16.1918 17.89H16.2697C16.3965 17.957 16.536 17.9945 16.6784 18C16.7919 17.9967 16.9038 17.973 17.0093 17.93H17.0969H17.165L19.6954 16.43C19.92 16.2974 20.0841 16.0786 20.1516 15.8216C20.2191 15.5647 20.1845 15.2907 20.0555 15.06C19.9264 14.8293 19.7135 14.6607 19.4634 14.5913C19.2134 14.5219 18.9467 14.5574 18.7222 14.69V14.63Z" fill="white"/>
</svg>
