<svg width="185" height="114" viewBox="0 0 185 114" fill="none" xmlns="http://www.w3.org/2000/svg">
<path fill-rule="evenodd" clip-rule="evenodd" d="M157.784 62C157.927 60.3524 158 58.6847 158 57C158 25.5198 132.48 0 101 0C78.9539 0 59.8311 12.5159 50.3494 30.8299C47.651 30.2856 44.8589 30 42 30C18.804 30 0 48.804 0 72C0 92.0306 14.0221 108.786 32.7859 112.986C35.0765 113.646 37.4969 114 40 114H42H101H159C173.359 114 185 102.359 185 88C185 73.6406 173.359 62 159 62H157.784Z" fill="#D8DCE9"/>
<path fill-rule="evenodd" clip-rule="evenodd" d="M98.0639 38.807C98.8998 37.6128 100.546 37.3223 101.74 38.1582C102.934 38.9941 103.224 40.6398 102.388 41.8341L95.0755 52.2818L108.049 61.363L115.362 50.9152C116.198 49.721 117.844 49.4305 119.038 50.2664C120.232 51.1023 120.523 52.7481 119.687 53.9423L112.374 64.39L115.596 66.6453L109.542 75.2945C104.895 81.9329 96.3987 84.275 89.1805 81.4157L83.2337 89.9115L76.7468 85.371L82.6865 76.8852C77.4965 71.0823 76.7745 62.2723 81.4318 55.6186L87.4859 46.9694L90.7509 49.2547L98.0639 38.807Z" fill="#EAEDF6"/>
</svg>
