<svg width="27" height="27" viewBox="0 0 27 27" fill="none" xmlns="http://www.w3.org/2000/svg">
<path d="M24.0874 3.90727H20.111V0.749557C20.111 0.334908 19.7761 0 19.3614 0H3.74834C3.33369 0 2.99878 0.334908 2.99878 0.749557V21.5245C2.99878 21.9392 3.33369 22.2741 3.74834 22.2741H6.90073V26.2504C6.90073 26.6651 7.23564 27 7.65028 27H18.9893C19.186 27 19.3774 26.9203 19.5209 26.782L24.6137 21.6893C24.7519 21.5511 24.8316 21.3597 24.8316 21.1577V4.65682C24.8369 4.24217 24.502 3.90727 24.0874 3.90727ZM6.90073 4.65682V20.775H4.49789V1.49911H18.6119V3.90727H7.6556C7.24095 3.90727 6.90073 4.24217 6.90073 4.65682ZM19.7442 24.443V21.9073H22.2799L19.7442 24.443ZM23.3378 20.4082H18.9946C18.58 20.4082 18.2451 20.7431 18.2451 21.1577V25.5009H8.40516V5.40638H23.3378V20.4082Z" fill="#C1C1C1"/>
<path d="M20.477 8.02734H10.4351C10.0205 8.02734 9.68555 8.36225 9.68555 8.7769C9.68555 9.19155 10.0205 9.52646 10.4351 9.52646H20.477C20.8917 9.52646 21.2266 9.19155 21.2266 8.7769C21.2266 8.36225 20.8917 8.02734 20.477 8.02734Z" fill="#C1C1C1"/>
<path d="M20.477 12.2207H10.4351C10.0205 12.2207 9.68555 12.5556 9.68555 12.9703C9.68555 13.3849 10.0205 13.7198 10.4351 13.7198H20.477C20.8917 13.7198 21.2266 13.3849 21.2266 12.9703C21.2266 12.5556 20.8917 12.2207 20.477 12.2207Z" fill="#C1C1C1"/>
<path d="M20.477 16.4102H10.4351C10.0205 16.4102 9.68555 16.7451 9.68555 17.1597C9.68555 17.5744 10.0205 17.9093 10.4351 17.9093H20.477C20.8917 17.9093 21.2266 17.5744 21.2266 17.1597C21.2266 16.7451 20.8917 16.4102 20.477 16.4102Z" fill="#C1C1C1"/>
<path d="M15.0547 20.5996H10.4351C10.0205 20.5996 9.68555 20.9345 9.68555 21.3492C9.68555 21.7638 10.0205 22.0987 10.4351 22.0987H15.0547C15.4694 22.0987 15.8043 21.7638 15.8043 21.3492C15.8043 20.9345 15.4694 20.5996 15.0547 20.5996Z" fill="#C1C1C1"/>
</svg>
