<svg width="301" height="182" viewBox="0 0 301 182" fill="none" xmlns="http://www.w3.org/2000/svg">
<g filter="url(#filter0_d)">
<rect x="8" y="6" width="285" height="166.25" rx="1.9" fill="white"/>
<path d="M33.6976 72.4766H33.0667V67.6115H31.3486V67.0512H35.4157V67.6115H33.6976V72.4766ZM40.0336 70.4393C40.0336 71.1023 39.8666 71.6206 39.5327 71.9941C39.1987 72.3652 38.7373 72.5508 38.1485 72.5508C37.7848 72.5508 37.462 72.4654 37.1799 72.2947C36.8979 72.124 36.6802 71.8791 36.5268 71.56C36.3734 71.2408 36.2967 70.8673 36.2967 70.4393C36.2967 69.7762 36.4625 69.2604 36.794 68.8918C37.1255 68.5207 37.5857 68.3352 38.1745 68.3352C38.7435 68.3352 39.195 68.5244 39.5289 68.9029C39.8654 69.2814 40.0336 69.7936 40.0336 70.4393ZM36.935 70.4393C36.935 70.9588 37.0389 71.3546 37.2467 71.6268C37.4545 71.8989 37.7601 72.035 38.1633 72.035C38.5666 72.035 38.8721 71.9001 39.0799 71.6305C39.2902 71.3583 39.3954 70.9613 39.3954 70.4393C39.3954 69.9222 39.2902 69.5301 39.0799 69.2629C38.8721 68.9932 38.5641 68.8584 38.1559 68.8584C37.7526 68.8584 37.4483 68.9908 37.243 69.2555C37.0377 69.5202 36.935 69.9148 36.935 70.4393ZM44.7963 69.4299C44.7963 69.6946 44.7196 69.8962 44.5662 70.0348C44.4153 70.1708 44.2025 70.2624 43.9279 70.3094V70.3428C44.2742 70.3898 44.5266 70.4912 44.6849 70.6471C44.8457 70.8029 44.9261 71.0182 44.9261 71.2928C44.9261 71.6713 44.7864 71.9632 44.5068 72.1686C44.2297 72.3739 43.824 72.4766 43.2896 72.4766H41.4972V68.4094H43.2822C44.2916 68.4094 44.7963 68.7495 44.7963 69.4299ZM44.3101 71.252C44.3101 71.0318 44.226 70.8722 44.0578 70.7732C43.892 70.6718 43.6162 70.6211 43.2302 70.6211H42.1132V71.9607H43.2451C43.9551 71.9607 44.3101 71.7245 44.3101 71.252ZM44.1951 69.4893C44.1951 69.2913 44.1184 69.1516 43.965 69.0699C43.8141 68.9858 43.584 68.9438 43.2748 68.9438H42.1132V70.0904H43.156C43.537 70.0904 43.8054 70.0434 43.9613 69.9494C44.1172 69.8554 44.1951 69.702 44.1951 69.4893ZM48.7054 72.4766L48.5829 71.8977H48.5532C48.3503 72.1525 48.1475 72.3257 47.9446 72.4172C47.7442 72.5062 47.4931 72.5508 47.1913 72.5508C46.788 72.5508 46.4714 72.4469 46.2413 72.2391C46.0137 72.0313 45.8999 71.7356 45.8999 71.3521C45.8999 70.5308 46.5567 70.1003 47.8704 70.0607L48.5606 70.0385V69.7861C48.5606 69.467 48.4914 69.232 48.3528 69.0811C48.2167 68.9277 47.9978 68.851 47.696 68.851C47.357 68.851 46.9736 68.9549 46.5456 69.1627L46.3563 68.6914C46.5567 68.5826 46.7757 68.4972 47.0132 68.4354C47.2531 68.3735 47.4931 68.3426 47.7331 68.3426C48.218 68.3426 48.5767 68.4502 48.8093 68.6654C49.0443 68.8807 49.1618 69.2258 49.1618 69.7008V72.4766H48.7054ZM47.3138 72.0424C47.6972 72.0424 47.9978 71.9372 48.2155 71.727C48.4357 71.5167 48.5458 71.2223 48.5458 70.8438V70.4764L47.9298 70.5023C47.4399 70.5197 47.0861 70.5964 46.8684 70.7324C46.6532 70.866 46.5456 71.0751 46.5456 71.3596C46.5456 71.5822 46.6124 71.7517 46.746 71.868C46.882 71.9842 47.0713 72.0424 47.3138 72.0424ZM52.7072 72.5508C52.4425 72.5508 52.2001 72.5025 51.9799 72.4061C51.7622 72.3071 51.5791 72.1562 51.4307 71.9533H51.3861C51.4158 72.1908 51.4307 72.416 51.4307 72.6287V74.3023H50.8147V68.4094H51.3156L51.401 68.966H51.4307C51.589 68.7434 51.7733 68.5826 51.9836 68.4836C52.1939 68.3846 52.4351 68.3352 52.7072 68.3352C53.2466 68.3352 53.6622 68.5195 53.9541 68.8881C54.2485 69.2567 54.3957 69.7738 54.3957 70.4393C54.3957 71.1072 54.246 71.6268 53.9467 71.9979C53.6498 72.3665 53.2367 72.5508 52.7072 72.5508ZM52.6182 68.8584C52.2025 68.8584 51.902 68.9734 51.7164 69.2035C51.5309 69.4336 51.4356 69.7997 51.4307 70.302V70.4393C51.4307 71.0107 51.5259 71.4202 51.7164 71.6676C51.9069 71.9125 52.2124 72.035 52.633 72.035C52.9843 72.035 53.2589 71.8927 53.4568 71.6082C53.6572 71.3237 53.7574 70.9316 53.7574 70.4318C53.7574 69.9247 53.6572 69.5363 53.4568 69.2666C53.2589 68.9945 52.9794 68.8584 52.6182 68.8584ZM56.4716 70.0904H57.5812C58.0982 70.0904 58.4805 70.1869 58.7279 70.3799C58.9777 70.5704 59.1027 70.8561 59.1027 71.2371C59.1027 71.6453 58.9703 71.9546 58.7056 72.1648C58.4433 72.3727 58.0562 72.4766 57.5441 72.4766H55.8556V68.4094H56.4716V70.0904ZM60.4015 72.4766H59.7855V68.4094H60.4015V72.4766ZM56.4716 70.6211V71.9607H57.5144C58.1675 71.9607 58.4941 71.7319 58.4941 71.2742C58.4941 71.0466 58.4186 70.8809 58.2677 70.777C58.1168 70.673 57.8595 70.6211 57.4958 70.6211H56.4716ZM61.7426 70.3947C61.7426 69.7391 61.8379 69.1256 62.0284 68.5541C62.2213 67.9826 62.4984 67.4816 62.8596 67.0512H63.4608C63.1045 67.5286 62.8361 68.0531 62.6555 68.6246C62.4774 69.1961 62.3883 69.7837 62.3883 70.3873C62.3883 70.9811 62.4799 71.5612 62.6629 72.1277C62.846 72.6943 63.1095 73.2113 63.4534 73.6789H62.8596C62.4959 73.2583 62.2189 72.7673 62.0284 72.2057C61.8379 71.6441 61.7426 71.0404 61.7426 70.3947ZM64.0746 68.4094H64.7351L65.6257 70.7287C65.8212 71.2581 65.9424 71.6404 65.9894 71.8754H66.0191C66.0513 71.7492 66.1181 71.534 66.2195 71.2297C66.3234 70.9229 66.6599 69.9828 67.2289 68.4094H67.8894L66.1416 73.0406C65.9684 73.4983 65.7655 73.8224 65.533 74.0129C65.3029 74.2059 65.0196 74.3023 64.6832 74.3023C64.4951 74.3023 64.3096 74.2813 64.1265 74.2393V73.7457C64.2626 73.7754 64.4147 73.7902 64.583 73.7902C65.006 73.7902 65.3078 73.5527 65.4884 73.0777L65.7148 72.4988L64.0746 68.4094ZM70.5554 72.5508C69.9666 72.5508 69.5101 72.3702 69.186 72.009C68.8644 71.6453 68.7036 71.132 68.7036 70.4689C68.7036 69.7886 68.8669 69.2629 69.1934 68.8918C69.5225 68.5207 69.9901 68.3352 70.5962 68.3352C70.7916 68.3352 70.9871 68.3562 71.1825 68.3982C71.3779 68.4403 71.5313 68.4898 71.6427 68.5467L71.4534 69.0699C71.3173 69.0155 71.1689 68.971 71.0081 68.9363C70.8473 68.8992 70.705 68.8807 70.5813 68.8807C69.755 68.8807 69.3419 69.4076 69.3419 70.4615C69.3419 70.9613 69.4421 71.3447 69.6425 71.6119C69.8453 71.8791 70.1447 72.0127 70.5405 72.0127C70.8794 72.0127 71.227 71.9397 71.5833 71.7938V72.3393C71.3112 72.4803 70.9685 72.5508 70.5554 72.5508ZM75.9637 72.4766H75.3402V68.9363H74.1193C74.0525 69.8171 73.9598 70.516 73.841 71.033C73.7223 71.5501 73.5676 71.9286 73.3772 72.1686C73.1891 72.4085 72.9492 72.5285 72.6572 72.5285C72.5236 72.5285 72.4173 72.5137 72.3381 72.484V72.0275C72.3925 72.0424 72.4544 72.0498 72.5236 72.0498C72.8081 72.0498 73.0345 71.7492 73.2027 71.148C73.371 70.5469 73.4984 69.634 73.585 68.4094H75.9637V72.4766ZM77.0079 68.4094H77.6685L78.5591 70.7287C78.7545 71.2581 78.8758 71.6404 78.9228 71.8754H78.9525C78.9846 71.7492 79.0514 71.534 79.1529 71.2297C79.2568 70.9229 79.5932 69.9828 80.1622 68.4094H80.8228L79.0749 73.0406C78.9017 73.4983 78.6989 73.8224 78.4663 74.0129C78.2363 74.2059 77.953 74.3023 77.6165 74.3023C77.4285 74.3023 77.243 74.2813 77.0599 74.2393V73.7457C77.196 73.7754 77.3481 73.7902 77.5163 73.7902C77.9394 73.7902 78.2412 73.5527 78.4218 73.0777L78.6482 72.4988L77.0079 68.4094ZM84.3125 68.9363H82.4793V72.4766H81.8633V68.4094H84.3125V68.9363ZM86.0804 68.4094V70.9885L86.0545 71.6639L86.0433 71.8754L88.2439 68.4094H89.0121V72.4766H88.4369V69.9902L88.448 69.5004L88.4666 69.018L86.2697 72.4766H85.5015V68.4094H86.0804ZM91.9897 70.3947C91.9897 71.0454 91.8932 71.6515 91.7003 72.2131C91.5098 72.7747 91.2339 73.2633 90.8727 73.6789H90.279C90.6229 73.2138 90.8863 72.698 91.0694 72.1314C91.2525 71.5624 91.344 70.9811 91.344 70.3873C91.344 69.7837 91.2537 69.1961 91.0731 68.6246C90.895 68.0531 90.6278 67.5286 90.2716 67.0512H90.8727C91.2364 67.4841 91.5135 67.9876 91.704 68.5615C91.8945 69.133 91.9897 69.7441 91.9897 70.3947ZM99.1919 70.4393C99.1919 71.1023 99.0249 71.6206 98.6909 71.9941C98.357 72.3652 97.8956 72.5508 97.3068 72.5508C96.9431 72.5508 96.6202 72.4654 96.3382 72.2947C96.0562 72.124 95.8385 71.8791 95.6851 71.56C95.5317 71.2408 95.455 70.8673 95.455 70.4393C95.455 69.7762 95.6208 69.2604 95.9523 68.8918C96.2838 68.5207 96.7439 68.3352 97.3327 68.3352C97.9017 68.3352 98.3532 68.5244 98.6872 68.9029C99.0237 69.2814 99.1919 69.7936 99.1919 70.4393ZM96.0933 70.4393C96.0933 70.9588 96.1972 71.3546 96.405 71.6268C96.6128 71.8989 96.9183 72.035 97.3216 72.035C97.7249 72.035 98.0304 71.9001 98.2382 71.6305C98.4485 71.3583 98.5536 70.9613 98.5536 70.4393C98.5536 69.9222 98.4485 69.5301 98.2382 69.2629C98.0304 68.9932 97.7224 68.8584 97.3142 68.8584C96.9109 68.8584 96.6066 68.9908 96.4013 69.2555C96.196 69.5202 96.0933 69.9148 96.0933 70.4393ZM103.398 68.9363H102.077V72.4766H101.461V68.9363H100.155V68.4094H103.398V68.9363ZM105.199 72.4766H104.583V68.4094H107.997V72.4766H107.374V68.9438H105.199V72.4766ZM111.576 72.5508C111.311 72.5508 111.069 72.5025 110.849 72.4061C110.631 72.3071 110.448 72.1562 110.299 71.9533H110.255C110.285 72.1908 110.299 72.416 110.299 72.6287V74.3023H109.683V68.4094H110.184L110.27 68.966H110.299C110.458 68.7434 110.642 68.5826 110.852 68.4836C111.063 68.3846 111.304 68.3352 111.576 68.3352C112.115 68.3352 112.531 68.5195 112.823 68.8881C113.117 69.2567 113.265 69.7738 113.265 70.4393C113.265 71.1072 113.115 71.6268 112.816 71.9979C112.519 72.3665 112.105 72.5508 111.576 72.5508ZM111.487 68.8584C111.071 68.8584 110.771 68.9734 110.585 69.2035C110.4 69.4336 110.304 69.7997 110.299 70.302V70.4393C110.299 71.0107 110.395 71.4202 110.585 71.6676C110.776 71.9125 111.081 72.035 111.502 72.035C111.853 72.035 112.128 71.8927 112.326 71.6082C112.526 71.3237 112.626 70.9316 112.626 70.4318C112.626 69.9247 112.526 69.5363 112.326 69.2666C112.128 68.9945 111.848 68.8584 111.487 68.8584ZM117.226 72.4766L117.103 71.8977H117.073C116.871 72.1525 116.668 72.3257 116.465 72.4172C116.264 72.5062 116.013 72.5508 115.712 72.5508C115.308 72.5508 114.992 72.4469 114.762 72.2391C114.534 72.0313 114.42 71.7356 114.42 71.3521C114.42 70.5308 115.077 70.1003 116.391 70.0607L117.081 70.0385V69.7861C117.081 69.467 117.012 69.232 116.873 69.0811C116.737 68.9277 116.518 68.851 116.216 68.851C115.877 68.851 115.494 68.9549 115.066 69.1627L114.877 68.6914C115.077 68.5826 115.296 68.4972 115.533 68.4354C115.773 68.3735 116.013 68.3426 116.253 68.3426C116.738 68.3426 117.097 68.4502 117.329 68.6654C117.565 68.8807 117.682 69.2258 117.682 69.7008V72.4766H117.226ZM115.834 72.0424C116.217 72.0424 116.518 71.9372 116.736 71.727C116.956 71.5167 117.066 71.2223 117.066 70.8438V70.4764L116.45 70.5023C115.96 70.5197 115.606 70.5964 115.389 70.7324C115.173 70.866 115.066 71.0751 115.066 71.3596C115.066 71.5822 115.133 71.7517 115.266 71.868C115.402 71.9842 115.592 72.0424 115.834 72.0424ZM122.634 69.4299C122.634 69.6946 122.557 69.8962 122.404 70.0348C122.253 70.1708 122.04 70.2624 121.766 70.3094V70.3428C122.112 70.3898 122.364 70.4912 122.523 70.6471C122.683 70.8029 122.764 71.0182 122.764 71.2928C122.764 71.6713 122.624 71.9632 122.344 72.1686C122.067 72.3739 121.662 72.4766 121.127 72.4766H119.335V68.4094H121.12C122.129 68.4094 122.634 68.7495 122.634 69.4299ZM122.148 71.252C122.148 71.0318 122.064 70.8722 121.895 70.7732C121.73 70.6718 121.454 70.6211 121.068 70.6211H119.951V71.9607H121.083C121.793 71.9607 122.148 71.7245 122.148 71.252ZM122.033 69.4893C122.033 69.2913 121.956 69.1516 121.803 69.0699C121.652 68.9858 121.422 68.9438 121.112 68.9438H119.951V70.0904H120.994C121.375 70.0904 121.643 70.0434 121.799 69.9494C121.955 69.8554 122.033 69.702 122.033 69.4893ZM127.074 72.4766H126.45V68.9363H125.229C125.163 69.8171 125.07 70.516 124.951 71.033C124.832 71.5501 124.678 71.9286 124.487 72.1686C124.299 72.4085 124.059 72.5285 123.767 72.5285C123.634 72.5285 123.527 72.5137 123.448 72.484V72.0275C123.503 72.0424 123.564 72.0498 123.634 72.0498C123.918 72.0498 124.145 71.7492 124.313 71.148C124.481 70.5469 124.608 69.634 124.695 68.4094H127.074V72.4766ZM130.482 72.5508C129.881 72.5508 129.406 72.3677 129.057 72.0016C128.71 71.6354 128.537 71.127 128.537 70.4764C128.537 69.8208 128.698 69.3 129.02 68.9141C129.344 68.5281 129.778 68.3352 130.322 68.3352C130.832 68.3352 131.235 68.5034 131.532 68.8398C131.829 69.1738 131.977 69.6154 131.977 70.1646V70.5543H129.176C129.188 71.0318 129.308 71.3942 129.536 71.6416C129.766 71.889 130.088 72.0127 130.504 72.0127C130.942 72.0127 131.375 71.9212 131.803 71.7381V72.2873C131.585 72.3813 131.379 72.4481 131.183 72.4877C130.99 72.5298 130.756 72.5508 130.482 72.5508ZM130.315 68.851C129.988 68.851 129.727 68.9574 129.532 69.1701C129.339 69.3829 129.225 69.6773 129.19 70.0533H131.317C131.317 69.6649 131.23 69.368 131.057 69.1627C130.884 68.9549 130.636 68.851 130.315 68.851ZM134.027 68.4094V70.1127H136.306V68.4094H136.922V72.4766H136.306V70.6434H134.027V72.4766H133.411V68.4094H134.027ZM139.224 70.0904H140.334C140.851 70.0904 141.233 70.1869 141.48 70.3799C141.73 70.5704 141.855 70.8561 141.855 71.2371C141.855 71.6453 141.723 71.9546 141.458 72.1648C141.196 72.3727 140.809 72.4766 140.296 72.4766H138.608V68.4094H139.224V70.0904ZM143.154 72.4766H142.538V68.4094H143.154V72.4766ZM139.224 70.6211V71.9607H140.267C140.92 71.9607 141.246 71.7319 141.246 71.2742C141.246 71.0466 141.171 70.8809 141.02 70.777C140.869 70.673 140.612 70.6211 140.248 70.6211H139.224ZM147.814 68.4094V70.1127H150.093V68.4094H150.709V72.4766H150.093V70.6434H147.814V72.4766H147.198V68.4094H147.814ZM154.896 72.4766L154.774 71.8977H154.744C154.541 72.1525 154.338 72.3257 154.135 72.4172C153.935 72.5062 153.684 72.5508 153.382 72.5508C152.979 72.5508 152.662 72.4469 152.432 72.2391C152.204 72.0313 152.091 71.7356 152.091 71.3521C152.091 70.5308 152.747 70.1003 154.061 70.0607L154.751 70.0385V69.7861C154.751 69.467 154.682 69.232 154.544 69.0811C154.407 68.9277 154.189 68.851 153.887 68.851C153.548 68.851 153.164 68.9549 152.736 69.1627L152.547 68.6914C152.747 68.5826 152.966 68.4972 153.204 68.4354C153.444 68.3735 153.684 68.3426 153.924 68.3426C154.409 68.3426 154.767 68.4502 155 68.6654C155.235 68.8807 155.353 69.2258 155.353 69.7008V72.4766H154.896ZM153.504 72.0424C153.888 72.0424 154.189 71.9372 154.406 71.727C154.626 71.5167 154.736 71.2223 154.736 70.8438V70.4764L154.12 70.5023C153.631 70.5197 153.277 70.5964 153.059 70.7324C152.844 70.866 152.736 71.0751 152.736 71.3596C152.736 71.5822 152.803 71.7517 152.937 71.868C153.073 71.9842 153.262 72.0424 153.504 72.0424ZM161.252 72.5508C160.987 72.5508 160.745 72.5025 160.525 72.4061C160.307 72.3071 160.124 72.1562 159.976 71.9533H159.931C159.961 72.1908 159.976 72.416 159.976 72.6287V74.3023H159.36V68.4094H159.861L159.946 68.966H159.976C160.134 68.7434 160.318 68.5826 160.529 68.4836C160.739 68.3846 160.98 68.3352 161.252 68.3352C161.791 68.3352 162.207 68.5195 162.499 68.8881C162.793 69.2567 162.941 69.7738 162.941 70.4393C162.941 71.1072 162.791 71.6268 162.492 71.9979C162.195 72.3665 161.782 72.5508 161.252 72.5508ZM161.163 68.8584C160.747 68.8584 160.447 68.9734 160.261 69.2035C160.076 69.4336 159.981 69.7997 159.976 70.302V70.4393C159.976 71.0107 160.071 71.4202 160.261 71.6676C160.452 71.9125 160.757 72.035 161.178 72.035C161.529 72.035 161.804 71.8927 162.002 71.6082C162.202 71.3237 162.302 70.9316 162.302 70.4318C162.302 69.9247 162.202 69.5363 162.002 69.2666C161.804 68.9945 161.524 68.8584 161.163 68.8584ZM166.902 72.4766L166.779 71.8977H166.75C166.547 72.1525 166.344 72.3257 166.141 72.4172C165.941 72.5062 165.689 72.5508 165.388 72.5508C164.984 72.5508 164.668 72.4469 164.438 72.2391C164.21 72.0313 164.096 71.7356 164.096 71.3521C164.096 70.5308 164.753 70.1003 166.067 70.0607L166.757 70.0385V69.7861C166.757 69.467 166.688 69.232 166.549 69.0811C166.413 68.9277 166.194 68.851 165.892 68.851C165.553 68.851 165.17 68.9549 164.742 69.1627L164.553 68.6914C164.753 68.5826 164.972 68.4972 165.209 68.4354C165.449 68.3735 165.689 68.3426 165.929 68.3426C166.414 68.3426 166.773 68.4502 167.006 68.6654C167.241 68.8807 167.358 69.2258 167.358 69.7008V72.4766H166.902ZM165.51 72.0424C165.894 72.0424 166.194 71.9372 166.412 71.727C166.632 71.5167 166.742 71.2223 166.742 70.8438V70.4764L166.126 70.5023C165.636 70.5197 165.282 70.5964 165.065 70.7324C164.85 70.866 164.742 71.0751 164.742 71.3596C164.742 71.5822 164.809 71.7517 164.942 71.868C165.078 71.9842 165.268 72.0424 165.51 72.0424ZM170.636 72.5508C170.048 72.5508 169.591 72.3702 169.267 72.009C168.945 71.6453 168.785 71.132 168.785 70.4689C168.785 69.7886 168.948 69.2629 169.274 68.8918C169.603 68.5207 170.071 68.3352 170.677 68.3352C170.873 68.3352 171.068 68.3562 171.264 68.3982C171.459 68.4403 171.612 68.4898 171.724 68.5467L171.534 69.0699C171.398 69.0155 171.25 68.971 171.089 68.9363C170.928 68.8992 170.786 68.8807 170.662 68.8807C169.836 68.8807 169.423 69.4076 169.423 70.4615C169.423 70.9613 169.523 71.3447 169.723 71.6119C169.926 71.8791 170.226 72.0127 170.622 72.0127C170.96 72.0127 171.308 71.9397 171.664 71.7938V72.3393C171.392 72.4803 171.05 72.5508 170.636 72.5508ZM174.638 72.5508C174.049 72.5508 173.593 72.3702 173.269 72.009C172.947 71.6453 172.786 71.132 172.786 70.4689C172.786 69.7886 172.95 69.2629 173.276 68.8918C173.605 68.5207 174.073 68.3352 174.679 68.3352C174.875 68.3352 175.07 68.3562 175.265 68.3982C175.461 68.4403 175.614 68.4898 175.726 68.5467L175.536 69.0699C175.4 69.0155 175.252 68.971 175.091 68.9363C174.93 68.8992 174.788 68.8807 174.664 68.8807C173.838 68.8807 173.425 69.4076 173.425 70.4615C173.425 70.9613 173.525 71.3447 173.725 71.6119C173.928 71.8791 174.228 72.0127 174.623 72.0127C174.962 72.0127 175.31 71.9397 175.666 71.7938V72.3393C175.394 72.4803 175.051 72.5508 174.638 72.5508ZM179.126 71.8828L179.241 71.5377L179.401 71.0998L180.503 68.4168H181.286V72.4766H180.741V69.1182L180.666 69.3334L180.451 69.9012L179.401 72.4766H178.885L177.835 69.8938C177.704 69.5622 177.613 69.3037 177.564 69.1182V72.4766H177.015V68.4168H177.768L178.833 70.9959C178.939 71.268 179.037 71.5637 179.126 71.8828ZM186.494 70.4393C186.494 71.1023 186.327 71.6206 185.993 71.9941C185.659 72.3652 185.198 72.5508 184.609 72.5508C184.245 72.5508 183.922 72.4654 183.64 72.2947C183.358 72.124 183.14 71.8791 182.987 71.56C182.834 71.2408 182.757 70.8673 182.757 70.4393C182.757 69.7762 182.923 69.2604 183.254 68.8918C183.586 68.5207 184.046 68.3352 184.635 68.3352C185.204 68.3352 185.655 68.5244 185.989 68.9029C186.326 69.2814 186.494 69.7936 186.494 70.4393ZM183.395 70.4393C183.395 70.9588 183.499 71.3546 183.707 71.6268C183.915 71.8989 184.22 72.035 184.624 72.035C185.027 72.035 185.332 71.9001 185.54 71.6305C185.751 71.3583 185.856 70.9613 185.856 70.4393C185.856 69.9222 185.751 69.5301 185.54 69.2629C185.332 68.9932 185.024 68.8584 184.616 68.8584C184.213 68.8584 183.909 68.9908 183.703 69.2555C183.498 69.5202 183.395 69.9148 183.395 70.4393ZM190.7 68.9363H189.379V72.4766H188.763V68.9363H187.457V68.4094H190.7V68.9363ZM193.778 72.5508C193.513 72.5508 193.271 72.5025 193.05 72.4061C192.833 72.3071 192.65 72.1562 192.501 71.9533H192.457C192.486 72.1908 192.501 72.416 192.501 72.6287V74.3023H191.885V68.4094H192.386L192.472 68.966H192.501C192.66 68.7434 192.844 68.5826 193.054 68.4836C193.264 68.3846 193.506 68.3352 193.778 68.3352C194.317 68.3352 194.733 68.5195 195.025 68.8881C195.319 69.2567 195.466 69.7738 195.466 70.4393C195.466 71.1072 195.317 71.6268 195.017 71.9979C194.72 72.3665 194.307 72.5508 193.778 72.5508ZM193.689 68.8584C193.273 68.8584 192.973 68.9734 192.787 69.2035C192.601 69.4336 192.506 69.7997 192.501 70.302V70.4393C192.501 71.0107 192.596 71.4202 192.787 71.6676C192.977 71.9125 193.283 72.035 193.704 72.035C194.055 72.035 194.329 71.8927 194.527 71.6082C194.728 71.3237 194.828 70.9316 194.828 70.4318C194.828 69.9247 194.728 69.5363 194.527 69.2666C194.329 68.9945 194.05 68.8584 193.689 68.8584ZM198.644 72.5508C198.043 72.5508 197.568 72.3677 197.219 72.0016C196.873 71.6354 196.7 71.127 196.7 70.4764C196.7 69.8208 196.861 69.3 197.182 68.9141C197.506 68.5281 197.94 68.3352 198.485 68.3352C198.994 68.3352 199.398 68.5034 199.694 68.8398C199.991 69.1738 200.14 69.6154 200.14 70.1646V70.5543H197.338C197.35 71.0318 197.47 71.3942 197.698 71.6416C197.928 71.889 198.251 72.0127 198.667 72.0127C199.104 72.0127 199.537 71.9212 199.965 71.7381V72.2873C199.748 72.3813 199.541 72.4481 199.346 72.4877C199.153 72.5298 198.919 72.5508 198.644 72.5508ZM198.477 68.851C198.151 68.851 197.89 68.9574 197.694 69.1701C197.501 69.3829 197.388 69.6773 197.353 70.0533H199.479C199.479 69.6649 199.393 69.368 199.219 69.1627C199.046 68.9549 198.799 68.851 198.477 68.851ZM202.19 68.4094V70.1127H204.468V68.4094H205.084V72.4766H204.468V70.6434H202.19V72.4766H201.574V68.4094H202.19ZM207.349 68.4094V70.9885L207.323 71.6639L207.312 71.8754L209.513 68.4094H210.281V72.4766H209.706V69.9902L209.717 69.5004L209.736 69.018L207.539 72.4766H206.77V68.4094H207.349ZM213.685 72.5508C213.084 72.5508 212.609 72.3677 212.26 72.0016C211.914 71.6354 211.741 71.127 211.741 70.4764C211.741 69.8208 211.902 69.3 212.223 68.9141C212.547 68.5281 212.982 68.3352 213.526 68.3352C214.036 68.3352 214.439 68.5034 214.736 68.8398C215.033 69.1738 215.181 69.6154 215.181 70.1646V70.5543H212.379C212.392 71.0318 212.512 71.3942 212.739 71.6416C212.969 71.889 213.292 72.0127 213.708 72.0127C214.146 72.0127 214.579 71.9212 215.007 71.7381V72.2873C214.789 72.3813 214.582 72.4481 214.387 72.4877C214.194 72.5298 213.96 72.5508 213.685 72.5508ZM213.518 68.851C213.192 68.851 212.931 68.9574 212.735 69.1701C212.542 69.3829 212.429 69.6773 212.394 70.0533H214.52C214.52 69.6649 214.434 69.368 214.261 69.1627C214.087 68.9549 213.84 68.851 213.518 68.851ZM221.081 71.8828L221.196 71.5377L221.355 71.0998L222.457 68.4168H223.24V72.4766H222.695V69.1182L222.621 69.3334L222.405 69.9012L221.355 72.4766H220.839L219.789 69.8938C219.658 69.5622 219.568 69.3037 219.518 69.1182V72.4766H218.969V68.4168H219.722L220.787 70.9959C220.894 71.268 220.992 71.5637 221.081 71.8828ZM228.448 70.4393C228.448 71.1023 228.281 71.6206 227.947 71.9941C227.613 72.3652 227.152 72.5508 226.563 72.5508C226.199 72.5508 225.877 72.4654 225.595 72.2947C225.313 72.124 225.095 71.8791 224.941 71.56C224.788 71.2408 224.711 70.8673 224.711 70.4393C224.711 69.7762 224.877 69.2604 225.209 68.8918C225.54 68.5207 226 68.3352 226.589 68.3352C227.158 68.3352 227.61 68.5244 227.944 68.9029C228.28 69.2814 228.448 69.7936 228.448 70.4393ZM225.35 70.4393C225.35 70.9588 225.454 71.3546 225.661 71.6268C225.869 71.8989 226.175 72.035 226.578 72.035C226.981 72.035 227.287 71.9001 227.495 71.6305C227.705 71.3583 227.81 70.9613 227.81 70.4393C227.81 69.9222 227.705 69.5301 227.495 69.2629C227.287 68.9932 226.979 68.8584 226.571 68.8584C226.167 68.8584 225.863 68.9908 225.658 69.2555C225.452 69.5202 225.35 69.9148 225.35 70.4393ZM233.445 73.883H232.847V72.4766H230.005V73.883H229.411V71.9459H229.73C230.062 71.4956 230.321 70.9674 230.509 70.3613C230.697 69.7552 230.795 69.1046 230.803 68.4094H232.862V71.9459H233.445V73.883ZM232.268 71.9459V68.8955H231.355C231.323 69.4447 231.217 70.0014 231.036 70.5654C230.858 71.127 230.636 71.5872 230.368 71.9459H232.268ZM236.359 72.5508C235.758 72.5508 235.283 72.3677 234.934 72.0016C234.588 71.6354 234.415 71.127 234.415 70.4764C234.415 69.8208 234.576 69.3 234.897 68.9141C235.221 68.5281 235.655 68.3352 236.2 68.3352C236.709 68.3352 237.113 68.5034 237.409 68.8398C237.706 69.1738 237.855 69.6154 237.855 70.1646V70.5543H235.053C235.065 71.0318 235.185 71.3942 235.413 71.6416C235.643 71.889 235.966 72.0127 236.382 72.0127C236.819 72.0127 237.252 71.9212 237.68 71.7381V72.2873C237.463 72.3813 237.256 72.4481 237.061 72.4877C236.868 72.5298 236.634 72.5508 236.359 72.5508ZM236.192 68.851C235.866 68.851 235.605 68.9574 235.409 69.1701C235.216 69.3829 235.103 69.6773 235.068 70.0533H237.194C237.194 69.6649 237.108 69.368 236.934 69.1627C236.761 68.9549 236.514 68.851 236.192 68.851ZM241.181 72.5508C240.917 72.5508 240.674 72.5025 240.454 72.4061C240.236 72.3071 240.053 72.1562 239.905 71.9533H239.86C239.89 72.1908 239.905 72.416 239.905 72.6287V74.3023H239.289V68.4094H239.79L239.875 68.966H239.905C240.063 68.7434 240.247 68.5826 240.458 68.4836C240.668 68.3846 240.909 68.3352 241.181 68.3352C241.721 68.3352 242.136 68.5195 242.428 68.8881C242.723 69.2567 242.87 69.7738 242.87 70.4393C242.87 71.1072 242.72 71.6268 242.421 71.9979C242.124 72.3665 241.711 72.5508 241.181 72.5508ZM241.092 68.8584C240.677 68.8584 240.376 68.9734 240.19 69.2035C240.005 69.4336 239.91 69.7997 239.905 70.302V70.4393C239.905 71.0107 240 71.4202 240.19 71.6676C240.381 71.9125 240.687 72.035 241.107 72.035C241.458 72.035 241.733 71.8927 241.931 71.6082C242.131 71.3237 242.231 70.9316 242.231 70.4318C242.231 69.9247 242.131 69.5363 241.931 69.2666C241.733 68.9945 241.453 68.8584 241.092 68.8584ZM246.831 72.4766L246.708 71.8977H246.679C246.476 72.1525 246.273 72.3257 246.07 72.4172C245.87 72.5062 245.619 72.5508 245.317 72.5508C244.913 72.5508 244.597 72.4469 244.367 72.2391C244.139 72.0313 244.025 71.7356 244.025 71.3521C244.025 70.5308 244.682 70.1003 245.996 70.0607L246.686 70.0385V69.7861C246.686 69.467 246.617 69.232 246.478 69.0811C246.342 68.9277 246.123 68.851 245.821 68.851C245.483 68.851 245.099 68.9549 244.671 69.1627L244.482 68.6914C244.682 68.5826 244.901 68.4972 245.139 68.4354C245.379 68.3735 245.619 68.3426 245.859 68.3426C246.343 68.3426 246.702 68.4502 246.935 68.6654C247.17 68.8807 247.287 69.2258 247.287 69.7008V72.4766H246.831ZM245.439 72.0424C245.823 72.0424 246.123 71.9372 246.341 71.727C246.561 71.5167 246.671 71.2223 246.671 70.8438V70.4764L246.055 70.5023C245.565 70.5197 245.212 70.5964 244.994 70.7324C244.779 70.866 244.671 71.0751 244.671 71.3596C244.671 71.5822 244.738 71.7517 244.871 71.868C245.008 71.9842 245.197 72.0424 245.439 72.0424ZM251.682 68.9363H250.361V72.4766H249.745V68.9363H248.439V68.4094H251.682V68.9363ZM256.378 70.4393C256.378 71.1023 256.211 71.6206 255.877 71.9941C255.543 72.3652 255.082 72.5508 254.493 72.5508C254.13 72.5508 253.807 72.4654 253.525 72.2947C253.243 72.124 253.025 71.8791 252.871 71.56C252.718 71.2408 252.641 70.8673 252.641 70.4393C252.641 69.7762 252.807 69.2604 253.139 68.8918C253.47 68.5207 253.93 68.3352 254.519 68.3352C255.088 68.3352 255.54 68.5244 255.874 68.9029C256.21 69.2814 256.378 69.7936 256.378 70.4393ZM253.28 70.4393C253.28 70.9588 253.384 71.3546 253.591 71.6268C253.799 71.8989 254.105 72.035 254.508 72.035C254.911 72.035 255.217 71.9001 255.425 71.6305C255.635 71.3583 255.74 70.9613 255.74 70.4393C255.74 69.9222 255.635 69.5301 255.425 69.2629C255.217 68.9932 254.909 68.8584 254.501 68.8584C254.097 68.8584 253.793 68.9908 253.588 69.2555C253.382 69.5202 253.28 69.9148 253.28 70.4393ZM259.734 72.5508C259.47 72.5508 259.227 72.5025 259.007 72.4061C258.789 72.3071 258.606 72.1562 258.458 71.9533H258.413C258.443 72.1908 258.458 72.416 258.458 72.6287V74.3023H257.842V68.4094H258.343L258.428 68.966H258.458C258.616 68.7434 258.801 68.5826 259.011 68.4836C259.221 68.3846 259.462 68.3352 259.734 68.3352C260.274 68.3352 260.689 68.5195 260.981 68.8881C261.276 69.2567 261.423 69.7738 261.423 70.4393C261.423 71.1072 261.273 71.6268 260.974 71.9979C260.677 72.3665 260.264 72.5508 259.734 72.5508ZM259.645 68.8584C259.23 68.8584 258.929 68.9734 258.744 69.2035C258.558 69.4336 258.463 69.7997 258.458 70.302V70.4393C258.458 71.0107 258.553 71.4202 258.744 71.6676C258.934 71.9125 259.24 72.035 259.66 72.035C260.012 72.035 260.286 71.8927 260.484 71.6082C260.684 71.3237 260.785 70.9316 260.785 70.4318C260.785 69.9247 260.684 69.5363 260.484 69.2666C260.286 68.9945 260.007 68.8584 259.645 68.8584ZM265.384 72.4766L265.262 71.8977H265.232C265.029 72.1525 264.826 72.3257 264.623 72.4172C264.423 72.5062 264.172 72.5508 263.87 72.5508C263.467 72.5508 263.15 72.4469 262.92 72.2391C262.692 72.0313 262.579 71.7356 262.579 71.3521C262.579 70.5308 263.235 70.1003 264.549 70.0607L265.239 70.0385V69.7861C265.239 69.467 265.17 69.232 265.031 69.0811C264.895 68.9277 264.676 68.851 264.375 68.851C264.036 68.851 263.652 68.9549 263.224 69.1627L263.035 68.6914C263.235 68.5826 263.454 68.4972 263.692 68.4354C263.932 68.3735 264.172 68.3426 264.412 68.3426C264.897 68.3426 265.255 68.4502 265.488 68.6654C265.723 68.8807 265.84 69.2258 265.84 69.7008V72.4766H265.384ZM263.992 72.0424C264.376 72.0424 264.676 71.9372 264.894 71.727C265.114 71.5167 265.224 71.2223 265.224 70.8438V70.4764L264.608 70.5023C264.119 70.5197 263.765 70.5964 263.547 70.7324C263.332 70.866 263.224 71.0751 263.224 71.3596C263.224 71.5822 263.291 71.7517 263.425 71.868C263.561 71.9842 263.75 72.0424 263.992 72.0424ZM267.404 72.0832C267.404 71.9174 267.441 71.7925 267.516 71.7084C267.592 71.6218 267.701 71.5785 267.842 71.5785C267.986 71.5785 268.097 71.6218 268.176 71.7084C268.258 71.7925 268.299 71.9174 268.299 72.0832C268.299 72.244 268.258 72.3677 268.176 72.4543C268.095 72.5409 267.983 72.5842 267.842 72.5842C267.716 72.5842 267.611 72.5458 267.527 72.4691C267.445 72.39 267.404 72.2613 267.404 72.0832ZM48.6831 84.4766H48.0522V79.6115H45.2653V84.4766H44.6345V79.0512H48.6831V84.4766ZM53.9764 82.4393C53.9764 83.1023 53.8094 83.6206 53.4754 83.9941C53.1414 84.3652 52.68 84.5508 52.0912 84.5508C51.7275 84.5508 51.4047 84.4654 51.1227 84.2947C50.8406 84.124 50.6229 83.8791 50.4695 83.56C50.3161 83.2408 50.2395 82.8673 50.2395 82.4393C50.2395 81.7762 50.4052 81.2604 50.7367 80.8918C51.0682 80.5207 51.5284 80.3352 52.1172 80.3352C52.6862 80.3352 53.1377 80.5244 53.4717 80.9029C53.8081 81.2814 53.9764 81.7936 53.9764 82.4393ZM50.8777 82.4393C50.8777 82.9588 50.9816 83.3546 51.1895 83.6268C51.3973 83.8989 51.7028 84.035 52.1061 84.035C52.5093 84.035 52.8148 83.9001 53.0227 83.6305C53.2329 83.3583 53.3381 82.9613 53.3381 82.4393C53.3381 81.9222 53.2329 81.5301 53.0227 81.2629C52.8148 80.9932 52.5068 80.8584 52.0986 80.8584C51.6954 80.8584 51.3911 80.9908 51.1857 81.2555C50.9804 81.5202 50.8777 81.9148 50.8777 82.4393ZM57.0654 84.5508C56.4766 84.5508 56.0201 84.3702 55.696 84.009C55.3744 83.6453 55.2136 83.132 55.2136 82.4689C55.2136 81.7886 55.3769 81.2629 55.7034 80.8918C56.0325 80.5207 56.5001 80.3352 57.1062 80.3352C57.3016 80.3352 57.4971 80.3562 57.6925 80.3982C57.8879 80.4403 58.0413 80.4898 58.1527 80.5467L57.9634 81.0699C57.8273 81.0155 57.6789 80.971 57.5181 80.9363C57.3573 80.8992 57.215 80.8807 57.0913 80.8807C56.265 80.8807 55.8519 81.4076 55.8519 82.4615C55.8519 82.9613 55.9521 83.3447 56.1525 83.6119C56.3553 83.8791 56.6547 84.0127 57.0505 84.0127C57.3894 84.0127 57.737 83.9397 58.0933 83.7938V84.3393C57.8211 84.4803 57.4785 84.5508 57.0654 84.5508ZM62.4737 84.4766H61.8502V80.9363H60.6293C60.5625 81.8171 60.4698 82.516 60.351 83.033C60.2323 83.5501 60.0776 83.9286 59.8872 84.1686C59.6991 84.4085 59.4592 84.5285 59.1672 84.5285C59.0336 84.5285 58.9273 84.5137 58.8481 84.484V84.0275C58.9025 84.0424 58.9644 84.0498 59.0336 84.0498C59.3181 84.0498 59.5445 83.7492 59.7127 83.148C59.881 82.5469 60.0084 81.634 60.095 80.4094H62.4737V84.4766ZM65.8818 84.5508C65.2806 84.5508 64.8056 84.3677 64.4568 84.0016C64.1104 83.6354 63.9373 83.127 63.9373 82.4764C63.9373 81.8208 64.0981 81.3 64.4197 80.9141C64.7438 80.5281 65.178 80.3352 65.7222 80.3352C66.2319 80.3352 66.6351 80.5034 66.932 80.8398C67.2289 81.1738 67.3773 81.6154 67.3773 82.1646V82.5543H64.5755C64.5879 83.0318 64.7079 83.3942 64.9355 83.6416C65.1656 83.889 65.4884 84.0127 65.9041 84.0127C66.342 84.0127 66.7749 83.9212 67.2029 83.7381V84.2873C66.9852 84.3813 66.7786 84.4481 66.5832 84.4877C66.3902 84.5298 66.1564 84.5508 65.8818 84.5508ZM65.7148 80.851C65.3882 80.851 65.1272 80.9574 64.9318 81.1701C64.7388 81.3829 64.625 81.6773 64.5904 82.0533H66.7168C66.7168 81.6649 66.6302 81.368 66.457 81.1627C66.2838 80.9549 66.0364 80.851 65.7148 80.851ZM71.7814 84.4766H71.1654V80.4094H74.5795V84.4766H73.9561V80.9438H71.7814V84.4766ZM79.7763 82.4393C79.7763 83.1023 79.6093 83.6206 79.2753 83.9941C78.9413 84.3652 78.4799 84.5508 77.8911 84.5508C77.5275 84.5508 77.2046 84.4654 76.9226 84.2947C76.6405 84.124 76.4228 83.8791 76.2695 83.56C76.1161 83.2408 76.0394 82.8673 76.0394 82.4393C76.0394 81.7762 76.2051 81.2604 76.5366 80.8918C76.8682 80.5207 77.3283 80.3352 77.9171 80.3352C78.4861 80.3352 78.9376 80.5244 79.2716 80.9029C79.6081 81.2814 79.7763 81.7936 79.7763 82.4393ZM76.6777 82.4393C76.6777 82.9588 76.7816 83.3546 76.9894 83.6268C77.1972 83.8989 77.5027 84.035 77.906 84.035C78.3092 84.035 78.6148 83.9001 78.8226 83.6305C79.0329 83.3583 79.138 82.9613 79.138 82.4393C79.138 81.9222 79.0329 81.5301 78.8226 81.2629C78.6148 80.9932 78.3068 80.8584 77.8986 80.8584C77.4953 80.8584 77.191 80.9908 76.9857 81.2555C76.7803 81.5202 76.6777 81.9148 76.6777 82.4393ZM84.7727 85.883H84.1752V84.4766H81.3327V85.883H80.7389V83.9459H81.0581C81.3896 83.4956 81.6493 82.9674 81.8373 82.3613C82.0254 81.7552 82.1231 81.1046 82.1305 80.4094H84.1901V83.9459H84.7727V85.883ZM83.5963 83.9459V80.8955H82.6834C82.6513 81.4447 82.5449 82.0014 82.3643 82.5654C82.1862 83.127 81.9635 83.5872 81.6963 83.9459H83.5963ZM88.7115 80.9363H87.3904V84.4766H86.7744V80.9363H85.4681V80.4094H88.7115V80.9363ZM93.1958 81.4299C93.1958 81.6946 93.1191 81.8962 92.9657 82.0348C92.8148 82.1708 92.602 82.2624 92.3274 82.3094V82.3428C92.6738 82.3898 92.9261 82.4912 93.0845 82.6471C93.2453 82.8029 93.3257 83.0182 93.3257 83.2928C93.3257 83.6713 93.1859 83.9632 92.9063 84.1686C92.6292 84.3739 92.2235 84.4766 91.6891 84.4766H89.8968V80.4094H91.6817C92.6911 80.4094 93.1958 80.7495 93.1958 81.4299ZM92.7097 83.252C92.7097 83.0318 92.6255 82.8722 92.4573 82.7732C92.2916 82.6718 92.0157 82.6211 91.6298 82.6211H90.5128V83.9607H91.6446C92.3546 83.9607 92.7097 83.7245 92.7097 83.252ZM92.5946 81.4893C92.5946 81.2913 92.5179 81.1516 92.3645 81.0699C92.2136 80.9858 91.9835 80.9438 91.6743 80.9438H90.5128V82.0904H91.5556C91.9365 82.0904 92.205 82.0434 92.3608 81.9494C92.5167 81.8554 92.5946 81.702 92.5946 81.4893ZM96.3219 84.5508C95.7207 84.5508 95.2457 84.3677 94.8969 84.0016C94.5505 83.6354 94.3773 83.127 94.3773 82.4764C94.3773 81.8208 94.5382 81.3 94.8598 80.9141C95.1839 80.5281 95.618 80.3352 96.1623 80.3352C96.6719 80.3352 97.0752 80.5034 97.3721 80.8398C97.669 81.1738 97.8174 81.6154 97.8174 82.1646V82.5543H95.0156C95.028 83.0318 95.148 83.3942 95.3756 83.6416C95.6057 83.889 95.9285 84.0127 96.3441 84.0127C96.782 84.0127 97.215 83.9212 97.643 83.7381V84.2873C97.4253 84.3813 97.2187 84.4481 97.0232 84.4877C96.8303 84.5298 96.5965 84.5508 96.3219 84.5508ZM96.1549 80.851C95.8283 80.851 95.5673 80.9574 95.3719 81.1701C95.1789 81.3829 95.0651 81.6773 95.0305 82.0533H97.1568C97.1568 81.6649 97.0703 81.368 96.8971 81.1627C96.7239 80.9549 96.4765 80.851 96.1549 80.851ZM101.144 84.5508C100.879 84.5508 100.637 84.5025 100.417 84.4061C100.199 84.3071 100.016 84.1562 99.8673 83.9533H99.8228C99.8525 84.1908 99.8673 84.416 99.8673 84.6287V86.3023H99.2513V80.4094H99.7523L99.8376 80.966H99.8673C100.026 80.7434 100.21 80.5826 100.42 80.4836C100.631 80.3846 100.872 80.3352 101.144 80.3352C101.683 80.3352 102.099 80.5195 102.391 80.8881C102.685 81.2567 102.832 81.7738 102.832 82.4393C102.832 83.1072 102.683 83.6268 102.383 83.9979C102.086 84.3665 101.673 84.5508 101.144 84.5508ZM101.055 80.8584C100.639 80.8584 100.339 80.9734 100.153 81.2035C99.9675 81.4336 99.8723 81.7997 99.8673 82.302V82.4393C99.8673 83.0107 99.9626 83.4202 100.153 83.6676C100.344 83.9125 100.649 84.035 101.07 84.035C101.421 84.035 101.696 83.8927 101.893 83.6082C102.094 83.3237 102.194 82.9316 102.194 82.4318C102.194 81.9247 102.094 81.5363 101.893 81.2666C101.696 80.9945 101.416 80.8584 101.055 80.8584ZM106.148 80.4168H106.715V82.3873L108.397 80.4168H109.072L107.372 82.3873L109.217 84.4766H108.504L106.715 82.417V84.4766H106.148V82.417L104.363 84.4766H103.654L105.495 82.3873L103.799 80.4168H104.474L106.148 82.3873V80.4168ZM113.801 85.883H113.204V84.4766H110.361V85.883H109.767V83.9459H110.086C110.418 83.4956 110.678 82.9674 110.866 82.3613C111.054 81.7552 111.152 81.1046 111.159 80.4094H113.219V83.9459H113.801V85.883ZM112.625 83.9459V80.8955H111.712C111.68 81.4447 111.573 82.0014 111.393 82.5654C111.215 83.127 110.992 83.5872 110.725 83.9459H112.625ZM116.716 84.5508C116.115 84.5508 115.64 84.3677 115.291 84.0016C114.944 83.6354 114.771 83.127 114.771 82.4764C114.771 81.8208 114.932 81.3 115.254 80.9141C115.578 80.5281 116.012 80.3352 116.556 80.3352C117.066 80.3352 117.469 80.5034 117.766 80.8398C118.063 81.1738 118.211 81.6154 118.211 82.1646V82.5543H115.409C115.422 83.0318 115.542 83.3942 115.769 83.6416C115.999 83.889 116.322 84.0127 116.738 84.0127C117.176 84.0127 117.609 83.9212 118.037 83.7381V84.2873C117.819 84.3813 117.613 84.4481 117.417 84.4877C117.224 84.5298 116.99 84.5508 116.716 84.5508ZM116.549 80.851C116.222 80.851 115.961 80.9574 115.766 81.1701C115.573 81.3829 115.459 81.6773 115.424 82.0533H117.551C117.551 81.6649 117.464 81.368 117.291 81.1627C117.118 80.9549 116.87 80.851 116.549 80.851ZM120.261 80.4094V82.1127H122.54V80.4094H123.156V84.4766H122.54V82.6434H120.261V84.4766H119.645V80.4094H120.261ZM125.421 80.4094V82.9885L125.395 83.6639L125.384 83.8754L127.584 80.4094H128.352V84.4766H127.777V81.9902L127.788 81.5004L127.807 81.018L125.61 84.4766H124.842V80.4094H125.421ZM130.243 84.4766H129.523L130.692 82.7584C130.378 82.6891 130.136 82.5555 129.968 82.3576C129.802 82.1572 129.72 81.9061 129.72 81.6043C129.72 81.2332 129.845 80.9413 130.094 80.7285C130.344 80.5158 130.693 80.4094 131.141 80.4094H132.952V84.4766H132.336V82.8512H131.308L130.243 84.4766ZM130.321 81.6117C130.321 82.0818 130.662 82.3168 131.345 82.3168H132.336V80.9438H131.219C130.62 80.9438 130.321 81.1664 130.321 81.6117ZM139.107 83.8828L139.223 83.5377L139.382 83.0998L140.484 80.4168H141.267V84.4766H140.722V81.1182L140.648 81.3334L140.432 81.9012L139.382 84.4766H138.866L137.816 81.8938C137.685 81.5622 137.595 81.3037 137.545 81.1182V84.4766H136.996V80.4168H137.749L138.814 82.9959C138.921 83.268 139.018 83.5637 139.107 83.8828ZM146.475 82.4393C146.475 83.1023 146.308 83.6206 145.974 83.9941C145.64 84.3652 145.179 84.5508 144.59 84.5508C144.226 84.5508 143.904 84.4654 143.621 84.2947C143.339 84.124 143.122 83.8791 142.968 83.56C142.815 83.2408 142.738 82.8673 142.738 82.4393C142.738 81.7762 142.904 81.2604 143.236 80.8918C143.567 80.5207 144.027 80.3352 144.616 80.3352C145.185 80.3352 145.637 80.5244 145.971 80.9029C146.307 81.2814 146.475 81.7936 146.475 82.4393ZM143.377 82.4393C143.377 82.9588 143.48 83.3546 143.688 83.6268C143.896 83.8989 144.202 84.035 144.605 84.035C145.008 84.035 145.314 83.9001 145.521 83.6305C145.732 83.3583 145.837 82.9613 145.837 82.4393C145.837 81.9222 145.732 81.5301 145.521 81.2629C145.314 80.9932 145.006 80.8584 144.597 80.8584C144.194 80.8584 143.89 80.9908 143.685 81.2555C143.479 81.5202 143.377 81.9148 143.377 82.4393ZM151.472 85.883H150.874V84.4766H148.032V85.883H147.438V83.9459H147.757C148.088 83.4956 148.348 82.9674 148.536 82.3613C148.724 81.7552 148.822 81.1046 148.829 80.4094H150.889V83.9459H151.472V85.883ZM150.295 83.9459V80.8955H149.382C149.35 81.4447 149.244 82.0014 149.063 82.5654C148.885 83.127 148.662 83.5872 148.395 83.9459H150.295ZM154.386 84.5508C153.785 84.5508 153.31 84.3677 152.961 84.0016C152.615 83.6354 152.442 83.127 152.442 82.4764C152.442 81.8208 152.602 81.3 152.924 80.9141C153.248 80.5281 153.682 80.3352 154.227 80.3352C154.736 80.3352 155.139 80.5034 155.436 80.8398C155.733 81.1738 155.882 81.6154 155.882 82.1646V82.5543H153.08C153.092 83.0318 153.212 83.3942 153.44 83.6416C153.67 83.889 153.993 84.0127 154.408 84.0127C154.846 84.0127 155.279 83.9212 155.707 83.7381V84.2873C155.49 84.3813 155.283 84.4481 155.088 84.4877C154.895 84.5298 154.661 84.5508 154.386 84.5508ZM154.219 80.851C153.893 80.851 153.632 80.9574 153.436 81.1701C153.243 81.3829 153.129 81.6773 153.095 82.0533H155.221C155.221 81.6649 155.135 81.368 154.961 81.1627C154.788 80.9549 154.541 80.851 154.219 80.851ZM159.208 84.5508C158.943 84.5508 158.701 84.5025 158.481 84.4061C158.263 84.3071 158.08 84.1562 157.932 83.9533H157.887C157.917 84.1908 157.932 84.416 157.932 84.6287V86.3023H157.316V80.4094H157.817L157.902 80.966H157.932C158.09 80.7434 158.274 80.5826 158.485 80.4836C158.695 80.3846 158.936 80.3352 159.208 80.3352C159.747 80.3352 160.163 80.5195 160.455 80.8881C160.749 81.2567 160.897 81.7738 160.897 82.4393C160.897 83.1072 160.747 83.6268 160.448 83.9979C160.151 84.3665 159.738 84.5508 159.208 84.5508ZM159.119 80.8584C158.703 80.8584 158.403 80.9734 158.217 81.2035C158.032 81.4336 157.937 81.7997 157.932 82.302V82.4393C157.932 83.0107 158.027 83.4202 158.217 83.6676C158.408 83.9125 158.713 84.035 159.134 84.035C159.485 84.035 159.76 83.8927 159.958 83.6082C160.158 83.3237 160.258 82.9316 160.258 82.4318C160.258 81.9247 160.158 81.5363 159.958 81.2666C159.76 80.9945 159.48 80.8584 159.119 80.8584ZM164.858 84.4766L164.735 83.8977H164.706C164.503 84.1525 164.3 84.3257 164.097 84.4172C163.897 84.5062 163.645 84.5508 163.344 84.5508C162.94 84.5508 162.624 84.4469 162.394 84.2391C162.166 84.0313 162.052 83.7356 162.052 83.3521C162.052 82.5308 162.709 82.1003 164.023 82.0607L164.713 82.0385V81.7861C164.713 81.467 164.644 81.232 164.505 81.0811C164.369 80.9277 164.15 80.851 163.848 80.851C163.509 80.851 163.126 80.9549 162.698 81.1627L162.509 80.6914C162.709 80.5826 162.928 80.4972 163.166 80.4354C163.405 80.3735 163.645 80.3426 163.885 80.3426C164.37 80.3426 164.729 80.4502 164.962 80.6654C165.197 80.8807 165.314 81.2258 165.314 81.7008V84.4766H164.858ZM163.466 84.0424C163.85 84.0424 164.15 83.9372 164.368 83.727C164.588 83.5167 164.698 83.2223 164.698 82.8438V82.4764L164.082 82.5023C163.592 82.5197 163.238 82.5964 163.021 82.7324C162.806 82.866 162.698 83.0751 162.698 83.3596C162.698 83.5822 162.765 83.7517 162.898 83.868C163.034 83.9842 163.224 84.0424 163.466 84.0424ZM169.709 80.9363H168.388V84.4766H167.772V80.9363H166.466V80.4094H169.709V80.9363ZM174.405 82.4393C174.405 83.1023 174.238 83.6206 173.904 83.9941C173.57 84.3652 173.109 84.5508 172.52 84.5508C172.156 84.5508 171.834 84.4654 171.551 84.2947C171.269 84.124 171.052 83.8791 170.898 83.56C170.745 83.2408 170.668 82.8673 170.668 82.4393C170.668 81.7762 170.834 81.2604 171.166 80.8918C171.497 80.5207 171.957 80.3352 172.546 80.3352C173.115 80.3352 173.567 80.5244 173.901 80.9029C174.237 81.2814 174.405 81.7936 174.405 82.4393ZM171.307 82.4393C171.307 82.9588 171.41 83.3546 171.618 83.6268C171.826 83.8989 172.132 84.035 172.535 84.035C172.938 84.035 173.244 83.9001 173.451 83.6305C173.662 83.3583 173.767 82.9613 173.767 82.4393C173.767 81.9222 173.662 81.5301 173.451 81.2629C173.244 80.9932 172.936 80.8584 172.527 80.8584C172.124 80.8584 171.82 80.9908 171.615 81.2555C171.409 81.5202 171.307 81.9148 171.307 82.4393ZM177.761 84.5508C177.497 84.5508 177.254 84.5025 177.034 84.4061C176.816 84.3071 176.633 84.1562 176.485 83.9533H176.44C176.47 84.1908 176.485 84.416 176.485 84.6287V86.3023H175.869V80.4094H176.37L176.455 80.966H176.485C176.643 80.7434 176.827 80.5826 177.038 80.4836C177.248 80.3846 177.489 80.3352 177.761 80.3352C178.301 80.3352 178.716 80.5195 179.008 80.8881C179.303 81.2567 179.45 81.7738 179.45 82.4393C179.45 83.1072 179.3 83.6268 179.001 83.9979C178.704 84.3665 178.291 84.5508 177.761 84.5508ZM177.672 80.8584C177.257 80.8584 176.956 80.9734 176.771 81.2035C176.585 81.4336 176.49 81.7997 176.485 82.302V82.4393C176.485 83.0107 176.58 83.4202 176.771 83.6676C176.961 83.9125 177.267 84.035 177.687 84.035C178.038 84.035 178.313 83.8927 178.511 83.6082C178.711 83.3237 178.812 82.9316 178.812 82.4318C178.812 81.9247 178.711 81.5363 178.511 81.2666C178.313 80.9945 178.034 80.8584 177.672 80.8584ZM184.42 82.4393C184.42 83.1023 184.253 83.6206 183.919 83.9941C183.585 84.3652 183.124 84.5508 182.535 84.5508C182.171 84.5508 181.849 84.4654 181.567 84.2947C181.285 84.124 181.067 83.8791 180.913 83.56C180.76 83.2408 180.683 82.8673 180.683 82.4393C180.683 81.7762 180.849 81.2604 181.181 80.8918C181.512 80.5207 181.972 80.3352 182.561 80.3352C183.13 80.3352 183.582 80.5244 183.916 80.9029C184.252 81.2814 184.42 81.7936 184.42 82.4393ZM181.322 82.4393C181.322 82.9588 181.426 83.3546 181.633 83.6268C181.841 83.8989 182.147 84.035 182.55 84.035C182.953 84.035 183.259 83.9001 183.467 83.6305C183.677 83.3583 183.782 82.9613 183.782 82.4393C183.782 81.9222 183.677 81.5301 183.467 81.2629C183.259 80.9932 182.951 80.8584 182.543 80.8584C182.139 80.8584 181.835 80.9908 181.63 81.2555C181.424 81.5202 181.322 81.9148 181.322 82.4393ZM187.995 83.8828L188.11 83.5377L188.27 83.0998L189.372 80.4168H190.155V84.4766H189.61V81.1182L189.535 81.3334L189.32 81.9012L188.27 84.4766H187.754L186.704 81.8938C186.573 81.5622 186.483 81.3037 186.433 81.1182V84.4766H185.884V80.4168H186.637L187.702 82.9959C187.809 83.268 187.906 83.5637 187.995 83.8828ZM196.949 80.9363H195.628V84.4766H195.012V80.9363H193.706V80.4094H196.949V80.9363ZM201.645 82.4393C201.645 83.1023 201.478 83.6206 201.144 83.9941C200.81 84.3652 200.349 84.5508 199.76 84.5508C199.396 84.5508 199.073 84.4654 198.791 84.2947C198.509 84.124 198.292 83.8791 198.138 83.56C197.985 83.2408 197.908 82.8673 197.908 82.4393C197.908 81.7762 198.074 81.2604 198.405 80.8918C198.737 80.5207 199.197 80.3352 199.786 80.3352C200.355 80.3352 200.806 80.5244 201.14 80.9029C201.477 81.2814 201.645 81.7936 201.645 82.4393ZM198.546 82.4393C198.546 82.9588 198.65 83.3546 198.858 83.6268C199.066 83.8989 199.371 84.035 199.775 84.035C200.178 84.035 200.483 83.9001 200.691 83.6305C200.902 83.3583 201.007 82.9613 201.007 82.4393C201.007 81.9222 200.902 81.5301 200.691 81.2629C200.483 80.9932 200.175 80.8584 199.767 80.8584C199.364 80.8584 199.06 80.9908 198.854 81.2555C198.649 81.5202 198.546 81.9148 198.546 82.4393ZM206.408 81.4299C206.408 81.6946 206.331 81.8962 206.178 82.0348C206.027 82.1708 205.814 82.2624 205.539 82.3094V82.3428C205.886 82.3898 206.138 82.4912 206.296 82.6471C206.457 82.8029 206.537 83.0182 206.537 83.2928C206.537 83.6713 206.398 83.9632 206.118 84.1686C205.841 84.3739 205.435 84.4766 204.901 84.4766H203.109V80.4094H204.894C205.903 80.4094 206.408 80.7495 206.408 81.4299ZM205.921 83.252C205.921 83.0318 205.837 82.8722 205.669 82.7732C205.503 82.6718 205.228 82.6211 204.842 82.6211H203.725V83.9607H204.856C205.566 83.9607 205.921 83.7245 205.921 83.252ZM205.806 81.4893C205.806 81.2913 205.73 81.1516 205.576 81.0699C205.425 80.9858 205.195 80.9438 204.886 80.9438H203.725V82.0904H204.767C205.148 82.0904 205.417 82.0434 205.573 81.9494C205.728 81.8554 205.806 81.702 205.806 81.4893ZM210.317 84.4766L210.194 83.8977H210.165C209.962 84.1525 209.759 84.3257 209.556 84.4172C209.356 84.5062 209.104 84.5508 208.803 84.5508C208.399 84.5508 208.083 84.4469 207.853 84.2391C207.625 84.0313 207.511 83.7356 207.511 83.3521C207.511 82.5308 208.168 82.1003 209.482 82.0607L210.172 82.0385V81.7861C210.172 81.467 210.103 81.232 209.964 81.0811C209.828 80.9277 209.609 80.851 209.307 80.851C208.968 80.851 208.585 80.9549 208.157 81.1627L207.968 80.6914C208.168 80.5826 208.387 80.4972 208.624 80.4354C208.864 80.3735 209.104 80.3426 209.344 80.3426C209.829 80.3426 210.188 80.4502 210.421 80.6654C210.656 80.8807 210.773 81.2258 210.773 81.7008V84.4766H210.317ZM208.925 84.0424C209.309 84.0424 209.609 83.9372 209.827 83.727C210.047 83.5167 210.157 83.2223 210.157 82.8438V82.4764L209.541 82.5023C209.051 82.5197 208.697 82.5964 208.48 82.7324C208.265 82.866 208.157 83.0751 208.157 83.3596C208.157 83.5822 208.224 83.7517 208.357 83.868C208.493 83.9842 208.683 84.0424 208.925 84.0424ZM214.319 84.5508C214.054 84.5508 213.811 84.5025 213.591 84.4061C213.374 84.3071 213.19 84.1562 213.042 83.9533H212.997C213.027 84.1908 213.042 84.416 213.042 84.6287V86.3023H212.426V80.4094H212.927L213.012 80.966H213.042C213.2 80.7434 213.385 80.5826 213.595 80.4836C213.805 80.3846 214.046 80.3352 214.319 80.3352C214.858 80.3352 215.274 80.5195 215.565 80.8881C215.86 81.2567 216.007 81.7738 216.007 82.4393C216.007 83.1072 215.857 83.6268 215.558 83.9979C215.261 84.3665 214.848 84.5508 214.319 84.5508ZM214.229 80.8584C213.814 80.8584 213.513 80.9734 213.328 81.2035C213.142 81.4336 213.047 81.7997 213.042 82.302V82.4393C213.042 83.0107 213.137 83.4202 213.328 83.6676C213.518 83.9125 213.824 84.035 214.244 84.035C214.596 84.035 214.87 83.8927 215.068 83.6082C215.269 83.3237 215.369 82.9316 215.369 82.4318C215.369 81.9247 215.269 81.5363 215.068 81.2666C214.87 80.9945 214.591 80.8584 214.229 80.8584ZM218.083 82.0904H219.192C219.71 82.0904 220.092 82.1869 220.339 82.3799C220.589 82.5704 220.714 82.8561 220.714 83.2371C220.714 83.6453 220.582 83.9546 220.317 84.1648C220.055 84.3727 219.667 84.4766 219.155 84.4766H217.467V80.4094H218.083V82.0904ZM222.013 84.4766H221.397V80.4094H222.013V84.4766ZM218.083 82.6211V83.9607H219.126C219.779 83.9607 220.105 83.7319 220.105 83.2742C220.105 83.0466 220.03 82.8809 219.879 82.777C219.728 82.673 219.471 82.6211 219.107 82.6211H218.083ZM225.708 82.3947C225.708 81.7391 225.803 81.1256 225.994 80.5541C226.187 79.9826 226.464 79.4816 226.825 79.0512H227.426C227.07 79.5286 226.802 80.0531 226.621 80.6246C226.443 81.1961 226.354 81.7837 226.354 82.3873C226.354 82.9811 226.445 83.5612 226.628 84.1277C226.812 84.6943 227.075 85.2113 227.419 85.6789H226.825C226.461 85.2583 226.184 84.7673 225.994 84.2057C225.803 83.6441 225.708 83.0404 225.708 82.3947ZM228.04 80.4094H228.701L229.591 82.7287C229.787 83.2581 229.908 83.6404 229.955 83.8754H229.985C230.017 83.7492 230.084 83.534 230.185 83.2297C230.289 82.9229 230.625 81.9828 231.194 80.4094H231.855L230.107 85.0406C229.934 85.4983 229.731 85.8224 229.499 86.0129C229.268 86.2059 228.985 86.3023 228.649 86.3023C228.461 86.3023 228.275 86.2813 228.092 86.2393V85.7457C228.228 85.7754 228.38 85.7902 228.549 85.7902C228.972 85.7902 229.273 85.5527 229.454 85.0777L229.68 84.4988L228.04 80.4094ZM234.521 84.5508C233.932 84.5508 233.476 84.3702 233.152 84.009C232.83 83.6453 232.669 83.132 232.669 82.4689C232.669 81.7886 232.832 81.2629 233.159 80.8918C233.488 80.5207 233.956 80.3352 234.562 80.3352C234.757 80.3352 234.953 80.3562 235.148 80.3982C235.343 80.4403 235.497 80.4898 235.608 80.5467L235.419 81.0699C235.283 81.0155 235.134 80.971 234.974 80.9363C234.813 80.8992 234.671 80.8807 234.547 80.8807C233.721 80.8807 233.307 81.4076 233.307 82.4615C233.307 82.9613 233.408 83.3447 233.608 83.6119C233.811 83.8791 234.11 84.0127 234.506 84.0127C234.845 84.0127 235.193 83.9397 235.549 83.7938V84.3393C235.277 84.4803 234.934 84.5508 234.521 84.5508ZM239.929 84.4766H239.306V80.9363H238.085C238.018 81.8171 237.925 82.516 237.807 83.033C237.688 83.5501 237.533 83.9286 237.343 84.1686C237.155 84.4085 236.915 84.5285 236.623 84.5285C236.489 84.5285 236.383 84.5137 236.304 84.484V84.0275C236.358 84.0424 236.42 84.0498 236.489 84.0498C236.774 84.0498 237 83.7492 237.168 83.148C237.337 82.5469 237.464 81.634 237.551 80.4094H239.929V84.4766ZM240.973 80.4094H241.634L242.525 82.7287C242.72 83.2581 242.841 83.6404 242.888 83.8754H242.918C242.95 83.7492 243.017 83.534 243.118 83.2297C243.222 82.9229 243.559 81.9828 244.128 80.4094H244.788L243.04 85.0406C242.867 85.4983 242.664 85.8224 242.432 86.0129C242.202 86.2059 241.919 86.3023 241.582 86.3023C241.394 86.3023 241.209 86.2813 241.025 86.2393V85.7457C241.162 85.7754 241.314 85.7902 241.482 85.7902C241.905 85.7902 242.207 85.5527 242.387 85.0777L242.614 84.4988L240.973 80.4094ZM248.278 80.9363H246.445V84.4766H245.829V80.4094H248.278V80.9363ZM250.046 80.4094V82.9885L250.02 83.6639L250.009 83.8754L252.209 80.4094H252.978V84.4766H252.402V81.9902L252.414 81.5004L252.432 81.018L250.235 84.4766H249.467V80.4094H250.046ZM255.955 82.3947C255.955 83.0454 255.859 83.6515 255.666 84.2131C255.475 84.7747 255.199 85.2633 254.838 85.6789H254.245C254.588 85.2138 254.852 84.698 255.035 84.1314C255.218 83.5624 255.31 82.9811 255.31 82.3873C255.31 81.7837 255.219 81.1961 255.039 80.6246C254.861 80.0531 254.593 79.5286 254.237 79.0512H254.838C255.202 79.4841 255.479 79.9876 255.67 80.5615C255.86 81.133 255.955 81.7441 255.955 82.3947ZM115.013 96.4766H114.397V92.4094H117.811V96.4766H117.188V92.9438H115.013V96.4766ZM123.008 94.4393C123.008 95.1023 122.841 95.6206 122.507 95.9941C122.173 96.3652 121.712 96.5508 121.123 96.5508C120.759 96.5508 120.436 96.4654 120.154 96.2947C119.872 96.124 119.655 95.8791 119.501 95.56C119.348 95.2408 119.271 94.8673 119.271 94.4393C119.271 93.7762 119.437 93.2604 119.768 92.8918C120.1 92.5207 120.56 92.3352 121.149 92.3352C121.718 92.3352 122.169 92.5244 122.503 92.9029C122.84 93.2814 123.008 93.7936 123.008 94.4393ZM119.909 94.4393C119.909 94.9588 120.013 95.3546 120.221 95.6268C120.429 95.8989 120.734 96.035 121.138 96.035C121.541 96.035 121.846 95.9001 122.054 95.6305C122.265 95.3583 122.37 94.9613 122.37 94.4393C122.37 93.9222 122.265 93.5301 122.054 93.2629C121.846 92.9932 121.538 92.8584 121.13 92.8584C120.727 92.8584 120.423 92.9908 120.217 93.2555C120.012 93.5202 119.909 93.9148 119.909 94.4393ZM124.676 96.4766H123.956L125.125 94.7584C124.811 94.6891 124.569 94.5555 124.401 94.3576C124.235 94.1572 124.152 93.9061 124.152 93.6043C124.152 93.2332 124.277 92.9413 124.527 92.7285C124.777 92.5158 125.126 92.4094 125.574 92.4094H127.385V96.4766H126.769V94.8512H125.741L124.676 96.4766ZM124.754 93.6117C124.754 94.0818 125.095 94.3168 125.778 94.3168H126.769V92.9438H125.652C125.053 92.9438 124.754 93.1664 124.754 93.6117ZM132.374 93.4299C132.374 93.6946 132.297 93.8962 132.144 94.0348C131.993 94.1708 131.78 94.2624 131.505 94.3094V94.3428C131.852 94.3898 132.104 94.4912 132.262 94.6471C132.423 94.8029 132.504 95.0182 132.504 95.2928C132.504 95.6713 132.364 95.9632 132.084 96.1686C131.807 96.3739 131.401 96.4766 130.867 96.4766H129.075V92.4094H130.86C131.869 92.4094 132.374 92.7495 132.374 93.4299ZM131.888 95.252C131.888 95.0318 131.803 94.8722 131.635 94.7732C131.469 94.6718 131.194 94.6211 130.808 94.6211H129.691V95.9607H130.822C131.532 95.9607 131.888 95.7245 131.888 95.252ZM131.772 93.4893C131.772 93.2913 131.696 93.1516 131.542 93.0699C131.391 92.9858 131.161 92.9438 130.852 92.9438H129.691V94.0904H130.733C131.114 94.0904 131.383 94.0434 131.539 93.9494C131.695 93.8554 131.772 93.702 131.772 93.4893ZM133.986 96.4766H133.266L134.435 94.7584C134.12 94.6891 133.879 94.5555 133.711 94.3576C133.545 94.1572 133.462 93.9061 133.462 93.6043C133.462 93.2332 133.587 92.9413 133.837 92.7285C134.087 92.5158 134.436 92.4094 134.884 92.4094H136.695V96.4766H136.079V94.8512H135.051L133.986 96.4766ZM134.064 93.6117C134.064 94.0818 134.405 94.3168 135.088 94.3168H136.079V92.9438H134.962C134.363 92.9438 134.064 93.1664 134.064 93.6117ZM141.127 92.9363H139.806V96.4766H139.19V92.9363H137.884V92.4094H141.127V92.9363ZM143.938 96.5508C143.349 96.5508 142.892 96.3702 142.568 96.009C142.247 95.6453 142.086 95.132 142.086 94.4689C142.086 93.7886 142.249 93.2629 142.576 92.8918C142.905 92.5207 143.372 92.3352 143.978 92.3352C144.174 92.3352 144.369 92.3562 144.565 92.3982C144.76 92.4403 144.914 92.4898 145.025 92.5467L144.836 93.0699C144.7 93.0155 144.551 92.971 144.39 92.9363C144.23 92.8992 144.087 92.8807 143.964 92.8807C143.137 92.8807 142.724 93.4076 142.724 94.4615C142.724 94.9613 142.824 95.3447 143.025 95.6119C143.228 95.8791 143.527 96.0127 143.923 96.0127C144.262 96.0127 144.609 95.9397 144.966 95.7938V96.3393C144.693 96.4803 144.351 96.5508 143.938 96.5508ZM146.518 96.4766H145.798L146.967 94.7584C146.653 94.6891 146.412 94.5555 146.244 94.3576C146.078 94.1572 145.995 93.9061 145.995 93.6043C145.995 93.2332 146.12 92.9413 146.37 92.7285C146.62 92.5158 146.969 92.4094 147.416 92.4094H149.227V96.4766H148.611V94.8512H147.583L146.518 96.4766ZM146.596 93.6117C146.596 94.0818 146.938 94.3168 147.62 94.3168H148.611V92.9438H147.494C146.896 92.9438 146.596 93.1664 146.596 93.6117ZM153.887 92.4094V94.1127H156.166V92.4094H156.782V96.4766H156.166V94.6434H153.887V96.4766H153.271V92.4094H153.887ZM160.969 96.4766L160.847 95.8977H160.817C160.614 96.1525 160.411 96.3257 160.209 96.4172C160.008 96.5062 159.757 96.5508 159.455 96.5508C159.052 96.5508 158.735 96.4469 158.505 96.2391C158.278 96.0313 158.164 95.7356 158.164 95.3521C158.164 94.5308 158.821 94.1003 160.134 94.0607L160.825 94.0385V93.7861C160.825 93.467 160.755 93.232 160.617 93.0811C160.481 92.9277 160.262 92.851 159.96 92.851C159.621 92.851 159.238 92.9549 158.81 93.1627L158.62 92.6914C158.821 92.5826 159.04 92.4972 159.277 92.4354C159.517 92.3735 159.757 92.3426 159.997 92.3426C160.482 92.3426 160.841 92.4502 161.073 92.6654C161.308 92.8807 161.426 93.2258 161.426 93.7008V96.4766H160.969ZM159.578 96.0424C159.961 96.0424 160.262 95.9372 160.48 95.727C160.7 95.5167 160.81 95.2223 160.81 94.8438V94.4764L160.194 94.5023C159.704 94.5197 159.35 94.5964 159.132 94.7324C158.917 94.866 158.81 95.0751 158.81 95.3596C158.81 95.5822 158.876 95.7517 159.01 95.868C159.146 95.9842 159.335 96.0424 159.578 96.0424ZM167.058 96.5508C166.469 96.5508 166.013 96.3702 165.689 96.009C165.367 95.6453 165.207 95.132 165.207 94.4689C165.207 93.7886 165.37 93.2629 165.696 92.8918C166.025 92.5207 166.493 92.3352 167.099 92.3352C167.295 92.3352 167.49 92.3562 167.685 92.3982C167.881 92.4403 168.034 92.4898 168.146 92.5467L167.956 93.0699C167.82 93.0155 167.672 92.971 167.511 92.9363C167.35 92.8992 167.208 92.8807 167.084 92.8807C166.258 92.8807 165.845 93.4076 165.845 94.4615C165.845 94.9613 165.945 95.3447 166.145 95.6119C166.348 95.8791 166.648 96.0127 167.043 96.0127C167.382 96.0127 167.73 95.9397 168.086 95.7938V96.3393C167.814 96.4803 167.471 96.5508 167.058 96.5508ZM171.936 96.4766L171.813 95.8977H171.784C171.581 96.1525 171.378 96.3257 171.175 96.4172C170.975 96.5062 170.724 96.5508 170.422 96.5508C170.019 96.5508 169.702 96.4469 169.472 96.2391C169.244 96.0313 169.13 95.7356 169.13 95.3521C169.13 94.5308 169.787 94.1003 171.101 94.0607L171.791 94.0385V93.7861C171.791 93.467 171.722 93.232 171.583 93.0811C171.447 92.9277 171.228 92.851 170.927 92.851C170.588 92.851 170.204 92.9549 169.776 93.1627L169.587 92.6914C169.787 92.5826 170.006 92.4972 170.244 92.4354C170.484 92.3735 170.724 92.3426 170.964 92.3426C171.449 92.3426 171.807 92.4502 172.04 92.6654C172.275 92.8807 172.392 93.2258 172.392 93.7008V96.4766H171.936ZM170.544 96.0424C170.928 96.0424 171.228 95.9372 171.446 95.727C171.666 95.5167 171.776 95.2223 171.776 94.8438V94.4764L171.16 94.5023C170.671 94.5197 170.317 94.5964 170.099 94.7324C169.884 94.866 169.776 95.0751 169.776 95.3596C169.776 95.5822 169.843 95.7517 169.977 95.868C170.113 95.9842 170.302 96.0424 170.544 96.0424ZM174.624 92.4094V94.9885L174.598 95.6639L174.587 95.8754L176.788 92.4094H177.556V96.4766H176.981V93.9902L176.992 93.5004L177.01 93.018L174.813 96.4766H174.045V92.4094H174.624ZM175.786 91.8713C175.328 91.8713 174.994 91.7835 174.784 91.6078C174.573 91.4297 174.456 91.1378 174.431 90.732H175.01C175.032 90.9893 175.099 91.1687 175.21 91.2701C175.324 91.3715 175.521 91.4223 175.801 91.4223C176.055 91.4223 176.243 91.3678 176.365 91.259C176.488 91.1501 176.564 90.9745 176.591 90.732H177.174C177.144 91.1229 177.019 91.4111 176.799 91.5967C176.579 91.7798 176.241 91.8713 175.786 91.8713ZM181.984 92.9363H180.663V96.4766H180.047V92.9363H178.741V92.4094H181.984V92.9363ZM184.888 96.5508C184.287 96.5508 183.812 96.3677 183.463 96.0016C183.117 95.6354 182.943 95.127 182.943 94.4764C182.943 93.8208 183.104 93.3 183.426 92.9141C183.75 92.5281 184.184 92.3352 184.728 92.3352C185.238 92.3352 185.641 92.5034 185.938 92.8398C186.235 93.1738 186.383 93.6154 186.383 94.1646V94.5543H183.582C183.594 95.0318 183.714 95.3942 183.942 95.6416C184.172 95.889 184.495 96.0127 184.91 96.0127C185.348 96.0127 185.781 95.9212 186.209 95.7381V96.2873C185.991 96.3813 185.785 96.4481 185.589 96.4877C185.396 96.5298 185.162 96.5508 184.888 96.5508ZM184.721 92.851C184.394 92.851 184.133 92.9574 183.938 93.1701C183.745 93.3829 183.631 93.6773 183.596 94.0533H185.723C185.723 93.6649 185.636 93.368 185.463 93.1627C185.29 92.9549 185.042 92.851 184.721 92.851Z" fill="#0B1331"/>
<rect x="82.5742" y="116.199" width="135.375" height="32.3" rx="1.9" fill="#3657C8"/>
<path d="M132.422 130.078C132.422 130.52 132.275 130.882 131.981 131.164C131.691 131.445 131.287 131.624 130.771 131.702V131.729C131.364 131.801 131.816 131.977 132.125 132.258C132.437 132.537 132.594 132.902 132.594 133.353C132.594 133.984 132.346 134.477 131.851 134.833C131.36 135.188 130.679 135.366 129.81 135.366C128.907 135.366 128.185 135.244 127.644 135V134.03C127.944 134.173 128.28 134.282 128.651 134.36C129.025 134.437 129.367 134.476 129.676 134.476C130.866 134.476 131.462 134.086 131.462 133.307C131.462 132.948 131.282 132.674 130.924 132.486C130.568 132.297 130.039 132.203 129.337 132.203H128.521V131.312H129.286C130.638 131.312 131.313 130.952 131.313 130.231C131.313 129.944 131.197 129.716 130.965 129.549C130.736 129.382 130.415 129.299 130 129.299C129.673 129.299 129.36 129.342 129.063 129.429C128.767 129.515 128.459 129.662 128.14 129.869L127.635 129.118C128.331 128.635 129.15 128.394 130.093 128.394C130.811 128.394 131.378 128.547 131.796 128.854C132.213 129.16 132.422 129.568 132.422 130.078ZM137.526 135.273L137.308 134.559H137.271C137.024 134.871 136.775 135.085 136.524 135.199C136.274 135.311 135.952 135.366 135.559 135.366C135.055 135.366 134.661 135.23 134.377 134.958C134.095 134.686 133.954 134.301 133.954 133.803C133.954 133.274 134.151 132.875 134.544 132.606C134.936 132.337 135.535 132.19 136.339 132.166L137.225 132.138V131.864C137.225 131.536 137.147 131.292 136.993 131.131C136.841 130.967 136.605 130.885 136.283 130.885C136.02 130.885 135.768 130.924 135.527 131.001C135.286 131.079 135.054 131.17 134.831 131.275L134.479 130.496C134.757 130.35 135.062 130.24 135.392 130.166C135.723 130.089 136.036 130.05 136.329 130.05C136.982 130.05 137.474 130.193 137.805 130.477C138.139 130.762 138.306 131.208 138.306 131.818V135.273H137.526ZM135.903 134.531C136.299 134.531 136.616 134.421 136.854 134.202C137.095 133.979 137.215 133.668 137.215 133.27V132.824L136.557 132.852C136.043 132.871 135.669 132.957 135.434 133.112C135.202 133.263 135.086 133.497 135.086 133.812C135.086 134.041 135.154 134.219 135.29 134.346C135.426 134.469 135.631 134.531 135.903 134.531ZM143.484 130.143H144.681L142.561 132.615L144.862 135.273H143.609L141.392 132.671V135.273H140.302V130.143H141.392V132.634L143.484 130.143ZM148.788 135.366C148.139 135.366 147.635 135.133 147.276 134.666H147.211C147.254 135.099 147.276 135.362 147.276 135.454V137.556H146.186V130.143H147.067C147.092 130.239 147.143 130.468 147.22 130.83H147.276C147.616 130.31 148.126 130.05 148.807 130.05C149.447 130.05 149.945 130.282 150.3 130.746C150.659 131.21 150.838 131.861 150.838 132.699C150.838 133.537 150.656 134.191 150.291 134.661C149.929 135.131 149.428 135.366 148.788 135.366ZM148.524 130.941C148.091 130.941 147.774 131.068 147.573 131.321C147.375 131.575 147.276 131.98 147.276 132.537V132.699C147.276 133.324 147.375 133.777 147.573 134.058C147.771 134.336 148.094 134.476 148.542 134.476C148.919 134.476 149.21 134.321 149.414 134.012C149.618 133.702 149.72 133.262 149.72 132.69C149.72 132.115 149.618 131.68 149.414 131.386C149.213 131.089 148.916 130.941 148.524 130.941ZM153.67 132.193H154.709C155.426 132.193 155.957 132.317 156.3 132.564C156.643 132.812 156.815 133.183 156.815 133.678C156.815 134.207 156.635 134.605 156.277 134.875C155.921 135.14 155.398 135.273 154.709 135.273H152.58V130.143H153.67V132.193ZM155.734 133.706C155.734 133.449 155.638 133.27 155.446 133.167C155.258 133.065 154.986 133.014 154.63 133.014H153.67V134.466H154.491C154.93 134.466 155.247 134.404 155.442 134.281C155.637 134.157 155.734 133.965 155.734 133.706ZM158.717 135.273H157.622V130.143H158.717V135.273ZM164.61 130.143V130.997H162.94V135.273H161.845V130.997H160.175V130.143H164.61ZM167.163 132.193H168.448C169.879 132.193 170.595 132.688 170.595 133.678C170.595 134.2 170.413 134.598 170.048 134.87C169.683 135.139 169.15 135.273 168.448 135.273H166.073V130.143H167.163V132.193ZM169.501 133.706C169.501 133.449 169.403 133.27 169.208 133.167C169.014 133.065 168.738 133.014 168.383 133.014H167.163V134.466H168.401C168.76 134.466 169.032 134.401 169.218 134.271C169.406 134.142 169.501 133.953 169.501 133.706Z" fill="white"/>
<path d="M62.356 35.9312C61.7065 35.9312 61.2037 36.1761 60.8475 36.6659C60.4912 37.1521 60.3131 37.8312 60.3131 38.7032C60.3131 40.5179 60.994 41.4252 62.356 41.4252C62.9274 41.4252 63.6195 41.2823 64.4322 40.9966V42.4438C63.7643 42.7222 63.0184 42.8613 62.1945 42.8613C61.0107 42.8613 60.1053 42.5032 59.4781 41.787C58.851 41.0671 58.5374 40.0354 58.5374 38.6921C58.5374 37.846 58.6914 37.1057 58.9994 36.4711C59.3074 35.8328 59.749 35.3448 60.3242 35.0071C60.9031 34.6657 61.5804 34.495 62.356 34.495C63.1464 34.495 63.9405 34.6861 64.7384 35.0684L64.1817 36.4711C63.8774 36.3264 63.5713 36.2002 63.2633 36.0926C62.9553 35.985 62.6528 35.9312 62.356 35.9312ZM72.2608 36.5268V42.75H70.5575V37.8015H68.3031V42.75H66.6054V36.5268H72.2608ZM78.5642 42.75L78.2358 41.9039H78.1913C77.9055 42.2639 77.6105 42.5144 77.3062 42.6554C77.0056 42.7927 76.6123 42.8613 76.1261 42.8613C75.5287 42.8613 75.0574 42.6906 74.7123 42.3492C74.3709 42.0078 74.2002 41.5217 74.2002 40.8908C74.2002 40.2303 74.4302 39.7441 74.8904 39.4324C75.3543 39.117 76.0519 38.9426 76.9834 38.9092L78.0632 38.8758V38.603C78.0632 37.9722 77.7404 37.6567 77.0947 37.6567C76.5974 37.6567 76.0129 37.807 75.3413 38.1076L74.7791 36.9609C75.4953 36.5861 76.2894 36.3987 77.1615 36.3987C77.9964 36.3987 78.6366 36.5806 79.0819 36.9442C79.5272 37.3079 79.7499 37.8608 79.7499 38.603V42.75H78.5642ZM78.0632 39.8666L77.4064 39.8889C76.9129 39.9037 76.5455 39.9928 76.3043 40.1561C76.063 40.3193 75.9424 40.568 75.9424 40.902C75.9424 41.3807 76.2171 41.62 76.7663 41.62C77.1596 41.62 77.4732 41.5068 77.707 41.2805C77.9445 41.0541 78.0632 40.7535 78.0632 40.3787V39.8666ZM84.6004 42.8613C82.6633 42.8613 81.6948 41.7981 81.6948 39.6718C81.6948 38.6142 81.9582 37.807 82.4852 37.2504C83.0121 36.69 83.7673 36.4099 84.7507 36.4099C85.4706 36.4099 86.1163 36.5509 86.6878 36.8329L86.1869 38.1466C85.9197 38.039 85.671 37.9518 85.441 37.885C85.2109 37.8145 84.9808 37.7792 84.7507 37.7792C83.8675 37.7792 83.4259 38.4063 83.4259 39.6606C83.4259 40.8778 83.8675 41.4864 84.7507 41.4864C85.0773 41.4864 85.3797 41.4438 85.658 41.3584C85.9364 41.2693 86.2147 41.132 86.493 40.9465V42.3993C86.2184 42.5737 85.9401 42.6943 85.658 42.7611C85.3797 42.8279 85.0272 42.8613 84.6004 42.8613ZM90.1524 36.5268V38.9871C90.1524 39.2469 90.1097 39.8814 90.0243 40.8908L92.8966 36.5268H94.9395V42.75H93.2974V40.2674C93.2974 39.8258 93.3345 39.2023 93.4087 38.3971L90.5476 42.75H88.5103V36.5268H90.1524ZM96.9178 39.0205C96.9178 37.5918 97.1887 36.5082 97.7305 35.7697C98.276 35.0275 99.1258 34.5581 100.28 34.3614C100.84 34.2649 101.677 34.1425 102.79 33.994L102.985 35.4747C102.503 35.5304 101.647 35.6491 100.419 35.831C99.9515 35.9052 99.6026 36.0165 99.3726 36.1649C99.1425 36.3134 98.9699 36.5249 98.8549 36.7995C98.7436 37.0741 98.6749 37.4396 98.6489 37.8961H98.7324C98.9291 37.5918 99.1889 37.358 99.5117 37.1947C99.8346 37.0314 100.182 36.9498 100.553 36.9498C101.321 36.9498 101.918 37.1854 102.345 37.6567C102.772 38.1243 102.985 38.796 102.985 39.6718C102.985 40.6812 102.714 41.466 102.172 42.0264C101.634 42.583 100.89 42.8613 99.9403 42.8613C98.9903 42.8613 98.2481 42.5218 97.7138 41.8427C97.1831 41.1599 96.9178 40.2191 96.9178 39.0205ZM100.041 41.4864C100.846 41.4864 101.248 40.9316 101.248 39.8221C101.248 38.7422 100.885 38.2022 100.157 38.2022C99.957 38.2022 99.7566 38.2486 99.5562 38.3414C99.3596 38.4342 99.1777 38.5566 99.0107 38.7088C98.8475 38.8572 98.7269 39.0075 98.6489 39.1597C98.6489 39.913 98.7695 40.49 99.0107 40.8908C99.252 41.2879 99.5952 41.4864 100.041 41.4864ZM106.311 39.6272C106.311 40.2433 106.411 40.709 106.611 41.0244C106.815 41.3398 107.145 41.4976 107.602 41.4976C108.055 41.4976 108.379 41.3417 108.576 41.03C108.776 40.7146 108.877 40.247 108.877 39.6272C108.877 39.0112 108.776 38.5492 108.576 38.2412C108.376 37.9332 108.047 37.7792 107.591 37.7792C107.138 37.7792 106.812 37.9332 106.611 38.2412C106.411 38.5455 106.311 39.0075 106.311 39.6272ZM110.613 39.6272C110.613 40.6403 110.346 41.4326 109.812 42.0041C109.277 42.5756 108.533 42.8613 107.58 42.8613C106.982 42.8613 106.455 42.7314 105.999 42.4717C105.542 42.2082 105.192 41.8315 104.947 41.3417C104.702 40.8519 104.579 40.2804 104.579 39.6272C104.579 38.6104 104.845 37.82 105.375 37.256C105.906 36.6919 106.652 36.4099 107.613 36.4099C108.211 36.4099 108.737 36.5397 109.194 36.7995C109.65 37.0593 110.001 37.4322 110.246 37.9184C110.491 38.4045 110.613 38.9741 110.613 39.6272ZM117.665 38.9203C118.307 38.9203 118.761 38.8684 119.029 38.7645C119.3 38.6605 119.435 38.4954 119.435 38.269C119.435 38.0687 119.337 37.9184 119.14 37.8182C118.943 37.718 118.619 37.6679 118.166 37.6679C117.88 37.6679 117.555 37.7031 117.192 37.7736C116.832 37.8441 116.503 37.9406 116.206 38.0631L115.706 36.8774C116.147 36.7104 116.576 36.5917 116.991 36.5212C117.407 36.447 117.871 36.4099 118.383 36.4099C119.159 36.4099 119.78 36.5583 120.248 36.8552C120.715 37.1521 120.949 37.5547 120.949 38.0631C120.949 38.7645 120.535 39.2209 119.708 39.4324V39.4881C120.216 39.6143 120.578 39.7942 120.793 40.028C121.012 40.2581 121.122 40.5605 121.122 40.9354C121.122 41.3139 120.999 41.6497 120.754 41.9429C120.509 42.236 120.155 42.4624 119.691 42.622C119.227 42.7815 118.682 42.8613 118.055 42.8613C117.015 42.8613 116.218 42.7333 115.661 42.4772V41.0745C115.98 41.2229 116.329 41.3398 116.707 41.4252C117.09 41.5105 117.459 41.5532 117.815 41.5532C118.368 41.5532 118.782 41.492 119.056 41.3695C119.331 41.2434 119.468 41.0652 119.468 40.8352C119.468 40.5828 119.324 40.3973 119.034 40.2785C118.745 40.1561 118.299 40.0948 117.698 40.0948H117.041V38.9203H117.665ZM126.974 42.75L126.646 41.9039H126.601C126.315 42.2639 126.02 42.5144 125.716 42.6554C125.416 42.7927 125.022 42.8613 124.536 42.8613C123.939 42.8613 123.467 42.6906 123.122 42.3492C122.781 42.0078 122.61 41.5217 122.61 40.8908C122.61 40.2303 122.84 39.7441 123.3 39.4324C123.764 39.117 124.462 38.9426 125.393 38.9092L126.473 38.8758V38.603C126.473 37.9722 126.15 37.6567 125.505 37.6567C125.007 37.6567 124.423 37.807 123.751 38.1076L123.189 36.9609C123.905 36.5861 124.699 36.3987 125.571 36.3987C126.406 36.3987 127.046 36.5806 127.492 36.9442C127.937 37.3079 128.16 37.8608 128.16 38.603V42.75H126.974ZM126.473 39.8666L125.816 39.8889C125.323 39.9037 124.955 39.9928 124.714 40.1561C124.473 40.3193 124.352 40.568 124.352 40.902C124.352 41.3807 124.627 41.62 125.176 41.62C125.57 41.62 125.883 41.5068 126.117 41.2805C126.354 41.0541 126.473 40.7535 126.473 40.3787V39.8666ZM136.542 42.8613C134.605 42.8613 133.636 41.7981 133.636 39.6718C133.636 38.6142 133.899 37.807 134.426 37.2504C134.953 36.69 135.709 36.4099 136.692 36.4099C137.412 36.4099 138.058 36.5509 138.629 36.8329L138.128 38.1466C137.861 38.039 137.612 37.9518 137.382 37.885C137.152 37.8145 136.922 37.7792 136.692 37.7792C135.809 37.7792 135.367 38.4063 135.367 39.6606C135.367 40.8778 135.809 41.4864 136.692 41.4864C137.019 41.4864 137.321 41.4438 137.599 41.3584C137.878 41.2693 138.156 41.132 138.434 40.9465V42.3993C138.16 42.5737 137.881 42.6943 137.599 42.7611C137.321 42.8279 136.968 42.8613 136.542 42.8613ZM141.804 39.6272C141.804 40.2433 141.904 40.709 142.105 41.0244C142.309 41.3398 142.639 41.4976 143.096 41.4976C143.548 41.4976 143.873 41.3417 144.07 41.03C144.27 40.7146 144.37 40.247 144.37 39.6272C144.37 39.0112 144.27 38.5492 144.07 38.2412C143.869 37.9332 143.541 37.7792 143.084 37.7792C142.632 37.7792 142.305 37.9332 142.105 38.2412C141.904 38.5455 141.804 39.0075 141.804 39.6272ZM146.107 39.6272C146.107 40.6403 145.84 41.4326 145.305 42.0041C144.771 42.5756 144.027 42.8613 143.073 42.8613C142.476 42.8613 141.949 42.7314 141.492 42.4717C141.036 42.2082 140.685 41.8315 140.44 41.3417C140.195 40.8519 140.073 40.2804 140.073 39.6272C140.073 38.6104 140.338 37.82 140.869 37.256C141.4 36.6919 142.146 36.4099 143.107 36.4099C143.704 36.4099 144.231 36.5397 144.688 36.7995C145.144 37.0593 145.495 37.4322 145.74 37.9184C145.985 38.4045 146.107 38.9741 146.107 39.6272ZM153.229 36.5268V37.8015H151.191V42.75H149.494V37.8015H147.451V36.5268H153.229ZM158.38 42.8613C157.649 42.8613 157.075 42.596 156.66 42.0653H156.571C156.63 42.5849 156.66 42.8854 156.66 42.9671V45.4887H154.962V36.5268H156.342L156.582 37.3339H156.66C157.057 36.7179 157.645 36.4099 158.424 36.4099C159.159 36.4099 159.734 36.6938 160.15 37.2615C160.566 37.8293 160.773 38.6179 160.773 39.6272C160.773 40.2915 160.675 40.8686 160.478 41.3584C160.285 41.8482 160.009 42.2212 159.649 42.4772C159.289 42.7333 158.866 42.8613 158.38 42.8613ZM157.879 37.7681C157.459 37.7681 157.153 37.8979 156.96 38.1577C156.767 38.4138 156.667 38.8387 156.66 39.4324V39.6161C156.66 40.2841 156.758 40.7628 156.955 41.0522C157.155 41.3417 157.471 41.4864 157.901 41.4864C158.662 41.4864 159.042 40.8593 159.042 39.605C159.042 38.9927 158.948 38.5344 158.758 38.2301C158.573 37.9221 158.28 37.7681 157.879 37.7681ZM161.855 36.5268H163.715L164.889 40.028C164.989 40.3323 165.058 40.6923 165.095 41.1079H165.129C165.169 40.7257 165.249 40.3657 165.368 40.028L166.52 36.5268H168.34L165.707 43.546C165.466 44.1954 165.121 44.6815 164.672 45.0044C164.227 45.3272 163.705 45.4887 163.108 45.4887C162.815 45.4887 162.527 45.4571 162.245 45.394V44.047C162.449 44.0952 162.672 44.1193 162.913 44.1193C163.214 44.1193 163.475 44.0266 163.698 43.841C163.924 43.6592 164.101 43.3827 164.227 43.0116L164.327 42.7055L161.855 36.5268ZM173.703 41.5087V37.8015H172.428C172.336 38.4917 172.207 39.1467 172.044 39.7664C171.885 40.3861 171.662 40.9669 171.376 41.5087H173.703ZM176.314 44.9821H174.788V42.75H170.603V44.9821H169.077V41.5087H169.601C169.957 40.9558 170.256 40.2581 170.497 39.4157C170.738 38.5733 170.907 37.6104 171.003 36.5268H175.401V41.5087H176.314V44.9821ZM179.645 36.5268V38.9203H182.016V36.5268H183.714V42.75H182.016V40.1839H179.645V42.75H177.947V36.5268H179.645ZM187.707 36.5268V38.9871C187.707 39.2469 187.664 39.8814 187.579 40.8908L190.451 36.5268H192.494V42.75H190.852V40.2674C190.852 39.8258 190.889 39.2023 190.963 38.3971L188.102 42.75H186.065V36.5268H187.707ZM196.343 36.5268V38.8034C196.343 39.3452 196.593 39.6161 197.094 39.6161C197.421 39.6161 197.723 39.579 198.001 39.5048C198.284 39.4306 198.567 39.3341 198.853 39.2153V36.5268H200.551V42.75H198.853V40.2785C198.46 40.4863 198.094 40.6329 197.757 40.7183C197.419 40.8036 197.092 40.8463 196.777 40.8463C196.098 40.8463 195.573 40.6737 195.202 40.3286C194.83 39.9798 194.645 39.4844 194.645 38.8424V36.5268H196.343ZM205.479 37.6178C205.119 37.6178 204.837 37.7328 204.633 37.9629C204.429 38.1893 204.312 38.5121 204.283 38.9314H206.665C206.658 38.5121 206.548 38.1893 206.337 37.9629C206.125 37.7328 205.839 37.6178 205.479 37.6178ZM205.719 42.8613C204.717 42.8613 203.934 42.5849 203.37 42.0319C202.806 41.479 202.524 40.696 202.524 39.6829C202.524 38.6401 202.783 37.8349 203.303 37.2671C203.826 36.6956 204.548 36.4099 205.468 36.4099C206.348 36.4099 207.032 36.6604 207.522 37.1613C208.012 37.6623 208.257 38.3544 208.257 39.2376V40.0614H204.244C204.262 40.5438 204.405 40.9205 204.672 41.1914C204.939 41.4623 205.314 41.5978 205.797 41.5978C206.171 41.5978 206.526 41.5588 206.86 41.4809C207.194 41.4029 207.543 41.2786 207.906 41.1079V42.4216C207.609 42.57 207.292 42.6795 206.954 42.75C206.617 42.8242 206.205 42.8613 205.719 42.8613ZM212.735 42.8613C210.798 42.8613 209.829 41.7981 209.829 39.6718C209.829 38.6142 210.092 37.807 210.619 37.2504C211.146 36.69 211.902 36.4099 212.885 36.4099C213.605 36.4099 214.251 36.5509 214.822 36.8329L214.321 38.1466C214.054 38.039 213.805 37.9518 213.575 37.885C213.345 37.8145 213.115 37.7792 212.885 37.7792C212.002 37.7792 211.56 38.4063 211.56 39.6606C211.56 40.8778 212.002 41.4864 212.885 41.4864C213.211 41.4864 213.514 41.4438 213.792 41.3584C214.071 41.2693 214.349 41.132 214.627 40.9465V42.3993C214.353 42.5737 214.074 42.6943 213.792 42.7611C213.514 42.8279 213.161 42.8613 212.735 42.8613ZM221.793 36.5268V37.8015H219.756V42.75H218.058V37.8015H216.015V36.5268H221.793ZM229.271 38.1577C229.271 38.4917 229.166 38.7774 228.954 39.0149C228.746 39.2487 228.438 39.399 228.03 39.4658V39.5104C228.472 39.5623 228.82 39.7145 229.077 39.9668C229.336 40.2154 229.466 40.5234 229.466 40.8908C229.466 41.4957 229.229 41.9577 228.754 42.2769C228.279 42.5923 227.6 42.75 226.716 42.75H223.527V36.5268H226.716C227.57 36.5268 228.208 36.6659 228.631 36.9442C229.058 37.2188 229.271 37.6233 229.271 38.1577ZM227.707 40.8018C227.707 40.5568 227.613 40.3806 227.423 40.2729C227.234 40.1616 226.95 40.106 226.572 40.106H225.225V41.5755H226.605C226.965 41.5755 227.238 41.5087 227.423 41.3751C227.613 41.2378 227.707 41.0467 227.707 40.8018ZM227.551 38.2913C227.551 37.9128 227.251 37.7235 226.65 37.7235H225.225V38.9537H226.455C226.815 38.9537 227.087 38.9018 227.273 38.7979C227.459 38.6939 227.551 38.5251 227.551 38.2913ZM232.741 39.6272C232.741 40.2433 232.842 40.709 233.042 41.0244C233.246 41.3398 233.576 41.4976 234.033 41.4976C234.486 41.4976 234.81 41.3417 235.007 41.03C235.207 40.7146 235.308 40.247 235.308 39.6272C235.308 39.0112 235.207 38.5492 235.007 38.2412C234.807 37.9332 234.478 37.7792 234.022 37.7792C233.569 37.7792 233.242 37.9332 233.042 38.2412C232.842 38.5455 232.741 39.0075 232.741 39.6272ZM237.044 39.6272C237.044 40.6403 236.777 41.4326 236.243 42.0041C235.708 42.5756 234.964 42.8613 234.011 42.8613C233.413 42.8613 232.886 42.7314 232.43 42.4717C231.973 42.2082 231.623 41.8315 231.378 41.3417C231.133 40.8519 231.01 40.2804 231.01 39.6272C231.01 38.6104 231.276 37.82 231.806 37.256C232.337 36.6919 233.083 36.4099 234.044 36.4099C234.641 36.4099 235.168 36.5397 235.625 36.7995C236.081 37.0593 236.432 37.4322 236.677 37.9184C236.922 38.4045 237.044 38.9741 237.044 39.6272ZM240.442 40.0503H239.084L238.8 34.6119H240.726L240.442 40.0503ZM238.778 41.954C238.778 41.6423 238.861 41.4066 239.028 41.2471C239.195 41.0875 239.438 41.0077 239.757 41.0077C240.065 41.0077 240.303 41.0894 240.47 41.2526C240.641 41.4159 240.726 41.6497 240.726 41.954C240.726 42.2472 240.641 42.4791 240.47 42.6498C240.299 42.8168 240.062 42.9003 239.757 42.9003C239.446 42.9003 239.204 42.8187 239.034 42.6554C238.863 42.4884 238.778 42.2546 238.778 41.954Z" fill="#0B1331"/>
</g>
<defs>
<filter id="filter0_d" x="0.875" y="0.775" width="299.25" height="180.5" filterUnits="userSpaceOnUse" color-interpolation-filters="sRGB">
<feFlood flood-opacity="0" result="BackgroundImageFix"/>
<feColorMatrix in="SourceAlpha" type="matrix" values="0 0 0 0 0 0 0 0 0 0 0 0 0 0 0 0 0 0 127 0" result="hardAlpha"/>
<feOffset dy="1.9"/>
<feGaussianBlur stdDeviation="3.5625"/>
<feColorMatrix type="matrix" values="0 0 0 0 0 0 0 0 0 0 0 0 0 0 0 0 0 0 0.15 0"/>
<feBlend mode="normal" in2="BackgroundImageFix" result="effect1_dropShadow"/>
<feBlend mode="normal" in="SourceGraphic" in2="effect1_dropShadow" result="shape"/>
</filter>
</defs>
</svg>
