<svg width="474" height="286" viewBox="0 0 474 286" fill="none" xmlns="http://www.w3.org/2000/svg">
<g filter="url(#filter0_d)">
<rect x="12" y="9" width="450" height="262.5" rx="3" fill="white"/>
<path d="M52.5727 113.75H51.5766V106.068H48.8637V105.184H55.2856V106.068H52.5727V113.75ZM62.577 110.533C62.577 111.58 62.3133 112.398 61.7859 112.988C61.2586 113.574 60.5301 113.867 59.6004 113.867C59.0262 113.867 58.5164 113.732 58.0711 113.463C57.6258 113.193 57.282 112.807 57.0399 112.303C56.7977 111.799 56.6766 111.209 56.6766 110.533C56.6766 109.486 56.9383 108.672 57.4617 108.09C57.9852 107.504 58.7117 107.211 59.6414 107.211C60.5399 107.211 61.2527 107.51 61.7801 108.107C62.3113 108.705 62.577 109.514 62.577 110.533ZM57.6844 110.533C57.6844 111.354 57.8484 111.979 58.1766 112.408C58.5047 112.838 58.9871 113.053 59.6238 113.053C60.2606 113.053 60.743 112.84 61.0711 112.414C61.4031 111.984 61.5691 111.357 61.5691 110.533C61.5691 109.717 61.4031 109.098 61.0711 108.676C60.743 108.25 60.2566 108.037 59.6121 108.037C58.9754 108.037 58.4949 108.246 58.1707 108.664C57.8465 109.082 57.6844 109.705 57.6844 110.533ZM70.0969 108.939C70.0969 109.357 69.9758 109.676 69.7336 109.895C69.4953 110.109 69.1594 110.254 68.7258 110.328V110.381C69.2727 110.455 69.6711 110.615 69.9211 110.861C70.175 111.107 70.302 111.447 70.302 111.881C70.302 112.479 70.0813 112.939 69.6399 113.264C69.2024 113.588 68.5617 113.75 67.718 113.75H64.8879V107.328H67.7063C69.3 107.328 70.0969 107.865 70.0969 108.939ZM69.3293 111.816C69.3293 111.469 69.1965 111.217 68.9309 111.061C68.6691 110.9 68.2336 110.82 67.6242 110.82H65.8606V112.936H67.6477C68.7688 112.936 69.3293 112.562 69.3293 111.816ZM69.1477 109.033C69.1477 108.721 69.0266 108.5 68.7844 108.371C68.5461 108.238 68.1828 108.172 67.6945 108.172H65.8606V109.982H67.507C68.1086 109.982 68.5324 109.908 68.7785 109.76C69.0246 109.611 69.1477 109.369 69.1477 109.033ZM76.2691 113.75L76.0758 112.836H76.0289C75.7086 113.238 75.3883 113.512 75.068 113.656C74.7516 113.797 74.3551 113.867 73.8785 113.867C73.2418 113.867 72.7418 113.703 72.3785 113.375C72.0191 113.047 71.8395 112.58 71.8395 111.975C71.8395 110.678 72.8766 109.998 74.9508 109.936L76.0406 109.9V109.502C76.0406 108.998 75.9313 108.627 75.7125 108.389C75.4977 108.146 75.152 108.025 74.6754 108.025C74.1402 108.025 73.5348 108.189 72.859 108.518L72.5602 107.773C72.8766 107.602 73.2223 107.467 73.5973 107.369C73.9762 107.271 74.3551 107.223 74.734 107.223C75.4996 107.223 76.066 107.393 76.4332 107.732C76.8043 108.072 76.9898 108.617 76.9898 109.367V113.75H76.2691ZM74.0719 113.064C74.6773 113.064 75.152 112.898 75.4957 112.566C75.8434 112.234 76.0172 111.77 76.0172 111.172V110.592L75.0445 110.633C74.2711 110.66 73.7125 110.781 73.3688 110.996C73.0289 111.207 72.859 111.537 72.859 111.986C72.859 112.338 72.9645 112.605 73.1754 112.789C73.3902 112.973 73.6891 113.064 74.0719 113.064ZM82.5879 113.867C82.1699 113.867 81.7871 113.791 81.4395 113.639C81.0957 113.482 80.8066 113.244 80.5723 112.924H80.502C80.5488 113.299 80.5723 113.654 80.5723 113.99V116.633H79.5996V107.328H80.3906L80.5254 108.207H80.5723C80.8223 107.855 81.1133 107.602 81.4453 107.445C81.7774 107.289 82.1582 107.211 82.5879 107.211C83.4395 107.211 84.0957 107.502 84.5566 108.084C85.0215 108.666 85.2539 109.482 85.2539 110.533C85.2539 111.588 85.0176 112.408 84.5449 112.994C84.0762 113.576 83.4238 113.867 82.5879 113.867ZM82.4473 108.037C81.791 108.037 81.3164 108.219 81.0234 108.582C80.7305 108.945 80.5801 109.523 80.5723 110.316V110.533C80.5723 111.436 80.7227 112.082 81.0234 112.473C81.3242 112.859 81.8066 113.053 82.4707 113.053C83.0254 113.053 83.459 112.828 83.7715 112.379C84.0879 111.93 84.2461 111.311 84.2461 110.521C84.2461 109.721 84.0879 109.107 83.7715 108.682C83.459 108.252 83.0176 108.037 82.4473 108.037ZM88.5316 109.982H90.2836C91.1 109.982 91.7035 110.135 92.0941 110.439C92.4887 110.74 92.6859 111.191 92.6859 111.793C92.6859 112.438 92.477 112.926 92.059 113.258C91.6449 113.586 91.0336 113.75 90.225 113.75H87.559V107.328H88.5316V109.982ZM94.7367 113.75H93.7641V107.328H94.7367V113.75ZM88.5316 110.82V112.936H90.1781C91.2094 112.936 91.725 112.574 91.725 111.852C91.725 111.492 91.6059 111.23 91.3676 111.066C91.1293 110.902 90.7231 110.82 90.1488 110.82H88.5316ZM96.8543 110.463C96.8543 109.428 97.0047 108.459 97.3055 107.557C97.6102 106.654 98.0477 105.863 98.618 105.184H99.5672C99.0047 105.938 98.5809 106.766 98.2957 107.668C98.0145 108.57 97.8738 109.498 97.8738 110.451C97.8738 111.389 98.0184 112.305 98.3074 113.199C98.5965 114.094 99.0125 114.91 99.5555 115.648H98.618C98.0438 114.984 97.6063 114.209 97.3055 113.322C97.0047 112.436 96.8543 111.482 96.8543 110.463ZM100.536 107.328H101.579L102.986 110.99C103.294 111.826 103.486 112.43 103.56 112.801H103.607C103.657 112.602 103.763 112.262 103.923 111.781C104.087 111.297 104.618 109.812 105.517 107.328H106.56L103.8 114.641C103.527 115.363 103.206 115.875 102.839 116.176C102.476 116.48 102.029 116.633 101.497 116.633C101.2 116.633 100.907 116.6 100.618 116.533V115.754C100.833 115.801 101.073 115.824 101.339 115.824C102.007 115.824 102.484 115.449 102.769 114.699L103.126 113.785L100.536 107.328ZM110.769 113.867C109.839 113.867 109.119 113.582 108.607 113.012C108.099 112.438 107.845 111.627 107.845 110.58C107.845 109.506 108.103 108.676 108.619 108.09C109.138 107.504 109.877 107.211 110.834 107.211C111.142 107.211 111.451 107.244 111.759 107.311C112.068 107.377 112.31 107.455 112.486 107.545L112.187 108.371C111.972 108.285 111.738 108.215 111.484 108.16C111.23 108.102 111.005 108.072 110.81 108.072C109.505 108.072 108.853 108.904 108.853 110.568C108.853 111.357 109.011 111.963 109.328 112.385C109.648 112.807 110.121 113.018 110.746 113.018C111.281 113.018 111.83 112.902 112.392 112.672V113.533C111.963 113.756 111.421 113.867 110.769 113.867ZM119.309 113.75H118.324V108.16H116.396C116.291 109.551 116.145 110.654 115.957 111.471C115.77 112.287 115.525 112.885 115.225 113.264C114.928 113.643 114.549 113.832 114.088 113.832C113.877 113.832 113.709 113.809 113.584 113.762V113.041C113.67 113.064 113.768 113.076 113.877 113.076C114.326 113.076 114.684 112.602 114.949 111.652C115.215 110.703 115.416 109.262 115.553 107.328H119.309V113.75ZM120.957 107.328H122L123.407 110.99C123.715 111.826 123.907 112.43 123.981 112.801H124.028C124.079 112.602 124.184 112.262 124.344 111.781C124.508 111.297 125.039 109.812 125.938 107.328H126.981L124.221 114.641C123.948 115.363 123.627 115.875 123.26 116.176C122.897 116.48 122.45 116.633 121.918 116.633C121.621 116.633 121.329 116.6 121.039 116.533V115.754C121.254 115.801 121.495 115.824 121.76 115.824C122.428 115.824 122.905 115.449 123.19 114.699L123.547 113.785L120.957 107.328ZM132.491 108.16H129.596V113.75H128.624V107.328H132.491V108.16ZM135.282 107.328V111.4L135.241 112.467L135.224 112.801L138.698 107.328H139.911V113.75H139.003V109.824L139.021 109.051L139.05 108.289L135.581 113.75H134.368V107.328H135.282ZM144.613 110.463C144.613 111.49 144.461 112.447 144.156 113.334C143.855 114.221 143.42 114.992 142.849 115.648H141.912C142.455 114.914 142.871 114.1 143.16 113.205C143.449 112.307 143.593 111.389 143.593 110.451C143.593 109.498 143.451 108.57 143.166 107.668C142.884 106.766 142.463 105.938 141.9 105.184H142.849C143.423 105.867 143.861 106.662 144.162 107.568C144.463 108.471 144.613 109.436 144.613 110.463ZM155.985 110.533C155.985 111.58 155.721 112.398 155.194 112.988C154.666 113.574 153.938 113.867 153.008 113.867C152.434 113.867 151.924 113.732 151.479 113.463C151.034 113.193 150.69 112.807 150.448 112.303C150.205 111.799 150.084 111.209 150.084 110.533C150.084 109.486 150.346 108.672 150.87 108.09C151.393 107.504 152.12 107.211 153.049 107.211C153.948 107.211 154.661 107.51 155.188 108.107C155.719 108.705 155.985 109.514 155.985 110.533ZM151.092 110.533C151.092 111.354 151.256 111.979 151.584 112.408C151.913 112.838 152.395 113.053 153.032 113.053C153.668 113.053 154.151 112.84 154.479 112.414C154.811 111.984 154.977 111.357 154.977 110.533C154.977 109.717 154.811 109.098 154.479 108.676C154.151 108.25 153.664 108.037 153.02 108.037C152.383 108.037 151.903 108.246 151.579 108.664C151.254 109.082 151.092 109.705 151.092 110.533ZM162.626 108.16H160.54V113.75H159.567V108.16H157.505V107.328H162.626V108.16ZM165.47 113.75H164.497V107.328H169.888V113.75H168.904V108.172H165.47V113.75ZM175.539 113.867C175.121 113.867 174.738 113.791 174.39 113.639C174.046 113.482 173.757 113.244 173.523 112.924H173.453C173.5 113.299 173.523 113.654 173.523 113.99V116.633H172.55V107.328H173.341L173.476 108.207H173.523C173.773 107.855 174.064 107.602 174.396 107.445C174.728 107.289 175.109 107.211 175.539 107.211C176.39 107.211 177.046 107.502 177.507 108.084C177.972 108.666 178.205 109.482 178.205 110.533C178.205 111.588 177.968 112.408 177.496 112.994C177.027 113.576 176.375 113.867 175.539 113.867ZM175.398 108.037C174.742 108.037 174.267 108.219 173.974 108.582C173.681 108.945 173.531 109.523 173.523 110.316V110.533C173.523 111.436 173.673 112.082 173.974 112.473C174.275 112.859 174.757 113.053 175.421 113.053C175.976 113.053 176.41 112.828 176.722 112.379C177.039 111.93 177.197 111.311 177.197 110.521C177.197 109.721 177.039 109.107 176.722 108.682C176.41 108.252 175.968 108.037 175.398 108.037ZM184.459 113.75L184.266 112.836H184.219C183.898 113.238 183.578 113.512 183.258 113.656C182.941 113.797 182.545 113.867 182.068 113.867C181.432 113.867 180.932 113.703 180.568 113.375C180.209 113.047 180.029 112.58 180.029 111.975C180.029 110.678 181.066 109.998 183.141 109.936L184.23 109.9V109.502C184.23 108.998 184.121 108.627 183.902 108.389C183.688 108.146 183.342 108.025 182.865 108.025C182.33 108.025 181.725 108.189 181.049 108.518L180.75 107.773C181.066 107.602 181.412 107.467 181.787 107.369C182.166 107.271 182.545 107.223 182.924 107.223C183.689 107.223 184.256 107.393 184.623 107.732C184.994 108.072 185.18 108.617 185.18 109.367V113.75H184.459ZM182.262 113.064C182.867 113.064 183.342 112.898 183.686 112.566C184.033 112.234 184.207 111.77 184.207 111.172V110.592L183.234 110.633C182.461 110.66 181.902 110.781 181.559 110.996C181.219 111.207 181.049 111.537 181.049 111.986C181.049 112.338 181.154 112.605 181.365 112.789C181.58 112.973 181.879 113.064 182.262 113.064ZM192.998 108.939C192.998 109.357 192.877 109.676 192.635 109.895C192.397 110.109 192.061 110.254 191.627 110.328V110.381C192.174 110.455 192.573 110.615 192.823 110.861C193.077 111.107 193.204 111.447 193.204 111.881C193.204 112.479 192.983 112.939 192.541 113.264C192.104 113.588 191.463 113.75 190.62 113.75H187.789V107.328H190.608C192.202 107.328 192.998 107.865 192.998 108.939ZM192.231 111.816C192.231 111.469 192.098 111.217 191.832 111.061C191.571 110.9 191.135 110.82 190.526 110.82H188.762V112.936H190.549C191.67 112.936 192.231 112.562 192.231 111.816ZM192.049 109.033C192.049 108.721 191.928 108.5 191.686 108.371C191.448 108.238 191.084 108.172 190.596 108.172H188.762V109.982H190.409C191.01 109.982 191.434 109.908 191.68 109.76C191.926 109.611 192.049 109.369 192.049 109.033ZM200.009 113.75H199.024V108.16H197.096C196.991 109.551 196.845 110.654 196.657 111.471C196.47 112.287 196.225 112.885 195.925 113.264C195.628 113.643 195.249 113.832 194.788 113.832C194.577 113.832 194.409 113.809 194.284 113.762V113.041C194.37 113.064 194.468 113.076 194.577 113.076C195.026 113.076 195.384 112.602 195.649 111.652C195.915 110.703 196.116 109.262 196.253 107.328H200.009V113.75ZM205.39 113.867C204.441 113.867 203.691 113.578 203.14 113C202.593 112.422 202.32 111.619 202.32 110.592C202.32 109.557 202.573 108.734 203.081 108.125C203.593 107.516 204.279 107.211 205.138 107.211C205.943 107.211 206.579 107.477 207.048 108.008C207.517 108.535 207.751 109.232 207.751 110.1V110.715H203.327C203.347 111.469 203.536 112.041 203.896 112.432C204.259 112.822 204.769 113.018 205.425 113.018C206.116 113.018 206.8 112.873 207.476 112.584V113.451C207.132 113.6 206.806 113.705 206.497 113.768C206.193 113.834 205.823 113.867 205.39 113.867ZM205.126 108.025C204.611 108.025 204.198 108.193 203.89 108.529C203.585 108.865 203.405 109.33 203.351 109.924H206.708C206.708 109.311 206.571 108.842 206.298 108.518C206.025 108.189 205.634 108.025 205.126 108.025ZM210.988 107.328V110.018H214.586V107.328H215.558V113.75H214.586V110.855H210.988V113.75H210.015V107.328H210.988ZM219.193 109.982H220.945C221.762 109.982 222.365 110.135 222.756 110.439C223.15 110.74 223.348 111.191 223.348 111.793C223.348 112.438 223.139 112.926 222.721 113.258C222.307 113.586 221.695 113.75 220.887 113.75H218.221V107.328H219.193V109.982ZM225.398 113.75H224.426V107.328H225.398V113.75ZM219.193 110.82V112.936H220.84C221.871 112.936 222.387 112.574 222.387 111.852C222.387 111.492 222.268 111.23 222.029 111.066C221.791 110.902 221.385 110.82 220.811 110.82H219.193ZM232.757 107.328V110.018H236.354V107.328H237.327V113.75H236.354V110.855H232.757V113.75H231.784V107.328H232.757ZM243.939 113.75L243.745 112.836H243.698C243.378 113.238 243.058 113.512 242.738 113.656C242.421 113.797 242.025 113.867 241.548 113.867C240.911 113.867 240.411 113.703 240.048 113.375C239.689 113.047 239.509 112.58 239.509 111.975C239.509 110.678 240.546 109.998 242.62 109.936L243.71 109.9V109.502C243.71 108.998 243.601 108.627 243.382 108.389C243.167 108.146 242.821 108.025 242.345 108.025C241.81 108.025 241.204 108.189 240.529 108.518L240.23 107.773C240.546 107.602 240.892 107.467 241.267 107.369C241.646 107.271 242.025 107.223 242.404 107.223C243.169 107.223 243.736 107.393 244.103 107.732C244.474 108.072 244.659 108.617 244.659 109.367V113.75H243.939ZM241.741 113.064C242.347 113.064 242.821 112.898 243.165 112.566C243.513 112.234 243.687 111.77 243.687 111.172V110.592L242.714 110.633C241.941 110.66 241.382 110.781 241.038 110.996C240.698 111.207 240.529 111.537 240.529 111.986C240.529 112.338 240.634 112.605 240.845 112.789C241.06 112.973 241.359 113.064 241.741 113.064ZM253.975 113.867C253.557 113.867 253.174 113.791 252.826 113.639C252.482 113.482 252.193 113.244 251.959 112.924H251.889C251.936 113.299 251.959 113.654 251.959 113.99V116.633H250.986V107.328H251.777L251.912 108.207H251.959C252.209 107.855 252.5 107.602 252.832 107.445C253.164 107.289 253.545 107.211 253.975 107.211C254.826 107.211 255.482 107.502 255.943 108.084C256.408 108.666 256.641 109.482 256.641 110.533C256.641 111.588 256.404 112.408 255.932 112.994C255.463 113.576 254.811 113.867 253.975 113.867ZM253.834 108.037C253.178 108.037 252.703 108.219 252.41 108.582C252.117 108.945 251.967 109.523 251.959 110.316V110.533C251.959 111.436 252.109 112.082 252.41 112.473C252.711 112.859 253.193 113.053 253.857 113.053C254.412 113.053 254.846 112.828 255.158 112.379C255.475 111.93 255.633 111.311 255.633 110.521C255.633 109.721 255.475 109.107 255.158 108.682C254.846 108.252 254.404 108.037 253.834 108.037ZM262.895 113.75L262.702 112.836H262.655C262.334 113.238 262.014 113.512 261.694 113.656C261.377 113.797 260.981 113.867 260.504 113.867C259.868 113.867 259.368 113.703 259.004 113.375C258.645 113.047 258.465 112.58 258.465 111.975C258.465 110.678 259.502 109.998 261.577 109.936L262.666 109.9V109.502C262.666 108.998 262.557 108.627 262.338 108.389C262.123 108.146 261.778 108.025 261.301 108.025C260.766 108.025 260.161 108.189 259.485 108.518L259.186 107.773C259.502 107.602 259.848 107.467 260.223 107.369C260.602 107.271 260.981 107.223 261.36 107.223C262.125 107.223 262.692 107.393 263.059 107.732C263.43 108.072 263.616 108.617 263.616 109.367V113.75H262.895ZM260.698 113.064C261.303 113.064 261.778 112.898 262.121 112.566C262.469 112.234 262.643 111.77 262.643 111.172V110.592L261.67 110.633C260.897 110.66 260.338 110.781 259.995 110.996C259.655 111.207 259.485 111.537 259.485 111.986C259.485 112.338 259.59 112.605 259.801 112.789C260.016 112.973 260.315 113.064 260.698 113.064ZM268.792 113.867C267.862 113.867 267.141 113.582 266.63 113.012C266.122 112.438 265.868 111.627 265.868 110.58C265.868 109.506 266.126 108.676 266.641 108.09C267.161 107.504 267.899 107.211 268.856 107.211C269.165 107.211 269.473 107.244 269.782 107.311C270.091 107.377 270.333 107.455 270.509 107.545L270.21 108.371C269.995 108.285 269.761 108.215 269.507 108.16C269.253 108.102 269.028 108.072 268.833 108.072C267.528 108.072 266.876 108.904 266.876 110.568C266.876 111.357 267.034 111.963 267.35 112.385C267.671 112.807 268.143 113.018 268.768 113.018C269.304 113.018 269.852 112.902 270.415 112.672V113.533C269.985 113.756 269.444 113.867 268.792 113.867ZM275.111 113.867C274.181 113.867 273.46 113.582 272.948 113.012C272.441 112.438 272.187 111.627 272.187 110.58C272.187 109.506 272.445 108.676 272.96 108.09C273.48 107.504 274.218 107.211 275.175 107.211C275.484 107.211 275.792 107.244 276.101 107.311C276.409 107.377 276.652 107.455 276.827 107.545L276.529 108.371C276.314 108.285 276.079 108.215 275.825 108.16C275.571 108.102 275.347 108.072 275.152 108.072C273.847 108.072 273.195 108.904 273.195 110.568C273.195 111.357 273.353 111.963 273.669 112.385C273.989 112.807 274.462 113.018 275.087 113.018C275.622 113.018 276.171 112.902 276.734 112.672V113.533C276.304 113.756 275.763 113.867 275.111 113.867ZM282.197 112.812L282.379 112.268L282.63 111.576L284.371 107.34H285.607V113.75H284.746V108.447L284.629 108.787L284.289 109.684L282.63 113.75H281.816L280.158 109.672C279.951 109.148 279.808 108.74 279.73 108.447V113.75H278.863V107.34H280.052L281.734 111.412C281.902 111.842 282.056 112.309 282.197 112.812ZM293.83 110.533C293.83 111.58 293.566 112.398 293.039 112.988C292.512 113.574 291.783 113.867 290.854 113.867C290.279 113.867 289.77 113.732 289.324 113.463C288.879 113.193 288.535 112.807 288.293 112.303C288.051 111.799 287.93 111.209 287.93 110.533C287.93 109.486 288.191 108.672 288.715 108.09C289.238 107.504 289.965 107.211 290.895 107.211C291.793 107.211 292.506 107.51 293.033 108.107C293.564 108.705 293.83 109.514 293.83 110.533ZM288.938 110.533C288.938 111.354 289.102 111.979 289.43 112.408C289.758 112.838 290.24 113.053 290.877 113.053C291.514 113.053 291.996 112.84 292.324 112.414C292.656 111.984 292.822 111.357 292.822 110.533C292.822 109.717 292.656 109.098 292.324 108.676C291.996 108.25 291.51 108.037 290.865 108.037C290.229 108.037 289.748 108.246 289.424 108.664C289.1 109.082 288.938 109.705 288.938 110.533ZM300.471 108.16H298.385V113.75H297.413V108.16H295.35V107.328H300.471V108.16ZM305.331 113.867C304.913 113.867 304.53 113.791 304.182 113.639C303.839 113.482 303.55 113.244 303.315 112.924H303.245C303.292 113.299 303.315 113.654 303.315 113.99V116.633H302.343V107.328H303.134L303.268 108.207H303.315C303.565 107.855 303.856 107.602 304.188 107.445C304.52 107.289 304.901 107.211 305.331 107.211C306.182 107.211 306.839 107.502 307.3 108.084C307.764 108.666 307.997 109.482 307.997 110.533C307.997 111.588 307.761 112.408 307.288 112.994C306.819 113.576 306.167 113.867 305.331 113.867ZM305.19 108.037C304.534 108.037 304.059 108.219 303.766 108.582C303.473 108.945 303.323 109.523 303.315 110.316V110.533C303.315 111.436 303.466 112.082 303.766 112.473C304.067 112.859 304.55 113.053 305.214 113.053C305.768 113.053 306.202 112.828 306.514 112.379C306.831 111.93 306.989 111.311 306.989 110.521C306.989 109.721 306.831 109.107 306.514 108.682C306.202 108.252 305.761 108.037 305.19 108.037ZM313.015 113.867C312.066 113.867 311.316 113.578 310.765 113C310.218 112.422 309.945 111.619 309.945 110.592C309.945 109.557 310.198 108.734 310.706 108.125C311.218 107.516 311.904 107.211 312.763 107.211C313.568 107.211 314.204 107.477 314.673 108.008C315.142 108.535 315.376 109.232 315.376 110.1V110.715H310.952C310.972 111.469 311.161 112.041 311.521 112.432C311.884 112.822 312.394 113.018 313.05 113.018C313.741 113.018 314.425 112.873 315.101 112.584V113.451C314.757 113.6 314.431 113.705 314.122 113.768C313.818 113.834 313.448 113.867 313.015 113.867ZM312.751 108.025C312.236 108.025 311.823 108.193 311.515 108.529C311.21 108.865 311.03 109.33 310.976 109.924H314.333C314.333 109.311 314.197 108.842 313.923 108.518C313.65 108.189 313.259 108.025 312.751 108.025ZM318.613 107.328V110.018H322.211V107.328H323.183V113.75H322.211V110.855H318.613V113.75H317.64V107.328H318.613ZM326.76 107.328V111.4L326.719 112.467L326.701 112.801L330.176 107.328H331.389V113.75H330.48V109.824L330.498 109.051L330.527 108.289L327.059 113.75H325.846V107.328H326.76ZM336.764 113.867C335.815 113.867 335.065 113.578 334.514 113C333.967 112.422 333.694 111.619 333.694 110.592C333.694 109.557 333.948 108.734 334.455 108.125C334.967 107.516 335.653 107.211 336.512 107.211C337.317 107.211 337.954 107.477 338.422 108.008C338.891 108.535 339.125 109.232 339.125 110.1V110.715H334.702C334.721 111.469 334.911 112.041 335.27 112.432C335.633 112.822 336.143 113.018 336.799 113.018C337.491 113.018 338.174 112.873 338.85 112.584V113.451C338.506 113.6 338.18 113.705 337.871 113.768C337.567 113.834 337.198 113.867 336.764 113.867ZM336.5 108.025C335.985 108.025 335.573 108.193 335.264 108.529C334.959 108.865 334.78 109.33 334.725 109.924H338.082C338.082 109.311 337.946 108.842 337.672 108.518C337.399 108.189 337.008 108.025 336.5 108.025ZM348.441 112.812L348.622 112.268L348.874 111.576L350.614 107.34H351.851V113.75H350.989V108.447L350.872 108.787L350.532 109.684L348.874 113.75H348.06L346.402 109.672C346.195 109.148 346.052 108.74 345.974 108.447V113.75H345.107V107.34H346.296L347.978 111.412C348.146 111.842 348.3 112.309 348.441 112.812ZM360.074 110.533C360.074 111.58 359.81 112.398 359.283 112.988C358.755 113.574 358.027 113.867 357.097 113.867C356.523 113.867 356.013 113.732 355.568 113.463C355.123 113.193 354.779 112.807 354.537 112.303C354.295 111.799 354.173 111.209 354.173 110.533C354.173 109.486 354.435 108.672 354.959 108.09C355.482 107.504 356.209 107.211 357.138 107.211C358.037 107.211 358.75 107.51 359.277 108.107C359.808 108.705 360.074 109.514 360.074 110.533ZM355.181 110.533C355.181 111.354 355.345 111.979 355.673 112.408C356.002 112.838 356.484 113.053 357.121 113.053C357.757 113.053 358.24 112.84 358.568 112.414C358.9 111.984 359.066 111.357 359.066 110.533C359.066 109.717 358.9 109.098 358.568 108.676C358.24 108.25 357.754 108.037 357.109 108.037C356.472 108.037 355.992 108.246 355.668 108.664C355.343 109.082 355.181 109.705 355.181 110.533ZM367.963 115.971H367.02V113.75H362.531V115.971H361.594V112.912H362.098C362.621 112.201 363.031 111.367 363.328 110.41C363.625 109.453 363.779 108.426 363.791 107.328H367.043V112.912H367.963V115.971ZM366.105 112.912V108.096H364.664C364.613 108.963 364.445 109.842 364.16 110.732C363.879 111.619 363.527 112.346 363.105 112.912H366.105ZM372.565 113.867C371.616 113.867 370.866 113.578 370.315 113C369.768 112.422 369.495 111.619 369.495 110.592C369.495 109.557 369.748 108.734 370.256 108.125C370.768 107.516 371.454 107.211 372.313 107.211C373.118 107.211 373.754 107.477 374.223 108.008C374.692 108.535 374.926 109.232 374.926 110.1V110.715H370.502C370.522 111.469 370.711 112.041 371.071 112.432C371.434 112.822 371.944 113.018 372.6 113.018C373.291 113.018 373.975 112.873 374.651 112.584V113.451C374.307 113.6 373.981 113.705 373.672 113.768C373.368 113.834 372.998 113.867 372.565 113.867ZM372.301 108.025C371.786 108.025 371.373 108.193 371.065 108.529C370.76 108.865 370.58 109.33 370.526 109.924H373.883C373.883 109.311 373.746 108.842 373.473 108.518C373.2 108.189 372.809 108.025 372.301 108.025ZM380.179 113.867C379.761 113.867 379.378 113.791 379.03 113.639C378.686 113.482 378.397 113.244 378.163 112.924H378.093C378.139 113.299 378.163 113.654 378.163 113.99V116.633H377.19V107.328H377.981L378.116 108.207H378.163C378.413 107.855 378.704 107.602 379.036 107.445C379.368 107.289 379.749 107.211 380.179 107.211C381.03 107.211 381.686 107.502 382.147 108.084C382.612 108.666 382.845 109.482 382.845 110.533C382.845 111.588 382.608 112.408 382.136 112.994C381.667 113.576 381.014 113.867 380.179 113.867ZM380.038 108.037C379.382 108.037 378.907 108.219 378.614 108.582C378.321 108.945 378.171 109.523 378.163 110.316V110.533C378.163 111.436 378.313 112.082 378.614 112.473C378.915 112.859 379.397 113.053 380.061 113.053C380.616 113.053 381.05 112.828 381.362 112.379C381.679 111.93 381.837 111.311 381.837 110.521C381.837 109.721 381.679 109.107 381.362 108.682C381.05 108.252 380.608 108.037 380.038 108.037ZM389.099 113.75L388.905 112.836H388.859C388.538 113.238 388.218 113.512 387.898 113.656C387.581 113.797 387.185 113.867 386.708 113.867C386.072 113.867 385.572 113.703 385.208 113.375C384.849 113.047 384.669 112.58 384.669 111.975C384.669 110.678 385.706 109.998 387.78 109.936L388.87 109.9V109.502C388.87 108.998 388.761 108.627 388.542 108.389C388.327 108.146 387.982 108.025 387.505 108.025C386.97 108.025 386.364 108.189 385.689 108.518L385.39 107.773C385.706 107.602 386.052 107.467 386.427 107.369C386.806 107.271 387.185 107.223 387.564 107.223C388.329 107.223 388.896 107.393 389.263 107.732C389.634 108.072 389.82 108.617 389.82 109.367V113.75H389.099ZM386.902 113.064C387.507 113.064 387.982 112.898 388.325 112.566C388.673 112.234 388.847 111.77 388.847 111.172V110.592L387.874 110.633C387.101 110.66 386.542 110.781 386.198 110.996C385.859 111.207 385.689 111.537 385.689 111.986C385.689 112.338 385.794 112.605 386.005 112.789C386.22 112.973 386.519 113.064 386.902 113.064ZM396.759 108.16H394.673V113.75H393.701V108.16H391.638V107.328H396.759V108.16ZM404.174 110.533C404.174 111.58 403.91 112.398 403.383 112.988C402.855 113.574 402.127 113.867 401.197 113.867C400.623 113.867 400.113 113.732 399.668 113.463C399.223 113.193 398.879 112.807 398.637 112.303C398.395 111.799 398.273 111.209 398.273 110.533C398.273 109.486 398.535 108.672 399.059 108.09C399.582 107.504 400.309 107.211 401.238 107.211C402.137 107.211 402.85 107.51 403.377 108.107C403.908 108.705 404.174 109.514 404.174 110.533ZM399.281 110.533C399.281 111.354 399.445 111.979 399.773 112.408C400.102 112.838 400.584 113.053 401.221 113.053C401.857 113.053 402.34 112.84 402.668 112.414C403 111.984 403.166 111.357 403.166 110.533C403.166 109.717 403 109.098 402.668 108.676C402.34 108.25 401.854 108.037 401.209 108.037C400.572 108.037 400.092 108.246 399.768 108.664C399.443 109.082 399.281 109.705 399.281 110.533ZM409.473 113.867C409.055 113.867 408.672 113.791 408.325 113.639C407.981 113.482 407.692 113.244 407.457 112.924H407.387C407.434 113.299 407.457 113.654 407.457 113.99V116.633H406.485V107.328H407.276L407.411 108.207H407.457C407.707 107.855 407.998 107.602 408.33 107.445C408.663 107.289 409.043 107.211 409.473 107.211C410.325 107.211 410.981 107.502 411.442 108.084C411.907 108.666 412.139 109.482 412.139 110.533C412.139 111.588 411.903 112.408 411.43 112.994C410.961 113.576 410.309 113.867 409.473 113.867ZM409.332 108.037C408.676 108.037 408.202 108.219 407.909 108.582C407.616 108.945 407.465 109.523 407.457 110.316V110.533C407.457 111.436 407.608 112.082 407.909 112.473C408.209 112.859 408.692 113.053 409.356 113.053C409.911 113.053 410.344 112.828 410.657 112.379C410.973 111.93 411.131 111.311 411.131 110.521C411.131 109.721 410.973 109.107 410.657 108.682C410.344 108.252 409.903 108.037 409.332 108.037ZM418.393 113.75L418.2 112.836H418.153C417.833 113.238 417.513 113.512 417.192 113.656C416.876 113.797 416.479 113.867 416.003 113.867C415.366 113.867 414.866 113.703 414.503 113.375C414.143 113.047 413.964 112.58 413.964 111.975C413.964 110.678 415.001 109.998 417.075 109.936L418.165 109.9V109.502C418.165 108.998 418.055 108.627 417.837 108.389C417.622 108.146 417.276 108.025 416.8 108.025C416.264 108.025 415.659 108.189 414.983 108.518L414.684 107.773C415.001 107.602 415.346 107.467 415.721 107.369C416.1 107.271 416.479 107.223 416.858 107.223C417.624 107.223 418.19 107.393 418.557 107.732C418.929 108.072 419.114 108.617 419.114 109.367V113.75H418.393ZM416.196 113.064C416.802 113.064 417.276 112.898 417.62 112.566C417.968 112.234 418.141 111.77 418.141 111.172V110.592L417.169 110.633C416.395 110.66 415.837 110.781 415.493 110.996C415.153 111.207 414.983 111.537 414.983 111.986C414.983 112.338 415.089 112.605 415.3 112.789C415.514 112.973 415.813 113.064 416.196 113.064ZM421.583 113.129C421.583 112.867 421.642 112.67 421.759 112.537C421.88 112.4 422.052 112.332 422.275 112.332C422.501 112.332 422.677 112.4 422.802 112.537C422.931 112.67 422.995 112.867 422.995 113.129C422.995 113.383 422.931 113.578 422.802 113.715C422.673 113.852 422.497 113.92 422.275 113.92C422.075 113.92 421.909 113.859 421.777 113.738C421.648 113.613 421.583 113.41 421.583 113.129ZM76.234 132.75H75.2379V125.068H70.8375V132.75H69.8414V124.184H76.234V132.75ZM84.5918 129.533C84.5918 130.58 84.3281 131.398 83.8008 131.988C83.2734 132.574 82.5449 132.867 81.6152 132.867C81.041 132.867 80.5312 132.732 80.0859 132.463C79.6406 132.193 79.2969 131.807 79.0547 131.303C78.8125 130.799 78.6914 130.209 78.6914 129.533C78.6914 128.486 78.9531 127.672 79.4766 127.09C80 126.504 80.7266 126.211 81.6562 126.211C82.5547 126.211 83.2676 126.51 83.7949 127.107C84.3262 127.705 84.5918 128.514 84.5918 129.533ZM79.6992 129.533C79.6992 130.354 79.8633 130.979 80.1914 131.408C80.5195 131.838 81.0019 132.053 81.6387 132.053C82.2754 132.053 82.7578 131.84 83.0859 131.414C83.418 130.984 83.584 130.357 83.584 129.533C83.584 128.717 83.418 128.098 83.0859 127.676C82.7578 127.25 82.2715 127.037 81.6269 127.037C80.9902 127.037 80.5098 127.246 80.1855 127.664C79.8613 128.082 79.6992 128.705 79.6992 129.533ZM89.4691 132.867C88.5394 132.867 87.8187 132.582 87.307 132.012C86.7992 131.438 86.5453 130.627 86.5453 129.58C86.5453 128.506 86.8031 127.676 87.3187 127.09C87.8383 126.504 88.5766 126.211 89.5336 126.211C89.8422 126.211 90.1508 126.244 90.4594 126.311C90.768 126.377 91.0102 126.455 91.1859 126.545L90.8871 127.371C90.6723 127.285 90.4379 127.215 90.184 127.16C89.9301 127.102 89.7055 127.072 89.5102 127.072C88.2055 127.072 87.5531 127.904 87.5531 129.568C87.5531 130.357 87.7113 130.963 88.0277 131.385C88.348 131.807 88.8207 132.018 89.4457 132.018C89.9809 132.018 90.5297 131.902 91.0922 131.672V132.533C90.6625 132.756 90.1215 132.867 89.4691 132.867ZM98.0086 132.75H97.0242V127.16H95.0965C94.991 128.551 94.8445 129.654 94.657 130.471C94.4695 131.287 94.2254 131.885 93.9246 132.264C93.6277 132.643 93.2488 132.832 92.7879 132.832C92.5769 132.832 92.409 132.809 92.284 132.762V132.041C92.3699 132.064 92.4676 132.076 92.5769 132.076C93.0262 132.076 93.3836 131.602 93.6492 130.652C93.9148 129.703 94.116 128.262 94.2527 126.328H98.0086V132.75ZM103.39 132.867C102.441 132.867 101.691 132.578 101.14 132C100.593 131.422 100.32 130.619 100.32 129.592C100.32 128.557 100.573 127.734 101.081 127.125C101.593 126.516 102.279 126.211 103.138 126.211C103.943 126.211 104.579 126.477 105.048 127.008C105.517 127.535 105.751 128.232 105.751 129.1V129.715H101.327C101.347 130.469 101.536 131.041 101.896 131.432C102.259 131.822 102.769 132.018 103.425 132.018C104.116 132.018 104.8 131.873 105.476 131.584V132.451C105.132 132.6 104.806 132.705 104.497 132.768C104.193 132.834 103.823 132.867 103.39 132.867ZM103.126 127.025C102.611 127.025 102.198 127.193 101.89 127.529C101.585 127.865 101.405 128.33 101.351 128.924H104.708C104.708 128.311 104.571 127.842 104.298 127.518C104.025 127.189 103.634 127.025 103.126 127.025ZM112.705 132.75H111.732V126.328H117.123V132.75H116.139V127.172H112.705V132.75ZM125.329 129.533C125.329 130.58 125.065 131.398 124.537 131.988C124.01 132.574 123.282 132.867 122.352 132.867C121.778 132.867 121.268 132.732 120.823 132.463C120.377 132.193 120.034 131.807 119.791 131.303C119.549 130.799 119.428 130.209 119.428 129.533C119.428 128.486 119.69 127.672 120.213 127.09C120.737 126.504 121.463 126.211 122.393 126.211C123.291 126.211 124.004 126.51 124.532 127.107C125.063 127.705 125.329 128.514 125.329 129.533ZM120.436 129.533C120.436 130.354 120.6 130.979 120.928 131.408C121.256 131.838 121.739 132.053 122.375 132.053C123.012 132.053 123.495 131.84 123.823 131.414C124.155 130.984 124.321 130.357 124.321 129.533C124.321 128.717 124.155 128.098 123.823 127.676C123.495 127.25 123.008 127.037 122.364 127.037C121.727 127.037 121.246 127.246 120.922 127.664C120.598 128.082 120.436 128.705 120.436 129.533ZM133.218 134.971H132.274V132.75H127.786V134.971H126.848V131.912H127.352C127.876 131.201 128.286 130.367 128.583 129.41C128.88 128.453 129.034 127.426 129.046 126.328H132.298V131.912H133.218V134.971ZM131.36 131.912V127.096H129.919C129.868 127.963 129.7 128.842 129.415 129.732C129.134 130.619 128.782 131.346 128.36 131.912H131.36ZM139.437 127.16H137.351V132.75H136.378V127.16H134.316V126.328H139.437V127.16ZM146.517 127.939C146.517 128.357 146.396 128.676 146.154 128.895C145.916 129.109 145.58 129.254 145.146 129.328V129.381C145.693 129.455 146.091 129.615 146.341 129.861C146.595 130.107 146.722 130.447 146.722 130.881C146.722 131.479 146.502 131.939 146.06 132.264C145.623 132.588 144.982 132.75 144.138 132.75H141.308V126.328H144.127C145.72 126.328 146.517 126.865 146.517 127.939ZM145.75 130.816C145.75 130.469 145.617 130.217 145.351 130.061C145.089 129.9 144.654 129.82 144.045 129.82H142.281V131.936H144.068C145.189 131.936 145.75 131.562 145.75 130.816ZM145.568 128.033C145.568 127.721 145.447 127.5 145.205 127.371C144.966 127.238 144.603 127.172 144.115 127.172H142.281V128.982H143.927C144.529 128.982 144.953 128.908 145.199 128.76C145.445 128.611 145.568 128.369 145.568 128.033ZM151.453 132.867C150.504 132.867 149.754 132.578 149.203 132C148.656 131.422 148.383 130.619 148.383 129.592C148.383 128.557 148.637 127.734 149.145 127.125C149.656 126.516 150.342 126.211 151.201 126.211C152.006 126.211 152.643 126.477 153.111 127.008C153.58 127.535 153.814 128.232 153.814 129.1V129.715H149.391C149.41 130.469 149.6 131.041 149.959 131.432C150.322 131.822 150.832 132.018 151.488 132.018C152.18 132.018 152.863 131.873 153.539 131.584V132.451C153.195 132.6 152.869 132.705 152.561 132.768C152.256 132.834 151.887 132.867 151.453 132.867ZM151.189 127.025C150.674 127.025 150.262 127.193 149.953 127.529C149.648 127.865 149.469 128.33 149.414 128.924H152.771C152.771 128.311 152.635 127.842 152.361 127.518C152.088 127.189 151.697 127.025 151.189 127.025ZM159.067 132.867C158.649 132.867 158.266 132.791 157.918 132.639C157.575 132.482 157.286 132.244 157.051 131.924H156.981C157.028 132.299 157.051 132.654 157.051 132.99V135.633H156.079V126.328H156.87L157.004 127.207H157.051C157.301 126.855 157.592 126.602 157.924 126.445C158.256 126.289 158.637 126.211 159.067 126.211C159.918 126.211 160.575 126.502 161.036 127.084C161.5 127.666 161.733 128.482 161.733 129.533C161.733 130.588 161.496 131.408 161.024 131.994C160.555 132.576 159.903 132.867 159.067 132.867ZM158.926 127.037C158.27 127.037 157.795 127.219 157.502 127.582C157.209 127.945 157.059 128.523 157.051 129.316V129.533C157.051 130.436 157.202 131.082 157.502 131.473C157.803 131.859 158.286 132.053 158.95 132.053C159.504 132.053 159.938 131.828 160.25 131.379C160.567 130.93 160.725 130.311 160.725 129.521C160.725 128.721 160.567 128.107 160.25 127.682C159.938 127.252 159.496 127.037 158.926 127.037ZM166.968 126.34H167.864V129.451L170.518 126.34H171.585L168.901 129.451L171.813 132.75H170.688L167.864 129.498V132.75H166.968V129.498L164.149 132.75H163.03L165.936 129.451L163.259 126.34H164.325L166.968 129.451V126.34ZM179.052 134.971H178.109V132.75H173.62V134.971H172.683V131.912H173.187C173.71 131.201 174.12 130.367 174.417 129.41C174.714 128.453 174.868 127.426 174.88 126.328H178.132V131.912H179.052V134.971ZM177.195 131.912V127.096H175.753C175.702 127.963 175.534 128.842 175.249 129.732C174.968 130.619 174.616 131.346 174.195 131.912H177.195ZM183.654 132.867C182.705 132.867 181.955 132.578 181.404 132C180.857 131.422 180.584 130.619 180.584 129.592C180.584 128.557 180.837 127.734 181.345 127.125C181.857 126.516 182.543 126.211 183.402 126.211C184.207 126.211 184.843 126.477 185.312 127.008C185.781 127.535 186.015 128.232 186.015 129.1V129.715H181.591C181.611 130.469 181.8 131.041 182.16 131.432C182.523 131.822 183.033 132.018 183.689 132.018C184.38 132.018 185.064 131.873 185.74 131.584V132.451C185.396 132.6 185.07 132.705 184.761 132.768C184.457 132.834 184.087 132.867 183.654 132.867ZM183.39 127.025C182.875 127.025 182.462 127.193 182.154 127.529C181.849 127.865 181.67 128.33 181.615 128.924H184.972C184.972 128.311 184.836 127.842 184.562 127.518C184.289 127.189 183.898 127.025 183.39 127.025ZM189.252 126.328V129.018H192.85V126.328H193.822V132.75H192.85V129.855H189.252V132.75H188.279V126.328H189.252ZM197.399 126.328V130.4L197.358 131.467L197.34 131.801L200.815 126.328H202.028V132.75H201.12V128.824L201.137 128.051L201.166 127.289L197.698 132.75H196.485V126.328H197.399ZM205.012 132.75H203.876L205.721 130.037C205.225 129.928 204.845 129.717 204.579 129.404C204.317 129.088 204.186 128.691 204.186 128.215C204.186 127.629 204.384 127.168 204.778 126.832C205.173 126.496 205.723 126.328 206.43 126.328H209.29V132.75H208.317V130.184H206.694L205.012 132.75ZM205.136 128.227C205.136 128.969 205.675 129.34 206.753 129.34H208.317V127.172H206.554C205.608 127.172 205.136 127.523 205.136 128.227ZM219.009 131.812L219.191 131.268L219.443 130.576L221.183 126.34H222.42V132.75H221.558V127.447L221.441 127.787L221.101 128.684L219.443 132.75H218.629L216.97 128.672C216.763 128.148 216.621 127.74 216.543 127.447V132.75H215.675V126.34H216.865L218.546 130.412C218.714 130.842 218.869 131.309 219.009 131.812ZM230.643 129.533C230.643 130.58 230.379 131.398 229.852 131.988C229.324 132.574 228.596 132.867 227.666 132.867C227.092 132.867 226.582 132.732 226.137 132.463C225.691 132.193 225.348 131.807 225.105 131.303C224.863 130.799 224.742 130.209 224.742 129.533C224.742 128.486 225.004 127.672 225.527 127.09C226.051 126.504 226.777 126.211 227.707 126.211C228.605 126.211 229.318 126.51 229.846 127.107C230.377 127.705 230.643 128.514 230.643 129.533ZM225.75 129.533C225.75 130.354 225.914 130.979 226.242 131.408C226.57 131.838 227.053 132.053 227.689 132.053C228.326 132.053 228.809 131.84 229.137 131.414C229.469 130.984 229.635 130.357 229.635 129.533C229.635 128.717 229.469 128.098 229.137 127.676C228.809 127.25 228.322 127.037 227.678 127.037C227.041 127.037 226.561 127.246 226.236 127.664C225.912 128.082 225.75 128.705 225.75 129.533ZM238.532 134.971H237.588V132.75H233.1V134.971H232.162V131.912H232.666C233.19 131.201 233.6 130.367 233.897 129.41C234.194 128.453 234.348 127.426 234.36 126.328H237.612V131.912H238.532V134.971ZM236.674 131.912V127.096H235.233C235.182 127.963 235.014 128.842 234.729 129.732C234.448 130.619 234.096 131.346 233.674 131.912H236.674ZM243.134 132.867C242.184 132.867 241.434 132.578 240.884 132C240.337 131.422 240.063 130.619 240.063 129.592C240.063 128.557 240.317 127.734 240.825 127.125C241.337 126.516 242.022 126.211 242.882 126.211C243.686 126.211 244.323 126.477 244.792 127.008C245.261 127.535 245.495 128.232 245.495 129.1V129.715H241.071C241.091 130.469 241.28 131.041 241.639 131.432C242.003 131.822 242.512 132.018 243.169 132.018C243.86 132.018 244.544 131.873 245.22 131.584V132.451C244.876 132.6 244.55 132.705 244.241 132.768C243.936 132.834 243.567 132.867 243.134 132.867ZM242.87 127.025C242.354 127.025 241.942 127.193 241.634 127.529C241.329 127.865 241.149 128.33 241.095 128.924H244.452C244.452 128.311 244.315 127.842 244.042 127.518C243.768 127.189 243.378 127.025 242.87 127.025ZM250.747 132.867C250.329 132.867 249.946 132.791 249.599 132.639C249.255 132.482 248.966 132.244 248.732 131.924H248.661C248.708 132.299 248.732 132.654 248.732 132.99V135.633H247.759V126.328H248.55L248.685 127.207H248.732C248.982 126.855 249.273 126.602 249.605 126.445C249.937 126.289 250.318 126.211 250.747 126.211C251.599 126.211 252.255 126.502 252.716 127.084C253.181 127.666 253.413 128.482 253.413 129.533C253.413 130.588 253.177 131.408 252.704 131.994C252.236 132.576 251.583 132.867 250.747 132.867ZM250.607 127.037C249.95 127.037 249.476 127.219 249.183 127.582C248.89 127.945 248.739 128.523 248.732 129.316V129.533C248.732 130.436 248.882 131.082 249.183 131.473C249.484 131.859 249.966 132.053 250.63 132.053C251.185 132.053 251.618 131.828 251.931 131.379C252.247 130.93 252.405 130.311 252.405 129.521C252.405 128.721 252.247 128.107 251.931 127.682C251.618 127.252 251.177 127.037 250.607 127.037ZM259.668 132.75L259.474 131.836H259.427C259.107 132.238 258.787 132.512 258.466 132.656C258.15 132.797 257.754 132.867 257.277 132.867C256.64 132.867 256.14 132.703 255.777 132.375C255.418 132.047 255.238 131.58 255.238 130.975C255.238 129.678 256.275 128.998 258.349 128.936L259.439 128.9V128.502C259.439 127.998 259.33 127.627 259.111 127.389C258.896 127.146 258.55 127.025 258.074 127.025C257.539 127.025 256.933 127.189 256.257 127.518L255.959 126.773C256.275 126.602 256.621 126.467 256.996 126.369C257.375 126.271 257.754 126.223 258.132 126.223C258.898 126.223 259.464 126.393 259.832 126.732C260.203 127.072 260.388 127.617 260.388 128.367V132.75H259.668ZM257.47 132.064C258.076 132.064 258.55 131.898 258.894 131.566C259.242 131.234 259.416 130.77 259.416 130.172V129.592L258.443 129.633C257.67 129.66 257.111 129.781 256.767 129.996C256.427 130.207 256.257 130.537 256.257 130.986C256.257 131.338 256.363 131.605 256.574 131.789C256.789 131.973 257.087 132.064 257.47 132.064ZM267.328 127.16H265.242V132.75H264.27V127.16H262.207V126.328H267.328V127.16ZM274.743 129.533C274.743 130.58 274.479 131.398 273.952 131.988C273.424 132.574 272.696 132.867 271.766 132.867C271.192 132.867 270.682 132.732 270.237 132.463C269.791 132.193 269.448 131.807 269.205 131.303C268.963 130.799 268.842 130.209 268.842 129.533C268.842 128.486 269.104 127.672 269.627 127.09C270.151 126.504 270.877 126.211 271.807 126.211C272.705 126.211 273.418 126.51 273.946 127.107C274.477 127.705 274.743 128.514 274.743 129.533ZM269.85 129.533C269.85 130.354 270.014 130.979 270.342 131.408C270.67 131.838 271.153 132.053 271.789 132.053C272.426 132.053 272.909 131.84 273.237 131.414C273.569 130.984 273.735 130.357 273.735 129.533C273.735 128.717 273.569 128.098 273.237 127.676C272.909 127.25 272.422 127.037 271.778 127.037C271.141 127.037 270.661 127.246 270.336 127.664C270.012 128.082 269.85 128.705 269.85 129.533ZM280.042 132.867C279.624 132.867 279.241 132.791 278.893 132.639C278.55 132.482 278.261 132.244 278.026 131.924H277.956C278.003 132.299 278.026 132.654 278.026 132.99V135.633H277.054V126.328H277.845L277.979 127.207H278.026C278.276 126.855 278.567 126.602 278.899 126.445C279.231 126.289 279.612 126.211 280.042 126.211C280.893 126.211 281.55 126.502 282.011 127.084C282.475 127.666 282.708 128.482 282.708 129.533C282.708 130.588 282.471 131.408 281.999 131.994C281.53 132.576 280.878 132.867 280.042 132.867ZM279.901 127.037C279.245 127.037 278.77 127.219 278.477 127.582C278.184 127.945 278.034 128.523 278.026 129.316V129.533C278.026 130.436 278.177 131.082 278.477 131.473C278.778 131.859 279.261 132.053 279.925 132.053C280.479 132.053 280.913 131.828 281.225 131.379C281.542 130.93 281.7 130.311 281.7 129.521C281.7 128.721 281.542 128.107 281.225 127.682C280.913 127.252 280.471 127.037 279.901 127.037ZM290.556 129.533C290.556 130.58 290.292 131.398 289.765 131.988C289.237 132.574 288.509 132.867 287.579 132.867C287.005 132.867 286.495 132.732 286.05 132.463C285.605 132.193 285.261 131.807 285.019 131.303C284.777 130.799 284.655 130.209 284.655 129.533C284.655 128.486 284.917 127.672 285.441 127.09C285.964 126.504 286.691 126.211 287.62 126.211C288.519 126.211 289.232 126.51 289.759 127.107C290.29 127.705 290.556 128.514 290.556 129.533ZM285.663 129.533C285.663 130.354 285.827 130.979 286.155 131.408C286.484 131.838 286.966 132.053 287.603 132.053C288.239 132.053 288.722 131.84 289.05 131.414C289.382 130.984 289.548 130.357 289.548 129.533C289.548 128.717 289.382 128.098 289.05 127.676C288.722 127.25 288.236 127.037 287.591 127.037C286.954 127.037 286.474 127.246 286.15 127.664C285.825 128.082 285.663 128.705 285.663 129.533ZM296.201 131.812L296.382 131.268L296.634 130.576L298.375 126.34H299.611V132.75H298.75V127.447L298.632 127.787L298.293 128.684L296.634 132.75H295.82L294.162 128.672C293.955 128.148 293.812 127.74 293.734 127.447V132.75H292.867V126.34H294.056L295.738 130.412C295.906 130.842 296.06 131.309 296.201 131.812ZM310.338 127.16H308.252V132.75H307.28V127.16H305.217V126.328H310.338V127.16ZM317.753 129.533C317.753 130.58 317.489 131.398 316.962 131.988C316.434 132.574 315.706 132.867 314.776 132.867C314.202 132.867 313.692 132.732 313.247 132.463C312.802 132.193 312.458 131.807 312.216 131.303C311.973 130.799 311.852 130.209 311.852 129.533C311.852 128.486 312.114 127.672 312.638 127.09C313.161 126.504 313.888 126.211 314.817 126.211C315.716 126.211 316.429 126.51 316.956 127.107C317.487 127.705 317.753 128.514 317.753 129.533ZM312.86 129.533C312.86 130.354 313.024 130.979 313.352 131.408C313.68 131.838 314.163 132.053 314.8 132.053C315.436 132.053 315.919 131.84 316.247 131.414C316.579 130.984 316.745 130.357 316.745 129.533C316.745 128.717 316.579 128.098 316.247 127.676C315.919 127.25 315.432 127.037 314.788 127.037C314.151 127.037 313.671 127.246 313.346 127.664C313.022 128.082 312.86 128.705 312.86 129.533ZM325.273 127.939C325.273 128.357 325.152 128.676 324.909 128.895C324.671 129.109 324.335 129.254 323.902 129.328V129.381C324.448 129.455 324.847 129.615 325.097 129.861C325.351 130.107 325.478 130.447 325.478 130.881C325.478 131.479 325.257 131.939 324.816 132.264C324.378 132.588 323.737 132.75 322.894 132.75H320.064V126.328H322.882C324.476 126.328 325.273 126.865 325.273 127.939ZM324.505 130.816C324.505 130.469 324.372 130.217 324.107 130.061C323.845 129.9 323.409 129.82 322.8 129.82H321.036V131.936H322.823C323.945 131.936 324.505 131.562 324.505 130.816ZM324.323 128.033C324.323 127.721 324.202 127.5 323.96 127.371C323.722 127.238 323.359 127.172 322.87 127.172H321.036V128.982H322.683C323.284 128.982 323.708 128.908 323.954 128.76C324.2 128.611 324.323 128.369 324.323 128.033ZM331.445 132.75L331.252 131.836H331.205C330.884 132.238 330.564 132.512 330.244 132.656C329.927 132.797 329.531 132.867 329.054 132.867C328.418 132.867 327.918 132.703 327.554 132.375C327.195 132.047 327.015 131.58 327.015 130.975C327.015 129.678 328.052 128.998 330.127 128.936L331.216 128.9V128.502C331.216 127.998 331.107 127.627 330.888 127.389C330.673 127.146 330.328 127.025 329.851 127.025C329.316 127.025 328.711 127.189 328.035 127.518L327.736 126.773C328.052 126.602 328.398 126.467 328.773 126.369C329.152 126.271 329.531 126.223 329.91 126.223C330.675 126.223 331.242 126.393 331.609 126.732C331.98 127.072 332.166 127.617 332.166 128.367V132.75H331.445ZM329.248 132.064C329.853 132.064 330.328 131.898 330.671 131.566C331.019 131.234 331.193 130.77 331.193 130.172V129.592L330.22 129.633C329.447 129.66 328.888 129.781 328.545 129.996C328.205 130.207 328.035 130.537 328.035 130.986C328.035 131.338 328.14 131.605 328.351 131.789C328.566 131.973 328.865 132.064 329.248 132.064ZM337.764 132.867C337.346 132.867 336.963 132.791 336.615 132.639C336.271 132.482 335.982 132.244 335.748 131.924H335.678C335.725 132.299 335.748 132.654 335.748 132.99V135.633H334.775V126.328H335.566L335.701 127.207H335.748C335.998 126.855 336.289 126.602 336.621 126.445C336.953 126.289 337.334 126.211 337.764 126.211C338.615 126.211 339.271 126.502 339.732 127.084C340.197 127.666 340.43 128.482 340.43 129.533C340.43 130.588 340.193 131.408 339.721 131.994C339.252 132.576 338.6 132.867 337.764 132.867ZM337.623 127.037C336.967 127.037 336.492 127.219 336.199 127.582C335.906 127.945 335.756 128.523 335.748 129.316V129.533C335.748 130.436 335.898 131.082 336.199 131.473C336.5 131.859 336.982 132.053 337.646 132.053C338.201 132.053 338.635 131.828 338.947 131.379C339.264 130.93 339.422 130.311 339.422 129.521C339.422 128.721 339.264 128.107 338.947 127.682C338.635 127.252 338.193 127.037 337.623 127.037ZM343.707 128.982H345.459C346.276 128.982 346.879 129.135 347.27 129.439C347.664 129.74 347.862 130.191 347.862 130.793C347.862 131.438 347.653 131.926 347.235 132.258C346.821 132.586 346.209 132.75 345.401 132.75H342.735V126.328H343.707V128.982ZM349.913 132.75H348.94V126.328H349.913V132.75ZM343.707 129.82V131.936H345.354C346.385 131.936 346.901 131.574 346.901 130.852C346.901 130.492 346.782 130.23 346.543 130.066C346.305 129.902 345.899 129.82 345.325 129.82H343.707ZM355.747 129.463C355.747 128.428 355.898 127.459 356.198 126.557C356.503 125.654 356.941 124.863 357.511 124.184H358.46C357.898 124.938 357.474 125.766 357.189 126.668C356.907 127.57 356.767 128.498 356.767 129.451C356.767 130.389 356.911 131.305 357.2 132.199C357.489 133.094 357.905 133.91 358.448 134.648H357.511C356.937 133.984 356.499 133.209 356.198 132.322C355.898 131.436 355.747 130.482 355.747 129.463ZM359.429 126.328H360.472L361.879 129.99C362.187 130.826 362.379 131.43 362.453 131.801H362.5C362.55 131.602 362.656 131.262 362.816 130.781C362.98 130.297 363.511 128.812 364.41 126.328H365.453L362.693 133.641C362.42 134.363 362.099 134.875 361.732 135.176C361.369 135.48 360.921 135.633 360.39 135.633C360.093 135.633 359.8 135.6 359.511 135.533V134.754C359.726 134.801 359.966 134.824 360.232 134.824C360.9 134.824 361.377 134.449 361.662 133.699L362.019 132.785L359.429 126.328ZM369.662 132.867C368.732 132.867 368.012 132.582 367.5 132.012C366.992 131.438 366.738 130.627 366.738 129.58C366.738 128.506 366.996 127.676 367.512 127.09C368.031 126.504 368.77 126.211 369.727 126.211C370.035 126.211 370.344 126.244 370.652 126.311C370.961 126.377 371.203 126.455 371.379 126.545L371.08 127.371C370.865 127.285 370.631 127.215 370.377 127.16C370.123 127.102 369.898 127.072 369.703 127.072C368.398 127.072 367.746 127.904 367.746 129.568C367.746 130.357 367.904 130.963 368.221 131.385C368.541 131.807 369.014 132.018 369.639 132.018C370.174 132.018 370.723 131.902 371.285 131.672V132.533C370.855 132.756 370.314 132.867 369.662 132.867ZM378.202 132.75H377.217V127.16H375.289C375.184 128.551 375.038 129.654 374.85 130.471C374.663 131.287 374.418 131.885 374.118 132.264C373.821 132.643 373.442 132.832 372.981 132.832C372.77 132.832 372.602 132.809 372.477 132.762V132.041C372.563 132.064 372.661 132.076 372.77 132.076C373.219 132.076 373.577 131.602 373.842 130.652C374.108 129.703 374.309 128.262 374.446 126.328H378.202V132.75ZM379.85 126.328H380.893L382.3 129.99C382.608 130.826 382.8 131.43 382.874 131.801H382.921C382.971 131.602 383.077 131.262 383.237 130.781C383.401 130.297 383.932 128.812 384.831 126.328H385.874L383.114 133.641C382.841 134.363 382.52 134.875 382.153 135.176C381.79 135.48 381.343 135.633 380.811 135.633C380.514 135.633 380.221 135.6 379.932 135.533V134.754C380.147 134.801 380.387 134.824 380.653 134.824C381.321 134.824 381.798 134.449 382.083 133.699L382.44 132.785L379.85 126.328ZM391.384 127.16H388.489V132.75H387.517V126.328H391.384V127.16ZM394.175 126.328V130.4L394.134 131.467L394.117 131.801L397.591 126.328H398.804V132.75H397.896V128.824L397.914 128.051L397.943 127.289L394.474 132.75H393.261V126.328H394.175ZM403.506 129.463C403.506 130.49 403.354 131.447 403.049 132.334C402.748 133.221 402.312 133.992 401.742 134.648H400.805C401.348 133.914 401.764 133.1 402.053 132.205C402.342 131.307 402.486 130.389 402.486 129.451C402.486 128.498 402.344 127.57 402.059 126.668C401.777 125.766 401.355 124.938 400.793 124.184H401.742C402.316 124.867 402.754 125.662 403.055 126.568C403.355 127.471 403.506 128.436 403.506 129.463ZM180.966 151.75H179.993V145.328H185.384V151.75H184.399V146.172H180.966V151.75ZM193.589 148.533C193.589 149.58 193.325 150.398 192.798 150.988C192.271 151.574 191.542 151.867 190.613 151.867C190.038 151.867 189.529 151.732 189.083 151.463C188.638 151.193 188.294 150.807 188.052 150.303C187.81 149.799 187.689 149.209 187.689 148.533C187.689 147.486 187.95 146.672 188.474 146.09C188.997 145.504 189.724 145.211 190.654 145.211C191.552 145.211 192.265 145.51 192.792 146.107C193.323 146.705 193.589 147.514 193.589 148.533ZM188.696 148.533C188.696 149.354 188.861 149.979 189.189 150.408C189.517 150.838 189.999 151.053 190.636 151.053C191.273 151.053 191.755 150.84 192.083 150.414C192.415 149.984 192.581 149.357 192.581 148.533C192.581 147.717 192.415 147.098 192.083 146.676C191.755 146.25 191.269 146.037 190.624 146.037C189.988 146.037 189.507 146.246 189.183 146.664C188.859 147.082 188.696 147.705 188.696 148.533ZM196.222 151.75H195.086L196.931 149.037C196.435 148.928 196.054 148.717 195.789 148.404C195.527 148.088 195.396 147.691 195.396 147.215C195.396 146.629 195.593 146.168 195.988 145.832C196.382 145.496 196.933 145.328 197.64 145.328H200.5V151.75H199.527V149.184H197.904L196.222 151.75ZM196.345 147.227C196.345 147.969 196.884 148.34 197.962 148.34H199.527V146.172H197.763C196.818 146.172 196.345 146.523 196.345 147.227ZM208.377 146.939C208.377 147.357 208.256 147.676 208.014 147.895C207.775 148.109 207.439 148.254 207.006 148.328V148.381C207.553 148.455 207.951 148.615 208.201 148.861C208.455 149.107 208.582 149.447 208.582 149.881C208.582 150.479 208.361 150.939 207.92 151.264C207.482 151.588 206.842 151.75 205.998 151.75H203.168V145.328H205.986C207.58 145.328 208.377 145.865 208.377 146.939ZM207.609 149.816C207.609 149.469 207.477 149.217 207.211 149.061C206.949 148.9 206.514 148.82 205.904 148.82H204.141V150.936H205.928C207.049 150.936 207.609 150.562 207.609 149.816ZM207.428 147.033C207.428 146.721 207.307 146.5 207.064 146.371C206.826 146.238 206.463 146.172 205.975 146.172H204.141V147.982H205.787C206.389 147.982 206.812 147.908 207.059 147.76C207.305 147.611 207.428 147.369 207.428 147.033ZM210.922 151.75H209.786L211.631 149.037C211.135 148.928 210.754 148.717 210.489 148.404C210.227 148.088 210.096 147.691 210.096 147.215C210.096 146.629 210.293 146.168 210.688 145.832C211.082 145.496 211.633 145.328 212.34 145.328H215.2V151.75H214.227V149.184H212.604L210.922 151.75ZM211.045 147.227C211.045 147.969 211.584 148.34 212.662 148.34H214.227V146.172H212.463C211.518 146.172 211.045 146.523 211.045 147.227ZM222.198 146.16H220.112V151.75H219.139V146.16H217.077V145.328H222.198V146.16ZM226.636 151.867C225.706 151.867 224.986 151.582 224.474 151.012C223.966 150.438 223.712 149.627 223.712 148.58C223.712 147.506 223.97 146.676 224.486 146.09C225.005 145.504 225.743 145.211 226.7 145.211C227.009 145.211 227.318 145.244 227.626 145.311C227.935 145.377 228.177 145.455 228.353 145.545L228.054 146.371C227.839 146.285 227.605 146.215 227.351 146.16C227.097 146.102 226.872 146.072 226.677 146.072C225.372 146.072 224.72 146.904 224.72 148.568C224.72 149.357 224.878 149.963 225.195 150.385C225.515 150.807 225.987 151.018 226.612 151.018C227.148 151.018 227.696 150.902 228.259 150.672V151.533C227.829 151.756 227.288 151.867 226.636 151.867ZM230.711 151.75H229.574L231.42 149.037C230.923 148.928 230.543 148.717 230.277 148.404C230.015 148.088 229.884 147.691 229.884 147.215C229.884 146.629 230.082 146.168 230.476 145.832C230.871 145.496 231.421 145.328 232.129 145.328H234.988V151.75H234.015V149.184H232.392L230.711 151.75ZM230.834 147.227C230.834 147.969 231.373 148.34 232.451 148.34H234.015V146.172H232.252C231.306 146.172 230.834 146.523 230.834 147.227ZM242.346 145.328V148.018H245.944V145.328H246.916V151.75H245.944V148.855H242.346V151.75H241.373V145.328H242.346ZM253.528 151.75L253.335 150.836H253.288C252.968 151.238 252.647 151.512 252.327 151.656C252.011 151.797 251.614 151.867 251.137 151.867C250.501 151.867 250.001 151.703 249.637 151.375C249.278 151.047 249.098 150.58 249.098 149.975C249.098 148.678 250.136 147.998 252.21 147.936L253.3 147.9V147.502C253.3 146.998 253.19 146.627 252.971 146.389C252.757 146.146 252.411 146.025 251.934 146.025C251.399 146.025 250.794 146.189 250.118 146.518L249.819 145.773C250.136 145.602 250.481 145.467 250.856 145.369C251.235 145.271 251.614 145.223 251.993 145.223C252.759 145.223 253.325 145.393 253.692 145.732C254.063 146.072 254.249 146.617 254.249 147.367V151.75H253.528ZM251.331 151.064C251.936 151.064 252.411 150.898 252.755 150.566C253.102 150.234 253.276 149.77 253.276 149.172V148.592L252.304 148.633C251.53 148.66 250.971 148.781 250.628 148.996C250.288 149.207 250.118 149.537 250.118 149.986C250.118 150.338 250.223 150.605 250.434 150.789C250.649 150.973 250.948 151.064 251.331 151.064ZM263.142 151.867C262.212 151.867 261.492 151.582 260.98 151.012C260.472 150.438 260.218 149.627 260.218 148.58C260.218 147.506 260.476 146.676 260.992 146.09C261.511 145.504 262.25 145.211 263.207 145.211C263.515 145.211 263.824 145.244 264.132 145.311C264.441 145.377 264.683 145.455 264.859 145.545L264.56 146.371C264.345 146.285 264.111 146.215 263.857 146.16C263.603 146.102 263.379 146.072 263.183 146.072C261.879 146.072 261.226 146.904 261.226 148.568C261.226 149.357 261.384 149.963 261.701 150.385C262.021 150.807 262.494 151.018 263.119 151.018C263.654 151.018 264.203 150.902 264.765 150.672V151.533C264.336 151.756 263.795 151.867 263.142 151.867ZM270.844 151.75L270.65 150.836H270.604C270.283 151.238 269.963 151.512 269.643 151.656C269.326 151.797 268.93 151.867 268.453 151.867C267.816 151.867 267.316 151.703 266.953 151.375C266.594 151.047 266.414 150.58 266.414 149.975C266.414 148.678 267.451 147.998 269.525 147.936L270.615 147.9V147.502C270.615 146.998 270.506 146.627 270.287 146.389C270.072 146.146 269.727 146.025 269.25 146.025C268.715 146.025 268.109 146.189 267.434 146.518L267.135 145.773C267.451 145.602 267.797 145.467 268.172 145.369C268.551 145.271 268.93 145.223 269.309 145.223C270.074 145.223 270.641 145.393 271.008 145.732C271.379 146.072 271.564 146.617 271.564 147.367V151.75H270.844ZM268.646 151.064C269.252 151.064 269.727 150.898 270.07 150.566C270.418 150.234 270.592 149.77 270.592 149.172V148.592L269.619 148.633C268.846 148.66 268.287 148.781 267.943 148.996C267.604 149.207 267.434 149.537 267.434 149.986C267.434 150.338 267.539 150.605 267.75 150.789C267.965 150.973 268.264 151.064 268.646 151.064ZM275.088 145.328V149.4L275.047 150.467L275.03 150.801L278.504 145.328H279.717V151.75H278.809V147.824L278.827 147.051L278.856 146.289L275.387 151.75H274.174V145.328H275.088ZM276.922 144.479C276.2 144.479 275.672 144.34 275.34 144.062C275.008 143.781 274.823 143.32 274.784 142.68H275.698C275.733 143.086 275.838 143.369 276.014 143.529C276.194 143.689 276.504 143.77 276.946 143.77C277.348 143.77 277.645 143.684 277.836 143.512C278.032 143.34 278.151 143.062 278.194 142.68H279.114C279.067 143.297 278.87 143.752 278.522 144.045C278.174 144.334 277.641 144.479 276.922 144.479ZM286.71 146.16H284.624V151.75H283.651V146.16H281.589V145.328H286.71V146.16ZM291.294 151.867C290.345 151.867 289.595 151.578 289.044 151C288.497 150.422 288.224 149.619 288.224 148.592C288.224 147.557 288.478 146.734 288.986 146.125C289.497 145.516 290.183 145.211 291.042 145.211C291.847 145.211 292.484 145.477 292.952 146.008C293.421 146.535 293.655 147.232 293.655 148.1V148.715H289.232C289.251 149.469 289.441 150.041 289.8 150.432C290.163 150.822 290.673 151.018 291.329 151.018C292.021 151.018 292.704 150.873 293.38 150.584V151.451C293.036 151.6 292.71 151.705 292.402 151.768C292.097 151.834 291.728 151.867 291.294 151.867ZM291.03 146.025C290.515 146.025 290.103 146.193 289.794 146.529C289.489 146.865 289.31 147.33 289.255 147.924H292.612C292.612 147.311 292.476 146.842 292.202 146.518C291.929 146.189 291.538 146.025 291.03 146.025Z" fill="#0B1331"/>
<rect x="129.75" y="183" width="213.75" height="51" rx="3" fill="#3657C8"/>
<path d="M208.453 205.547C208.453 206.245 208.221 206.816 207.757 207.261C207.298 207.705 206.661 207.988 205.846 208.11V208.154C206.783 208.267 207.496 208.545 207.984 208.989C208.478 209.429 208.724 210.005 208.724 210.718C208.724 211.714 208.333 212.493 207.552 213.054C206.776 213.616 205.702 213.896 204.33 213.896C202.904 213.896 201.764 213.704 200.909 213.318V211.787C201.383 212.012 201.913 212.185 202.499 212.307C203.089 212.429 203.629 212.49 204.117 212.49C205.997 212.49 206.937 211.875 206.937 210.645C206.937 210.078 206.654 209.646 206.087 209.348C205.526 209.05 204.691 208.901 203.583 208.901H202.293V207.495H203.502C205.636 207.495 206.703 206.926 206.703 205.789C206.703 205.334 206.52 204.976 206.153 204.712C205.792 204.448 205.284 204.316 204.63 204.316C204.112 204.316 203.619 204.385 203.15 204.521C202.682 204.658 202.196 204.89 201.693 205.217L200.895 204.031C201.993 203.269 203.287 202.888 204.776 202.888C205.909 202.888 206.805 203.13 207.464 203.613C208.124 204.097 208.453 204.741 208.453 205.547ZM216.513 213.75L216.168 212.622H216.11C215.719 213.115 215.326 213.452 214.931 213.633C214.535 213.809 214.027 213.896 213.407 213.896C212.611 213.896 211.989 213.682 211.54 213.252C211.095 212.822 210.873 212.214 210.873 211.428C210.873 210.593 211.183 209.963 211.803 209.539C212.423 209.114 213.368 208.882 214.638 208.843L216.037 208.799V208.367C216.037 207.849 215.915 207.463 215.67 207.209C215.431 206.951 215.058 206.821 214.55 206.821C214.135 206.821 213.737 206.882 213.356 207.004C212.975 207.126 212.609 207.271 212.257 207.437L211.701 206.206C212.14 205.977 212.621 205.803 213.144 205.686C213.666 205.564 214.159 205.503 214.623 205.503C215.653 205.503 216.43 205.728 216.952 206.177C217.479 206.626 217.743 207.332 217.743 208.293V213.75H216.513ZM213.949 212.578C214.574 212.578 215.075 212.405 215.451 212.058C215.832 211.707 216.022 211.216 216.022 210.586V209.883L214.982 209.927C214.171 209.956 213.581 210.093 213.209 210.337C212.843 210.576 212.66 210.945 212.66 211.443C212.66 211.804 212.768 212.085 212.982 212.285C213.197 212.48 213.52 212.578 213.949 212.578ZM225.92 205.649H227.81L224.462 209.553L228.095 213.75H226.118L222.617 209.641V213.75H220.896V205.649H222.617V209.583L225.92 205.649ZM234.294 213.896C233.269 213.896 232.473 213.528 231.907 212.791H231.804C231.873 213.474 231.907 213.889 231.907 214.036V217.354H230.186V205.649H231.577C231.616 205.801 231.697 206.162 231.819 206.733H231.907C232.444 205.913 233.25 205.503 234.324 205.503C235.334 205.503 236.121 205.869 236.682 206.602C237.249 207.334 237.532 208.362 237.532 209.685C237.532 211.008 237.244 212.041 236.667 212.783C236.096 213.525 235.305 213.896 234.294 213.896ZM233.877 206.909C233.193 206.909 232.693 207.109 232.375 207.51C232.063 207.91 231.907 208.55 231.907 209.429V209.685C231.907 210.671 232.063 211.387 232.375 211.831C232.688 212.271 233.198 212.49 233.906 212.49C234.502 212.49 234.961 212.246 235.283 211.758C235.605 211.27 235.767 210.574 235.767 209.67C235.767 208.762 235.605 208.076 235.283 207.612C234.966 207.144 234.497 206.909 233.877 206.909ZM242.002 208.887H243.643C244.776 208.887 245.613 209.082 246.155 209.473C246.697 209.863 246.968 210.449 246.968 211.23C246.968 212.065 246.685 212.695 246.119 213.12C245.557 213.54 244.732 213.75 243.643 213.75H240.281V205.649H242.002V208.887ZM245.262 211.274C245.262 210.869 245.11 210.586 244.808 210.425C244.51 210.264 244.08 210.183 243.519 210.183H242.002V212.476H243.299C243.992 212.476 244.493 212.378 244.8 212.183C245.108 211.987 245.262 211.685 245.262 211.274ZM249.971 213.75H248.243V205.649H249.971V213.75ZM259.276 205.649V206.997H256.639V213.75H254.911V206.997H252.274V205.649H259.276ZM263.307 208.887H265.336C267.597 208.887 268.727 209.668 268.727 211.23C268.727 212.056 268.439 212.683 267.863 213.113C267.287 213.538 266.444 213.75 265.336 213.75H261.586V205.649H263.307V208.887ZM266.999 211.274C266.999 210.869 266.845 210.586 266.537 210.425C266.229 210.264 265.795 210.183 265.233 210.183H263.307V212.476H265.263C265.829 212.476 266.259 212.373 266.552 212.168C266.85 211.963 266.999 211.665 266.999 211.274Z" fill="white"/>
<path d="M97.8252 56.7334C96.7998 56.7334 96.0059 57.1201 95.4434 57.8936C94.8809 58.6611 94.5996 59.7334 94.5996 61.1104C94.5996 63.9756 95.6748 65.4082 97.8252 65.4082C98.7275 65.4082 99.8203 65.1826 101.104 64.7314V67.0166C100.049 67.4561 98.8711 67.6758 97.5703 67.6758C95.7012 67.6758 94.2715 67.1104 93.2812 65.9795C92.291 64.8428 91.7959 63.2139 91.7959 61.0928C91.7959 59.7568 92.0391 58.5879 92.5254 57.5859C93.0117 56.5781 93.709 55.8076 94.6172 55.2744C95.5312 54.7354 96.6006 54.4658 97.8252 54.4658C99.0732 54.4658 100.327 54.7676 101.587 55.3711L100.708 57.5859C100.228 57.3574 99.7441 57.1582 99.2578 56.9883C98.7715 56.8184 98.2939 56.7334 97.8252 56.7334ZM113.464 57.6738V67.5H110.775V59.6865H107.215V67.5H104.535V57.6738H113.464ZM123.417 67.5L122.899 66.1641H122.828C122.377 66.7324 121.911 67.1279 121.431 67.3506C120.956 67.5674 120.335 67.6758 119.568 67.6758C118.624 67.6758 117.88 67.4062 117.335 66.8672C116.796 66.3281 116.527 65.5605 116.527 64.5645C116.527 63.5215 116.89 62.7539 117.616 62.2617C118.349 61.7637 119.45 61.4883 120.921 61.4355L122.626 61.3828V60.9521C122.626 59.9561 122.116 59.458 121.097 59.458C120.312 59.458 119.389 59.6953 118.328 60.1699L117.441 58.3594C118.571 57.7676 119.825 57.4717 121.202 57.4717C122.521 57.4717 123.531 57.7588 124.235 58.333C124.938 58.9072 125.289 59.7803 125.289 60.9521V67.5H123.417ZM122.626 62.9473L121.589 62.9824C120.81 63.0059 120.23 63.1465 119.849 63.4043C119.468 63.6621 119.278 64.0547 119.278 64.582C119.278 65.3379 119.711 65.7158 120.578 65.7158C121.199 65.7158 121.695 65.5371 122.064 65.1797C122.439 64.8223 122.626 64.3477 122.626 63.7559V62.9473ZM132.948 67.6758C129.889 67.6758 128.36 65.9971 128.36 62.6396C128.36 60.9697 128.776 59.6953 129.608 58.8164C130.44 57.9316 131.633 57.4893 133.185 57.4893C134.322 57.4893 135.342 57.7119 136.244 58.1572L135.453 60.2314C135.031 60.0615 134.638 59.9238 134.275 59.8184C133.912 59.707 133.549 59.6514 133.185 59.6514C131.791 59.6514 131.094 60.6416 131.094 62.6221C131.094 64.5439 131.791 65.5049 133.185 65.5049C133.701 65.5049 134.179 65.4375 134.618 65.3027C135.057 65.1621 135.497 64.9453 135.936 64.6523V66.9463C135.503 67.2217 135.063 67.4121 134.618 67.5176C134.179 67.623 133.622 67.6758 132.948 67.6758ZM141.714 57.6738V61.5586C141.714 61.9688 141.647 62.9707 141.512 64.5645L146.047 57.6738H149.273V67.5H146.68V63.5801C146.68 62.8828 146.739 61.8984 146.856 60.627L142.338 67.5H139.121V57.6738H141.714ZM152.396 61.6113C152.396 59.3555 152.824 57.6445 153.68 56.4785C154.541 55.3066 155.883 54.5654 157.705 54.2549C158.59 54.1025 159.911 53.9092 161.669 53.6748L161.977 56.0127C161.215 56.1006 159.864 56.2881 157.925 56.5752C157.187 56.6924 156.636 56.8682 156.272 57.1025C155.909 57.3369 155.637 57.6709 155.455 58.1045C155.279 58.5381 155.171 59.1152 155.13 59.8359H155.262C155.572 59.3555 155.982 58.9863 156.492 58.7285C157.002 58.4707 157.55 58.3418 158.136 58.3418C159.349 58.3418 160.292 58.7139 160.966 59.458C161.64 60.1963 161.977 61.2568 161.977 62.6396C161.977 64.2334 161.549 65.4727 160.693 66.3574C159.844 67.2363 158.669 67.6758 157.169 67.6758C155.669 67.6758 154.497 67.1396 153.653 66.0674C152.815 64.9893 152.396 63.5039 152.396 61.6113ZM157.327 65.5049C158.599 65.5049 159.234 64.6289 159.234 62.877C159.234 61.1719 158.66 60.3193 157.512 60.3193C157.195 60.3193 156.879 60.3926 156.562 60.5391C156.252 60.6855 155.965 60.8789 155.701 61.1191C155.443 61.3535 155.253 61.5908 155.13 61.8311C155.13 63.0205 155.32 63.9316 155.701 64.5645C156.082 65.1914 156.624 65.5049 157.327 65.5049ZM167.227 62.5693C167.227 63.542 167.385 64.2773 167.702 64.7754C168.024 65.2734 168.546 65.5225 169.266 65.5225C169.981 65.5225 170.494 65.2764 170.804 64.7842C171.121 64.2861 171.279 63.5479 171.279 62.5693C171.279 61.5967 171.121 60.8672 170.804 60.3809C170.488 59.8945 169.969 59.6514 169.249 59.6514C168.534 59.6514 168.018 59.8945 167.702 60.3809C167.385 60.8613 167.227 61.5908 167.227 62.5693ZM174.021 62.5693C174.021 64.1689 173.599 65.4199 172.755 66.3223C171.912 67.2246 170.737 67.6758 169.231 67.6758C168.288 67.6758 167.456 67.4707 166.735 67.0605C166.014 66.6445 165.461 66.0498 165.074 65.2764C164.687 64.5029 164.494 63.6006 164.494 62.5693C164.494 60.9639 164.913 59.7158 165.751 58.8252C166.588 57.9346 167.766 57.4893 169.284 57.4893C170.227 57.4893 171.059 57.6943 171.78 58.1045C172.501 58.5146 173.054 59.1035 173.441 59.8711C173.828 60.6387 174.021 61.5381 174.021 62.5693ZM185.155 61.4531C186.169 61.4531 186.887 61.3711 187.308 61.207C187.736 61.043 187.95 60.7822 187.95 60.4248C187.95 60.1084 187.795 59.8711 187.484 59.7129C187.174 59.5547 186.661 59.4756 185.946 59.4756C185.495 59.4756 184.982 59.5312 184.408 59.6426C183.84 59.7539 183.321 59.9062 182.852 60.0996L182.061 58.2275C182.759 57.9639 183.435 57.7764 184.092 57.665C184.748 57.5479 185.48 57.4893 186.289 57.4893C187.513 57.4893 188.495 57.7236 189.233 58.1924C189.971 58.6611 190.341 59.2969 190.341 60.0996C190.341 61.207 189.687 61.9277 188.381 62.2617V62.3496C189.183 62.5488 189.755 62.833 190.095 63.2021C190.44 63.5654 190.613 64.043 190.613 64.6348C190.613 65.2324 190.42 65.7627 190.033 66.2256C189.646 66.6885 189.087 67.0459 188.354 67.2979C187.622 67.5498 186.761 67.6758 185.77 67.6758C184.13 67.6758 182.87 67.4736 181.991 67.0693V64.8545C182.495 65.0889 183.046 65.2734 183.643 65.4082C184.247 65.543 184.83 65.6104 185.392 65.6104C186.265 65.6104 186.919 65.5137 187.352 65.3203C187.786 65.1211 188.003 64.8398 188.003 64.4766C188.003 64.0781 187.774 63.7852 187.317 63.5977C186.86 63.4043 186.157 63.3076 185.208 63.3076H184.171V61.4531H185.155ZM199.854 67.5L199.335 66.1641H199.265C198.814 66.7324 198.348 67.1279 197.868 67.3506C197.393 67.5674 196.772 67.6758 196.004 67.6758C195.061 67.6758 194.317 67.4062 193.772 66.8672C193.233 66.3281 192.963 65.5605 192.963 64.5645C192.963 63.5215 193.327 62.7539 194.053 62.2617C194.786 61.7637 195.887 61.4883 197.358 61.4355L199.063 61.3828V60.9521C199.063 59.9561 198.553 59.458 197.534 59.458C196.748 59.458 195.826 59.6953 194.765 60.1699L193.877 58.3594C195.008 57.7676 196.262 57.4717 197.639 57.4717C198.957 57.4717 199.968 57.7588 200.671 58.333C201.374 58.9072 201.726 59.7803 201.726 60.9521V67.5H199.854ZM199.063 62.9473L198.026 62.9824C197.246 63.0059 196.666 63.1465 196.286 63.4043C195.905 63.6621 195.714 64.0547 195.714 64.582C195.714 65.3379 196.148 65.7158 197.015 65.7158C197.636 65.7158 198.131 65.5371 198.5 65.1797C198.875 64.8223 199.063 64.3477 199.063 63.7559V62.9473ZM214.961 67.6758C211.902 67.6758 210.373 65.9971 210.373 62.6396C210.373 60.9697 210.789 59.6953 211.621 58.8164C212.453 57.9316 213.645 57.4893 215.198 57.4893C216.335 57.4893 217.354 57.7119 218.256 58.1572L217.465 60.2314C217.044 60.0615 216.651 59.9238 216.288 59.8184C215.924 59.707 215.561 59.6514 215.198 59.6514C213.803 59.6514 213.106 60.6416 213.106 62.6221C213.106 64.5439 213.803 65.5049 215.198 65.5049C215.713 65.5049 216.191 65.4375 216.63 65.3027C217.07 65.1621 217.509 64.9453 217.949 64.6523V66.9463C217.515 67.2217 217.076 67.4121 216.63 67.5176C216.191 67.623 215.634 67.6758 214.961 67.6758ZM223.27 62.5693C223.27 63.542 223.428 64.2773 223.744 64.7754C224.067 65.2734 224.588 65.5225 225.309 65.5225C226.024 65.5225 226.536 65.2764 226.847 64.7842C227.163 64.2861 227.321 63.5479 227.321 62.5693C227.321 61.5967 227.163 60.8672 226.847 60.3809C226.53 59.8945 226.012 59.6514 225.291 59.6514C224.576 59.6514 224.061 59.8945 223.744 60.3809C223.428 60.8613 223.27 61.5908 223.27 62.5693ZM230.064 62.5693C230.064 64.1689 229.642 65.4199 228.798 66.3223C227.954 67.2246 226.779 67.6758 225.274 67.6758C224.33 67.6758 223.498 67.4707 222.778 67.0605C222.057 66.6445 221.503 66.0498 221.116 65.2764C220.73 64.5029 220.536 63.6006 220.536 62.5693C220.536 60.9639 220.955 59.7158 221.793 58.8252C222.631 57.9346 223.809 57.4893 225.326 57.4893C226.27 57.4893 227.102 57.6943 227.822 58.1045C228.543 58.5146 229.097 59.1035 229.484 59.8711C229.87 60.6387 230.064 61.5381 230.064 62.5693ZM241.308 57.6738V59.6865H238.092V67.5H235.411V59.6865H232.185V57.6738H241.308ZM249.442 67.6758C248.288 67.6758 247.382 67.2568 246.726 66.4189H246.585C246.679 67.2393 246.726 67.7139 246.726 67.8428V71.8242H244.045V57.6738H246.225L246.603 58.9482H246.726C247.353 57.9756 248.282 57.4893 249.512 57.4893C250.672 57.4893 251.58 57.9375 252.237 58.834C252.893 59.7305 253.221 60.9756 253.221 62.5693C253.221 63.6182 253.066 64.5293 252.755 65.3027C252.451 66.0762 252.014 66.665 251.446 67.0693C250.877 67.4736 250.209 67.6758 249.442 67.6758ZM248.651 59.6338C247.989 59.6338 247.505 59.8389 247.201 60.249C246.896 60.6533 246.738 61.3242 246.726 62.2617V62.5518C246.726 63.6064 246.881 64.3623 247.192 64.8193C247.508 65.2764 248.006 65.5049 248.686 65.5049C249.887 65.5049 250.488 64.5146 250.488 62.5342C250.488 61.5674 250.338 60.8438 250.039 60.3633C249.746 59.877 249.284 59.6338 248.651 59.6338ZM254.93 57.6738H257.865L259.72 63.2021C259.878 63.6826 259.986 64.251 260.045 64.9072H260.098C260.162 64.3037 260.288 63.7354 260.476 63.2021L262.295 57.6738H265.169L261.012 68.7568C260.631 69.7822 260.086 70.5498 259.377 71.0596C258.674 71.5693 257.851 71.8242 256.907 71.8242C256.444 71.8242 255.99 71.7744 255.545 71.6748V69.5479C255.867 69.624 256.219 69.6621 256.6 69.6621C257.074 69.6621 257.487 69.5156 257.839 69.2227C258.196 68.9355 258.475 68.499 258.674 67.9131L258.832 67.4297L254.93 57.6738ZM273.636 65.54V59.6865H271.624C271.477 60.7764 271.275 61.8105 271.017 62.7891C270.765 63.7676 270.414 64.6846 269.962 65.54H273.636ZM277.758 71.0244H275.35V67.5H268.741V71.0244H266.333V65.54H267.159C267.721 64.667 268.193 63.5654 268.574 62.2354C268.955 60.9053 269.221 59.3848 269.374 57.6738H276.317V65.54H277.758V71.0244ZM283.018 57.6738V61.4531H286.762V57.6738H289.443V67.5H286.762V63.4482H283.018V67.5H280.337V57.6738H283.018ZM295.748 57.6738V61.5586C295.748 61.9688 295.68 62.9707 295.546 64.5645L300.081 57.6738H303.306V67.5H300.714V63.5801C300.714 62.8828 300.772 61.8984 300.889 60.627L296.372 67.5H293.155V57.6738H295.748ZM309.383 57.6738V61.2686C309.383 62.124 309.779 62.5518 310.57 62.5518C311.085 62.5518 311.563 62.4932 312.002 62.376C312.448 62.2588 312.896 62.1064 313.347 61.9189V57.6738H316.028V67.5H313.347V63.5977C312.726 63.9258 312.149 64.1572 311.616 64.292C311.082 64.4268 310.567 64.4941 310.069 64.4941C308.996 64.4941 308.167 64.2217 307.581 63.6768C306.996 63.126 306.703 62.3438 306.703 61.3301V57.6738H309.383ZM323.81 59.3965C323.241 59.3965 322.796 59.5781 322.474 59.9414C322.151 60.2988 321.967 60.8086 321.92 61.4707H325.682C325.67 60.8086 325.497 60.2988 325.163 59.9414C324.829 59.5781 324.378 59.3965 323.81 59.3965ZM324.188 67.6758C322.605 67.6758 321.369 67.2393 320.479 66.3662C319.588 65.4932 319.143 64.2568 319.143 62.6572C319.143 61.0107 319.553 59.7393 320.373 58.8428C321.199 57.9404 322.339 57.4893 323.792 57.4893C325.181 57.4893 326.262 57.8848 327.035 58.6758C327.809 59.4668 328.195 60.5596 328.195 61.9541V63.2549H321.858C321.888 64.0166 322.113 64.6113 322.535 65.0391C322.957 65.4668 323.549 65.6807 324.311 65.6807C324.902 65.6807 325.462 65.6191 325.989 65.4961C326.517 65.373 327.067 65.1768 327.642 64.9072V66.9814C327.173 67.2158 326.672 67.3887 326.139 67.5C325.605 67.6172 324.955 67.6758 324.188 67.6758ZM335.265 67.6758C332.207 67.6758 330.677 65.9971 330.677 62.6396C330.677 60.9697 331.093 59.6953 331.925 58.8164C332.757 57.9316 333.95 57.4893 335.503 57.4893C336.639 57.4893 337.659 57.7119 338.561 58.1572L337.77 60.2314C337.348 60.0615 336.956 59.9238 336.592 59.8184C336.229 59.707 335.866 59.6514 335.503 59.6514C334.108 59.6514 333.411 60.6416 333.411 62.6221C333.411 64.5439 334.108 65.5049 335.503 65.5049C336.018 65.5049 336.496 65.4375 336.935 65.3027C337.375 65.1621 337.814 64.9453 338.254 64.6523V66.9463C337.82 67.2217 337.38 67.4121 336.935 67.5176C336.496 67.623 335.939 67.6758 335.265 67.6758ZM349.569 57.6738V59.6865H346.352V67.5H343.671V59.6865H340.446V57.6738H349.569ZM361.376 60.249C361.376 60.7764 361.209 61.2275 360.875 61.6025C360.547 61.9717 360.06 62.209 359.416 62.3145V62.3848C360.113 62.4668 360.664 62.707 361.068 63.1055C361.478 63.498 361.683 63.9844 361.683 64.5645C361.683 65.5195 361.308 66.249 360.558 66.7529C359.808 67.251 358.736 67.5 357.342 67.5H352.305V57.6738H357.342C358.689 57.6738 359.697 57.8936 360.365 58.333C361.039 58.7666 361.376 59.4053 361.376 60.249ZM358.906 64.4238C358.906 64.0371 358.757 63.7588 358.458 63.5889C358.159 63.4131 357.711 63.3252 357.113 63.3252H354.986V65.6455H357.166C357.734 65.6455 358.165 65.54 358.458 65.3291C358.757 65.1123 358.906 64.8105 358.906 64.4238ZM358.66 60.46C358.66 59.8623 358.185 59.5635 357.236 59.5635H354.986V61.5059H356.929C357.497 61.5059 357.928 61.4238 358.221 61.2598C358.513 61.0957 358.66 60.8291 358.66 60.46ZM366.855 62.5693C366.855 63.542 367.013 64.2773 367.329 64.7754C367.652 65.2734 368.173 65.5225 368.894 65.5225C369.609 65.5225 370.121 65.2764 370.432 64.7842C370.748 64.2861 370.907 63.5479 370.907 62.5693C370.907 61.5967 370.748 60.8672 370.432 60.3809C370.116 59.8945 369.597 59.6514 368.876 59.6514C368.162 59.6514 367.646 59.8945 367.329 60.3809C367.013 60.8613 366.855 61.5908 366.855 62.5693ZM373.649 62.5693C373.649 64.1689 373.227 65.4199 372.383 66.3223C371.539 67.2246 370.365 67.6758 368.859 67.6758C367.915 67.6758 367.083 67.4707 366.363 67.0605C365.642 66.6445 365.088 66.0498 364.702 65.2764C364.315 64.5029 364.121 63.6006 364.121 62.5693C364.121 60.9639 364.54 59.7158 365.378 58.8252C366.216 57.9346 367.394 57.4893 368.912 57.4893C369.855 57.4893 370.687 57.6943 371.408 58.1045C372.128 58.5146 372.682 59.1035 373.069 59.8711C373.455 60.6387 373.649 61.5381 373.649 62.5693ZM379.014 63.2373H376.869L376.421 54.6504H379.462L379.014 63.2373ZM376.386 66.2432C376.386 65.751 376.518 65.3789 376.781 65.127C377.045 64.875 377.429 64.749 377.933 64.749C378.419 64.749 378.794 64.8779 379.058 65.1357C379.327 65.3936 379.462 65.7627 379.462 66.2432C379.462 66.7061 379.327 67.0723 379.058 67.3418C378.788 67.6055 378.413 67.7373 377.933 67.7373C377.44 67.7373 377.06 67.6084 376.79 67.3506C376.521 67.0869 376.386 66.7178 376.386 66.2432Z" fill="#0B1331"/>
</g>
<defs>
<filter id="filter0_d" x="0.75" y="0.75" width="472.5" height="285" filterUnits="userSpaceOnUse" color-interpolation-filters="sRGB">
<feFlood flood-opacity="0" result="BackgroundImageFix"/>
<feColorMatrix in="SourceAlpha" type="matrix" values="0 0 0 0 0 0 0 0 0 0 0 0 0 0 0 0 0 0 127 0" result="hardAlpha"/>
<feOffset dy="3"/>
<feGaussianBlur stdDeviation="5.625"/>
<feColorMatrix type="matrix" values="0 0 0 0 0 0 0 0 0 0 0 0 0 0 0 0 0 0 0.15 0"/>
<feBlend mode="normal" in2="BackgroundImageFix" result="effect1_dropShadow"/>
<feBlend mode="normal" in="SourceGraphic" in2="effect1_dropShadow" result="shape"/>
</filter>
</defs>
</svg>
