<svg width="33" height="33" viewBox="0 0 33 33" fill="none" xmlns="http://www.w3.org/2000/svg">
<circle cx="16.5" cy="16.5" r="16.5" fill="#BFC6E0"/>
<path d="M4.97314 16.5V21.5C4.97314 21.7652 5.07568 22.0196 5.25819 22.2071C5.44071 22.3946 5.68825 22.5 5.94636 22.5H6.91957C6.91957 23.2956 7.22718 24.0587 7.77472 24.6213C8.32226 25.1839 9.06488 25.5 9.83922 25.5C10.6136 25.5 11.3562 25.1839 11.9037 24.6213C12.4513 24.0587 12.7589 23.2956 12.7589 22.5H18.5981C18.5981 23.2956 18.9057 24.0587 19.4533 24.6213C20.0008 25.1839 20.7434 25.5 21.5178 25.5C22.2921 25.5 23.0347 25.1839 23.5823 24.6213C24.1298 24.0587 24.4374 23.2956 24.4374 22.5H25.4106C25.6688 22.5 25.9163 22.3946 26.0988 22.2071C26.2813 22.0196 26.3839 21.7652 26.3839 21.5V9.5C26.3839 8.70435 26.0763 7.94129 25.5287 7.37868C24.9812 6.81607 24.2386 6.5 23.4642 6.5H14.7053C13.9309 6.5 13.1883 6.81607 12.6408 7.37868C12.0932 7.94129 11.7856 8.70435 11.7856 9.5V11.5H9.83922C9.38596 11.5 8.93892 11.6084 8.53351 11.8167C8.1281 12.025 7.77546 12.3274 7.5035 12.7L5.16779 15.9C5.13932 15.9435 5.11643 15.9905 5.09966 16.04L5.04127 16.15C4.99832 16.2615 4.97524 16.3801 4.97314 16.5ZM20.5446 22.5C20.5446 22.3022 20.6016 22.1089 20.7086 21.9444C20.8155 21.78 20.9675 21.6518 21.1454 21.5761C21.3232 21.5004 21.5189 21.4806 21.7077 21.5192C21.8964 21.5578 22.0698 21.653 22.206 21.7929C22.3421 21.9327 22.4347 22.1109 22.4723 22.3049C22.5099 22.4989 22.4906 22.7 22.4169 22.8827C22.3433 23.0654 22.2185 23.2216 22.0585 23.3315C21.8984 23.4414 21.7103 23.5 21.5178 23.5C21.2597 23.5 21.0121 23.3946 20.8296 23.2071C20.6471 23.0196 20.5446 22.7652 20.5446 22.5ZM13.7321 9.5C13.7321 9.23478 13.8346 8.98043 14.0171 8.79289C14.1996 8.60536 14.4472 8.5 14.7053 8.5H23.4642C23.7223 8.5 23.9699 8.60536 24.1524 8.79289C24.3349 8.98043 24.4374 9.23478 24.4374 9.5V20.5H23.6783C23.4047 20.1906 23.0711 19.9435 22.6991 19.7743C22.327 19.6052 21.9246 19.5178 21.5178 19.5178C21.1109 19.5178 20.7086 19.6052 20.3365 19.7743C19.9645 19.9435 19.6309 20.1906 19.3573 20.5H13.7321V9.5ZM11.7856 15.5H7.89279L9.06064 13.9C9.1513 13.7758 9.26884 13.675 9.40398 13.6056C9.53912 13.5361 9.68813 13.5 9.83922 13.5H11.7856V15.5ZM8.866 22.5C8.866 22.3022 8.92308 22.1089 9.03002 21.9444C9.13696 21.78 9.28895 21.6518 9.46678 21.5761C9.64461 21.5004 9.8403 21.4806 10.0291 21.5192C10.2179 21.5578 10.3913 21.653 10.5274 21.7929C10.6635 21.9327 10.7562 22.1109 10.7937 22.3049C10.8313 22.4989 10.812 22.7 10.7383 22.8827C10.6647 23.0654 10.5399 23.2216 10.3799 23.3315C10.2199 23.4414 10.0317 23.5 9.83922 23.5C9.5811 23.5 9.33356 23.3946 9.15105 23.2071C8.96854 23.0196 8.866 22.7652 8.866 22.5ZM6.91957 17.5H11.7856V20.28C11.2113 19.7526 10.4573 19.4797 9.68807 19.5209C8.9188 19.5621 8.19655 19.914 7.67868 20.5H6.91957V17.5Z" fill="white"/>
</svg>
