<svg width="22" height="22" viewBox="0 0 22 22" fill="none" xmlns="http://www.w3.org/2000/svg">
<path d="M20.6508 14.668C20.1652 14.668 19.7742 15.059 19.7742 15.5445V19.7727H2.22578V15.5445C2.22578 15.059 1.83477 14.668 1.34922 14.668C0.863672 14.668 0.472656 15.059 0.472656 15.5445V20.6492C0.472656 21.1348 0.863672 21.5258 1.34922 21.5258H20.6508C21.1363 21.5258 21.5273 21.1348 21.5273 20.6492V15.5445C21.5273 15.059 21.1363 14.668 20.6508 14.668Z" fill="#BFC6E0"/>
<path d="M10.3561 15.709C10.8503 16.2074 11.4561 15.9324 11.6409 15.709L16.6811 10.2863C17.012 9.92969 16.9905 9.37539 16.6339 9.04453C16.2772 8.71367 15.7229 8.73516 15.3964 9.0918L11.8772 12.8773V1.48203C11.8772 0.996484 11.4862 0.605469 11.0007 0.605469C10.5151 0.605469 10.1241 0.996484 10.1241 1.48203V12.8816L6.60496 9.09609C6.27411 8.73945 5.71981 8.72227 5.36317 9.04883C5.00653 9.37969 4.98934 9.93398 5.3159 10.2906L10.3561 15.709Z" fill="#BFC6E0"/>
</svg>
