<svg width="22" height="22" viewBox="0 0 22 22" fill="none" xmlns="http://www.w3.org/2000/svg">
<path d="M21.5226 10.0134C21.9556 9.59134 22.1085 8.97195 21.9217 8.39618C21.7345 7.82041 21.2468 7.4094 20.6477 7.32217L15.3208 6.54816C15.094 6.51512 14.8979 6.37283 14.7966 6.16711L12.4151 1.34023C12.1477 0.797942 11.605 0.460938 11.0001 0.460938C10.3957 0.460938 9.85299 0.797942 9.58559 1.34023L7.20365 6.16711C7.10233 6.37283 6.90585 6.51512 6.67898 6.54816L1.3521 7.32261C0.753426 7.4094 0.265761 7.82041 0.0785363 8.39618C-0.108248 8.97195 0.0446156 9.59134 0.477655 10.0134L4.33184 13.7702C4.49616 13.9305 4.57149 14.1614 4.53272 14.3869L3.62303 19.6922C3.52083 20.2883 3.76092 20.879 4.25034 21.2349C4.73933 21.5913 5.37589 21.6376 5.91202 21.3552L10.6759 18.8504C10.879 18.7438 11.1213 18.7438 11.3244 18.8504L16.0887 21.3552C16.3213 21.4777 16.5733 21.538 16.8239 21.538C17.1495 21.538 17.4737 21.4363 17.7503 21.2349C18.2398 20.879 18.4799 20.2883 18.3777 19.6922L17.4675 14.3874C17.4288 14.1614 17.5041 13.931 17.6684 13.7706L21.5226 10.0134ZM16.5997 14.5363L17.5094 19.8411C17.5552 20.1081 17.4517 20.3631 17.2323 20.5226C17.0125 20.6816 16.7389 20.701 16.4988 20.5759L11.7345 18.0706C11.505 17.9504 11.2521 17.8896 11.0001 17.8896C10.7481 17.8896 10.4957 17.9504 10.2658 18.0711L5.50233 20.5759C5.26136 20.701 4.98779 20.6816 4.7684 20.5226C4.54902 20.3631 4.44594 20.1085 4.49131 19.8411L5.401 14.5363C5.48867 14.0244 5.31907 13.5019 4.94726 13.1398L1.09263 9.38252C0.89836 9.1931 0.832281 8.92614 0.916422 8.66843C1.00012 8.41028 1.21025 8.23318 1.47854 8.19398L6.80497 7.41997C7.31907 7.34552 7.76356 7.02305 7.99307 6.55697L10.375 1.7301C10.4948 1.48693 10.7288 1.34199 10.9997 1.34199C11.271 1.34199 11.5045 1.48693 11.6248 1.7301L14.0067 6.55697C14.2362 7.02305 14.6803 7.34552 15.1944 7.41997L20.5213 8.19398C20.7896 8.23318 20.9997 8.41028 21.0834 8.66843C21.1671 8.92614 21.1014 9.1931 20.9072 9.38252L17.053 13.1394C16.6812 13.5019 16.5116 14.0239 16.5997 14.5363Z" fill="#ED954E"/>
</svg>
