<svg width="15" height="14" viewBox="0 0 15 14" fill="none" xmlns="http://www.w3.org/2000/svg">
<path d="M6.30888 4.67303L7.5 2.25955L8.69112 4.67303L9.5186 4.26465L8.69112 4.67303C8.90962 5.11575 9.33196 5.4226 9.82053 5.49359L12.484 5.88061L10.5567 7.75924C10.2032 8.10385 10.0418 8.60035 10.1253 9.08695L10.5803 11.7396L8.19801 10.4872C7.76103 10.2575 7.23897 10.2575 6.80199 10.4872L4.41974 11.7396L4.87471 9.08694C4.95817 8.60035 4.79685 8.10385 4.44331 7.75924L2.51604 5.88061L5.17947 5.49359C5.66803 5.4226 6.09038 5.11575 6.30888 4.67303ZM13.4865 6.0263C13.4863 6.02626 13.4861 6.02623 13.4858 6.02619L13.4865 6.0263ZM11.477 12.2111L11.4764 12.2107L11.477 12.2111Z" fill="white" stroke="#ED954E" stroke-width="2"/>
</svg>
