<svg width="19" height="23" viewBox="0 0 19 23" fill="none" xmlns="http://www.w3.org/2000/svg">
<path d="M11.875 13.8094C11.4378 13.8094 11.0833 14.2216 11.0833 14.73V20.2538H1.58335V1.84127H11.0833V7.36502C11.0833 7.87347 11.4378 8.28563 11.875 8.28563C12.3122 8.28563 12.6667 7.87347 12.6667 7.36502V0.920612C12.6667 0.412167 12.3122 0 11.875 0H0.791654C0.354432 0 0 0.412167 0 0.920612V21.1744C0 21.6829 0.354432 22.095 0.791654 22.095H11.875C12.3122 22.095 12.6667 21.6829 12.6667 21.1744V14.73C12.6667 14.2216 12.3122 13.8094 11.875 13.8094Z" fill="#0B1331"/>
<path d="M18.8197 11.6318C18.8273 11.6211 18.8338 11.6099 18.8409 11.5989C18.8493 11.5858 18.858 11.5731 18.8658 11.5595C18.8734 11.5463 18.8799 11.5327 18.8868 11.5192C18.8931 11.5069 18.8998 11.4949 18.9056 11.4823C18.9119 11.4685 18.9173 11.4544 18.923 11.4404C18.9283 11.4271 18.934 11.4142 18.9388 11.4006C18.9437 11.387 18.9476 11.3731 18.9518 11.3593C18.9563 11.3448 18.9611 11.3304 18.965 11.3156C18.9686 11.3018 18.9712 11.2877 18.9742 11.2738C18.9775 11.2586 18.9811 11.2437 18.9838 11.2282C18.9865 11.2121 18.9882 11.1958 18.9902 11.1795C18.9918 11.1661 18.9941 11.1529 18.9952 11.1392C19.0003 11.0788 19.0003 11.0179 18.9952 10.9575C18.9941 10.9439 18.9919 10.9307 18.9902 10.9172C18.9882 10.901 18.9866 10.8846 18.9838 10.8685C18.9811 10.853 18.9775 10.8381 18.9742 10.8229C18.9712 10.809 18.9686 10.7949 18.965 10.7811C18.9611 10.7663 18.9563 10.7519 18.9518 10.7374C18.9476 10.7236 18.9437 10.7097 18.9388 10.6961C18.934 10.6826 18.9283 10.6696 18.923 10.6564C18.9173 10.6423 18.9119 10.6282 18.9056 10.6145C18.8998 10.6018 18.8931 10.5898 18.8868 10.5775C18.8799 10.564 18.8733 10.5504 18.8658 10.5373C18.858 10.5237 18.8493 10.5109 18.8409 10.4979C18.8338 10.4869 18.8272 10.4756 18.8197 10.4649C18.8034 10.4418 18.7862 10.4196 18.7681 10.3984C18.7678 10.3981 18.7675 10.3977 18.7673 10.3974L15.6006 6.71495C15.2915 6.35543 14.7902 6.35543 14.481 6.71495C14.1719 7.07447 14.1719 7.6574 14.481 8.01692L16.2962 10.1278H9.49917C9.06195 10.1278 8.70752 10.54 8.70752 11.0484C8.70752 11.5569 9.06195 11.969 9.49917 11.969H16.2962L14.481 14.0799C14.1719 14.4394 14.1719 15.0224 14.481 15.3819C14.7902 15.7414 15.2915 15.7414 15.6006 15.3819L18.7673 11.6994C18.7676 11.6991 18.7678 11.6987 18.7681 11.6984C18.7862 11.6771 18.8034 11.6549 18.8197 11.6318Z" fill="#0B1331"/>
</svg>
