<svg width="40" height="40" viewBox="0 0 40 40" fill="none" xmlns="http://www.w3.org/2000/svg">
<path d="M35.3125 0H4.6875C2.10266 0 0 2.10266 0 4.6875V35.3125C0 37.8973 2.10266 40 4.6875 40H35.3125C37.8973 40 40 37.8973 40 35.3125V4.6875C40 2.10266 37.8973 0 35.3125 0ZM36.875 35.3125C36.875 36.174 36.174 36.875 35.3125 36.875H26.0938V25.4688H31.0959L31.6788 20.625H26.0938V15.3906C26.0938 14.0546 27.1014 13.0469 28.4375 13.0469H31.9531V8.51562C31.0278 8.38501 29.2429 8.20312 28.4375 8.20312C26.6153 8.20312 24.7888 8.97186 23.4265 10.3119C22.023 11.6925 21.25 13.501 21.25 15.4044V20.625H16.1719V25.4688H21.25V36.875H4.6875C3.82599 36.875 3.125 36.174 3.125 35.3125V4.6875C3.125 3.82599 3.82599 3.125 4.6875 3.125H35.3125C36.174 3.125 36.875 3.82599 36.875 4.6875V35.3125Z" fill="#3657C8"/>
</svg>
