<svg width="151" height="75" viewBox="0 0 151 75" fill="none" xmlns="http://www.w3.org/2000/svg">
<path fill-rule="evenodd" clip-rule="evenodd" d="M89.0986 0.0183999C86.5849 0.0161828 84.1025 0.575904 81.833 1.65662C79.5635 2.73733 77.5643 4.31171 75.9816 6.26457C73.7886 3.55083 70.8079 1.58408 67.4502 0.635386C64.0926 -0.313311 60.5234 -0.197249 57.2344 0.967574C53.9455 2.1324 51.0989 4.28864 49.0868 7.13911C47.0747 9.98959 45.9962 13.394 46 16.8831V44.3662C46 46.3541 46.7897 48.2606 48.1954 49.6663C49.601 51.0719 51.5075 51.8616 53.4954 51.8616V16.8831C53.4954 14.3982 54.4825 12.0151 56.2396 10.258C57.9967 8.50092 60.3798 7.51381 62.8647 7.51381C65.3496 7.51381 67.7327 8.50092 69.4897 10.258C71.2468 12.0151 72.2339 14.3982 72.2339 16.8831V38.7447C72.2339 39.7386 72.6288 40.6919 73.3316 41.3947C74.0344 42.0975 74.9877 42.4924 75.9816 42.4924C76.9756 42.4924 77.9288 42.0975 78.6317 41.3947C79.3345 40.6919 79.7293 39.7386 79.7293 38.7447V16.8831C79.7293 14.3982 80.7164 12.0151 82.4735 10.258C84.2306 8.50092 86.6137 7.51381 89.0986 7.51381C91.5835 7.51381 93.9666 8.50092 95.7237 10.258C97.4807 12.0151 98.4678 14.3982 98.4678 16.8831V51.8616C100.456 51.8616 102.362 51.0719 103.768 49.6663C105.174 48.2606 105.963 46.3541 105.963 44.3662V16.8831C105.963 12.4103 104.186 8.12068 101.024 4.95795C97.861 1.79521 93.5714 0.0183999 89.0986 0.0183999Z" fill="white"/>
<path fill-rule="evenodd" clip-rule="evenodd" d="M85.3507 12.5117V37.4964C85.3507 39.9813 84.3636 42.3644 82.6066 44.1215C80.8495 45.8785 78.4664 46.8657 75.9815 46.8657C73.4966 46.8657 71.1135 45.8785 69.3564 44.1215C67.5993 42.3644 66.6122 39.9813 66.6122 37.4964V12.5117C64.6243 12.5117 62.7178 13.3014 61.3122 14.7071C59.9065 16.1127 59.1168 18.0192 59.1168 20.0071V37.4964C59.1168 41.9692 60.8936 46.2588 64.0564 49.4215C67.2191 52.5843 71.5087 54.3611 75.9815 54.3611C80.4543 54.3611 84.7439 52.5843 87.9066 49.4215C91.0693 46.2588 92.8461 41.9692 92.8461 37.4964V20.0071C92.8461 18.0192 92.0565 16.1127 90.6508 14.7071C89.2451 13.3014 87.3386 12.5117 85.3507 12.5117Z" fill="white"/>
<path d="M8.79474 64.4986V70.7265C8.83766 71.3037 8.7594 71.8835 8.565 72.4287C8.37061 72.9739 8.06437 73.4725 7.66593 73.8923C6.74842 74.6428 5.5787 75.0142 4.3963 74.9303C3.21438 75.0102 2.04607 74.6393 1.12667 73.8923C0.733191 73.4696 0.431036 72.9703 0.239056 72.4256C0.0470774 71.8809 -0.0306078 71.3025 0.0108413 70.7265V64.4986H2.11275V70.6097C2.05938 71.2903 2.25282 71.9673 2.65768 72.517C3.12771 72.919 3.72589 73.14 4.3444 73.14C4.96292 73.14 5.56109 72.919 6.03112 72.517C6.43598 71.9673 6.62942 71.2903 6.57606 70.6097V64.4727L8.79474 64.4986Z" fill="white"/>
<path d="M22.1192 64.4961V74.7721H19.654L16.06 68.7259L15.1777 67.0521H15.1647L15.2166 68.8297V74.7721H13.2964V64.4961H15.7356L19.3296 70.5164L20.2249 72.2161H20.2508L20.186 70.4385V64.4961H22.1192Z" fill="white"/>
<path d="M28.9821 64.4961H26.8282V74.7721H28.9821V64.4961Z" fill="white"/>
<path d="M41.7916 64.4961V66.2217H38.3533V74.7721H36.2124V66.2217H32.7482V64.4961H41.7916Z" fill="white"/>
<path d="M45.5769 74.7721V64.4961H53.2839V66.2217H47.7177V68.7778H52.1032V70.4255H47.7177V73.0464H53.5045V74.7721H45.5769Z" fill="white"/>
<path d="M65.1568 65.8338C64.6547 65.3752 64.0644 65.0236 63.422 64.8005C62.7795 64.5775 62.0984 64.4876 61.4201 64.5363H57.4498V74.8123H61.4201C62.0984 74.8611 62.7795 74.7712 63.422 74.5481C64.0644 74.3251 64.6547 73.9735 65.1568 73.5149C66.0135 72.4329 66.4796 71.0933 66.4796 69.7132C66.4796 68.3332 66.0135 66.9936 65.1568 65.9116V65.8338ZM63.509 72.1914C63.2332 72.4929 62.8925 72.7277 62.5127 72.8783C62.1328 73.0289 61.7238 73.0913 61.3163 73.0607H59.6036V66.2101H61.3163C61.7247 66.1821 62.1341 66.2469 62.5138 66.3997C62.8936 66.5525 63.2338 66.7893 63.509 67.0924C64.0617 67.8397 64.3286 68.7602 64.2616 69.6873C64.307 70.5838 64.0411 71.4685 63.509 72.1914Z" fill="white"/>
<path d="M88.6306 64.4961V74.7721H86.6974V69.4135L86.8012 66.4163H86.7622L83.9208 74.7721H82.1562L79.3277 66.4163H79.2888L79.4056 69.4135V74.7721H77.4594V64.4961H80.5733L82.4157 70.1012L83.0774 72.4237H83.1034L83.778 70.1142L85.6075 64.4961H88.6306Z" fill="white"/>
<path d="M98.4891 64.4961H95.8941L92.1444 74.7721H94.3371L95.1805 72.268H99.0729L99.9293 74.7721H102.161L98.4891 64.4961ZM95.7384 70.6721L96.7375 67.7528L97.1656 66.2217L97.6327 67.7787L98.5929 70.6721H95.7384Z" fill="white"/>
<path d="M111.903 70.5057C112.547 70.3538 113.117 69.9786 113.511 69.4466C113.906 68.9146 114.099 68.2602 114.057 67.5994C114.074 67.1704 113.991 66.7433 113.816 66.3516C113.64 65.9599 113.376 65.6142 113.044 65.3418C112.266 64.7436 111.3 64.4444 110.32 64.4984H105.792V74.7744H107.907V70.882H109.801L112.214 74.7744H114.627L111.903 70.5057ZM110.073 69.2082H107.907V66.2241H110.073C111.267 66.2241 111.864 66.7171 111.864 67.7161C111.864 68.7152 111.267 69.1953 110.073 69.1953V69.2082Z" fill="white"/>
<path d="M120.545 64.4961V69.3746L124.775 64.4961H127.266L123.568 68.6869L127.382 74.7721H124.93L122.011 70.0752L120.545 71.736V74.7721H118.404V64.4961H120.545Z" fill="white"/>
<path d="M130.99 74.7721V64.4961H138.696V66.2217H133.143V68.7778H137.516V70.4255H133.143V73.0464H138.917V74.7721H130.99Z" fill="white"/>
<path d="M151.001 64.4961V66.2217H147.562V74.7721H145.408V66.2217H141.957V64.4961H151.001Z" fill="white"/>
</svg>
