<svg width="21" height="22" viewBox="0 0 21 22" fill="none" xmlns="http://www.w3.org/2000/svg">
<path d="M11.5144 1.14095L13.8829 6.16874C14.0477 6.51842 14.3661 6.76073 14.7345 6.81671L20.0309 7.62301C20.9587 7.76436 21.3289 8.95843 20.6578 9.64358L16.8253 13.5571C16.559 13.8293 16.4372 14.2216 16.5003 14.6057L17.4048 20.1319C17.5634 21.0997 16.5936 21.8377 15.7639 21.381L11.0269 18.7722C10.6975 18.5909 10.3037 18.5909 9.97425 18.7722L5.2372 21.381C4.40754 21.8381 3.4377 21.0997 3.59628 20.1319L4.50084 14.6057C4.56392 14.2216 4.44215 13.8293 4.17581 13.5571L0.343335 9.64358C-0.327754 8.95797 0.042396 7.7639 0.970181 7.62301L6.26661 6.81671C6.63501 6.76073 6.95347 6.51842 7.11818 6.16874L9.4867 1.14095C9.90109 0.260308 11.0996 0.260308 11.5144 1.14095Z" fill="#ED954E"/>
</svg>
