<svg width="17" height="17" viewBox="0 0 17 17" fill="none" xmlns="http://www.w3.org/2000/svg">
<path d="M9.3212 0.881466L11.2386 4.76657C11.3719 5.03679 11.6297 5.22402 11.9279 5.26728L16.2155 5.89033C16.9666 5.99955 17.2662 6.92225 16.723 7.45168L13.6205 10.4758C13.4049 10.6861 13.3063 10.9893 13.3574 11.2861L14.0896 15.5563C14.218 16.3042 13.4329 16.8744 12.7613 16.5215L8.92651 14.5056C8.65985 14.3655 8.34105 14.3655 8.07439 14.5056L4.23963 16.5215C3.568 16.8747 2.7829 16.3042 2.91127 15.5563L3.64354 11.2861C3.6946 10.9893 3.59602 10.6861 3.38041 10.4758L0.277932 7.45168C-0.265331 6.92189 0.0343147 5.9992 0.785379 5.89033L5.07297 5.26728C5.37119 5.22402 5.629 5.03679 5.76233 4.76657L7.67971 0.881466C8.01517 0.20097 8.98538 0.20097 9.3212 0.881466Z" fill="#BFC6E0"/>
</svg>
