<svg width="19" height="23" viewBox="0 0 19 23" fill="none" xmlns="http://www.w3.org/2000/svg">
<path d="M11.875 14.2977C11.4378 14.2977 11.0833 14.7098 11.0833 15.2183V20.742H1.58335V2.32955H11.0833V7.8533C11.0833 8.36175 11.4378 8.77391 11.875 8.77391C12.3122 8.77391 12.6667 8.36175 12.6667 7.8533V1.40889C12.6667 0.900448 12.3122 0.488281 11.875 0.488281H0.791654C0.354432 0.488281 0 0.900448 0 1.40889V21.6626C0 22.1711 0.354432 22.5833 0.791654 22.5833H11.875C12.3122 22.5833 12.6667 22.1711 12.6667 21.6627V15.2183C12.6667 14.7098 12.3122 14.2977 11.875 14.2977Z" fill="#BFC6E0"/>
<path d="M18.8197 12.1201C18.8273 12.1094 18.8338 12.0981 18.8409 12.0871C18.8493 12.0741 18.858 12.0613 18.8658 12.0477C18.8734 12.0346 18.8799 12.021 18.8868 12.0075C18.8931 11.9952 18.8998 11.9832 18.9056 11.9705C18.9119 11.9568 18.9173 11.9427 18.923 11.9286C18.9283 11.9154 18.934 11.9024 18.9388 11.8889C18.9437 11.8753 18.9476 11.8614 18.9518 11.8476C18.9563 11.833 18.9611 11.8187 18.965 11.8039C18.9686 11.7901 18.9712 11.776 18.9742 11.7621C18.9775 11.7469 18.9811 11.7319 18.9838 11.7165C18.9865 11.7003 18.9882 11.684 18.9902 11.6678C18.9918 11.6543 18.9941 11.6411 18.9952 11.6275C19.0003 11.5671 19.0003 11.5062 18.9952 11.4458C18.9941 11.4322 18.9919 11.419 18.9902 11.4055C18.9882 11.3892 18.9866 11.3729 18.9838 11.3568C18.9811 11.3413 18.9775 11.3264 18.9742 11.3112C18.9712 11.2972 18.9686 11.2832 18.965 11.2694C18.9611 11.2546 18.9563 11.2402 18.9518 11.2257C18.9476 11.2119 18.9437 11.198 18.9388 11.1844C18.934 11.1708 18.9283 11.1579 18.923 11.1446C18.9173 11.1306 18.9119 11.1165 18.9056 11.1027C18.8998 11.0901 18.8931 11.0781 18.8868 11.0658C18.8799 11.0523 18.8733 11.0387 18.8658 11.0255C18.858 11.0119 18.8493 10.9992 18.8409 10.9861C18.8338 10.9751 18.8272 10.9639 18.8197 10.9532C18.8034 10.9301 18.7862 10.9079 18.7681 10.8867C18.7678 10.8864 18.7675 10.886 18.7673 10.8857L15.6006 7.20323C15.2915 6.84371 14.7902 6.84371 14.481 7.20323C14.1719 7.56275 14.1719 8.14568 14.481 8.5052L16.2962 10.6161H9.49917C9.06195 10.6161 8.70752 11.0283 8.70752 11.5367C8.70752 12.0452 9.06195 12.4573 9.49917 12.4573H16.2962L14.481 14.5682C14.1719 14.9277 14.1719 15.5107 14.481 15.8702C14.7902 16.2297 15.2915 16.2297 15.6006 15.8702L18.7673 12.1877C18.7676 12.1873 18.7678 12.187 18.7681 12.1867C18.7862 12.1654 18.8034 12.1432 18.8197 12.1201Z" fill="#BFC6E0"/>
</svg>
