<svg width="18" height="17" viewBox="0 0 18 17" fill="none" xmlns="http://www.w3.org/2000/svg">
<path fill-rule="evenodd" clip-rule="evenodd" d="M12.9375 0.00552337C12.1829 0.00485783 11.4378 0.172877 10.7565 0.49729C10.0752 0.821703 9.4751 1.2943 9 1.88052C8.34169 1.0659 7.44692 0.475516 6.43901 0.190733C5.4311 -0.0940508 4.35968 -0.059211 3.3724 0.29045C2.38512 0.640111 1.53059 1.28738 0.926596 2.14305C0.322597 2.99871 -0.00113967 4.02065 3.01458e-06 5.06802V13.318C3.01458e-06 13.9148 0.237056 14.4871 0.659012 14.909C1.08097 15.331 1.65327 15.568 2.25 15.568V5.06802C2.25 4.3221 2.54632 3.60673 3.07376 3.07928C3.60121 2.55184 4.31658 2.25552 5.0625 2.25552C5.80842 2.25552 6.52379 2.55184 7.05124 3.07928C7.57869 3.60673 7.875 4.3221 7.875 5.06802V11.6305C7.875 11.9289 7.99353 12.215 8.20451 12.426C8.41548 12.637 8.70163 12.7555 9 12.7555C9.29837 12.7555 9.58452 12.637 9.7955 12.426C10.0065 12.215 10.125 11.9289 10.125 11.6305V5.06802C10.125 4.3221 10.4213 3.60673 10.9488 3.07928C11.4762 2.55184 12.1916 2.25552 12.9375 2.25552C13.6834 2.25552 14.3988 2.55184 14.9262 3.07928C15.4537 3.60673 15.75 4.3221 15.75 5.06802V15.568C16.3467 15.568 16.919 15.331 17.341 14.909C17.7629 14.4871 18 13.9148 18 13.318V5.06802C18 3.72536 17.4666 2.4377 16.5172 1.4883C15.5678 0.538892 14.2802 0.00552337 12.9375 0.00552337Z" fill="#1955A0"/>
<path fill-rule="evenodd" clip-rule="evenodd" d="M11.8123 3.75549V11.2555C11.8123 12.0014 11.5159 12.7168 10.9885 13.2442C10.461 13.7717 9.74568 14.068 8.99976 14.068C8.25383 14.068 7.53846 13.7717 7.01102 13.2442C6.48357 12.7168 6.18726 12.0014 6.18726 11.2555V3.75549C5.59052 3.75549 5.01822 3.99255 4.59627 4.4145C4.17431 4.83646 3.93726 5.40876 3.93726 6.00549V11.2555C3.93726 12.5982 4.47063 13.8858 5.42003 14.8352C6.36943 15.7846 7.6571 16.318 8.99976 16.318C10.3424 16.318 11.6301 15.7846 12.5795 14.8352C13.5289 13.8858 14.0623 12.5982 14.0623 11.2555V6.00549C14.0623 5.40876 13.8252 4.83646 13.4032 4.4145C12.9813 3.99255 12.409 3.75549 11.8123 3.75549Z" fill="#E61D4D"/>
</svg>
