<svg width="26" height="13" fill="none" xmlns="http://www.w3.org/2000/svg"><path d="M12.778.054a6.594 6.594 0 00-2.405.4c-1.702.661-2.644 2.149-2.826 4.463-.023.279-.039.565-.039.87V8.19c-.17 1.513-.936 2.27-2.3 2.27-1.586 0-2.38-1.03-2.38-3.087V0C1.126.663.184 2.151 0 4.465v2.881c0 1.77.387 3.116 1.153 4.047.851 1.03 2.166 1.552 3.957 1.552a6.59 6.59 0 002.405-.401c1.702-.662 2.645-2.15 2.828-4.463.02-.28.036-.565.036-.867V4.808c0-.052.016-.102.023-.152v-.139c.18-2.302 1.114-3.786 2.801-4.453-.143-.005-.282-.01-.425-.01z" fill="#E61D4D"/><path d="M20.342.055c-1.673 0-2.945.438-3.82 1.305C15.748.57 14.652.14 13.23.066h-.027c-1.685.667-2.62 2.152-2.801 4.454v.138c.203-1.416.962-2.125 2.277-2.127.185 0 .369.015.55.048 1.22.222 1.83 1.235 1.83 3.04V13h2.842V5.51a5.208 5.208 0 01.13-1.233c.28-1.164 1.016-1.747 2.206-1.748.18 0 .36.015.537.045 1.23.218 1.845 1.232 1.843 3.042v7.382h2.83V5.652c0-3.731-1.701-5.597-5.105-5.597z" fill="#1955A0"/></svg>