<svg width="17" height="17" viewBox="0 0 17 17" fill="none" xmlns="http://www.w3.org/2000/svg">
<path d="M8.5 4.25C7.65943 4.25 6.83774 4.49926 6.13883 4.96625C5.43992 5.43325 4.89518 6.09701 4.57351 6.8736C4.25184 7.65018 4.16768 8.50471 4.33166 9.32913C4.49565 10.1536 4.90042 10.9108 5.4948 11.5052C6.08917 12.0996 6.84645 12.5044 7.67087 12.6683C8.49529 12.8323 9.34982 12.7482 10.1264 12.4265C10.903 12.1048 11.5668 11.5601 12.0337 10.8612C12.5007 10.1623 12.75 9.34057 12.75 8.5C12.75 7.37283 12.3022 6.29183 11.5052 5.4948C10.7082 4.69777 9.62717 4.25 8.5 4.25ZM8.5 11.05C7.99566 11.05 7.50264 10.9004 7.0833 10.6202C6.66395 10.34 6.33711 9.94179 6.14411 9.47584C5.9511 9.00989 5.90061 8.49717 5.999 8.00252C6.09739 7.50787 6.34025 7.0535 6.69688 6.69688C7.0535 6.34025 7.50787 6.09739 8.00252 5.999C8.49717 5.90061 9.00989 5.9511 9.47584 6.14411C9.94179 6.33711 10.34 6.66395 10.6202 7.0833C10.9004 7.50264 11.05 7.99566 11.05 8.5C11.05 9.1763 10.7813 9.82491 10.3031 10.3031C9.82491 10.7813 9.1763 11.05 8.5 11.05ZM12.75 3.4C12.5819 3.4 12.4175 3.44985 12.2778 3.54325C12.138 3.63665 12.029 3.7694 11.9647 3.92472C11.9004 4.08004 11.8835 4.25094 11.9163 4.41583C11.9491 4.58071 12.0301 4.73217 12.149 4.85104C12.2678 4.96992 12.4193 5.05087 12.5842 5.08367C12.7491 5.11647 12.92 5.09963 13.0753 5.0353C13.2306 4.97096 13.3634 4.86202 13.4567 4.72223C13.5501 4.58245 13.6 4.41811 13.6 4.25C13.6 4.02457 13.5104 3.80837 13.351 3.64896C13.1916 3.48955 12.9754 3.4 12.75 3.4ZM16.949 5.304C16.9349 4.57761 16.7969 3.85895 16.541 3.179C16.3037 2.56026 15.9389 1.99834 15.4703 1.52974C15.0017 1.06114 14.4397 0.696334 13.821 0.459C13.141 0.203064 12.4224 0.0650825 11.696 0.051C10.8715 -4.74975e-08 10.5995 0 8.5 0C6.4005 0 6.1285 -4.74975e-08 5.304 0.051C4.57761 0.0650825 3.85895 0.203064 3.179 0.459C2.56026 0.696334 1.99834 1.06114 1.52974 1.52974C1.06114 1.99834 0.696334 2.56026 0.459 3.179C0.203064 3.85895 0.0650825 4.57761 0.051 5.304C-4.74975e-08 6.137 0 6.409 0 8.5C0 10.591 -4.74975e-08 10.863 0.051 11.696C0.0650825 12.4224 0.203064 13.141 0.459 13.821C0.696334 14.4397 1.06114 15.0017 1.52974 15.4703C1.99834 15.9389 2.56026 16.3037 3.179 16.541C3.85895 16.7969 4.57761 16.9349 5.304 16.949C6.154 16.949 6.4005 17 8.5 17C10.5995 17 10.8715 17 11.696 16.949C12.4224 16.9349 13.141 16.7969 13.821 16.541C14.4397 16.3037 15.0017 15.9389 15.4703 15.4703C15.9389 15.0017 16.3037 14.4397 16.541 13.821C16.7969 13.141 16.9349 12.4224 16.949 11.696C16.949 10.846 17 10.591 17 8.5C17 6.409 17 6.137 16.949 5.304ZM15.249 11.6195C15.2341 12.1589 15.1337 12.6926 14.9515 13.2005C14.8009 13.602 14.5628 13.9649 14.2545 14.263C13.9582 14.5714 13.5946 14.8071 13.192 14.9515C12.6829 15.1411 12.1457 15.2446 11.6025 15.2575C10.8035 15.2575 10.557 15.3 8.4915 15.3C6.426 15.3 6.188 15.3 5.389 15.3C4.84672 15.286 4.31014 15.1856 3.7995 15.0025C3.39801 14.8519 3.03507 14.6138 2.737 14.3055C2.42858 14.0092 2.19293 13.6456 2.0485 13.243C1.85963 12.7366 1.75623 12.2023 1.7425 11.662C1.7425 10.812 1.7425 10.5995 1.7425 8.5425C1.7425 6.4855 1.7425 6.239 1.7425 5.423C1.75715 4.88003 1.86052 4.34311 2.0485 3.8335C2.19517 3.43454 2.4306 3.07413 2.737 2.7795C3.03329 2.47108 3.39695 2.23543 3.7995 2.091C4.30864 1.90136 4.84584 1.79794 5.389 1.785C6.188 1.7 6.4345 1.7 8.5 1.7C10.5655 1.7 10.812 1.7 11.611 1.7C12.1568 1.71388 12.6967 1.81725 13.209 2.006C13.608 2.15267 13.9684 2.3881 14.263 2.6945C14.5714 2.99079 14.8071 3.35445 14.9515 3.757C15.1596 4.27428 15.2775 4.8234 15.3 5.3805C15.3 6.2305 15.3425 6.443 15.3425 8.5C15.3425 10.557 15.3 10.8035 15.3 11.6195H15.249Z" fill="white"/>
</svg>
