<svg width="17" height="17" fill="none" xmlns="http://www.w3.org/2000/svg"><path d="M8.5 4.25a4.25 4.25 0 100 8.5 4.25 4.25 0 000-8.5zm0 6.8a2.55 2.55 0 110-5.1 2.55 2.55 0 010 5.1zm4.25-7.65a.85.85 0 100 1.7.85.85 0 000-1.7zm4.199 1.904a6.385 6.385 0 00-.408-2.125 4.725 4.725 0 00-2.72-2.72 6.384 6.384 0 00-2.125-.408C10.871 0 10.6 0 8.5 0S6.128 0 5.304.051a6.383 6.383 0 00-2.125.408 4.726 4.726 0 00-2.72 2.72 6.383 6.383 0 00-.408 2.125C0 6.137 0 6.409 0 8.5s0 2.363.051 3.196c.014.726.152 1.445.408 2.125a4.727 4.727 0 002.72 2.72c.68.256 1.399.394 2.125.408.85 0 1.096.051 3.196.051s2.371 0 3.196-.051a6.385 6.385 0 002.125-.408 4.726 4.726 0 002.72-2.72c.256-.68.394-1.399.408-2.125 0-.85.051-1.105.051-3.196s0-2.363-.051-3.196zm-1.7 6.316a5.1 5.1 0 01-.298 1.58 2.89 2.89 0 01-.697 1.063 2.77 2.77 0 01-1.062.688c-.51.19-1.046.294-1.59.306-.799 0-1.045.043-3.11.043H5.389a5.1 5.1 0 01-1.59-.298 2.89 2.89 0 01-1.062-.697 2.77 2.77 0 01-.688-1.062 4.879 4.879 0 01-.306-1.581V5.423c.014-.543.118-1.08.306-1.59a2.81 2.81 0 01.688-1.054c.296-.308.66-.544 1.063-.688a4.887 4.887 0 011.589-.306C6.188 1.7 6.434 1.7 8.5 1.7h3.111a4.99 4.99 0 011.598.306c.399.147.76.382 1.054.689.308.296.544.66.688 1.062.209.517.326 1.066.349 1.623 0 .85.042 1.063.042 3.12 0 2.057-.042 2.303-.042 3.12h-.051z" fill="#0B1331"/></svg>