<svg width="37" height="37" fill="none" xmlns="http://www.w3.org/2000/svg"><path d="M18.5 14.057a4.443 4.443 0 100 8.886 4.443 4.443 0 000-8.886zm17.791-4.39a11.699 11.699 0 00-.752-4.049 7.166 7.166 0 00-4.157-4.157A11.7 11.7 0 0027.333.71C25.022.583 24.341.583 18.5.583c-5.84 0-6.521 0-8.833.126a11.7 11.7 0 00-4.049.752 7.167 7.167 0 00-4.157 4.157 11.7 11.7 0 00-.752 4.05C.583 11.977.583 12.658.583 18.5c0 5.841 0 6.522.126 8.833.02 1.389.274 2.764.752 4.067a7.059 7.059 0 001.63 2.508 6.97 6.97 0 002.527 1.63c1.295.49 2.666.744 4.05.753 2.31.126 2.991.126 8.832.126 5.841 0 6.522 0 8.833-.126a11.698 11.698 0 004.05-.752 6.97 6.97 0 002.525-1.63 7.059 7.059 0 001.63-2.509c.489-1.3.744-2.677.753-4.067.126-2.311.126-2.992.126-8.833 0-5.84 0-6.521-.126-8.833zm-4.55 14.334a10.266 10.266 0 01-.7 3.225 6.916 6.916 0 01-3.815 3.816 10.3 10.3 0 01-3.243.627H13.018a10.265 10.265 0 01-3.243-.627A6.288 6.288 0 017.428 29.5a6.289 6.289 0 01-1.47-2.275 9.837 9.837 0 01-.609-3.243V13.018a9.836 9.836 0 01.61-3.243 6.277 6.277 0 011.54-2.347 6.432 6.432 0 012.276-1.47 10.266 10.266 0 013.243-.627h10.965a10.3 10.3 0 013.243.627c.888.33 1.69.857 2.347 1.541a6.29 6.29 0 011.469 2.276c.382 1.04.594 2.135.627 3.243V18.5c0 3.691.125 4.067.072 5.483V24zm-2.867-13.33a4.263 4.263 0 00-2.526-2.527 7.167 7.167 0 00-2.473-.394h-10.75a7.166 7.166 0 00-2.472.466 4.264 4.264 0 00-2.527 2.437 7.65 7.65 0 00-.376 2.472v10.75a7.65 7.65 0 00.466 2.473 4.264 4.264 0 002.526 2.526 7.648 7.648 0 002.383.466h10.75a7.165 7.165 0 002.473-.466 4.263 4.263 0 002.526-2.526c.3-.79.457-1.628.466-2.473v-10.75a6.77 6.77 0 00-.466-2.472v.018zM18.5 25.344a6.826 6.826 0 01-6.826-6.844 6.845 6.845 0 116.826 6.844zM25.667 13a1.612 1.612 0 010-3.207 1.612 1.612 0 010 3.207z" fill="#fff"/></svg>