<svg width="321" height="72" viewBox="0 0 321 72" fill="none" xmlns="http://www.w3.org/2000/svg">
<g opacity="0.81" filter="url(#filter0_f)">
<path fill-rule="evenodd" clip-rule="evenodd" d="M46.7685 35.4242C40.8034 35.4242 34.5386 37.9666 27.8732 43.7028C24.6308 46.4933 20.278 45.3068 18.1512 41.0527C16.0243 36.7985 16.9286 31.0877 20.1711 28.2972C28.67 20.9829 37.5693 17 46.7685 17C55.9676 17 64.867 20.9829 73.3659 28.2972C80.0312 34.0334 86.2961 36.5758 92.2611 36.5758C98.2261 36.5758 104.491 34.0334 111.156 28.2972C119.655 20.9829 128.555 17 137.754 17C146.953 17 155.852 20.9829 164.351 28.2972C171.016 34.0334 177.281 36.5758 183.246 36.5758C189.211 36.5758 195.476 34.0334 202.142 28.2972C210.64 20.9829 219.54 17 228.739 17C237.938 17 246.837 20.9829 255.336 28.2972C262.002 34.0334 268.267 36.5758 274.232 36.5758C280.197 36.5758 286.461 34.0334 293.127 28.2972C296.369 25.5066 300.722 26.6932 302.849 30.9473C304.976 35.2015 304.071 40.9123 300.829 43.7028C292.33 51.0171 283.431 55 274.232 55C265.032 55 256.133 51.0171 247.634 43.7028C240.969 37.9666 234.704 35.4242 228.739 35.4242C222.774 35.4242 216.509 37.9666 209.844 43.7028C201.345 51.0171 192.445 55 183.246 55C174.047 55 165.148 51.0171 156.649 43.7028C149.984 37.9666 143.719 35.4242 137.754 35.4242C131.789 35.4242 125.524 37.9666 118.858 43.7028C110.36 51.0171 101.46 55 92.2611 55C83.0619 55 74.1626 51.0171 65.6637 43.7028C58.9984 37.9666 52.7335 35.4242 46.7685 35.4242Z" fill="#11297A" fill-opacity="0.53"/>
</g>
<g opacity="0.8" filter="url(#filter1_bii)">
<path fill-rule="evenodd" clip-rule="evenodd" d="M51.7685 25.4242C45.8034 25.4242 39.5386 27.9666 32.8732 33.7028C29.6308 36.4933 25.278 35.3068 23.1512 31.0527C21.0243 26.7985 21.9286 21.0877 25.1711 18.2972C33.67 10.9829 42.5693 7 51.7685 7C60.9676 7 69.867 10.9829 78.3659 18.2972C85.0312 24.0334 91.2961 26.5758 97.2611 26.5758C103.226 26.5758 109.491 24.0334 116.156 18.2972C124.655 10.9829 133.555 7 142.754 7C151.953 7 160.852 10.9829 169.351 18.2972C176.016 24.0334 182.281 26.5758 188.246 26.5758C194.211 26.5758 200.476 24.0334 207.142 18.2972C215.64 10.9829 224.54 7 233.739 7C242.938 7 251.837 10.9829 260.336 18.2972C267.002 24.0334 273.267 26.5758 279.232 26.5758C285.197 26.5758 291.461 24.0334 298.127 18.2972C301.369 15.5066 305.722 16.6932 307.849 20.9473C309.976 25.2015 309.071 30.9123 305.829 33.7028C297.33 41.0171 288.431 45 279.232 45C270.032 45 261.133 41.0171 252.634 33.7028C245.969 27.9666 239.704 25.4242 233.739 25.4242C227.774 25.4242 221.509 27.9666 214.844 33.7028C206.345 41.0171 197.445 45 188.246 45C179.047 45 170.148 41.0171 161.649 33.7028C154.984 27.9666 148.719 25.4242 142.754 25.4242C136.789 25.4242 130.524 27.9666 123.858 33.7028C115.36 41.0171 106.46 45 97.2611 45C88.0619 45 79.1626 41.0171 70.6637 33.7028C63.9984 27.9666 57.7335 25.4242 51.7685 25.4242Z" fill="url(#paint0_linear)" fill-opacity="0.85"/>
</g>
<defs>
<filter id="filter0_f" x="0" y="0" width="321" height="72" filterUnits="userSpaceOnUse" color-interpolation-filters="sRGB">
<feFlood flood-opacity="0" result="BackgroundImageFix"/>
<feBlend mode="normal" in="SourceGraphic" in2="BackgroundImageFix" result="shape"/>
<feGaussianBlur stdDeviation="8.5" result="effect1_foregroundBlur"/>
</filter>
<filter id="filter1_bii" x="-11" y="-26" width="353" height="104" filterUnits="userSpaceOnUse" color-interpolation-filters="sRGB">
<feFlood flood-opacity="0" result="BackgroundImageFix"/>
<feGaussianBlur in="BackgroundImage" stdDeviation="16.5"/>
<feComposite in2="SourceAlpha" operator="in" result="effect1_backgroundBlur"/>
<feBlend mode="normal" in="SourceGraphic" in2="effect1_backgroundBlur" result="shape"/>
<feColorMatrix in="SourceAlpha" type="matrix" values="0 0 0 0 0 0 0 0 0 0 0 0 0 0 0 0 0 0 127 0" result="hardAlpha"/>
<feOffset dx="2" dy="4"/>
<feGaussianBlur stdDeviation="2"/>
<feComposite in2="hardAlpha" operator="arithmetic" k2="-1" k3="1"/>
<feColorMatrix type="matrix" values="0 0 0 0 1 0 0 0 0 1 0 0 0 0 1 0 0 0 0.25 0"/>
<feBlend mode="normal" in2="shape" result="effect2_innerShadow"/>
<feColorMatrix in="SourceAlpha" type="matrix" values="0 0 0 0 0 0 0 0 0 0 0 0 0 0 0 0 0 0 127 0" result="hardAlpha"/>
<feOffset dx="-3" dy="-3"/>
<feGaussianBlur stdDeviation="2"/>
<feComposite in2="hardAlpha" operator="arithmetic" k2="-1" k3="1"/>
<feColorMatrix type="matrix" values="0 0 0 0 1 0 0 0 0 1 0 0 0 0 1 0 0 0 0.25 0"/>
<feBlend mode="normal" in2="effect2_innerShadow" result="effect3_innerShadow"/>
</filter>
<linearGradient id="paint0_linear" x1="22" y1="9.60639" x2="47.9831" y2="128.376" gradientUnits="userSpaceOnUse">
<stop stop-color="#3657C8"/>
<stop offset="0.312089" stop-color="#9D75DE"/>
<stop offset="0.603773" stop-color="#D24B6C"/>
<stop offset="0.88504" stop-color="#ED954E"/>
</linearGradient>
</defs>
</svg>
