<svg width="152" height="141" viewBox="0 0 152 141" fill="none" xmlns="http://www.w3.org/2000/svg">
<g opacity="0.81" filter="url(#filter0_f)">
<path fill-rule="evenodd" clip-rule="evenodd" d="M101.813 17.0362C96.8659 17.0318 91.9809 18.1333 87.5148 20.26C83.0487 22.3867 79.1145 25.4849 76 29.3279C71.6844 23.9876 65.8187 20.1173 59.2113 18.2504C52.6039 16.3834 45.5801 16.6118 39.1079 18.9041C32.6358 21.1963 27.0339 25.4395 23.0744 31.0489C19.1148 36.6582 16.9925 43.3576 17 50.2237V104.307C17 108.219 18.554 111.971 21.3202 114.737C24.0864 117.503 27.8381 119.057 31.75 119.057V50.2237C31.75 45.3338 33.6925 40.6441 37.1502 37.1864C40.6079 33.7287 45.2976 31.7862 50.1875 31.7862C55.0774 31.7862 59.7671 33.7287 63.2248 37.1864C66.6825 40.6441 68.625 45.3338 68.625 50.2237V93.2445C68.625 95.2005 69.402 97.0764 70.7851 98.4594C72.1682 99.8425 74.044 100.62 76 100.62C77.956 100.62 79.8318 99.8425 81.2149 98.4594C82.598 97.0764 83.375 95.2005 83.375 93.2445V50.2237C83.375 45.3338 85.3175 40.6441 88.7752 37.1864C92.2329 33.7287 96.9226 31.7862 101.813 31.7862C106.702 31.7862 111.392 33.7287 114.85 37.1864C118.307 40.6441 120.25 45.3338 120.25 50.2237V119.057C124.162 119.057 127.914 117.503 130.68 114.737C133.446 111.971 135 108.219 135 104.307V50.2237C135 41.4218 131.503 32.9805 125.28 26.7566C119.056 20.5327 110.614 17.0362 101.813 17.0362Z" fill="#11297A" fill-opacity="0.53"/>
<path fill-rule="evenodd" clip-rule="evenodd" d="M94.4375 41.6211V90.7878C94.4375 95.6777 92.495 100.367 89.0373 103.825C85.5796 107.283 80.8899 109.225 76 109.225C71.1101 109.225 66.4204 107.283 62.9627 103.825C59.505 100.367 57.5625 95.6777 57.5625 90.7878V41.6211C53.6506 41.6211 49.8988 43.1751 47.1327 45.9413C44.3665 48.7074 42.8125 52.4591 42.8125 56.3711V90.7878C42.8125 99.5896 46.309 108.031 52.5329 114.255C58.7568 120.479 67.1981 123.975 76 123.975C84.8019 123.975 93.2432 120.479 99.4671 114.255C105.691 108.031 109.187 99.5896 109.187 90.7878V56.3711C109.187 52.4591 107.633 48.7074 104.867 45.9413C102.101 43.1751 98.3494 41.6211 94.4375 41.6211Z" fill="#11297A" fill-opacity="0.53"/>
</g>
<g opacity="0.81" filter="url(#filter1_b)">
<g filter="url(#filter2_ii)">
<path fill-rule="evenodd" clip-rule="evenodd" d="M89.8125 8.03621C84.8659 8.03185 79.9809 9.13331 75.5148 11.26C71.0487 13.3867 67.1145 16.4849 64 20.3279C59.6844 14.9876 53.8187 11.1173 47.2113 9.25036C40.6039 7.38344 33.5801 7.61184 27.1079 9.90406C20.6358 12.1963 15.0339 16.4395 11.0744 22.0489C7.1148 27.6582 4.99253 34.3576 5.00002 41.2237V95.307C5.00002 99.219 6.55403 102.971 9.32019 105.737C12.0864 108.503 15.8381 110.057 19.75 110.057V41.2237C19.75 36.3338 21.6925 31.6441 25.1502 28.1864C28.6079 24.7287 33.2976 22.7862 38.1875 22.7862C43.0774 22.7862 47.7671 24.7287 51.2248 28.1864C54.6825 31.6441 56.625 36.3338 56.625 41.2237V84.2445C56.625 86.2005 57.402 88.0764 58.7851 89.4594C60.1682 90.8425 62.044 91.6195 64 91.6195C65.956 91.6195 67.8318 90.8425 69.2149 89.4594C70.598 88.0764 71.375 86.2005 71.375 84.2445V41.2237C71.375 36.3338 73.3175 31.6441 76.7752 28.1864C80.2329 24.7287 84.9226 22.7862 89.8125 22.7862C94.7024 22.7862 99.3921 24.7287 102.85 28.1864C106.307 31.6441 108.25 36.3338 108.25 41.2237V110.057C112.162 110.057 115.914 108.503 118.68 105.737C121.446 102.971 123 99.219 123 95.307V41.2237C123 32.4218 119.503 23.9805 113.28 17.7566C107.056 11.5327 98.6144 8.03621 89.8125 8.03621Z" fill="url(#paint0_linear)"/>
</g>
<g filter="url(#filter3_ii)">
<path fill-rule="evenodd" clip-rule="evenodd" d="M82.4375 32.6211V81.7878C82.4375 86.6777 80.495 91.3673 77.0373 94.825C73.5796 98.2827 68.8899 100.225 64 100.225C59.1101 100.225 54.4204 98.2827 50.9627 94.825C47.505 91.3673 45.5625 86.6777 45.5625 81.7878V32.6211C41.6506 32.6211 37.8988 34.1751 35.1327 36.9413C32.3665 39.7074 30.8125 43.4591 30.8125 47.3711V81.7878C30.8125 90.5896 34.309 99.031 40.5329 105.255C46.7568 111.479 55.1981 114.975 64 114.975C72.8019 114.975 81.2432 111.479 87.4671 105.255C93.691 99.031 97.1875 90.5896 97.1875 81.7878V47.3711C97.1875 43.4591 95.6335 39.7074 92.8673 36.9413C90.1012 34.1751 86.3494 32.6211 82.4375 32.6211Z" fill="url(#paint1_linear)"/>
</g>
</g>
<defs>
<filter id="filter0_f" x="0" y="0" width="152" height="140.975" filterUnits="userSpaceOnUse" color-interpolation-filters="sRGB">
<feFlood flood-opacity="0" result="BackgroundImageFix"/>
<feBlend mode="normal" in="SourceGraphic" in2="BackgroundImageFix" result="shape"/>
<feGaussianBlur stdDeviation="8.5" result="effect1_foregroundBlur"/>
</filter>
<filter id="filter1_b" x="-37" y="-34" width="202" height="190.975" filterUnits="userSpaceOnUse" color-interpolation-filters="sRGB">
<feFlood flood-opacity="0" result="BackgroundImageFix"/>
<feGaussianBlur in="BackgroundImage" stdDeviation="21"/>
<feComposite in2="SourceAlpha" operator="in" result="effect1_backgroundBlur"/>
<feBlend mode="normal" in="SourceGraphic" in2="effect1_backgroundBlur" result="shape"/>
</filter>
<filter id="filter2_ii" x="2" y="5" width="123" height="109.057" filterUnits="userSpaceOnUse" color-interpolation-filters="sRGB">
<feFlood flood-opacity="0" result="BackgroundImageFix"/>
<feBlend mode="normal" in="SourceGraphic" in2="BackgroundImageFix" result="shape"/>
<feColorMatrix in="SourceAlpha" type="matrix" values="0 0 0 0 0 0 0 0 0 0 0 0 0 0 0 0 0 0 127 0" result="hardAlpha"/>
<feOffset dx="2" dy="4"/>
<feGaussianBlur stdDeviation="2"/>
<feComposite in2="hardAlpha" operator="arithmetic" k2="-1" k3="1"/>
<feColorMatrix type="matrix" values="0 0 0 0 1 0 0 0 0 1 0 0 0 0 1 0 0 0 0.25 0"/>
<feBlend mode="normal" in2="shape" result="effect1_innerShadow"/>
<feColorMatrix in="SourceAlpha" type="matrix" values="0 0 0 0 0 0 0 0 0 0 0 0 0 0 0 0 0 0 127 0" result="hardAlpha"/>
<feOffset dx="-3" dy="-3"/>
<feGaussianBlur stdDeviation="2"/>
<feComposite in2="hardAlpha" operator="arithmetic" k2="-1" k3="1"/>
<feColorMatrix type="matrix" values="0 0 0 0 1 0 0 0 0 1 0 0 0 0 1 0 0 0 0.25 0"/>
<feBlend mode="normal" in2="effect1_innerShadow" result="effect2_innerShadow"/>
</filter>
<filter id="filter3_ii" x="27.8125" y="29.6211" width="71.375" height="89.3542" filterUnits="userSpaceOnUse" color-interpolation-filters="sRGB">
<feFlood flood-opacity="0" result="BackgroundImageFix"/>
<feBlend mode="normal" in="SourceGraphic" in2="BackgroundImageFix" result="shape"/>
<feColorMatrix in="SourceAlpha" type="matrix" values="0 0 0 0 0 0 0 0 0 0 0 0 0 0 0 0 0 0 127 0" result="hardAlpha"/>
<feOffset dx="2" dy="4"/>
<feGaussianBlur stdDeviation="2"/>
<feComposite in2="hardAlpha" operator="arithmetic" k2="-1" k3="1"/>
<feColorMatrix type="matrix" values="0 0 0 0 1 0 0 0 0 1 0 0 0 0 1 0 0 0 0.25 0"/>
<feBlend mode="normal" in2="shape" result="effect1_innerShadow"/>
<feColorMatrix in="SourceAlpha" type="matrix" values="0 0 0 0 0 0 0 0 0 0 0 0 0 0 0 0 0 0 127 0" result="hardAlpha"/>
<feOffset dx="-3" dy="-3"/>
<feGaussianBlur stdDeviation="2"/>
<feComposite in2="hardAlpha" operator="arithmetic" k2="-1" k3="1"/>
<feColorMatrix type="matrix" values="0 0 0 0 1 0 0 0 0 1 0 0 0 0 1 0 0 0 0.25 0"/>
<feBlend mode="normal" in2="effect1_innerShadow" result="effect2_innerShadow"/>
</filter>
<linearGradient id="paint0_linear" x1="5" y1="15" x2="162.012" y2="124.872" gradientUnits="userSpaceOnUse">
<stop stop-color="#3657C8"/>
<stop offset="0.312089" stop-color="#9D75DE"/>
<stop offset="0.603773" stop-color="#D24B6C"/>
<stop offset="0.88504" stop-color="#ED954E"/>
</linearGradient>
<linearGradient id="paint1_linear" x1="30.8125" y1="38.2697" x2="137.091" y2="90.1119" gradientUnits="userSpaceOnUse">
<stop stop-color="#3657C8"/>
<stop offset="0.312089" stop-color="#9D75DE"/>
<stop offset="0.603773" stop-color="#D24B6C"/>
<stop offset="0.88504" stop-color="#ED954E"/>
</linearGradient>
</defs>
</svg>
