<svg width="21" height="21" fill="none" xmlns="http://www.w3.org/2000/svg"><path d="M10.9 17.301l-.232-.443.233.443zm-.8 0l-.233.443.232-.443zm6.025-7.676c0 1.987-1 3.609-2.209 4.845-1.21 1.235-2.59 2.043-3.248 2.388l.465.886c.704-.37 2.186-1.234 3.498-2.575 1.312-1.34 2.494-3.2 2.494-5.544h-1zM10.5 4a5.625 5.625 0 015.625 5.625h1A6.625 6.625 0 0010.5 3v1zM4.875 9.625A5.625 5.625 0 0110.5 4V3a6.625 6.625 0 00-6.625 6.625h1zm5.457 7.233c-.659-.345-2.039-1.153-3.248-2.389-1.21-1.235-2.209-2.857-2.209-4.844h-1c0 2.345 1.182 4.204 2.494 5.544 1.312 1.34 2.794 2.205 3.498 2.575l.465-.886zm.336 0a.359.359 0 01-.336 0l-.465.886c.397.209.869.209 1.266 0l-.465-.886zm1.957-7.233A2.125 2.125 0 0110.5 11.75v1c1.726 0 3.125-1.4 3.125-3.125h-1zM10.5 7.5c1.174 0 2.125.951 2.125 2.125h1c0-1.726-1.4-3.125-3.125-3.125v1zM8.375 9.625c0-1.174.951-2.125 2.125-2.125v-1a3.125 3.125 0 00-3.125 3.125h1zM10.5 11.75a2.125 2.125 0 01-2.125-2.125h-1c0 1.726 1.4 3.125 3.125 3.125v-1z" fill="#0B1331"/></svg>