<svg width="18" height="19" fill="none" xmlns="http://www.w3.org/2000/svg"><path fill-rule="evenodd" clip-rule="evenodd" d="M3.631 13.373c1.563-.9 3.45-1.373 5.37-1.373 1.919 0 3.805.474 5.368 1.373 1.562.9 2.75 2.197 3.3 3.738a1 1 0 01-1.883.672c-.361-1.01-1.182-1.967-2.415-2.676C12.14 14.397 10.603 14 9.001 14c-1.604 0-3.14.398-4.372 1.107-1.232.709-2.053 1.665-2.415 2.677a1 1 0 11-1.883-.673c.55-1.54 1.738-2.839 3.3-3.738zM9 2a3 3 0 100 6 3 3 0 000-6zM4 5a5 5 0 1110 0A5 5 0 014 5z" fill="#0B1331"/></svg>