<svg width="126" height="75" viewBox="0 0 126 75" fill="none" xmlns="http://www.w3.org/2000/svg">
<g clip-path="url(#clip0)">
<path d="M62.6747 65.2966C70.2581 58.4348 74.998 48.5178 74.998 37.496C74.998 26.4752 70.2581 16.5662 62.6747 9.70335C56.0394 3.67094 47.1734 0 37.5269 0C16.7838 0 0 16.7868 0 37.496C0 58.2132 16.7838 75 37.5269 75C47.1724 75.001 56.0384 71.3221 62.6747 65.2966Z" fill="#0066CB"/>
<path d="M62.6738 65.2964C70.2573 58.4346 74.9972 48.5176 74.9972 37.4958C74.9972 26.4749 70.2573 16.5659 62.6738 9.70312" fill="#0066CB"/>
<path d="M62.6738 65.2964C70.2573 58.4346 74.9972 48.5176 74.9972 37.4958C74.9972 26.4749 70.2573 16.5659 62.6738 9.70312" stroke="#0066CB" stroke-width="0.3097"/>
<path d="M87.878 0C78.1756 0 69.3097 3.67094 62.6744 9.70335C61.336 10.937 60.0535 12.2625 58.8827 13.6788H66.4662C67.5261 14.9353 68.4743 16.2607 69.3107 17.6471H56.0392C55.2587 18.9186 54.5341 20.2441 53.8643 21.6155H71.4845C72.0973 22.903 72.5994 24.2275 73.0455 25.5909H52.3023C51.8562 26.8784 51.466 28.2038 51.1875 29.5592H74.1614C74.7193 32.1183 74.9978 34.7762 74.9978 37.496C74.9978 41.661 74.3281 45.6683 73.0455 49.4081H52.3033C52.7495 50.7705 53.2515 52.096 53.8643 53.3825H71.4845C70.8148 54.7549 70.1461 56.0793 69.3097 57.3519H56.0382C56.8746 58.7382 57.8786 60.0636 58.8827 61.3212H66.4662C65.2954 62.7365 64.0129 64.062 62.6744 65.2957C69.3097 71.3211 78.1756 75 87.878 75C108.565 75 125.349 58.2132 125.349 37.496C125.349 16.7868 108.564 0 87.878 0Z" fill="#CC0001"/>
<path d="M121.389 58.3262H121.557C121.614 58.3262 121.668 58.3342 121.668 58.3102C121.724 58.2803 121.779 58.2344 121.779 58.1895C121.779 58.1426 121.723 58.0977 121.668 58.0747C121.668 58.0518 121.557 58.0588 121.557 58.0588H121.389V58.3262ZM121.389 58.9351H121.166V57.8691H121.613C121.723 57.8691 121.779 57.8691 121.891 57.923C121.947 57.9839 122.002 58.0827 122.002 58.1905C122.002 58.3112 121.946 58.419 121.834 58.463L122.002 58.936H121.723L121.613 58.5099H121.388V58.9351H121.389ZM121.557 59.3243C122.059 59.3243 122.505 58.9131 122.505 58.4021C122.505 57.8911 122.059 57.4799 121.557 57.4799C121.056 57.4799 120.664 57.8911 120.664 58.4021C120.664 58.9131 121.056 59.3243 121.557 59.3243ZM120.33 58.4021C120.33 57.7314 120.888 57.1914 121.557 57.1914C122.226 57.1914 122.783 57.7314 122.783 58.4021C122.783 59.0728 122.225 59.6127 121.557 59.6127C120.888 59.6127 120.33 59.0728 120.33 58.4021Z" fill="#231F20"/>
<path d="M31.6717 47.9324H26.9318L29.7195 33.3154L23.3068 47.9324H19.4033L18.6228 33.3992L15.5008 47.9324H11.207L14.8311 28.9219H22.2478L22.3586 40.6893L27.4888 28.9219H35.3507L31.6717 47.9324Z" fill="#231F20"/>
<path d="M83.8077 47.7388C82.5252 48.0902 81.5211 48.2419 80.4622 48.2419C78.0648 48.2419 76.7813 47.0462 76.7813 44.8454C76.7813 44.4112 76.7812 43.9471 76.892 43.458L77.1705 41.9429L77.3941 40.7243L79.5689 28.918H84.197L83.5283 32.4671H85.9257L85.257 36.2219H82.8595L81.6329 42.6735C81.577 42.962 81.577 43.1686 81.577 43.3133C81.577 44.1128 82.0231 44.4631 83.138 44.4631C83.6959 44.4631 84.0852 44.4182 84.4206 44.3184L83.8077 47.7388Z" fill="#231F20"/>
<path d="M65.2963 37.3539C65.2963 39.3111 66.3562 40.6526 68.8644 41.6646C70.7608 42.4421 71.0941 42.6706 71.0941 43.3713C71.0941 44.3394 70.2577 44.7716 68.3634 44.7716C66.969 44.7716 65.6306 44.583 64.1255 44.1558L63.5117 47.7269L63.6794 47.7579L64.5716 47.9176C64.8501 47.9635 65.2414 48.0094 65.7983 48.0543C66.9131 48.1382 67.8054 48.1851 68.4183 48.1851C73.3817 48.1851 75.6684 46.5472 75.6684 43.021C75.6684 40.9031 74.7202 39.6545 72.3777 38.7163C70.3705 37.9318 70.148 37.7641 70.148 37.0415C70.148 36.2031 70.9284 35.7769 72.4345 35.7769C73.3817 35.7769 74.6643 35.8688 75.835 36.0135L76.5047 32.4333C75.2781 32.2656 73.4377 32.1289 72.3777 32.1289C67.0809 32.1289 65.2404 34.5053 65.2963 37.3539Z" fill="#231F20"/>
<path d="M43.6042 41.048C43.1032 40.9941 42.8796 40.9801 42.5443 40.9801C39.9243 40.9801 38.5859 41.7716 38.5859 43.3326C38.5859 44.2918 39.2546 44.9095 40.2586 44.9095C42.154 44.9105 43.5483 43.3336 43.6042 41.048ZM46.7821 47.9338H42.8786L42.9904 46.3269C41.7637 47.5984 40.2028 48.2002 38.0828 48.2002C35.5177 48.2002 33.7891 46.4785 33.7891 43.9803C33.7891 40.2106 36.8003 38.0168 41.9853 38.0168C42.5433 38.0168 43.212 38.0537 43.8817 38.1376C44.0484 37.6275 44.1042 37.4069 44.1042 37.1325C44.1042 36.1044 43.2679 35.7232 41.093 35.7232C39.7546 35.7232 38.2495 35.8909 37.1895 36.1574L36.5757 36.317L36.1296 36.4158L36.7983 32.9435C39.1398 32.3486 40.6449 32.1211 42.3736 32.1211C46.3879 32.1211 48.5078 33.6901 48.5078 36.6604C48.5078 37.4219 48.4519 38.0008 48.1175 39.7225L47.1694 45.206L47.0027 46.1881L46.8909 46.9726L46.7791 47.5135V47.9338" fill="#231F20"/>
<path d="M59.8304 38.396C59.8304 38.0766 59.8862 37.8101 59.8862 37.6115C59.8862 36.3549 59.0498 35.6153 57.6555 35.6153C56.1504 35.6153 55.0904 36.6054 54.7002 38.3869L59.8304 38.396ZM62.1159 47.5973C60.499 48.0245 58.9371 48.2291 57.3202 48.2211C52.0792 48.2211 49.4023 45.8446 49.4023 41.2983C49.4023 35.9895 52.8597 32.082 57.5437 32.082C61.3903 32.082 63.8446 34.2679 63.8446 37.7023C63.8446 38.8461 63.6769 39.949 63.2308 41.518H53.9746C53.9187 41.7535 53.9187 41.8613 53.9187 42.005C53.9187 43.7946 55.313 44.7088 58.0448 44.7088C59.7176 44.7088 61.2236 44.4124 62.8964 43.7337L62.1159 47.5973Z" fill="#231F20"/>
<path d="M107.17 39.0728C107.17 37.4579 106.502 35.9268 104.606 35.9268C102.209 35.9268 100.76 38.7455 100.76 41.2277C100.76 43.3227 101.763 44.732 103.437 44.7C104.44 44.7 106.615 43.3217 107.005 40.9143C107.115 40.3593 107.17 39.7436 107.17 39.0728ZM111.91 40.9223C111.241 46.0634 107.617 48.342 102.822 48.342C97.5799 48.342 95.4609 45.1432 95.4609 41.2207C95.4609 35.7362 99.0301 32.0273 104.606 32.0273C109.457 32.0273 112.023 35.0815 112.023 39.005C112.022 39.9561 112.022 40.024 111.91 40.9223Z" fill="#231F20"/>
<path d="M113.473 45.5567H113.64C113.64 45.5567 113.697 45.5567 113.752 45.5338C113.806 45.5108 113.807 45.4579 113.807 45.412C113.807 45.3741 113.807 45.3281 113.752 45.3062C113.752 45.2832 113.64 45.2832 113.585 45.2832H113.473V45.5567ZM113.473 46.1585H113.249V45.0926H113.696C113.751 45.0926 113.863 45.1006 113.974 45.1545C114.03 45.2074 114.085 45.3141 114.085 45.4209C114.085 45.5347 114.029 45.6495 113.918 45.6944L114.085 46.1595H113.806L113.639 45.7403H113.473V46.1585ZM113.64 46.5468C114.143 46.5468 114.533 46.1356 114.533 45.6246C114.533 45.1215 114.143 44.7103 113.64 44.7103C113.139 44.7103 112.693 45.1215 112.693 45.6246C112.693 46.1356 113.139 46.5468 113.64 46.5468ZM112.414 45.6246C112.414 44.9619 112.972 44.4219 113.641 44.4219C114.31 44.4219 114.867 44.9619 114.867 45.6246C114.867 46.2953 114.309 46.8352 113.641 46.8352C112.971 46.8352 112.414 46.2953 112.414 45.6246Z" fill="white"/>
<path d="M32.8412 46.8347H28.1572L30.9448 32.2188L24.5321 46.8347H20.2943L19.5138 32.3106L16.7261 46.8347H12.4883L16.1123 27.8242H23.4163L23.7507 39.5996L28.9367 27.8242H36.5201L32.8412 46.8347Z" fill="white"/>
<path d="M84.9787 46.6531C83.6962 47.0034 82.6921 47.1551 81.6321 47.1551C79.2347 47.1551 77.9512 45.9524 77.9512 43.7596C77.9512 43.3245 78.0071 42.8614 78.063 42.3733L78.3414 40.8562L78.564 39.6296L80.7398 27.8242H85.368L84.6992 31.3734H87.0966L86.4269 35.1362H84.0295L82.8029 41.5868C82.747 41.8693 82.747 42.0819 82.747 42.2276C82.747 43.0281 83.249 43.3704 84.3638 43.3704C84.8659 43.3704 85.2571 43.3245 85.5905 43.2246L84.9787 46.6531Z" fill="white"/>
<path d="M96.9661 35.8118L96.8553 35.3248L97.8035 32.9024C97.5789 32.8795 97.4681 32.8725 97.4681 32.8575C97.1896 32.8036 97.0779 32.7736 97.022 32.7736C96.9112 32.7427 96.7435 32.7357 96.5768 32.7357C95.0158 32.7357 93.9559 33.4134 92.5057 35.2419L93.0087 32.4922H88.157L85.3125 47.9306H89.9416C90.5544 44.3884 90.8339 42.3712 91.2241 40.6945C91.8369 37.9148 93.901 36.6502 95.4061 36.9317C95.5728 36.9626 95.6846 36.9626 95.9071 37.0464L96.1856 37.1522L96.9661 35.8118Z" fill="#231F20"/>
<path d="M98.5832 31.5006C98.1929 31.3479 98.1371 31.3479 98.0822 31.3329C97.8576 31.279 97.6909 31.2491 97.6909 31.2411C97.5242 31.2181 97.3565 31.2031 97.1889 31.2031C95.6837 31.2031 94.5689 31.8889 93.1187 33.7173L93.5648 31.3708H89.3269L86.4824 46.8321H91.1664C92.8392 37.3803 93.5638 35.7205 95.7945 35.7205C95.9622 35.7205 96.1289 35.7354 96.3524 35.7584L96.9104 35.8722L98.5832 31.5006Z" fill="white"/>
<path d="M66.4652 36.2652C66.4652 38.2144 67.5801 39.5629 70.0903 40.5759C71.9856 41.3454 72.2651 41.574 72.2651 42.2827C72.2651 43.2418 71.4287 43.676 69.5882 43.676C68.138 43.676 66.8554 43.4853 65.3503 43.0661L64.6816 46.6313L64.9042 46.6682L65.7406 46.8199C66.019 46.8748 66.4662 46.9198 67.0232 46.9587C68.138 47.0425 68.9744 47.0874 69.5882 47.0874C74.6056 47.0874 76.8922 45.4575 76.8922 41.9313C76.8922 39.8064 75.945 38.5648 73.5466 37.6276C71.5954 36.8431 71.3708 36.6684 71.3708 35.9438C71.3708 35.1134 72.1523 34.6872 73.6574 34.6872C74.6046 34.6872 75.8322 34.771 77.0589 34.9158L77.7276 31.3366C76.5009 31.169 74.6615 31.0312 73.5466 31.0312C68.3057 31.0322 66.4652 33.4086 66.4652 36.2652Z" fill="white"/>
<path d="M44.6089 39.9502C44.1069 39.8973 43.8833 39.8892 43.549 39.8892C40.928 39.8892 39.5896 40.6807 39.5896 42.2417C39.5896 43.2019 40.2034 43.8187 41.2624 43.8187C43.1587 43.8197 44.4972 42.2348 44.6089 39.9502ZM48.0094 46.8349H44.1059L44.2177 45.236C43.0469 46.5065 41.4301 47.1014 39.3101 47.1014C36.8009 47.1014 35.0723 45.3797 35.0723 42.8815C35.0723 39.1177 38.0835 36.918 43.2685 36.918C43.7705 36.918 44.4393 36.9629 45.1639 37.0397C45.2757 36.5287 45.3306 36.3161 45.3306 36.0346C45.3306 35.0136 44.4942 34.6333 42.3193 34.6333C40.9809 34.6333 39.4748 34.793 38.4717 35.0595L37.803 35.2272L37.4128 35.327L38.0266 31.8457C40.3681 31.2518 41.8732 31.0312 43.6019 31.0312C47.6162 31.0312 49.7361 32.6003 49.7361 35.5636C49.7361 36.3251 49.6802 36.904 49.4017 38.6247L48.3977 44.1171L48.231 45.0993L48.1192 45.8837L48.0633 46.4157L48.0094 46.8349Z" fill="white"/>
<path d="M60.8345 37.3061C60.8345 36.9787 60.8345 36.7192 60.8345 36.5136C60.8345 35.257 60.054 34.5254 58.6597 34.5254C57.1546 34.5254 56.0946 35.5075 55.6485 37.2981L60.8345 37.3061ZM63.2888 46.5063C61.7268 46.9255 60.1658 47.1312 58.5479 47.1312C53.307 47.1312 50.5742 44.7547 50.5742 40.2005C50.5742 34.8996 54.0306 30.9922 58.7146 30.9922C62.5622 30.9922 65.0155 33.178 65.0155 36.6054C65.0155 37.7482 64.8478 38.8601 64.4566 40.4281H55.2013C55.1454 40.6646 55.1455 40.7714 55.1455 40.9151C55.1455 42.7057 56.5388 43.6199 59.2156 43.6199C60.8884 43.6199 62.3945 43.3145 64.0663 42.6368L63.2888 46.5063Z" fill="white"/>
<path d="M108.286 37.8454C108.286 36.2305 107.618 34.7005 105.722 34.7005C103.325 34.7005 101.876 37.518 101.876 40.0013C101.876 42.1032 102.88 43.5135 104.553 43.4816C105.557 43.4816 107.73 42.1033 108.121 39.6959C108.231 39.132 108.286 38.5161 108.286 37.8454ZM113.138 39.8266C112.413 44.9667 108.843 47.2514 104.05 47.2514C98.7517 47.2514 96.6328 44.0445 96.6328 40.1221C96.6328 34.6456 100.257 30.9297 105.834 30.9297C110.684 30.9297 113.25 33.9838 113.25 37.9063C113.25 38.8654 113.25 38.9273 113.138 39.8266Z" fill="white"/>
</g>
<defs>
<clipPath id="clip0">
<rect width="125.349" height="75" fill="white"/>
</clipPath>
</defs>
</svg>
