<svg width="26" height="26" viewBox="0 0 26 26" fill="none" xmlns="http://www.w3.org/2000/svg">
<path d="M25.6316 3.12174C25.229 2.52303 24.5548 2.16396 23.8333 2.16406H2.16668C0.970072 2.16406 0 3.13408 0 4.33074V21.664C0 22.8606 0.970072 23.8307 2.16668 23.8307H23.8333H24.0066H24.0586C25.1665 23.7149 26.006 22.7779 26 21.664V4.33074C26.0001 3.90007 25.8718 3.47914 25.6316 3.12174ZM2.16668 3.03074H23.8333C24.1411 3.03054 24.439 3.13957 24.674 3.33843L22.9927 4.94174L15.9033 11.6974L13.2773 14.202C13.1241 14.3154 12.9148 14.3154 12.7616 14.202L10.0966 11.6974L1.3 3.34274C1.54111 3.13642 1.8494 3.02546 2.16668 3.03074ZM0.866682 4.12274L9.16935 12.0007L0.866682 19.9307V4.33074C0.861096 4.26153 0.861096 4.19196 0.866682 4.12274ZM25.1333 21.664C25.1386 22.3223 24.6509 22.8806 23.998 22.964H2.16668C1.44874 22.964 0.866682 22.382 0.866682 21.664V21.1137L9.79766 12.5987L12.1853 14.8694C12.2437 14.9166 12.3061 14.9586 12.3717 14.9951C12.5628 15.1052 12.7794 15.1635 13 15.1641C13.3152 15.1661 13.6214 15.0589 13.8667 14.8608L16.224 12.6161L25.1333 21.1051V21.664V21.664ZM25.1333 4.33074V19.909L16.8307 12.0137L25.1333 4.11406C25.1392 4.18617 25.1392 4.25863 25.1333 4.33074Z" fill="#3657C8"/>
</svg>
