<svg width="440" height="274" viewBox="0 0 440 274" fill="none" xmlns="http://www.w3.org/2000/svg">
<g filter="url(#filter0_d)">
<rect x="15.5" y="11.5" width="409" height="243" fill="white" stroke="#BFC6E0"/>
<path d="M50.7969 59.7227H53.5215V66.6172L53.4824 68.4629L53.3848 70.5625H53.4434L60.0352 59.7227H63.6582V74H60.9629V67.1445C60.9629 66.2266 61.0215 64.8659 61.1387 63.0625H61.0605L54.4395 74H50.7969V59.7227ZM76.0605 63.082V65.3184H72.4863V74H69.5078V65.3184H65.9238V63.082H76.0605ZM80.4746 68.5215C80.4746 69.6022 80.6504 70.4193 81.002 70.9727C81.36 71.526 81.9395 71.8027 82.7402 71.8027C83.5345 71.8027 84.1042 71.5293 84.4492 70.9824C84.8008 70.429 84.9766 69.6087 84.9766 68.5215C84.9766 67.4408 84.8008 66.6302 84.4492 66.0898C84.0977 65.5495 83.5215 65.2793 82.7207 65.2793C81.9264 65.2793 81.3535 65.5495 81.002 66.0898C80.6504 66.6237 80.4746 67.4342 80.4746 68.5215ZM88.0234 68.5215C88.0234 70.2988 87.5547 71.6888 86.6172 72.6914C85.6797 73.694 84.3743 74.1953 82.7012 74.1953C81.653 74.1953 80.7285 73.9674 79.9277 73.5117C79.127 73.0495 78.5117 72.3887 78.082 71.5293C77.6523 70.6699 77.4375 69.6673 77.4375 68.5215C77.4375 66.7376 77.903 65.3509 78.834 64.3613C79.765 63.3717 81.0736 62.877 82.7598 62.877C83.8079 62.877 84.7324 63.1048 85.5332 63.5605C86.334 64.0163 86.9492 64.6706 87.3789 65.5234C87.8086 66.3763 88.0234 67.3757 88.0234 68.5215ZM98.0234 63.082V65.3184H93.4629V74H90.4844V63.082H98.0234ZM102.428 68.5215C102.428 69.6022 102.604 70.4193 102.955 70.9727C103.313 71.526 103.893 71.8027 104.693 71.8027C105.488 71.8027 106.057 71.5293 106.402 70.9824C106.754 70.429 106.93 69.6087 106.93 68.5215C106.93 67.4408 106.754 66.6302 106.402 66.0898C106.051 65.5495 105.475 65.2793 104.674 65.2793C103.88 65.2793 103.307 65.5495 102.955 66.0898C102.604 66.6237 102.428 67.4342 102.428 68.5215ZM109.977 68.5215C109.977 70.2988 109.508 71.6888 108.57 72.6914C107.633 73.694 106.327 74.1953 104.654 74.1953C103.606 74.1953 102.682 73.9674 101.881 73.5117C101.08 73.0495 100.465 72.3887 100.035 71.5293C99.6055 70.6699 99.3906 69.6673 99.3906 68.5215C99.3906 66.7376 99.8561 65.3509 100.787 64.3613C101.718 63.3717 103.027 62.877 104.713 62.877C105.761 62.877 106.686 63.1048 107.486 63.5605C108.287 64.0163 108.902 64.6706 109.332 65.5234C109.762 66.3763 109.977 67.3757 109.977 68.5215Z" fill="#0B1331"/>
<path d="M54.0859 113H52.7578V102.758H49.1406V101.578H57.7031V102.758H54.0859V113ZM67.425 108.711C67.425 110.107 67.0734 111.198 66.3703 111.984C65.6672 112.766 64.6958 113.156 63.4563 113.156C62.6906 113.156 62.0109 112.977 61.4172 112.617C60.8234 112.258 60.3651 111.742 60.0422 111.07C59.7193 110.398 59.5578 109.612 59.5578 108.711C59.5578 107.315 59.9068 106.229 60.6047 105.453C61.3026 104.672 62.2714 104.281 63.5109 104.281C64.7089 104.281 65.6594 104.68 66.3625 105.477C67.0708 106.273 67.425 107.352 67.425 108.711ZM60.9016 108.711C60.9016 109.805 61.1203 110.638 61.5578 111.211C61.9953 111.784 62.6385 112.07 63.4875 112.07C64.3365 112.07 64.9797 111.786 65.4172 111.219C65.8599 110.646 66.0813 109.81 66.0813 108.711C66.0813 107.622 65.8599 106.797 65.4172 106.234C64.9797 105.667 64.3313 105.383 63.4719 105.383C62.6229 105.383 61.9823 105.661 61.55 106.219C61.1177 106.776 60.9016 107.607 60.9016 108.711ZM77.4516 106.586C77.4516 107.143 77.2901 107.568 76.9672 107.859C76.6495 108.146 76.2016 108.339 75.6234 108.438V108.508C76.3526 108.607 76.8839 108.82 77.2172 109.148C77.5557 109.477 77.725 109.93 77.725 110.508C77.725 111.305 77.4307 111.919 76.8422 112.352C76.2589 112.784 75.4047 113 74.2797 113H70.5063V104.438H74.2641C76.3891 104.438 77.4516 105.154 77.4516 106.586ZM76.4281 110.422C76.4281 109.958 76.251 109.622 75.8969 109.414C75.5479 109.201 74.9672 109.094 74.1547 109.094H71.8031V111.914H74.1859C75.6807 111.914 76.4281 111.417 76.4281 110.422ZM76.1859 106.711C76.1859 106.294 76.0245 106 75.7016 105.828C75.3839 105.651 74.8995 105.562 74.2484 105.562H71.8031V107.977H73.9984C74.8005 107.977 75.3656 107.878 75.6938 107.68C76.0219 107.482 76.1859 107.159 76.1859 106.711ZM85.6812 113L85.4234 111.781H85.3609C84.9339 112.318 84.5068 112.682 84.0797 112.875C83.6578 113.062 83.1292 113.156 82.4937 113.156C81.6448 113.156 80.9781 112.938 80.4937 112.5C80.0146 112.062 79.775 111.44 79.775 110.633C79.775 108.904 81.1578 107.997 83.9234 107.914L85.3766 107.867V107.336C85.3766 106.664 85.2307 106.169 84.9391 105.852C84.6526 105.529 84.1917 105.367 83.5562 105.367C82.8427 105.367 82.0354 105.586 81.1344 106.023L80.7359 105.031C81.1578 104.802 81.6187 104.622 82.1187 104.492C82.624 104.362 83.1292 104.297 83.6344 104.297C84.6552 104.297 85.4104 104.523 85.9 104.977C86.3948 105.43 86.6422 106.156 86.6422 107.156V113H85.6812ZM82.7516 112.086C83.5589 112.086 84.1917 111.865 84.65 111.422C85.1135 110.979 85.3453 110.359 85.3453 109.562V108.789L84.0484 108.844C83.0172 108.88 82.2724 109.042 81.8141 109.328C81.3609 109.609 81.1344 110.049 81.1344 110.648C81.1344 111.117 81.275 111.474 81.5562 111.719C81.8427 111.964 82.2411 112.086 82.7516 112.086ZM94.1063 113.156C93.549 113.156 93.0385 113.055 92.575 112.852C92.1167 112.643 91.7313 112.326 91.4188 111.898H91.325C91.3875 112.398 91.4188 112.872 91.4188 113.32V116.844H90.1219V104.438H91.1766L91.3563 105.609H91.4188C91.7521 105.141 92.1401 104.802 92.5828 104.594C93.0255 104.385 93.5333 104.281 94.1063 104.281C95.2417 104.281 96.1167 104.669 96.7313 105.445C97.351 106.221 97.6609 107.31 97.6609 108.711C97.6609 110.117 97.3458 111.211 96.7156 111.992C96.0906 112.768 95.2208 113.156 94.1063 113.156ZM93.9188 105.383C93.0438 105.383 92.4109 105.625 92.0203 106.109C91.6297 106.594 91.4292 107.365 91.4188 108.422V108.711C91.4188 109.914 91.6193 110.776 92.0203 111.297C92.4214 111.812 93.0646 112.07 93.95 112.07C94.6896 112.07 95.2677 111.771 95.6844 111.172C96.1063 110.573 96.3172 109.747 96.3172 108.695C96.3172 107.628 96.1063 106.81 95.6844 106.242C95.2677 105.669 94.6792 105.383 93.9188 105.383ZM102.031 107.977H104.367C105.456 107.977 106.26 108.18 106.781 108.586C107.307 108.987 107.57 109.589 107.57 110.391C107.57 111.25 107.292 111.901 106.734 112.344C106.182 112.781 105.367 113 104.289 113H100.734V104.438H102.031V107.977ZM110.305 113H109.008V104.438H110.305V113ZM102.031 109.094V111.914H104.227C105.602 111.914 106.289 111.432 106.289 110.469C106.289 109.99 106.13 109.641 105.812 109.422C105.495 109.203 104.953 109.094 104.188 109.094H102.031ZM118.084 108.617C118.084 107.237 118.285 105.945 118.686 104.742C119.092 103.539 119.676 102.484 120.436 101.578H121.702C120.952 102.583 120.386 103.688 120.006 104.891C119.631 106.094 119.444 107.331 119.444 108.602C119.444 109.852 119.636 111.073 120.022 112.266C120.407 113.458 120.962 114.547 121.686 115.531H120.436C119.67 114.646 119.087 113.612 118.686 112.43C118.285 111.247 118.084 109.977 118.084 108.617ZM122.994 104.438H124.384L126.259 109.32C126.671 110.435 126.926 111.24 127.025 111.734H127.088C127.155 111.469 127.296 111.016 127.509 110.375C127.728 109.729 128.436 107.75 129.634 104.438H131.025L127.345 114.188C126.981 115.151 126.554 115.833 126.064 116.234C125.58 116.641 124.983 116.844 124.275 116.844C123.879 116.844 123.489 116.799 123.103 116.711V115.672C123.39 115.734 123.71 115.766 124.064 115.766C124.955 115.766 125.59 115.266 125.97 114.266L126.447 113.047L122.994 104.438ZM136.637 113.156C135.398 113.156 134.437 112.776 133.755 112.016C133.078 111.25 132.739 110.169 132.739 108.773C132.739 107.341 133.083 106.234 133.77 105.453C134.463 104.672 135.447 104.281 136.723 104.281C137.135 104.281 137.546 104.326 137.958 104.414C138.369 104.503 138.692 104.607 138.927 104.727L138.528 105.828C138.242 105.714 137.929 105.62 137.591 105.547C137.252 105.469 136.953 105.43 136.692 105.43C134.953 105.43 134.083 106.539 134.083 108.758C134.083 109.81 134.294 110.617 134.716 111.18C135.143 111.742 135.773 112.023 136.606 112.023C137.32 112.023 138.052 111.87 138.802 111.562V112.711C138.229 113.008 137.507 113.156 136.637 113.156ZM148.023 113H146.711V105.547H144.141C144 107.401 143.805 108.872 143.555 109.961C143.305 111.049 142.979 111.846 142.578 112.352C142.182 112.857 141.677 113.109 141.062 113.109C140.781 113.109 140.557 113.078 140.391 113.016V112.055C140.505 112.086 140.635 112.102 140.781 112.102C141.38 112.102 141.857 111.469 142.211 110.203C142.565 108.938 142.833 107.016 143.016 104.438H148.023V113ZM150.222 104.438H151.613L153.488 109.32C153.899 110.435 154.154 111.24 154.253 111.734H154.316C154.383 111.469 154.524 111.016 154.738 110.375C154.956 109.729 155.665 107.75 156.863 104.438H158.253L154.573 114.188C154.209 115.151 153.782 115.833 153.292 116.234C152.808 116.641 152.211 116.844 151.503 116.844C151.107 116.844 150.717 116.799 150.331 116.711V115.672C150.618 115.734 150.938 115.766 151.292 115.766C152.183 115.766 152.818 115.266 153.198 114.266L153.675 113.047L150.222 104.438ZM165.6 105.547H161.741V113H160.444V104.438H165.6V105.547ZM169.322 104.438V109.867L169.267 111.289L169.244 111.734L173.877 104.438H175.494V113H174.283V107.766L174.306 106.734L174.345 105.719L169.72 113H168.103V104.438H169.322ZM181.762 108.617C181.762 109.987 181.559 111.263 181.153 112.445C180.752 113.628 180.171 114.656 179.411 115.531H178.161C178.885 114.552 179.44 113.466 179.825 112.273C180.21 111.076 180.403 109.852 180.403 108.602C180.403 107.331 180.213 106.094 179.833 104.891C179.458 103.688 178.895 102.583 178.145 101.578H179.411C180.177 102.49 180.76 103.549 181.161 104.758C181.562 105.961 181.762 107.247 181.762 108.617ZM185.938 111.141L186.055 111.32C185.919 111.841 185.724 112.445 185.469 113.133C185.214 113.826 184.948 114.469 184.672 115.062H183.695C183.836 114.521 183.99 113.852 184.156 113.055C184.328 112.258 184.448 111.62 184.516 111.141H185.938ZM200.639 111.883H204.436V104.438H205.748V113H194.256V104.438H195.553V111.883H199.342V104.438H200.639V111.883ZM215.08 105.547H212.298V113H211.002V105.547H208.252V104.438H215.08V105.547ZM217.387 112.172C217.387 111.823 217.466 111.56 217.622 111.383C217.783 111.201 218.012 111.109 218.309 111.109C218.611 111.109 218.846 111.201 219.012 111.383C219.184 111.56 219.27 111.823 219.27 112.172C219.27 112.51 219.184 112.771 219.012 112.953C218.841 113.135 218.606 113.227 218.309 113.227C218.044 113.227 217.822 113.146 217.645 112.984C217.473 112.818 217.387 112.547 217.387 112.172Z" fill="#0B1331"/>
<path d="M291.352 109.023C292.555 109.023 293.5 109.323 294.188 109.922C294.88 110.516 295.227 111.331 295.227 112.367C295.227 113.549 294.849 114.477 294.094 115.148C293.344 115.82 292.307 116.156 290.984 116.156C289.698 116.156 288.716 115.951 288.039 115.539V114.289C288.404 114.523 288.857 114.708 289.398 114.844C289.94 114.974 290.474 115.039 291 115.039C291.917 115.039 292.628 114.823 293.133 114.391C293.643 113.958 293.898 113.333 293.898 112.516C293.898 110.922 292.922 110.125 290.969 110.125C290.474 110.125 289.812 110.201 288.984 110.352L288.312 109.922L288.742 104.578H294.422V105.773H289.852L289.562 109.203C290.161 109.083 290.758 109.023 291.352 109.023Z" fill="#0B1331"/>
<rect x="50" y="141" width="339" height="68" rx="4" fill="#3657C8"/>
<path d="M125.861 182H123.518V169.725H117.219V182H114.885V167.723H125.861V182ZM139.967 176.58C139.967 178.344 139.514 179.721 138.609 180.711C137.704 181.701 136.445 182.195 134.83 182.195C133.821 182.195 132.929 181.967 132.154 181.512C131.38 181.056 130.784 180.402 130.367 179.549C129.951 178.696 129.742 177.706 129.742 176.58C129.742 174.829 130.191 173.462 131.09 172.479C131.988 171.495 133.255 171.004 134.889 171.004C136.451 171.004 137.688 171.508 138.6 172.518C139.511 173.52 139.967 174.874 139.967 176.58ZM132.105 176.58C132.105 179.074 133.027 180.32 134.869 180.32C136.692 180.32 137.604 179.074 137.604 176.58C137.604 174.113 136.686 172.879 134.85 172.879C133.886 172.879 133.186 173.198 132.75 173.836C132.32 174.474 132.105 175.389 132.105 176.58ZM153.975 185.818H151.836V182H144.434V185.818H142.314V180.223H143.193C143.962 179.122 144.57 177.794 145.02 176.238C145.475 174.676 145.745 172.996 145.83 171.199H152.393V180.223H153.975V185.818ZM150.137 180.223V172.957H147.812C147.689 174.298 147.428 175.62 147.031 176.922C146.641 178.224 146.162 179.324 145.596 180.223H150.137ZM165.092 171.199V172.996H161.576V182H159.271V172.996H155.756V171.199H165.092ZM177.547 173.963C177.547 175.239 176.801 176.01 175.311 176.277V176.355C176.144 176.453 176.782 176.717 177.225 177.146C177.667 177.576 177.889 178.133 177.889 178.816C177.889 179.839 177.498 180.626 176.717 181.18C175.942 181.727 174.812 182 173.328 182H168.172V171.199H173.309C176.134 171.199 177.547 172.12 177.547 173.963ZM175.535 178.68C175.535 178.159 175.333 177.791 174.93 177.576C174.526 177.355 173.921 177.244 173.113 177.244H170.467V180.301H173.172C174.747 180.301 175.535 179.76 175.535 178.68ZM175.252 174.158C175.252 173.729 175.083 173.419 174.744 173.23C174.412 173.035 173.914 172.938 173.25 172.938H170.467V175.535H172.908C173.676 175.535 174.259 175.438 174.656 175.242C175.053 175.04 175.252 174.679 175.252 174.158ZM185.979 182.195C184.299 182.195 182.984 181.707 182.033 180.73C181.089 179.747 180.617 178.396 180.617 176.678C180.617 174.913 181.057 173.527 181.936 172.518C182.814 171.508 184.022 171.004 185.559 171.004C186.984 171.004 188.111 171.437 188.938 172.303C189.764 173.169 190.178 174.36 190.178 175.877V177.117H182.98C183.013 178.165 183.296 178.973 183.83 179.539C184.364 180.099 185.116 180.379 186.086 180.379C186.724 180.379 187.316 180.32 187.863 180.203C188.417 180.079 189.009 179.878 189.641 179.598V181.463C189.081 181.73 188.514 181.919 187.941 182.029C187.368 182.14 186.714 182.195 185.979 182.195ZM185.559 172.742C184.829 172.742 184.243 172.973 183.801 173.436C183.365 173.898 183.104 174.572 183.02 175.457H187.922C187.909 174.565 187.694 173.891 187.277 173.436C186.861 172.973 186.288 172.742 185.559 172.742ZM199.264 182.195C197.896 182.195 196.835 181.704 196.08 180.721H195.943C196.035 181.632 196.08 182.186 196.08 182.381V186.805H193.785V171.199H195.641C195.693 171.401 195.8 171.883 195.963 172.645H196.08C196.796 171.551 197.87 171.004 199.303 171.004C200.65 171.004 201.699 171.492 202.447 172.469C203.202 173.445 203.58 174.816 203.58 176.58C203.58 178.344 203.196 179.721 202.428 180.711C201.666 181.701 200.611 182.195 199.264 182.195ZM198.707 172.879C197.796 172.879 197.128 173.146 196.705 173.68C196.288 174.214 196.08 175.066 196.08 176.238V176.58C196.08 177.895 196.288 178.849 196.705 179.441C197.122 180.027 197.802 180.32 198.746 180.32C199.54 180.32 200.152 179.995 200.582 179.344C201.012 178.693 201.227 177.765 201.227 176.561C201.227 175.35 201.012 174.435 200.582 173.816C200.159 173.191 199.534 172.879 198.707 172.879ZM217.607 185.818H215.469V182H208.066V185.818H205.947V180.223H206.826C207.594 179.122 208.203 177.794 208.652 176.238C209.108 174.676 209.378 172.996 209.463 171.199H216.025V180.223H217.607V185.818ZM213.77 180.223V172.957H211.445C211.322 174.298 211.061 175.62 210.664 176.922C210.273 178.224 209.795 179.324 209.229 180.223H213.77ZM222.807 171.199V176.736C222.807 177.381 222.755 178.328 222.65 179.578L228.07 171.199H230.873V182H228.666V176.561C228.666 176.261 228.682 175.776 228.715 175.105C228.754 174.435 228.786 173.947 228.812 173.641L223.412 182H220.609V171.199H222.807ZM243.26 171.199V172.996H239.744V182H237.439V172.996H233.924V171.199H243.26ZM248.635 175.516H251.34C254.354 175.516 255.861 176.557 255.861 178.641C255.861 179.741 255.477 180.577 254.709 181.15C253.941 181.717 252.818 182 251.34 182H246.34V171.199H248.635V175.516ZM253.557 178.699C253.557 178.159 253.352 177.781 252.941 177.566C252.531 177.352 251.952 177.244 251.203 177.244H248.635V180.301H251.242C251.997 180.301 252.57 180.164 252.961 179.891C253.358 179.617 253.557 179.22 253.557 178.699ZM267.988 175.516C269.036 175.516 269.808 175.402 270.303 175.174C270.798 174.939 271.045 174.581 271.045 174.1C271.045 173.221 270.264 172.781 268.701 172.781C267.66 172.781 266.595 173.016 265.508 173.484L264.766 171.775C266.022 171.261 267.409 171.004 268.926 171.004C270.267 171.004 271.309 171.251 272.051 171.746C272.793 172.234 273.164 172.938 273.164 173.855C273.164 175.066 272.471 175.861 271.084 176.238V176.316C271.95 176.551 272.568 176.886 272.939 177.322C273.317 177.758 273.506 178.299 273.506 178.943C273.506 179.933 273.07 180.724 272.197 181.316C271.331 181.902 270.12 182.195 268.564 182.195C266.865 182.195 265.566 181.971 264.668 181.521V179.539C265.859 180.099 267.093 180.379 268.369 180.379C269.287 180.379 269.993 180.252 270.488 179.998C270.99 179.738 271.24 179.344 271.24 178.816C271.24 178.276 270.99 177.879 270.488 177.625C269.987 177.371 269.212 177.244 268.164 177.244H266.846V175.516H267.988ZM283.754 182L283.295 180.496H283.217C282.696 181.154 282.172 181.603 281.645 181.844C281.117 182.078 280.44 182.195 279.613 182.195C278.552 182.195 277.722 181.909 277.123 181.336C276.531 180.763 276.234 179.952 276.234 178.904C276.234 177.791 276.648 176.951 277.475 176.385C278.301 175.818 279.561 175.509 281.254 175.457L283.119 175.398V174.822C283.119 174.132 282.956 173.618 282.631 173.279C282.312 172.934 281.814 172.762 281.137 172.762C280.583 172.762 280.053 172.843 279.545 173.006C279.037 173.169 278.549 173.361 278.08 173.582L277.338 171.941C277.924 171.635 278.565 171.404 279.262 171.248C279.958 171.085 280.616 171.004 281.234 171.004C282.608 171.004 283.643 171.303 284.34 171.902C285.043 172.501 285.395 173.442 285.395 174.725V182H283.754ZM280.336 180.438C281.169 180.438 281.837 180.206 282.338 179.744C282.846 179.275 283.1 178.621 283.1 177.781V176.844L281.713 176.902C280.632 176.941 279.844 177.124 279.35 177.449C278.861 177.768 278.617 178.26 278.617 178.924C278.617 179.406 278.76 179.78 279.047 180.047C279.333 180.307 279.763 180.438 280.336 180.438ZM296.297 171.199H298.816L294.354 176.404L299.197 182H296.561L291.893 176.521V182H289.598V171.199H291.893V176.443L296.297 171.199ZM308.742 182L308.283 180.496H308.205C307.684 181.154 307.16 181.603 306.633 181.844C306.105 182.078 305.428 182.195 304.602 182.195C303.54 182.195 302.71 181.909 302.111 181.336C301.519 180.763 301.223 179.952 301.223 178.904C301.223 177.791 301.636 176.951 302.463 176.385C303.29 175.818 304.549 175.509 306.242 175.457L308.107 175.398V174.822C308.107 174.132 307.945 173.618 307.619 173.279C307.3 172.934 306.802 172.762 306.125 172.762C305.572 172.762 305.041 172.843 304.533 173.006C304.025 173.169 303.537 173.361 303.068 173.582L302.326 171.941C302.912 171.635 303.553 171.404 304.25 171.248C304.947 171.085 305.604 171.004 306.223 171.004C307.596 171.004 308.632 171.303 309.328 171.902C310.031 172.501 310.383 173.442 310.383 174.725V182H308.742ZM305.324 180.438C306.158 180.438 306.825 180.206 307.326 179.744C307.834 179.275 308.088 178.621 308.088 177.781V176.844L306.701 176.902C305.62 176.941 304.833 177.124 304.338 177.449C303.85 177.768 303.605 178.26 303.605 178.924C303.605 179.406 303.749 179.78 304.035 180.047C304.322 180.307 304.751 180.438 305.324 180.438ZM316.969 175.516C318.017 175.516 318.788 175.402 319.283 175.174C319.778 174.939 320.025 174.581 320.025 174.1C320.025 173.221 319.244 172.781 317.682 172.781C316.64 172.781 315.576 173.016 314.488 173.484L313.746 171.775C315.003 171.261 316.389 171.004 317.906 171.004C319.247 171.004 320.289 171.251 321.031 171.746C321.773 172.234 322.145 172.938 322.145 173.855C322.145 175.066 321.451 175.861 320.064 176.238V176.316C320.93 176.551 321.549 176.886 321.92 177.322C322.298 177.758 322.486 178.299 322.486 178.943C322.486 179.933 322.05 180.724 321.178 181.316C320.312 181.902 319.101 182.195 317.545 182.195C315.846 182.195 314.547 181.971 313.648 181.521V179.539C314.84 180.099 316.074 180.379 317.35 180.379C318.268 180.379 318.974 180.252 319.469 179.998C319.97 179.738 320.221 179.344 320.221 178.816C320.221 178.276 319.97 177.879 319.469 177.625C318.967 177.371 318.193 177.244 317.145 177.244H315.826V175.516H316.969Z" fill="white"/>
<path d="M292.262 71H289.244V62.7383L289.273 61.3809L289.322 59.8965C288.821 60.3978 288.473 60.7266 288.277 60.8828L286.637 62.2012L285.182 60.3848L289.781 56.7227H292.262V71ZM306.729 63.8613C306.729 66.3548 306.319 68.2005 305.498 69.3984C304.685 70.5964 303.428 71.1953 301.729 71.1953C300.082 71.1953 298.838 70.5768 297.998 69.3398C297.165 68.1029 296.748 66.2767 296.748 63.8613C296.748 61.3418 297.155 59.4863 297.969 58.2949C298.783 57.097 300.036 56.498 301.729 56.498C303.376 56.498 304.62 57.123 305.459 58.373C306.306 59.623 306.729 61.4525 306.729 63.8613ZM299.746 63.8613C299.746 65.6126 299.896 66.8691 300.196 67.6309C300.502 68.3861 301.013 68.7637 301.729 68.7637C302.432 68.7637 302.94 68.3796 303.252 67.6113C303.565 66.8431 303.721 65.5931 303.721 63.8613C303.721 62.11 303.562 60.8535 303.243 60.0918C302.93 59.3236 302.426 58.9395 301.729 58.9395C301.019 58.9395 300.511 59.3236 300.205 60.0918C299.899 60.8535 299.746 62.11 299.746 63.8613ZM318.755 63.8613C318.755 66.3548 318.345 68.2005 317.524 69.3984C316.71 70.5964 315.454 71.1953 313.755 71.1953C312.108 71.1953 310.864 70.5768 310.024 69.3398C309.191 68.1029 308.774 66.2767 308.774 63.8613C308.774 61.3418 309.181 59.4863 309.995 58.2949C310.809 57.097 312.062 56.498 313.755 56.498C315.402 56.498 316.645 57.123 317.485 58.373C318.332 59.623 318.755 61.4525 318.755 63.8613ZM311.772 63.8613C311.772 65.6126 311.922 66.8691 312.221 67.6309C312.527 68.3861 313.039 68.7637 313.755 68.7637C314.458 68.7637 314.966 68.3796 315.278 67.6113C315.591 66.8431 315.747 65.5931 315.747 63.8613C315.747 62.11 315.587 60.8535 315.268 60.0918C314.956 59.3236 314.451 58.9395 313.755 58.9395C313.045 58.9395 312.537 59.3236 312.231 60.0918C311.925 60.8535 311.772 62.11 311.772 63.8613ZM330.78 63.8613C330.78 66.3548 330.37 68.2005 329.55 69.3984C328.736 70.5964 327.48 71.1953 325.78 71.1953C324.133 71.1953 322.89 70.5768 322.05 69.3398C321.217 68.1029 320.8 66.2767 320.8 63.8613C320.8 61.3418 321.207 59.4863 322.021 58.2949C322.835 57.097 324.088 56.498 325.78 56.498C327.428 56.498 328.671 57.123 329.511 58.373C330.357 59.623 330.78 61.4525 330.78 63.8613ZM323.798 63.8613C323.798 65.6126 323.948 66.8691 324.247 67.6309C324.553 68.3861 325.064 68.7637 325.78 68.7637C326.484 68.7637 326.991 68.3796 327.304 67.6113C327.616 66.8431 327.773 65.5931 327.773 63.8613C327.773 62.11 327.613 60.8535 327.294 60.0918C326.982 59.3236 326.477 58.9395 325.78 58.9395C325.071 58.9395 324.563 59.3236 324.257 60.0918C323.951 60.8535 323.798 62.11 323.798 63.8613ZM339.698 71V68.86H338.098V66.92H339.698V65.36H338.098V62.88H339.698V56.72H344.258C346.098 56.72 347.438 57.0933 348.278 57.84C349.132 58.5867 349.558 59.6133 349.558 60.92C349.558 61.6933 349.385 62.42 349.038 63.1C348.692 63.78 348.112 64.3267 347.298 64.74C346.498 65.1533 345.405 65.36 344.018 65.36H342.718V66.92H345.798V68.86H342.718V71H339.698ZM343.718 62.88C344.572 62.88 345.245 62.7333 345.738 62.44C346.245 62.1467 346.498 61.6733 346.498 61.02C346.498 59.8067 345.698 59.2 344.098 59.2H342.718V62.88H343.718Z" fill="black"/>
<line x1="49" y1="80.5" x2="392" y2="80.5" stroke="#BFC6E0" stroke-dasharray="2 2"/>
</g>
<g clip-path="url(#clip0)">
<path d="M428.64 239.296L396.802 209.571C396.235 209.04 395.422 208.863 394.685 209.109C393.949 209.355 393.406 209.985 393.272 210.751L385.72 253.647C385.57 254.495 385.948 255.346 386.675 255.805C387.401 256.264 388.334 256.236 389.033 255.739L399.516 248.274L407.771 270.554C408.143 271.661 409.341 272.261 410.451 271.891L421.305 268.26C422.413 267.89 423.013 266.689 422.641 265.58L414.385 243.304L427.251 242.959C428.108 242.936 428.87 242.397 429.175 241.595C429.48 240.789 429.268 239.881 428.64 239.296ZM411.415 239.147C410.743 239.166 410.121 239.497 409.737 240.05C409.352 240.6 409.251 241.299 409.464 241.934L417.952 264.916L411.115 267.202L402.627 244.222C402.413 243.584 401.911 243.085 401.273 242.88C400.634 242.672 399.937 242.777 399.39 243.168L390.786 249.291L396.766 215.329L421.972 238.864L411.415 239.147Z" fill="#3657C8"/>
</g>
<defs>
<filter id="filter0_d" x="0" y="0" width="440" height="274" filterUnits="userSpaceOnUse" color-interpolation-filters="sRGB">
<feFlood flood-opacity="0" result="BackgroundImageFix"/>
<feColorMatrix in="SourceAlpha" type="matrix" values="0 0 0 0 0 0 0 0 0 0 0 0 0 0 0 0 0 0 127 0" result="hardAlpha"/>
<feOffset dy="4"/>
<feGaussianBlur stdDeviation="7.5"/>
<feColorMatrix type="matrix" values="0 0 0 0 0.423529 0 0 0 0 0.423529 0 0 0 0 0.423529 0 0 0 0.25 0"/>
<feBlend mode="normal" in2="BackgroundImageFix" result="effect1_dropShadow"/>
<feBlend mode="normal" in="SourceGraphic" in2="effect1_dropShadow" result="shape"/>
</filter>
<clipPath id="clip0">
<rect width="63.0002" height="63.0001" fill="white" transform="translate(376 209)"/>
</clipPath>
</defs>
</svg>
