<svg width="1110" height="207" viewBox="0 0 1110 207" fill="none" xmlns="http://www.w3.org/2000/svg">
<g filter="url(#filter0_d)">
<rect width="1080" height="166.5" transform="translate(15 11.5)" fill="white"/>
<g clip-path="url(#clip0)">
<rect width="1080" height="36.75" transform="translate(15 13.75)" fill="white"/>
<path fill-rule="evenodd" clip-rule="evenodd" d="M185.124 33.2774L182.784 31.0146L182.25 31.5312L185.124 34.3107L187.998 31.5312L187.464 31.0146L185.124 33.2774Z" fill="#0B1331"/>
<path d="M75.6757 37.2258L75.85 37.5578H75.85L75.6757 37.2258ZM75.0743 37.2258L74.9 37.5578H74.9L75.0743 37.2258ZM79.5938 31.4687C79.5938 32.9591 78.8444 34.1753 77.9372 35.1021C77.03 36.0289 75.9949 36.6345 75.5013 36.8938L75.85 37.5578C76.3776 37.2807 77.489 36.6322 78.4731 35.6268C79.4572 34.6214 80.3438 33.2273 80.3438 31.4687H79.5938ZM75.375 27.25C77.705 27.25 79.5938 29.1388 79.5938 31.4687H80.3438C80.3438 28.7246 78.1192 26.5 75.375 26.5V27.25ZM71.1563 31.4687C71.1563 29.1388 73.045 27.25 75.375 27.25V26.5C72.6308 26.5 70.4062 28.7246 70.4062 31.4687H71.1563ZM75.2487 36.8938C74.7551 36.6345 73.72 36.0289 72.8128 35.1021C71.9056 34.1753 71.1563 32.9591 71.1563 31.4687H70.4062C70.4062 33.2273 71.2928 34.6214 72.2769 35.6268C73.261 36.6322 74.3724 37.2807 74.9 37.5578L75.2487 36.8938ZM75.5013 36.8938C75.4213 36.9358 75.3287 36.9358 75.2487 36.8938L74.9 37.5578C75.1983 37.7144 75.5517 37.7144 75.85 37.5578L75.5013 36.8938ZM76.9689 31.4688C76.9689 32.349 76.2554 33.0625 75.3752 33.0625V33.8125C76.6696 33.8125 77.7189 32.7632 77.7189 31.4688H76.9689ZM75.3752 29.875C76.2554 29.875 76.9689 30.5886 76.9689 31.4688H77.7189C77.7189 30.1743 76.6696 29.125 75.3752 29.125V29.875ZM73.7814 31.4688C73.7814 30.5885 74.495 29.875 75.3752 29.875V29.125C74.0807 29.125 73.0314 30.1743 73.0314 31.4688H73.7814ZM75.3752 33.0625C74.495 33.0625 73.7814 32.349 73.7814 31.4688H73.0314C73.0314 32.7632 74.0807 33.8125 75.3752 33.8125V33.0625Z" fill="#0B1331"/>
<path d="M90.5833 30.176C89.7596 30.176 89.1085 30.4512 88.63 31.0015C88.1549 31.5483 87.9173 32.2986 87.9173 33.2522C87.9173 34.2332 88.1463 34.9919 88.6043 35.5286C89.0658 36.0618 89.722 36.3284 90.5731 36.3284C91.096 36.3284 91.6925 36.2344 92.3624 36.0464V36.8103C91.8429 37.0051 91.202 37.1025 90.4398 37.1025C89.3358 37.1025 88.483 36.7676 87.8814 36.0977C87.2833 35.4277 86.9842 34.4758 86.9842 33.2419C86.9842 32.4695 87.1278 31.7927 87.4149 31.2117C87.7054 30.6306 88.1224 30.1829 88.6658 29.8684C89.2127 29.554 89.8553 29.3967 90.5936 29.3967C91.3797 29.3967 92.0667 29.5403 92.6546 29.8274L92.2855 30.5759C91.7181 30.3093 91.1507 30.176 90.5833 30.176ZM97.6403 37L97.4711 36.2002H97.4301C97.1498 36.5522 96.8695 36.7915 96.5892 36.918C96.3124 37.041 95.9655 37.1025 95.5485 37.1025C94.9913 37.1025 94.5538 36.959 94.236 36.6719C93.9215 36.3848 93.7643 35.9763 93.7643 35.4465C93.7643 34.3118 94.6718 33.717 96.4867 33.6624L97.4403 33.6316V33.283C97.4403 32.842 97.3446 32.5173 97.1532 32.3088C96.9652 32.0969 96.6627 31.991 96.2457 31.991C95.7775 31.991 95.2477 32.1345 94.6564 32.4216L94.3949 31.7705C94.6718 31.6201 94.9743 31.5022 95.3024 31.4167C95.6339 31.3313 95.9655 31.2886 96.297 31.2886C96.9669 31.2886 97.4625 31.4373 97.7838 31.7346C98.1085 32.032 98.2709 32.5088 98.2709 33.165V37H97.6403ZM95.7177 36.4001C96.2475 36.4001 96.6627 36.2549 96.9635 35.9644C97.2677 35.6738 97.4198 35.2671 97.4198 34.7441V34.2366L96.5687 34.2725C95.892 34.2964 95.4032 34.4023 95.1024 34.5903C94.8051 34.7749 94.6564 35.0637 94.6564 35.4568C94.6564 35.7644 94.7487 35.9985 94.9332 36.1592C95.1212 36.3198 95.3827 36.4001 95.7177 36.4001ZM101.196 31.3809V33.7341H104.343V31.3809H105.195V37H104.343V34.4673H101.196V37H100.344V31.3809H101.196ZM110.59 31.3809H111.523L109.098 34.093L111.723 37H110.729L108.165 34.1545V37H107.314V31.3809H108.165V34.1135L110.59 31.3809ZM116.873 32.1089H115.048V37H114.197V32.1089H112.392V31.3809H116.873V32.1089ZM117.829 34.575V33.7957H120.346V34.575H117.829ZM127.721 37H126.85V30.2786H122.999V37H122.128V29.5044H127.721V37ZM132.348 37.1025C131.517 37.1025 130.861 36.8496 130.379 36.3437C129.901 35.8379 129.661 35.1355 129.661 34.2366C129.661 33.3308 129.884 32.6113 130.328 32.0781C130.776 31.5449 131.375 31.2783 132.127 31.2783C132.832 31.2783 133.389 31.5107 133.799 31.9756C134.209 32.437 134.414 33.0471 134.414 33.8059V34.3442H130.543C130.56 35.0039 130.726 35.5046 131.041 35.8464C131.358 36.1882 131.804 36.3591 132.379 36.3591C132.984 36.3591 133.582 36.2327 134.173 35.9797V36.7385C133.872 36.8684 133.587 36.9607 133.317 37.0154C133.05 37.0735 132.727 37.1025 132.348 37.1025ZM132.117 31.991C131.666 31.991 131.305 32.1379 131.035 32.4319C130.769 32.7258 130.612 33.1326 130.564 33.6521H133.501C133.501 33.1155 133.382 32.7053 133.143 32.4216C132.903 32.1345 132.562 31.991 132.117 31.991ZM139.974 32.1089H138.149V37H137.298V32.1089H135.493V31.3809H139.974V32.1089ZM143.775 37.1025C142.945 37.1025 142.288 36.8496 141.807 36.3437C141.328 35.8379 141.089 35.1355 141.089 34.2366C141.089 33.3308 141.311 32.6113 141.755 32.0781C142.203 31.5449 142.803 31.2783 143.555 31.2783C144.259 31.2783 144.816 31.5107 145.226 31.9756C145.636 32.437 145.841 33.0471 145.841 33.8059V34.3442H141.971C141.988 35.0039 142.153 35.5046 142.468 35.8464C142.786 36.1882 143.232 36.3591 143.806 36.3591C144.411 36.3591 145.009 36.2327 145.6 35.9797V36.7385C145.3 36.8684 145.014 36.9607 144.744 37.0154C144.478 37.0735 144.155 37.1025 143.775 37.1025ZM143.545 31.991C143.093 31.991 142.733 32.1379 142.463 32.4319C142.196 32.7258 142.039 33.1326 141.991 33.6521H144.929C144.929 33.1155 144.809 32.7053 144.57 32.4216C144.331 32.1345 143.989 31.991 143.545 31.991ZM150.227 37.1025C149.862 37.1025 149.527 37.0359 149.222 36.9026C148.922 36.7659 148.669 36.5574 148.464 36.2771H148.402C148.443 36.6052 148.464 36.9163 148.464 37.2102V39.5225H147.612V31.3809H148.305L148.423 32.1499H148.464C148.682 31.8423 148.937 31.6201 149.227 31.4834C149.518 31.3467 149.851 31.2783 150.227 31.2783C150.972 31.2783 151.547 31.533 151.95 32.0422C152.357 32.5515 152.56 33.2659 152.56 34.1853C152.56 35.1082 152.353 35.8259 151.94 36.3386C151.529 36.8479 150.959 37.1025 150.227 37.1025ZM150.104 32.0012C149.53 32.0012 149.115 32.1602 148.858 32.478C148.602 32.7959 148.47 33.3018 148.464 33.9956V34.1853C148.464 34.9749 148.595 35.5405 148.858 35.8823C149.122 36.2207 149.544 36.3899 150.125 36.3899C150.61 36.3899 150.989 36.1934 151.263 35.8003C151.54 35.4072 151.678 34.8655 151.678 34.175C151.678 33.4744 151.54 32.9377 151.263 32.5652C150.989 32.1892 150.603 32.0012 150.104 32.0012ZM154.075 33.6316C154.075 32.4011 154.256 31.4424 154.618 30.7554C154.98 30.0649 155.555 29.6343 156.341 29.4634C157.318 29.2549 158.18 29.0857 158.925 28.9558L159.084 29.7043C157.898 29.9026 157.05 30.0598 156.541 30.176C156.045 30.2888 155.673 30.5554 155.423 30.9758C155.177 31.3962 155.042 31.9687 155.018 32.6934H155.08C155.291 32.4062 155.565 32.1807 155.9 32.0166C156.235 31.8525 156.585 31.7705 156.951 31.7705C157.641 31.7705 158.18 31.9944 158.566 32.4421C158.952 32.8899 159.145 33.5103 159.145 34.3032C159.145 35.1816 158.921 35.8687 158.474 36.3643C158.026 36.8564 157.402 37.1025 156.602 37.1025C155.813 37.1025 155.194 36.8 154.746 36.1951C154.299 35.5901 154.075 34.7356 154.075 33.6316ZM156.679 36.3899C157.722 36.3899 158.243 35.7251 158.243 34.3955C158.243 33.1274 157.77 32.4934 156.823 32.4934C156.563 32.4934 156.312 32.5481 156.069 32.6575C155.83 32.7634 155.609 32.9053 155.408 33.083C155.209 33.2607 155.056 33.4436 154.946 33.6316C154.946 34.5305 155.088 35.2158 155.372 35.6875C155.656 36.1558 156.091 36.3899 156.679 36.3899ZM160.055 31.3809H160.968L162.198 34.5852C162.468 35.3167 162.636 35.8447 162.7 36.1694H162.742C162.786 35.9951 162.878 35.6978 163.018 35.2773C163.162 34.8535 163.627 33.5547 164.413 31.3809H165.325L162.911 37.7793C162.671 38.4116 162.391 38.8594 162.07 39.1226C161.752 39.3892 161.361 39.5225 160.896 39.5225C160.636 39.5225 160.38 39.4934 160.127 39.4353V38.7534C160.315 38.7944 160.525 38.8149 160.757 38.8149C161.342 38.8149 161.759 38.4868 162.008 37.8306L162.321 37.0308L160.055 31.3809ZM169.168 37.1025C168.802 37.1025 168.467 37.0359 168.163 36.9026C167.862 36.7659 167.609 36.5574 167.404 36.2771H167.343C167.384 36.6052 167.404 36.9163 167.404 37.2102V39.5225H166.553V31.3809H167.245L167.363 32.1499H167.404C167.623 31.8423 167.878 31.6201 168.168 31.4834C168.459 31.3467 168.792 31.2783 169.168 31.2783C169.913 31.2783 170.487 31.533 170.89 32.0422C171.297 32.5515 171.501 33.2659 171.501 34.1853C171.501 35.1082 171.294 35.8259 170.88 36.3386C170.47 36.8479 169.899 37.1025 169.168 37.1025ZM169.045 32.0012C168.471 32.0012 168.055 32.1602 167.799 32.478C167.543 32.7959 167.411 33.3018 167.404 33.9956V34.1853C167.404 34.9749 167.536 35.5405 167.799 35.8823C168.062 36.2207 168.484 36.3899 169.065 36.3899C169.551 36.3899 169.93 36.1934 170.203 35.8003C170.48 35.4072 170.619 34.8655 170.619 34.175C170.619 33.4744 170.48 32.9377 170.203 32.5652C169.93 32.1892 169.544 32.0012 169.045 32.0012ZM176.691 32.1089H174.159V37H173.308V31.3809H176.691V32.1089Z" fill="#0B1331"/>
<path d="M947.327 34.291H944.995V33.248H947.327V30.8574H948.382V33.248H950.72V34.291H948.382V36.6699H947.327V34.291ZM953.148 38L956.535 30.6582H952.082V29.4453H958.006V30.4062L954.637 38H953.148ZM968.663 33.0898C968.663 34.7773 968.323 36.0371 967.644 36.8691C966.964 37.7012 965.941 38.1172 964.573 38.1172C964.054 38.1172 963.681 38.0859 963.454 38.0234V36.8691C963.802 36.9668 964.151 37.0156 964.503 37.0156C965.433 37.0156 966.126 36.7656 966.583 36.2656C967.04 35.7656 967.29 34.9805 967.333 33.9102H967.263C967.032 34.2617 966.753 34.5156 966.425 34.6719C966.101 34.8281 965.72 34.9062 965.282 34.9062C964.525 34.9062 963.929 34.6699 963.495 34.1973C963.062 33.7246 962.845 33.0762 962.845 32.252C962.845 31.3574 963.095 30.6465 963.595 30.1191C964.099 29.5879 964.784 29.3223 965.651 29.3223C966.261 29.3223 966.792 29.4707 967.245 29.7676C967.698 30.0645 968.048 30.4961 968.294 31.0625C968.54 31.625 968.663 32.3008 968.663 33.0898ZM965.675 30.4648C965.198 30.4648 964.833 30.6211 964.579 30.9336C964.325 31.2422 964.198 31.6777 964.198 32.2402C964.198 32.7285 964.316 33.1133 964.55 33.3945C964.788 33.6719 965.148 33.8105 965.628 33.8105C966.093 33.8105 966.484 33.6719 966.8 33.3945C967.116 33.1172 967.275 32.793 967.275 32.4219C967.275 32.0742 967.206 31.75 967.069 31.4492C966.937 31.1445 966.749 30.9043 966.507 30.7285C966.265 30.5527 965.987 30.4648 965.675 30.4648ZM975.879 33.0898C975.879 34.7773 975.539 36.0371 974.859 36.8691C974.179 37.7012 973.156 38.1172 971.789 38.1172C971.269 38.1172 970.896 38.0859 970.67 38.0234V36.8691C971.017 36.9668 971.367 37.0156 971.719 37.0156C972.648 37.0156 973.342 36.7656 973.799 36.2656C974.256 35.7656 974.506 34.9805 974.549 33.9102H974.478C974.248 34.2617 973.969 34.5156 973.64 34.6719C973.316 34.8281 972.935 34.9062 972.498 34.9062C971.74 34.9062 971.144 34.6699 970.711 34.1973C970.277 33.7246 970.06 33.0762 970.06 32.252C970.06 31.3574 970.31 30.6465 970.81 30.1191C971.314 29.5879 972 29.3223 972.867 29.3223C973.476 29.3223 974.008 29.4707 974.461 29.7676C974.914 30.0645 975.263 30.4961 975.51 31.0625C975.756 31.625 975.879 32.3008 975.879 33.0898ZM972.89 30.4648C972.414 30.4648 972.049 30.6211 971.795 30.9336C971.541 31.2422 971.414 31.6777 971.414 32.2402C971.414 32.7285 971.531 33.1133 971.765 33.3945C972.004 33.6719 972.363 33.8105 972.844 33.8105C973.308 33.8105 973.699 33.6719 974.015 33.3945C974.332 33.1172 974.49 32.793 974.49 32.4219C974.49 32.0742 974.422 31.75 974.285 31.4492C974.152 31.1445 973.965 30.9043 973.722 30.7285C973.48 30.5527 973.203 30.4648 972.89 30.4648ZM983.094 33.0898C983.094 34.7773 982.754 36.0371 982.075 36.8691C981.395 37.7012 980.371 38.1172 979.004 38.1172C978.485 38.1172 978.112 38.0859 977.885 38.0234V36.8691C978.233 36.9668 978.582 37.0156 978.934 37.0156C979.864 37.0156 980.557 36.7656 981.014 36.2656C981.471 35.7656 981.721 34.9805 981.764 33.9102H981.694C981.463 34.2617 981.184 34.5156 980.856 34.6719C980.532 34.8281 980.151 34.9062 979.713 34.9062C978.955 34.9062 978.36 34.6699 977.926 34.1973C977.493 33.7246 977.276 33.0762 977.276 32.252C977.276 31.3574 977.526 30.6465 978.026 30.1191C978.53 29.5879 979.215 29.3223 980.082 29.3223C980.692 29.3223 981.223 29.4707 981.676 29.7676C982.129 30.0645 982.479 30.4961 982.725 31.0625C982.971 31.625 983.094 32.3008 983.094 33.0898ZM980.106 30.4648C979.629 30.4648 979.264 30.6211 979.01 30.9336C978.756 31.2422 978.629 31.6777 978.629 32.2402C978.629 32.7285 978.746 33.1133 978.981 33.3945C979.219 33.6719 979.579 33.8105 980.059 33.8105C980.524 33.8105 980.914 33.6719 981.231 33.3945C981.547 33.1172 981.705 32.793 981.705 32.4219C981.705 32.0742 981.637 31.75 981.5 31.4492C981.368 31.1445 981.18 30.9043 980.938 30.7285C980.696 30.5527 980.418 30.4648 980.106 30.4648ZM993.476 31.4023C993.476 31.9453 993.318 32.3984 993.002 32.7617C992.685 33.1211 992.24 33.3633 991.666 33.4883V33.5352C992.353 33.6211 992.869 33.8359 993.213 34.1797C993.556 34.5195 993.728 34.9727 993.728 35.5391C993.728 36.3633 993.437 37 992.855 37.4492C992.273 37.8945 991.445 38.1172 990.371 38.1172C989.422 38.1172 988.621 37.9629 987.968 37.6543V36.4297C988.332 36.6094 988.716 36.748 989.123 36.8457C989.529 36.9434 989.92 36.9922 990.295 36.9922C990.959 36.9922 991.455 36.8691 991.783 36.623C992.111 36.377 992.275 35.9961 992.275 35.4805C992.275 35.0234 992.093 34.6875 991.73 34.4727C991.367 34.2578 990.797 34.1504 990.019 34.1504H989.275V33.0312H990.031C991.398 33.0312 992.082 32.5586 992.082 31.6133C992.082 31.2461 991.963 30.9629 991.724 30.7637C991.486 30.5645 991.134 30.4648 990.67 30.4648C990.345 30.4648 990.033 30.5117 989.732 30.6055C989.431 30.6953 989.076 30.873 988.666 31.1387L987.992 30.1777C988.777 29.5996 989.689 29.3105 990.728 29.3105C991.591 29.3105 992.265 29.4961 992.75 29.8672C993.234 30.2383 993.476 30.75 993.476 31.4023ZM1000.69 31.4023C1000.69 31.9453 1000.53 32.3984 1000.22 32.7617C999.901 33.1211 999.455 33.3633 998.881 33.4883V33.5352C999.569 33.6211 1000.08 33.8359 1000.43 34.1797C1000.77 34.5195 1000.94 34.9727 1000.94 35.5391C1000.94 36.3633 1000.65 37 1000.07 37.4492C999.489 37.8945 998.66 38.1172 997.586 38.1172C996.637 38.1172 995.836 37.9629 995.184 37.6543V36.4297C995.547 36.6094 995.932 36.748 996.338 36.8457C996.744 36.9434 997.135 36.9922 997.51 36.9922C998.174 36.9922 998.67 36.8691 998.998 36.623C999.326 36.377 999.491 35.9961 999.491 35.4805C999.491 35.0234 999.309 34.6875 998.946 34.4727C998.582 34.2578 998.012 34.1504 997.235 34.1504H996.491V33.0312H997.246C998.614 33.0312 999.297 32.5586 999.297 31.6133C999.297 31.2461 999.178 30.9629 998.94 30.7637C998.701 30.5645 998.35 30.4648 997.885 30.4648C997.561 30.4648 997.248 30.5117 996.948 30.6055C996.647 30.6953 996.291 30.873 995.881 31.1387L995.207 30.1777C995.993 29.5996 996.905 29.3105 997.944 29.3105C998.807 29.3105 999.481 29.4961 999.965 29.8672C1000.45 30.2383 1000.69 30.75 1000.69 31.4023ZM1007.91 31.4023C1007.91 31.9453 1007.75 32.3984 1007.43 32.7617C1007.12 33.1211 1006.67 33.3633 1006.1 33.4883V33.5352C1006.78 33.6211 1007.3 33.8359 1007.64 34.1797C1007.99 34.5195 1008.16 34.9727 1008.16 35.5391C1008.16 36.3633 1007.87 37 1007.29 37.4492C1006.7 37.8945 1005.88 38.1172 1004.8 38.1172C1003.85 38.1172 1003.05 37.9629 1002.4 37.6543V36.4297C1002.76 36.6094 1003.15 36.748 1003.55 36.8457C1003.96 36.9434 1004.35 36.9922 1004.73 36.9922C1005.39 36.9922 1005.89 36.8691 1006.21 36.623C1006.54 36.377 1006.71 35.9961 1006.71 35.4805C1006.71 35.0234 1006.52 34.6875 1006.16 34.4727C1005.8 34.2578 1005.23 34.1504 1004.45 34.1504H1003.71V33.0312H1004.46C1005.83 33.0312 1006.51 32.5586 1006.51 31.6133C1006.51 31.2461 1006.39 30.9629 1006.16 30.7637C1005.92 30.5645 1005.57 30.4648 1005.1 30.4648C1004.78 30.4648 1004.46 30.5117 1004.16 30.6055C1003.86 30.6953 1003.51 30.873 1003.1 31.1387L1002.42 30.1777C1003.21 29.5996 1004.12 29.3105 1005.16 29.3105C1006.02 29.3105 1006.7 29.4961 1007.18 29.8672C1007.67 30.2383 1007.91 30.75 1007.91 31.4023ZM1016.02 32.6504C1016.89 32.6504 1017.57 32.8789 1018.07 33.3359C1018.58 33.793 1018.83 34.416 1018.83 35.2051C1018.83 36.1191 1018.54 36.834 1017.97 37.3496C1017.4 37.8613 1016.58 38.1172 1015.53 38.1172C1014.57 38.1172 1013.82 37.9629 1013.27 37.6543V36.4062C1013.59 36.5859 1013.95 36.7246 1014.36 36.8223C1014.77 36.9199 1015.15 36.9687 1015.51 36.9687C1016.13 36.9687 1016.6 36.8301 1016.92 36.5527C1017.25 36.2754 1017.41 35.8691 1017.41 35.334C1017.41 34.3105 1016.76 33.7988 1015.45 33.7988C1015.27 33.7988 1015.04 33.8184 1014.77 33.8574C1014.5 33.8926 1014.27 33.9336 1014.06 33.9805L1013.45 33.6172L1013.78 29.4336H1018.23V30.6582H1014.99L1014.8 32.7793C1014.93 32.7559 1015.1 32.7285 1015.3 32.6973C1015.49 32.666 1015.74 32.6504 1016.02 32.6504ZM1026.44 36.1309H1025.29V38H1023.95V36.1309H1020.03V35.0703L1023.95 29.4102H1025.29V34.9883H1026.44V36.1309ZM1023.95 34.9883V32.8379C1023.95 32.0723 1023.97 31.4453 1024 30.957H1023.96C1023.85 31.2148 1023.68 31.5273 1023.44 31.8945L1021.32 34.9883H1023.95ZM1036.83 33.7168C1036.83 35.2051 1036.59 36.3105 1036.11 37.0332C1035.63 37.7559 1034.9 38.1172 1033.92 38.1172C1032.97 38.1172 1032.24 37.7441 1031.75 36.998C1031.26 36.252 1031.01 35.1582 1031.01 33.7168C1031.01 32.2051 1031.25 31.0918 1031.73 30.377C1032.21 29.6582 1032.94 29.2988 1033.92 29.2988C1034.88 29.2988 1035.6 29.6738 1036.09 30.4238C1036.58 31.1738 1036.83 32.2715 1036.83 33.7168ZM1032.41 33.7168C1032.41 34.8848 1032.53 35.7187 1032.76 36.2187C1033.01 36.7187 1033.39 36.9687 1033.92 36.9687C1034.45 36.9687 1034.83 36.7148 1035.07 36.207C1035.32 35.6992 1035.44 34.8691 1035.44 33.7168C1035.44 32.5684 1035.32 31.7383 1035.07 31.2266C1034.83 30.7109 1034.45 30.4531 1033.92 30.4531C1033.39 30.4531 1033.01 30.7051 1032.76 31.209C1032.53 31.7129 1032.41 32.5488 1032.41 33.7168ZM1042.28 38H1040.91V32.4687C1040.91 31.8086 1040.92 31.2852 1040.95 30.8984C1040.86 30.9922 1040.75 31.0957 1040.62 31.209C1040.49 31.3223 1040.05 31.6816 1039.31 32.2871L1038.61 31.4141L1041.13 29.4336H1042.28V38Z" fill="#0B1331"/>
<line x1="67.5" y1="50.125" x2="1043.25" y2="50.125" stroke="#D6DAE9" stroke-width="0.75"/>
<path d="M936.758 33.5326C936.613 33.5326 936.462 33.4866 936.318 33.4538C936.026 33.3894 935.738 33.3038 935.458 33.1979C935.154 33.0871 934.819 33.0929 934.519 33.214C934.218 33.3352 933.973 33.5632 933.831 33.8541L933.686 34.1494C933.047 33.7939 932.46 33.3522 931.941 32.8369C931.426 32.3178 930.984 31.7305 930.628 31.0913L930.904 30.9076C931.195 30.7651 931.423 30.5201 931.544 30.2196C931.665 29.9191 931.671 29.5845 931.56 29.2801C931.456 28.9995 931.371 28.7123 931.304 28.4204C931.271 28.276 931.245 28.1251 931.226 27.9741C931.146 27.5119 930.904 27.0933 930.543 26.7937C930.182 26.4941 929.726 26.3332 929.257 26.3401H927.288C927.005 26.3374 926.725 26.3957 926.467 26.511C926.209 26.6263 925.978 26.7959 925.791 27.0083C925.605 27.2207 925.466 27.4708 925.384 27.7416C925.303 28.0125 925.281 28.2977 925.319 28.5779C925.669 31.3271 926.924 33.8816 928.888 35.8377C930.851 37.7938 933.41 39.0401 936.161 39.3797H936.41C936.894 39.3804 937.361 39.2029 937.722 38.881C937.93 38.6953 938.096 38.4677 938.209 38.2131C938.322 37.9586 938.38 37.683 938.379 37.4044V35.4357C938.371 34.9798 938.205 34.5409 937.909 34.1938C937.613 33.8468 937.206 33.613 936.758 33.5326ZM937.086 37.4701C937.086 37.5632 937.066 37.6553 937.027 37.7402C936.989 37.825 936.933 37.9007 936.863 37.9622C936.79 38.0259 936.704 38.0734 936.611 38.1017C936.518 38.13 936.421 38.1383 936.325 38.1263C933.867 37.8112 931.584 36.6868 929.836 34.9306C928.088 33.1743 926.975 30.8861 926.671 28.4269C926.661 28.3308 926.67 28.2335 926.698 28.1411C926.726 28.0486 926.773 27.9628 926.835 27.8888C926.897 27.8188 926.972 27.7627 927.057 27.7242C927.142 27.6858 927.234 27.6658 927.327 27.6657H929.296C929.449 27.6623 929.598 27.7122 929.718 27.8068C929.837 27.9014 929.92 28.0349 929.952 28.1841C929.979 28.3635 930.011 28.5407 930.051 28.7157C930.127 29.0616 930.228 29.4016 930.353 29.7329L929.434 30.1594C929.355 30.1955 929.285 30.2467 929.226 30.3101C929.167 30.3735 929.122 30.4479 929.092 30.529C929.062 30.6101 929.048 30.6963 929.052 30.7827C929.055 30.869 929.076 30.9538 929.112 31.0322C930.057 33.0553 931.683 34.6815 933.706 35.626C933.866 35.6916 934.045 35.6916 934.205 35.626C934.287 35.5967 934.362 35.5515 934.426 35.4929C934.49 35.4343 934.542 35.3636 934.579 35.2847L934.986 34.366C935.325 34.4873 935.671 34.5881 936.023 34.6679C936.198 34.7072 936.375 34.7401 936.554 34.7663C936.704 34.7983 936.837 34.8814 936.932 35.0011C937.026 35.1209 937.076 35.2699 937.073 35.4226L937.086 37.4701Z" fill="#0B1331"/>
</g>
<circle cx="898.5" cy="91" r="2.25" stroke="#0B1331" stroke-width="1.5" stroke-linecap="round"/>
<circle cx="898.5" cy="92.5" r="6.75" stroke="#0B1331" stroke-width="1.5"/>
<path d="M902.835 97.6198C902.931 97.5675 902.976 97.4541 902.936 97.3531C902.646 96.6284 902.089 95.9901 901.336 95.5249C900.522 95.0224 899.526 94.75 898.5 94.75C897.474 94.75 896.478 95.0224 895.664 95.5249C894.911 95.9901 894.354 96.6284 894.064 97.3531C894.024 97.4541 894.069 97.5675 894.165 97.6198C896.865 99.1022 900.135 99.1022 902.835 97.6198Z" fill="#0B1331"/>
<path d="M563.044 62.6435C560.886 62.5973 558.738 62.9541 556.707 63.6962C552.223 65.4386 549.741 69.3582 549.261 75.4547C549.202 76.1904 549.16 76.944 549.16 77.7454V84.0792C548.712 88.0665 546.692 90.0602 543.101 90.0602C538.92 90.0602 536.829 87.3488 536.829 81.9261V62.5C532.345 64.2464 529.861 68.1679 529.377 74.2645V81.0349C529.377 81.1725 529.377 81.2861 529.377 81.4177V81.8543C529.377 86.5195 530.398 90.0662 532.416 92.5183C534.658 95.2337 538.121 96.6093 542.841 96.6093C545 96.6538 547.148 96.2949 549.178 95.5507C553.662 93.8082 556.146 89.8887 556.63 83.7922C556.683 83.0565 556.725 82.3029 556.725 81.5074V75.1676C556.725 75.0301 556.766 74.8985 556.784 74.7669V74.4021C557.26 68.3374 559.72 64.4259 564.165 62.6675C563.787 62.6555 563.421 62.6435 563.044 62.6435Z" fill="#E61D4D"/>
<path d="M582.976 62.6445C578.569 62.6445 575.218 63.7989 572.911 66.0836C570.873 64.0062 567.982 62.8698 564.237 62.6744H564.166C559.725 64.4328 557.265 68.3444 556.785 74.409V74.7739C557.32 71.0418 559.32 69.1737 562.786 69.1697C563.272 69.1674 563.758 69.2094 564.237 69.2953C567.451 69.8815 569.058 72.551 569.058 77.3038V96.7538H576.545V77.0167C576.53 75.9242 576.645 74.8337 576.887 73.7691C577.627 70.7028 579.564 69.1677 582.699 69.1638C583.174 69.1623 583.647 69.2023 584.115 69.2834C587.356 69.8575 588.975 72.529 588.971 77.2978V96.7479H596.429V77.3935C596.429 67.5609 591.945 62.6445 582.976 62.6445Z" fill="#1955A0"/>
<path d="M510.65 108.603C510.65 110.535 509.618 111.51 507.7 111.51C505.783 111.51 504.75 110.535 504.75 108.603V104.117H505.93V108.465C505.93 109.847 506.485 110.487 507.7 110.487C508.916 110.487 509.47 109.847 509.47 108.465V104.117H510.65V108.603Z" fill="#1955A0"/>
<path d="M521.193 111.396H519.807L517.034 106.809L516.337 105.457L516.379 106.695V111.396H515.299V104.117H516.674L519.441 108.699L520.149 110.056L520.108 108.818V104.117H521.187L521.193 111.396Z" fill="#1955A0"/>
<path d="M527.094 111.396H525.914V104.117H527.094V111.396Z" fill="#1955A0"/>
<path d="M537.191 105.128H534.73V111.396H533.55V105.128H531.09V104.117H537.191V105.128Z" fill="#1955A0"/>
<path d="M546.559 110.379V111.396H541.201V104.117H546.393V105.134H542.352V107.233H545.508V108.226H542.352V110.385L546.559 110.379Z" fill="#1955A0"/>
<path d="M556.849 107.754C556.849 110.092 555.527 111.396 553.273 111.396H550.736V104.117H553.273C555.527 104.117 556.849 105.415 556.849 107.754ZM555.628 107.754C555.628 106.079 554.79 105.116 553.268 105.116H551.899V110.391H553.268C554.79 110.391 555.628 109.434 555.628 107.754Z" fill="#1955A0"/>
<path d="M574.715 111.395H573.647V107.178L573.724 105.168L571.535 111.395H570.567L568.378 105.168L568.466 107.178V111.395H567.387V104.116H569.121L570.526 108.302L571.027 110.037L571.54 108.302L572.974 104.086H574.715V111.395Z" fill="#1955A0"/>
<path d="M583.507 109.498H580.48L579.795 111.406H578.615L581.329 104.121H582.722L585.43 111.406H584.203L583.507 109.498ZM583.158 108.535L582.332 106.196L582.008 105.15H581.972L581.666 106.179L580.816 108.535H583.158Z" fill="#1955A0"/>
<path d="M592.003 108.483H590.457V111.396H589.277V104.117H592.227C593.773 104.117 594.741 104.937 594.741 106.306C594.762 106.774 594.622 107.235 594.344 107.609C594.066 107.984 593.668 108.248 593.219 108.358L595.166 111.402H593.832L592.003 108.483ZM590.457 107.502H592.133C593.083 107.502 593.537 107.114 593.537 106.306C593.537 105.499 593.083 105.11 592.133 105.11H590.457V107.502Z" fill="#1955A0"/>
<path d="M601.567 107.885L600.387 109.159V111.396H599.207V104.117H600.387V107.742L603.685 104.117H605.113L602.393 107.108L605.178 111.408H603.809L601.567 107.885Z" fill="#1955A0"/>
<path d="M614.471 110.379V111.396H609.113V104.117H614.317V105.134H610.276V107.233H613.432V108.226H610.276V110.385L614.471 110.379Z" fill="#1955A0"/>
<path d="M623.999 105.128H621.539V111.396H620.359V105.128H617.898V104.117H623.987L623.999 105.128Z" fill="#1955A0"/>
<rect x="68.25" y="77.5" width="334.5" height="28.5" rx="2.25" fill="white" stroke="#D6DAE9" stroke-width="1.5"/>
<path d="M362.25 76.75H400.5C402.157 76.75 403.5 78.0931 403.5 79.75V103.75C403.5 105.407 402.157 106.75 400.5 106.75H362.25V76.75Z" fill="#3657C8"/>
<path d="M391.289 98.1795L388.509 95.3801C389.588 94.0141 390.111 92.2803 389.969 90.5352C389.828 88.7901 389.033 87.1664 387.748 85.9978C386.463 84.8292 384.786 84.2047 383.061 84.2526C381.337 84.3005 379.696 85.0172 378.476 86.2553C377.256 87.4934 376.55 89.1589 376.503 90.9092C376.455 92.6596 377.071 94.3617 378.222 95.6657C379.374 96.9697 380.973 97.7764 382.693 97.92C384.412 98.0635 386.121 97.533 387.467 96.4375L390.225 99.2369C390.295 99.3082 390.378 99.3648 390.469 99.4034C390.56 99.4421 390.658 99.4619 390.757 99.4619C390.856 99.4619 390.954 99.4421 391.045 99.4034C391.137 99.3648 391.22 99.3082 391.289 99.2369C391.424 99.0951 391.5 98.9055 391.5 98.7082C391.5 98.5109 391.424 98.3214 391.289 98.1795ZM383.262 96.4375C382.224 96.4375 381.209 96.1252 380.347 95.54C379.484 94.9549 378.811 94.1232 378.414 93.1502C378.017 92.1772 377.913 91.1065 378.116 90.0735C378.318 89.0406 378.818 88.0917 379.552 87.347C380.285 86.6023 381.22 86.0951 382.238 85.8897C383.256 85.6842 384.311 85.7896 385.27 86.1927C386.228 86.5957 387.048 87.2783 387.624 88.154C388.201 89.0297 388.509 90.0592 388.509 91.1124C388.509 92.5247 387.956 93.8791 386.972 94.8778C385.988 95.8764 384.653 96.4375 383.262 96.4375Z" fill="white"/>
<path d="M79.2877 88.5356H80.4105V92.4321C80.4105 92.8389 80.4002 93.2507 80.3797 93.6677C80.3592 94.0813 80.3438 94.3616 80.3336 94.5085H80.3797L84.2096 88.5356H85.64V96.0312H84.512V92.1655C84.512 91.5742 84.5445 90.8564 84.6095 90.0122H84.5684L80.7232 96.0312H79.2877V88.5356ZM90.077 96.1338C89.2191 96.1338 88.5663 95.8843 88.1186 95.3853C87.6742 94.8828 87.452 94.1633 87.452 93.2268C87.452 92.2732 87.6845 91.54 88.1493 91.0273C88.6176 90.5146 89.2926 90.2583 90.1745 90.2583C90.7726 90.2583 91.3109 90.3694 91.7895 90.5916L91.4254 91.5605C90.9162 91.3623 90.4957 91.2632 90.1642 91.2632C89.1832 91.2632 88.6928 91.9143 88.6928 93.2166C88.6928 93.8523 88.8141 94.3308 89.0568 94.6521C89.3029 94.97 89.6618 95.1289 90.1334 95.1289C90.6701 95.1289 91.1776 94.9956 91.6561 94.729V95.78C91.4408 95.9065 91.2101 95.9971 90.964 96.0518C90.7213 96.1064 90.4257 96.1338 90.077 96.1338ZM96.8212 90.3608H98.144L95.801 93.0935L98.344 96.0312H96.9597L94.509 93.155V96.0312H93.3042V90.3608H94.509V93.114L96.8212 90.3608ZM103.145 96.0312L102.904 95.2417H102.863C102.59 95.5869 102.314 95.8228 102.038 95.9492C101.761 96.0723 101.405 96.1338 100.971 96.1338C100.414 96.1338 99.9783 95.9834 99.6638 95.6826C99.3528 95.3818 99.1973 94.9563 99.1973 94.406C99.1973 93.8215 99.4143 93.3806 99.8484 93.0833C100.282 92.7859 100.944 92.6235 101.833 92.5962L102.812 92.5654V92.2629C102.812 91.9006 102.726 91.6306 102.555 91.4529C102.388 91.2717 102.126 91.1812 101.771 91.1812C101.48 91.1812 101.202 91.2239 100.935 91.3093C100.669 91.3948 100.412 91.4956 100.166 91.6118L99.7766 90.7505C100.084 90.5898 100.421 90.4685 100.787 90.3865C101.152 90.301 101.498 90.2583 101.822 90.2583C102.543 90.2583 103.087 90.4155 103.453 90.73C103.822 91.0444 104.006 91.5383 104.006 92.2117V96.0312H103.145ZM101.351 95.2109C101.788 95.2109 102.138 95.0896 102.402 94.8469C102.668 94.6008 102.802 94.2573 102.802 93.8164V93.3242L102.074 93.355C101.506 93.3755 101.093 93.4712 100.833 93.6421C100.576 93.8096 100.448 94.0676 100.448 94.4163C100.448 94.6692 100.523 94.8657 100.674 95.0059C100.824 95.1426 101.05 95.2109 101.351 95.2109ZM110.264 90.3608V91.3042H108.418V96.0312H107.208V91.3042H105.362V90.3608H110.264ZM112.875 92.627H114.296C115.878 92.627 116.669 93.1738 116.669 94.2676C116.669 94.8452 116.468 95.2844 116.064 95.5852C115.661 95.8826 115.071 96.0312 114.296 96.0312H111.671V90.3608H112.875V92.627ZM115.459 94.2983C115.459 94.0146 115.352 93.8164 115.136 93.7036C114.921 93.5908 114.617 93.5344 114.224 93.5344H112.875V95.1392H114.244C114.641 95.1392 114.942 95.0674 115.147 94.9238C115.355 94.7803 115.459 94.5718 115.459 94.2983ZM122.57 90.3608V92.6372H125.241V90.3608H126.446V96.0312H125.241V93.5857H122.57V96.0312H121.365V90.3608H122.57ZM132.036 96.0312L131.795 95.2417H131.754C131.481 95.5869 131.206 95.8228 130.929 95.9492C130.652 96.0723 130.297 96.1338 129.863 96.1338C129.305 96.1338 128.87 95.9834 128.555 95.6826C128.244 95.3818 128.089 94.9563 128.089 94.406C128.089 93.8215 128.306 93.3806 128.74 93.0833C129.174 92.7859 129.835 92.6235 130.724 92.5962L131.703 92.5654V92.2629C131.703 91.9006 131.618 91.6306 131.447 91.4529C131.279 91.2717 131.018 91.1812 130.662 91.1812C130.372 91.1812 130.093 91.2239 129.827 91.3093C129.56 91.3948 129.304 91.4956 129.058 91.6118L128.668 90.7505C128.976 90.5898 129.312 90.4685 129.678 90.3865C130.044 90.301 130.389 90.2583 130.714 90.2583C131.435 90.2583 131.978 90.4155 132.344 90.73C132.713 91.0444 132.898 91.5383 132.898 92.2117V96.0312H132.036ZM130.242 95.2109C130.68 95.2109 131.03 95.0896 131.293 94.8469C131.56 94.6008 131.693 94.2573 131.693 93.8164V93.3242L130.965 93.355C130.398 93.3755 129.984 93.4712 129.724 93.6421C129.468 93.8096 129.34 94.0676 129.34 94.4163C129.34 94.6692 129.415 94.8657 129.565 95.0059C129.716 95.1426 129.941 95.2109 130.242 95.2109ZM143.941 88.5356V93.3857C143.941 93.9395 143.821 94.4248 143.582 94.8418C143.346 95.2554 143.002 95.575 142.551 95.8005C142.103 96.0227 141.567 96.1338 140.941 96.1338C140.012 96.1338 139.289 95.8877 138.773 95.3955C138.257 94.9033 137.998 94.2266 137.998 93.3652V88.5356H139.229V93.2781C139.229 93.8967 139.373 94.353 139.66 94.647C139.947 94.9409 140.388 95.0879 140.982 95.0879C142.138 95.0879 142.715 94.4812 142.715 93.2678V88.5356H143.941ZM151.033 96.0312H149.823V92.5449C149.823 92.1074 149.735 91.781 149.557 91.5657C149.383 91.3503 149.104 91.2427 148.721 91.2427C148.212 91.2427 147.839 91.3931 147.604 91.6938C147.368 91.9946 147.25 92.4988 147.25 93.2063V96.0312H146.045V90.3608H146.988L147.157 91.1042H147.219C147.39 90.8342 147.633 90.6257 147.947 90.4788C148.261 90.3318 148.61 90.2583 148.993 90.2583C150.353 90.2583 151.033 90.9504 151.033 92.3347V96.0312ZM154.23 96.0312H153.025V90.3608H154.23V96.0312ZM152.953 88.8586C152.953 88.6433 153.011 88.4775 153.128 88.3613C153.247 88.2451 153.416 88.187 153.635 88.187C153.847 88.187 154.011 88.2451 154.127 88.3613C154.247 88.4775 154.307 88.6433 154.307 88.8586C154.307 89.0637 154.247 89.2261 154.127 89.3457C154.011 89.4619 153.847 89.52 153.635 89.52C153.416 89.52 153.247 89.4619 153.128 89.3457C153.011 89.2261 152.953 89.0637 152.953 88.8586ZM158.385 95.1597C158.679 95.1597 158.973 95.1135 159.267 95.0212V95.9287C159.133 95.9868 158.961 96.0347 158.749 96.0723C158.54 96.1133 158.323 96.1338 158.098 96.1338C156.956 96.1338 156.385 95.5322 156.385 94.3291V91.2734H155.611V90.7402L156.442 90.2993L156.852 89.0996H157.595V90.3608H159.21V91.2734H157.595V94.3086C157.595 94.5991 157.667 94.8145 157.811 94.9546C157.958 95.0913 158.149 95.1597 158.385 95.1597ZM163.196 96.1338C162.314 96.1338 161.624 95.8774 161.125 95.3647C160.629 94.8486 160.382 94.1394 160.382 93.2371C160.382 92.3108 160.612 91.5828 161.074 91.053C161.535 90.5232 162.169 90.2583 162.976 90.2583C163.724 90.2583 164.316 90.4856 164.75 90.9402C165.184 91.3948 165.401 92.0203 165.401 92.8167V93.4678H161.622C161.639 94.0181 161.788 94.4419 162.068 94.7393C162.349 95.0332 162.743 95.1802 163.253 95.1802C163.588 95.1802 163.899 95.1494 164.186 95.0879C164.476 95.0229 164.787 94.917 165.119 94.77V95.7493C164.825 95.8894 164.528 95.9885 164.227 96.0466C163.926 96.1047 163.582 96.1338 163.196 96.1338ZM162.976 91.1709C162.593 91.1709 162.285 91.2922 162.053 91.5349C161.824 91.7776 161.687 92.1313 161.643 92.5962H164.216C164.21 92.1279 164.097 91.7742 163.878 91.5349C163.659 91.2922 163.359 91.1709 162.976 91.1709ZM168.997 96.1338C168.29 96.1338 167.738 95.8774 167.341 95.3647C166.945 94.8521 166.746 94.1326 166.746 93.2063C166.746 92.2766 166.946 91.5537 167.346 91.0376C167.75 90.5181 168.307 90.2583 169.018 90.2583C169.763 90.2583 170.33 90.5334 170.72 91.0837H170.781C170.723 90.677 170.694 90.3557 170.694 90.1199V88.0537H171.904V96.0312H170.961L170.75 95.2878H170.694C170.308 95.8518 169.742 96.1338 168.997 96.1338ZM169.32 95.1597C169.816 95.1597 170.176 95.0212 170.402 94.7444C170.627 94.4641 170.744 94.0112 170.75 93.3857V93.2166C170.75 92.5022 170.634 91.9946 170.402 91.6938C170.169 91.3931 169.805 91.2427 169.31 91.2427C168.886 91.2427 168.56 91.4153 168.331 91.7605C168.102 92.1023 167.987 92.5911 167.987 93.2268C167.987 93.8557 168.098 94.3359 168.32 94.6675C168.542 94.9956 168.876 95.1597 169.32 95.1597ZM180.353 96.0312L178.179 89.7712H178.138C178.196 90.7009 178.225 91.5725 178.225 92.386V96.0312H177.112V88.5356H178.84L180.922 94.4983H180.953L183.096 88.5356H184.828V96.0312H183.649V92.3245C183.649 91.9519 183.658 91.4666 183.675 90.8684C183.695 90.2703 183.713 89.908 183.726 89.7815H183.685L181.434 96.0312H180.353ZM190.537 96.0312L190.296 95.2417H190.255C189.982 95.5869 189.706 95.8228 189.43 95.9492C189.153 96.0723 188.797 96.1338 188.363 96.1338C187.806 96.1338 187.37 95.9834 187.056 95.6826C186.745 95.3818 186.589 94.9563 186.589 94.406C186.589 93.8215 186.806 93.3806 187.24 93.0833C187.674 92.7859 188.336 92.6235 189.225 92.5962L190.204 92.5654V92.2629C190.204 91.9006 190.118 91.6306 189.947 91.4529C189.78 91.2717 189.518 91.1812 189.163 91.1812C188.872 91.1812 188.594 91.2239 188.327 91.3093C188.061 91.3948 187.804 91.4956 187.558 91.6118L187.169 90.7505C187.476 90.5898 187.813 90.4685 188.179 90.3865C188.544 90.301 188.89 90.2583 189.214 90.2583C189.935 90.2583 190.479 90.4155 190.845 90.73C191.214 91.0444 191.398 91.5383 191.398 92.2117V96.0312H190.537ZM188.743 95.2109C189.18 95.2109 189.53 95.0896 189.794 94.8469C190.06 94.6008 190.194 94.2573 190.194 93.8164V93.3242L189.466 93.355C188.898 93.3755 188.485 93.4712 188.225 93.6421C187.968 93.8096 187.84 94.0676 187.84 94.4163C187.84 94.6692 187.915 94.8657 188.066 95.0059C188.216 95.1426 188.442 95.2109 188.743 95.2109ZM196.271 90.2583C196.514 90.2583 196.714 90.2754 196.871 90.3096L196.753 91.4324C196.582 91.3914 196.405 91.3708 196.22 91.3708C195.738 91.3708 195.347 91.5281 195.046 91.8425C194.749 92.157 194.6 92.5654 194.6 93.0679V96.0312H193.395V90.3608H194.338L194.497 91.3606H194.559C194.747 91.0222 194.991 90.7539 195.292 90.5557C195.596 90.3574 195.923 90.2583 196.271 90.2583ZM199.406 93.0371L200.088 92.186L201.8 90.3608H203.19L200.908 92.7961L203.333 96.0312H201.918L200.098 93.5447L199.437 94.0881V96.0312H198.242V88.0537H199.437V91.9451L199.375 93.0371H199.406ZM207.042 96.1338C206.161 96.1338 205.47 95.8774 204.971 95.3647C204.475 94.8486 204.228 94.1394 204.228 93.2371C204.228 92.3108 204.458 91.5828 204.92 91.053C205.381 90.5232 206.015 90.2583 206.822 90.2583C207.57 90.2583 208.162 90.4856 208.596 90.9402C209.03 91.3948 209.247 92.0203 209.247 92.8167V93.4678H205.468C205.485 94.0181 205.634 94.4419 205.914 94.7393C206.195 95.0332 206.589 95.1802 207.099 95.1802C207.434 95.1802 207.745 95.1494 208.032 95.0879C208.322 95.0229 208.633 94.917 208.965 94.77V95.7493C208.671 95.8894 208.374 95.9885 208.073 96.0466C207.772 96.1047 207.429 96.1338 207.042 96.1338ZM206.822 91.1709C206.439 91.1709 206.131 91.2922 205.899 91.5349C205.67 91.7776 205.533 92.1313 205.489 92.5962H208.063C208.056 92.1279 207.943 91.7742 207.724 91.5349C207.505 91.2922 207.205 91.1709 206.822 91.1709ZM213.043 95.1597C213.337 95.1597 213.631 95.1135 213.925 95.0212V95.9287C213.792 95.9868 213.619 96.0347 213.407 96.0723C213.199 96.1133 212.982 96.1338 212.756 96.1338C211.614 96.1338 211.044 95.5322 211.044 94.3291V91.2734H210.269V90.7402L211.1 90.2993L211.51 89.0996H212.254V90.3608H213.869V91.2734H212.254V94.3086C212.254 94.5991 212.325 94.8145 212.469 94.9546C212.616 95.0913 212.807 95.1597 213.043 95.1597Z" fill="#D6DAE9"/>
<path d="M342.566 151.953H341.735V150H336.526V151.953H335.696V149.21H336.275C336.801 148.325 337.251 147.249 337.623 145.98C337.999 144.712 338.208 143.554 338.249 142.504H341.617V149.21H342.566V151.953ZM340.746 149.21V143.289H339.038C338.977 144.116 338.77 145.111 338.418 146.273C338.066 147.431 337.656 148.411 337.188 149.21H340.746ZM350.653 146.242C350.653 147.442 350.349 148.385 349.741 149.072C349.136 149.759 348.293 150.103 347.213 150.103C346.109 150.103 345.256 149.766 344.655 149.093C344.057 148.416 343.758 147.462 343.758 146.232C343.758 145.011 344.058 144.066 344.66 143.396C345.261 142.723 346.116 142.386 347.223 142.386C348.3 142.386 349.141 142.728 349.746 143.412C350.351 144.095 350.653 145.039 350.653 146.242ZM344.68 146.242C344.68 147.257 344.896 148.028 345.326 148.554C345.76 149.077 346.389 149.339 347.213 149.339C348.044 149.339 348.671 149.077 349.095 148.554C349.519 148.031 349.73 147.26 349.73 146.242C349.73 145.234 349.519 144.47 349.095 143.95C348.674 143.427 348.051 143.166 347.223 143.166C346.393 143.166 345.76 143.429 345.326 143.955C344.896 144.478 344.68 145.24 344.68 146.242ZM355.854 143.176C355.031 143.176 354.379 143.451 353.901 144.001C353.426 144.548 353.188 145.299 353.188 146.252C353.188 147.233 353.417 147.992 353.875 148.529C354.337 149.062 354.993 149.328 355.844 149.328C356.367 149.328 356.963 149.234 357.633 149.046V149.81C357.114 150.005 356.473 150.103 355.711 150.103C354.607 150.103 353.754 149.768 353.152 149.098C352.554 148.428 352.255 147.476 352.255 146.242C352.255 145.469 352.399 144.793 352.686 144.212C352.976 143.631 353.393 143.183 353.937 142.868C354.484 142.554 355.126 142.397 355.865 142.397C356.651 142.397 357.338 142.54 357.926 142.827L357.556 143.576C356.989 143.309 356.422 143.176 355.854 143.176ZM361.891 150H361.019V143.279H358.646V142.504H364.265V143.279H361.891V150ZM370.424 150L369.491 147.616H366.487L365.564 150H364.682L367.646 142.474H368.379L371.327 150H370.424ZM369.22 146.832L368.348 144.509C368.235 144.215 368.119 143.854 367.999 143.427C367.924 143.755 367.817 144.116 367.676 144.509L366.795 146.832H369.22ZM372.672 142.504H374.79C375.784 142.504 376.504 142.653 376.948 142.95C377.393 143.248 377.615 143.718 377.615 144.36C377.615 144.805 377.49 145.172 377.24 145.463C376.994 145.75 376.634 145.936 376.159 146.021V146.073C377.297 146.268 377.866 146.866 377.866 147.867C377.866 148.537 377.639 149.06 377.184 149.436C376.733 149.812 376.101 150 375.287 150H372.672V142.504ZM373.544 145.714H374.979C375.595 145.714 376.037 145.618 376.307 145.427C376.577 145.232 376.712 144.906 376.712 144.448C376.712 144.027 376.562 143.725 376.261 143.54C375.96 143.352 375.482 143.258 374.826 143.258H373.544V145.714ZM373.544 146.452V149.257H375.108C375.713 149.257 376.167 149.14 376.471 148.908C376.779 148.672 376.933 148.305 376.933 147.806C376.933 147.341 376.776 146.999 376.461 146.78C376.15 146.562 375.675 146.452 375.036 146.452H373.544ZM385.189 150H384.133L380.668 146.201V150H379.796V142.504H380.668V146.134L384.046 142.504H385.046L381.729 146.145L385.189 150ZM391.252 150L390.319 147.616H387.314L386.391 150H385.51L388.473 142.474H389.206L392.154 150H391.252ZM390.047 146.832L389.175 144.509C389.063 144.215 388.946 143.854 388.827 143.427C388.752 143.755 388.644 144.116 388.504 144.509L387.622 146.832H390.047ZM400.721 150H396.542V142.504H400.721V143.279H397.414V145.693H400.521V146.462H397.414V149.221H400.721V150ZM408.613 151.953H407.783V150H402.574V151.953H401.743V149.21H402.323C402.849 148.325 403.298 147.249 403.671 145.98C404.047 144.712 404.255 143.554 404.296 142.504H407.665V149.21H408.613V151.953ZM406.793 149.21V143.289H405.086C405.024 144.116 404.818 145.111 404.466 146.273C404.114 147.431 403.703 148.411 403.235 149.21H406.793ZM410.195 150V142.504H411.066V145.704H412.292C413.184 145.704 413.864 145.88 414.332 146.232C414.8 146.58 415.035 147.108 415.035 147.816C415.035 148.52 414.812 149.06 414.368 149.436C413.927 149.812 413.281 150 412.43 150H410.195ZM411.066 149.257H412.333C412.951 149.257 413.406 149.137 413.696 148.898C413.987 148.655 414.132 148.294 414.132 147.816C414.132 147.348 413.978 147.009 413.671 146.801C413.367 146.589 412.873 146.483 412.189 146.483H411.066V149.257ZM417.09 150H416.219V142.504H417.09V150Z" fill="#0B1331"/>
<path d="M199.814 148.949H200.394C200.889 148.043 201.305 147.026 201.64 145.898C201.975 144.771 202.19 143.639 202.286 142.504H206.157V148.949H207.126V152.066H205.946V150H200.994V152.066H199.814V148.949ZM203.311 143.566C203.236 144.342 203.044 145.242 202.737 146.268C202.429 147.29 202.079 148.183 201.686 148.949H204.931V143.566H203.311ZM215.31 146.242C215.31 147.462 215.005 148.411 214.393 149.087C213.784 149.764 212.921 150.103 211.804 150.103C210.672 150.103 209.802 149.768 209.194 149.098C208.589 148.424 208.286 147.469 208.286 146.232C208.286 144.994 208.591 144.044 209.199 143.381C209.811 142.718 210.682 142.386 211.814 142.386C212.928 142.386 213.789 142.723 214.398 143.396C215.006 144.07 215.31 145.018 215.31 146.242ZM209.589 146.242C209.589 147.165 209.775 147.865 210.148 148.344C210.52 148.819 211.072 149.057 211.804 149.057C212.532 149.057 213.08 148.821 213.449 148.349C213.822 147.877 214.008 147.175 214.008 146.242C214.008 145.323 213.824 144.625 213.454 144.15C213.089 143.675 212.542 143.437 211.814 143.437C211.079 143.437 210.524 143.675 210.148 144.15C209.775 144.625 209.589 145.323 209.589 146.242ZM220.424 143.448C219.72 143.448 219.166 143.697 218.763 144.196C218.36 144.695 218.158 145.384 218.158 146.262C218.158 147.182 218.351 147.877 218.737 148.349C219.127 148.821 219.689 149.057 220.424 149.057C220.742 149.057 221.05 149.026 221.347 148.964C221.644 148.899 221.954 148.817 222.275 148.718V149.769C221.687 149.991 221.021 150.103 220.276 150.103C219.178 150.103 218.336 149.771 217.748 149.108C217.16 148.441 216.866 147.49 216.866 146.252C216.866 145.473 217.008 144.791 217.292 144.207C217.579 143.622 217.992 143.174 218.532 142.863C219.072 142.552 219.706 142.397 220.434 142.397C221.2 142.397 221.908 142.557 222.557 142.879L222.116 143.899C221.863 143.779 221.595 143.675 221.311 143.586C221.031 143.494 220.735 143.448 220.424 143.448ZM226.794 150H225.569V143.555H223.364V142.504H228.999V143.555H226.794V150ZM235.117 150L234.369 147.918H231.503L230.77 150H229.478L232.282 142.474H233.615L236.42 150H235.117ZM234.046 146.862L233.344 144.822C233.292 144.685 233.22 144.47 233.128 144.176C233.039 143.882 232.978 143.667 232.944 143.53C232.851 143.95 232.716 144.41 232.539 144.909L231.862 146.862H234.046ZM237.724 142.504H239.949C240.982 142.504 241.727 142.655 242.185 142.956C242.646 143.256 242.877 143.731 242.877 144.381C242.877 144.818 242.764 145.182 242.538 145.473C242.313 145.763 241.988 145.946 241.564 146.021V146.073C242.091 146.172 242.477 146.368 242.723 146.662C242.973 146.953 243.097 147.348 243.097 147.847C243.097 148.52 242.861 149.048 242.39 149.431C241.921 149.81 241.269 150 240.431 150H237.724V142.504ZM238.95 145.601H240.129C240.641 145.601 241.016 145.521 241.252 145.36C241.487 145.196 241.605 144.919 241.605 144.53C241.605 144.177 241.477 143.923 241.221 143.766C240.968 143.608 240.565 143.53 240.011 143.53H238.95V145.601ZM238.95 146.596V148.969H240.252C240.765 148.969 241.151 148.872 241.41 148.677C241.674 148.479 241.805 148.168 241.805 147.744C241.805 147.354 241.672 147.066 241.405 146.878C241.139 146.69 240.734 146.596 240.19 146.596H238.95ZM250.723 150H249.283L246.196 146.201V150H244.971V142.504H246.196V146.134L249.231 142.504H250.575L247.55 146.124L250.723 150ZM256.683 150L255.935 147.918H253.069L252.335 150H251.043L253.848 142.474H255.181L257.985 150H256.683ZM255.612 146.862L254.909 144.822C254.858 144.685 254.786 144.47 254.694 144.176C254.605 143.882 254.543 143.667 254.509 143.53C254.417 143.95 254.282 144.41 254.104 144.909L253.427 146.862H255.612ZM267.403 147.744C267.403 149.248 266.439 150 264.511 150H262.332V142.504H266.906V143.555H263.558V145.55H264.45C266.419 145.55 267.403 146.281 267.403 147.744ZM263.558 148.969H264.44C265.027 148.969 265.458 148.874 265.732 148.682C266.005 148.488 266.142 148.175 266.142 147.744C266.142 147.331 266.003 147.033 265.726 146.852C265.453 146.667 264.974 146.575 264.291 146.575H263.558V148.969ZM274.911 142.504L272.548 147.836C272.257 148.489 271.99 148.963 271.748 149.257C271.505 149.547 271.223 149.761 270.902 149.897C270.584 150.034 270.198 150.103 269.743 150.103C269.347 150.103 268.979 150.051 268.641 149.949V148.846C268.976 148.98 269.326 149.046 269.692 149.046C270.003 149.046 270.263 148.971 270.471 148.821C270.683 148.667 270.874 148.392 271.045 147.995L268.282 142.504H269.605L271.435 146.262C271.599 146.618 271.7 146.855 271.737 146.975H271.789C271.809 146.886 271.86 146.744 271.943 146.55L273.629 142.504H274.911ZM281.973 150H280.532L277.446 146.201V150H276.221V142.504H277.446V146.134L280.481 142.504H281.824L278.8 146.124L281.973 150ZM287.523 150H283.283V142.504H287.523V143.54H284.508V145.581H287.333V146.606H284.508V148.959H287.523V150ZM292.052 150H290.827V143.555H288.622V142.504H294.257V143.555H292.052V150ZM302.38 146.242C302.38 147.462 302.074 148.411 301.462 149.087C300.854 149.764 299.991 150.103 298.873 150.103C297.742 150.103 296.872 149.768 296.264 149.098C295.659 148.424 295.356 147.469 295.356 146.232C295.356 144.994 295.66 144.044 296.269 143.381C296.881 142.718 297.752 142.386 298.883 142.386C299.998 142.386 300.859 142.723 301.467 143.396C302.076 144.07 302.38 145.018 302.38 146.242ZM296.658 146.242C296.658 147.165 296.845 147.865 297.217 148.344C297.59 148.819 298.142 149.057 298.873 149.057C299.601 149.057 300.15 148.821 300.519 148.349C300.891 147.877 301.078 147.175 301.078 146.242C301.078 145.323 300.893 144.625 300.524 144.15C300.158 143.675 299.611 143.437 298.883 143.437C298.149 143.437 297.593 143.675 297.217 144.15C296.845 144.625 296.658 145.323 296.658 146.242ZM304.305 142.504H306.53C307.562 142.504 308.307 142.655 308.765 142.956C309.227 143.256 309.457 143.731 309.457 144.381C309.457 144.818 309.345 145.182 309.119 145.473C308.894 145.763 308.569 145.946 308.145 146.021V146.073C308.671 146.172 309.058 146.368 309.304 146.662C309.553 146.953 309.678 147.348 309.678 147.847C309.678 148.52 309.442 149.048 308.97 149.431C308.502 149.81 307.849 150 307.012 150H304.305V142.504ZM305.53 145.601H306.709C307.222 145.601 307.596 145.521 307.832 145.36C308.068 145.196 308.186 144.919 308.186 144.53C308.186 144.177 308.058 143.923 307.801 143.766C307.549 143.608 307.145 143.53 306.592 143.53H305.53V145.601ZM305.53 146.596V148.969H306.832C307.345 148.969 307.731 148.872 307.991 148.677C308.254 148.479 308.386 148.168 308.386 147.744C308.386 147.354 308.253 147.066 307.986 146.878C307.719 146.69 307.314 146.596 306.771 146.596H305.53Z" fill="#0B1331"/>
<path d="M451.45 150H450.394L446.928 146.201V150H446.056V142.504H446.928V146.134L450.307 142.504H451.306L447.989 146.145L451.45 150ZM458.133 150H457.261V143.279H454.826L454.667 144.509C454.458 146.146 454.274 147.344 454.113 148.103C453.956 148.858 453.747 149.385 453.488 149.682C453.228 149.979 452.883 150.125 452.452 150.118C452.199 150.118 451.972 150.075 451.77 149.99V149.257C451.955 149.345 452.148 149.39 452.349 149.39C452.531 149.39 452.688 149.316 452.821 149.169C452.958 149.019 453.078 148.761 453.18 148.395C453.286 148.026 453.418 147.329 453.575 146.303C453.735 145.275 453.912 144.008 454.103 142.504H458.133V150ZM460.519 142.504H461.334V146.673C461.334 147.442 461.31 148.137 461.262 148.759H461.303L465.508 142.504H466.461V150H465.641V145.873C465.641 145.186 465.67 144.465 465.728 143.709H465.682L461.473 150H460.519V142.504ZM474.523 150H473.651V146.473H469.704V150H468.832V142.504H469.704V145.693H473.651V142.504H474.523V150ZM476.909 142.504H477.724V146.673C477.724 147.442 477.7 148.137 477.653 148.759H477.694L481.898 142.504H482.851V150H482.031V145.873C482.031 145.186 482.06 144.465 482.118 143.709H482.072L477.863 150H476.909V142.504ZM490.913 150H490.042V146.473H486.094V150H485.222V142.504H486.094V145.693H490.042V142.504H490.913V150ZM497.468 142.504V143.289H494.161V150H493.289V142.504H497.468Z" fill="#0B1331"/>
<path d="M622.428 150H621.557V143.279H619.183V142.504H624.802V143.279H622.428V150ZM626.722 150.103C626.342 150.103 626.009 150.051 625.722 149.949V149.098C626.04 149.245 626.363 149.318 626.691 149.318C627.067 149.318 627.368 149.233 627.593 149.062C627.822 148.887 628.05 148.563 628.275 148.088L625.358 142.504H626.322L628.537 146.765C628.622 146.932 628.689 147.096 628.737 147.257H628.778C628.873 146.97 628.94 146.789 628.978 146.714L630.818 142.504H631.741L629.347 147.867C629.06 148.506 628.8 148.971 628.567 149.262C628.338 149.552 628.079 149.766 627.788 149.903C627.501 150.036 627.145 150.103 626.722 150.103ZM637.839 144.688C637.839 145.447 637.579 146.032 637.06 146.442C636.544 146.849 635.804 147.052 634.84 147.052H633.958V150H633.086V142.504H635.03C636.903 142.504 637.839 143.232 637.839 144.688ZM633.958 146.303H634.742C635.515 146.303 636.074 146.179 636.419 145.929C636.764 145.68 636.937 145.28 636.937 144.729C636.937 144.234 636.774 143.865 636.45 143.622C636.125 143.379 635.619 143.258 634.932 143.258H633.958V146.303ZM639.728 150V142.504H640.6V145.704H641.825C642.717 145.704 643.397 145.88 643.866 146.232C644.334 146.58 644.568 147.108 644.568 147.816C644.568 148.52 644.346 149.06 643.901 149.436C643.461 149.812 642.815 150 641.963 150H639.728ZM640.6 149.257H641.866C642.485 149.257 642.939 149.137 643.23 148.898C643.52 148.655 643.666 148.294 643.666 147.816C643.666 147.348 643.512 147.009 643.204 146.801C642.9 146.589 642.406 146.483 641.723 146.483H640.6V149.257ZM646.624 150H645.752V142.504H646.624V150Z" fill="#0B1331"/>
<path d="M678.031 142.397H678.912V143.32H679.271C679.856 143.32 680.362 143.436 680.789 143.668C681.22 143.901 681.548 144.229 681.773 144.653C682.002 145.076 682.117 145.56 682.117 146.104C682.117 146.671 681.989 147.177 681.732 147.621C681.479 148.062 681.131 148.394 680.686 148.616C680.245 148.838 679.724 148.949 679.123 148.949H678.912V150.103H678.031V148.949H677.8C677.198 148.949 676.677 148.836 676.236 148.611C675.795 148.385 675.45 148.05 675.201 147.606C674.951 147.161 674.826 146.664 674.826 146.114C674.826 145.574 674.941 145.092 675.17 144.668C675.402 144.244 675.734 143.914 676.164 143.678C676.595 143.439 677.103 143.32 677.687 143.32H678.031V142.397ZM678.912 148.216H679.041C679.728 148.216 680.261 148.03 680.64 147.657C681.023 147.281 681.214 146.76 681.214 146.093C681.214 145.461 681.038 144.965 680.686 144.606C680.334 144.248 679.842 144.068 679.21 144.068H678.912V148.216ZM678.031 144.068H677.738C677.116 144.068 676.626 144.249 676.267 144.612C675.911 144.974 675.734 145.468 675.734 146.093C675.734 146.767 675.923 147.29 676.303 147.662C676.682 148.031 677.217 148.216 677.908 148.216H678.031V144.068ZM684.016 142.504H684.831V146.673C684.831 147.442 684.807 148.137 684.759 148.759H684.8L689.005 142.504H689.958V150H689.138V145.873C689.138 145.186 689.167 144.465 689.225 143.709H689.179L684.97 150H684.016V142.504ZM694.636 150H693.765V143.279H691.391V142.504H697.01V143.279H694.636V150ZM704.149 150H703.277V146.473H699.33V150H698.458V142.504H699.33V145.693H703.277V142.504H704.149V150ZM710.703 150H706.525V142.504H710.703V143.279H707.397V145.693H710.503V146.462H707.397V149.221H710.703V150ZM715.894 143.176C715.07 143.176 714.419 143.451 713.941 144.001C713.466 144.548 713.228 145.299 713.228 146.252C713.228 147.233 713.457 147.992 713.915 148.529C714.377 149.062 715.033 149.328 715.884 149.328C716.407 149.328 717.003 149.234 717.673 149.046V149.81C717.154 150.005 716.513 150.103 715.751 150.103C714.647 150.103 713.794 149.768 713.192 149.098C712.594 148.428 712.295 147.476 712.295 146.242C712.295 145.469 712.439 144.793 712.726 144.212C713.016 143.631 713.433 143.183 713.977 142.868C714.524 142.554 715.166 142.397 715.904 142.397C716.691 142.397 717.378 142.54 717.965 142.827L717.596 143.576C717.029 143.309 716.462 143.176 715.894 143.176ZM722.833 143.176C722.009 143.176 721.358 143.451 720.88 144.001C720.405 144.548 720.167 145.299 720.167 146.252C720.167 147.233 720.396 147.992 720.854 148.529C721.316 149.062 721.972 149.328 722.823 149.328C723.346 149.328 723.942 149.234 724.612 149.046V149.81C724.093 150.005 723.452 150.103 722.69 150.103C721.586 150.103 720.733 149.768 720.131 149.098C719.533 148.428 719.234 147.476 719.234 146.242C719.234 145.469 719.378 144.793 719.665 144.212C719.955 143.631 720.372 143.183 720.916 142.868C721.463 142.554 722.105 142.397 722.843 142.397C723.63 142.397 724.317 142.54 724.904 142.827L724.535 143.576C723.968 143.309 723.401 143.176 722.833 143.176Z" fill="#0B1331"/>
<path d="M853.327 143.176C852.504 143.176 851.853 143.451 851.374 144.001C850.899 144.548 850.661 145.299 850.661 146.252C850.661 147.233 850.89 147.992 851.348 148.529C851.81 149.062 852.466 149.328 853.317 149.328C853.84 149.328 854.437 149.234 855.107 149.046V149.81C854.587 150.005 853.946 150.103 853.184 150.103C852.08 150.103 851.227 149.768 850.626 149.098C850.027 148.428 849.728 147.476 849.728 146.242C849.728 145.469 849.872 144.793 850.159 144.212C850.45 143.631 850.867 143.183 851.41 142.868C851.957 142.554 852.599 142.397 853.338 142.397C854.124 142.397 854.811 142.54 855.399 142.827L855.03 143.576C854.462 143.309 853.895 143.176 853.327 143.176ZM861.235 150H857.057V142.504H861.235V143.279H857.929V145.693H861.036V146.462H857.929V149.221H861.235V150ZM867.969 144.688C867.969 145.447 867.71 146.032 867.19 146.442C866.674 146.849 865.934 147.052 864.97 147.052H864.088V150H863.217V142.504H865.16C867.033 142.504 867.969 143.232 867.969 144.688ZM864.088 146.303H864.873C865.645 146.303 866.204 146.179 866.549 145.929C866.894 145.68 867.067 145.28 867.067 144.729C867.067 144.234 866.905 143.865 866.58 143.622C866.255 143.379 865.749 143.258 865.062 143.258H864.088V146.303ZM869.858 142.504H871.976C872.97 142.504 873.69 142.653 874.134 142.95C874.579 143.248 874.801 143.718 874.801 144.36C874.801 144.805 874.676 145.172 874.427 145.463C874.18 145.75 873.82 145.936 873.345 146.021V146.073C874.483 146.268 875.052 146.866 875.052 147.867C875.052 148.537 874.825 149.06 874.37 149.436C873.919 149.812 873.287 150 872.473 150H869.858V142.504ZM870.73 145.714H872.166C872.781 145.714 873.223 145.618 873.493 145.427C873.763 145.232 873.898 144.906 873.898 144.448C873.898 144.027 873.748 143.725 873.447 143.54C873.146 143.352 872.668 143.258 872.012 143.258H870.73V145.714ZM870.73 146.452V149.257H872.294C872.899 149.257 873.353 149.14 873.657 148.908C873.965 148.672 874.119 148.305 874.119 147.806C874.119 147.341 873.962 146.999 873.647 146.78C873.336 146.562 872.861 146.452 872.222 146.452H870.73ZM876.992 142.504H877.807V146.673C877.807 147.442 877.784 148.137 877.736 148.759H877.777L881.981 142.504H882.934V150H882.114V145.873C882.114 145.186 882.143 144.465 882.201 143.709H882.155L877.946 150H876.992V142.504ZM888.515 143.176C887.691 143.176 887.04 143.451 886.561 144.001C886.086 144.548 885.849 145.299 885.849 146.252C885.849 147.233 886.078 147.992 886.536 148.529C886.997 149.062 887.653 149.328 888.505 149.328C889.027 149.328 889.624 149.234 890.294 149.046V149.81C889.774 150.005 889.133 150.103 888.371 150.103C887.267 150.103 886.414 149.768 885.813 149.098C885.215 148.428 884.916 147.476 884.916 146.242C884.916 145.469 885.059 144.793 885.346 144.212C885.637 143.631 886.054 143.183 886.597 142.868C887.144 142.554 887.787 142.397 888.525 142.397C889.311 142.397 889.998 142.54 890.586 142.827L890.217 143.576C889.65 143.309 889.082 143.176 888.515 143.176ZM897.935 150H897.064V146.473H893.116V150H892.244V142.504H893.116V145.693H897.064V142.504H897.935V150ZM900.311 150V142.504H901.183V145.704H902.408C903.3 145.704 903.98 145.88 904.449 146.232C904.917 146.58 905.151 147.108 905.151 147.816C905.151 148.52 904.929 149.06 904.485 149.436C904.044 149.812 903.398 150 902.547 150H900.311ZM901.183 149.257H902.449C903.068 149.257 903.522 149.137 903.813 148.898C904.104 148.655 904.249 148.294 904.249 147.816C904.249 147.348 904.095 147.009 903.787 146.801C903.483 146.589 902.989 146.483 902.306 146.483H901.183V149.257ZM907.207 150H906.335V142.504H907.207V150ZM909.598 142.504H910.414V146.673C910.414 147.442 910.39 148.137 910.342 148.759H910.383L914.587 142.504H915.541V150H914.72V145.873C914.72 145.186 914.749 144.465 914.807 143.709H914.761L910.552 150H909.598V142.504ZM912.705 141.905C912.073 141.905 911.612 141.783 911.321 141.541C911.031 141.294 910.868 140.891 910.834 140.331H911.634C911.665 140.686 911.757 140.934 911.911 141.074C912.068 141.214 912.34 141.284 912.726 141.284C913.078 141.284 913.338 141.209 913.505 141.059C913.676 140.908 913.78 140.666 913.818 140.331H914.623C914.582 140.871 914.409 141.269 914.105 141.525C913.801 141.778 913.334 141.905 912.705 141.905ZM926.548 149.21H927.429V151.953H926.604V150H920.954V142.504H921.826V149.21H925.676V142.504H926.548V149.21ZM933.189 150H929.011V142.504H933.189V143.279H929.882V145.693H932.989V146.462H929.882V149.221H933.189V150ZM940.861 150H939.99V146.473H936.042V150H935.17V142.504H936.042V145.693H939.99V142.504H940.861V150ZM945.545 150H944.673V143.279H942.299V142.504H947.918V143.279H945.545V150ZM954.119 144.688C954.119 145.447 953.859 146.032 953.34 146.442C952.824 146.849 952.084 147.052 951.12 147.052H950.238V150H949.366V142.504H951.309C953.183 142.504 954.119 143.232 954.119 144.688ZM950.238 146.303H951.022C951.795 146.303 952.354 146.179 952.699 145.929C953.044 145.68 953.217 145.28 953.217 144.729C953.217 144.234 953.054 143.865 952.73 143.622C952.405 143.379 951.899 143.258 951.212 143.258H950.238V146.303Z" fill="#0B1331"/>
<path d="M982.929 150H981.873L978.407 146.201V150H977.535V142.504H978.407V146.134L981.786 142.504H982.785L979.468 146.145L982.929 150ZM988.991 150L988.058 147.616H985.054L984.131 150H983.249L986.212 142.474H986.946L989.894 150H988.991ZM987.786 146.832L986.915 144.509C986.802 144.215 986.686 143.854 986.566 143.427C986.491 143.755 986.383 144.116 986.243 144.509L985.361 146.832H987.786ZM996.571 150H995.7V143.279H993.264L993.105 144.509C992.897 146.146 992.712 147.344 992.552 148.103C992.394 148.858 992.186 149.385 991.926 149.682C991.666 149.979 991.321 150.125 990.891 150.118C990.638 150.118 990.41 150.075 990.209 149.99V149.257C990.393 149.345 990.586 149.39 990.788 149.39C990.969 149.39 991.126 149.316 991.26 149.169C991.396 149.019 991.516 148.761 991.619 148.395C991.724 148.026 991.856 147.329 992.013 146.303C992.174 145.275 992.35 144.008 992.541 142.504H996.571V150ZM1004.12 147.816C1004.12 148.51 1003.89 149.048 1003.42 149.431C1002.96 149.81 1002.3 150 1001.44 150H998.947V142.504H999.819V145.704H1001.31C1002.22 145.704 1002.92 145.885 1003.4 146.247C1003.88 146.606 1004.12 147.129 1004.12 147.816ZM999.819 149.246H1001.35C1002.6 149.246 1003.22 148.77 1003.22 147.816C1003.22 147.354 1003.06 147.016 1002.74 146.801C1002.42 146.582 1001.91 146.473 1001.2 146.473H999.819V149.246ZM1008.24 146.873L1006.28 150H1005.25L1007.35 146.724C1006.8 146.55 1006.4 146.286 1006.15 145.934C1005.9 145.579 1005.78 145.131 1005.78 144.591C1005.78 143.921 1006.01 143.407 1006.47 143.048C1006.94 142.686 1007.64 142.504 1008.58 142.504H1010.64V150H1009.77V146.873H1008.24ZM1009.77 143.258H1008.6C1007.98 143.258 1007.5 143.366 1007.18 143.581C1006.85 143.796 1006.69 144.147 1006.69 144.632C1006.69 145.627 1007.34 146.124 1008.63 146.124H1009.77V143.258ZM1018.71 150H1017.84V146.473H1013.89V150H1013.02V142.504H1013.89V145.693H1017.84V142.504H1018.71V150ZM1026.78 150H1025.91V146.473H1021.96V150H1021.09V142.504H1021.96V145.693H1025.91V142.504H1026.78V150ZM1029.15 150V142.504H1030.03V145.704H1031.25C1032.14 145.704 1032.82 145.88 1033.29 146.232C1033.76 146.58 1033.99 147.108 1033.99 147.816C1033.99 148.52 1033.77 149.06 1033.33 149.436C1032.89 149.812 1032.24 150 1031.39 150H1029.15ZM1030.03 149.257H1031.29C1031.91 149.257 1032.37 149.137 1032.66 148.898C1032.95 148.655 1033.09 148.294 1033.09 147.816C1033.09 147.348 1032.94 147.009 1032.63 146.801C1032.33 146.589 1031.83 146.483 1031.15 146.483H1030.03V149.257ZM1036.05 150H1035.18V142.504H1036.05V150ZM1042.61 150H1038.43V142.504H1042.61V143.279H1039.3V145.693H1042.41V146.462H1039.3V149.221H1042.61V150Z" fill="#0B1331"/>
<path d="M757.607 150L756.674 147.616H753.669L752.746 150H751.864L754.828 142.474H755.561L758.509 150H757.607ZM756.402 146.832L755.53 144.509C755.417 144.215 755.301 143.854 755.182 143.427C755.106 143.755 754.999 144.116 754.859 144.509L753.977 146.832H756.402ZM759.855 142.504H761.972C762.967 142.504 763.686 142.653 764.13 142.95C764.575 143.248 764.797 143.718 764.797 144.36C764.797 144.805 764.672 145.172 764.423 145.463C764.177 145.75 763.816 145.936 763.341 146.021V146.073C764.479 146.268 765.048 146.866 765.048 147.867C765.048 148.537 764.821 149.06 764.366 149.436C763.915 149.812 763.283 150 762.469 150H759.855V142.504ZM760.726 145.714H762.162C762.777 145.714 763.22 145.618 763.49 145.427C763.76 145.232 763.895 144.906 763.895 144.448C763.895 144.027 763.744 143.725 763.443 143.54C763.143 143.352 762.664 143.258 762.008 143.258H760.726V145.714ZM760.726 146.452V149.257H762.29C762.895 149.257 763.349 149.14 763.654 148.908C763.961 148.672 764.115 148.305 764.115 147.806C764.115 147.341 763.958 146.999 763.643 146.78C763.332 146.562 762.857 146.452 762.218 146.452H760.726ZM769.285 150H768.414V143.279H766.04V142.504H771.659V143.279H769.285V150ZM779.613 146.242C779.613 147.442 779.309 148.385 778.701 149.072C778.096 149.759 777.253 150.103 776.173 150.103C775.069 150.103 774.216 149.766 773.615 149.093C773.017 148.416 772.717 147.462 772.717 146.232C772.717 145.011 773.018 144.066 773.62 143.396C774.221 142.723 775.076 142.386 776.183 142.386C777.26 142.386 778.101 142.728 778.706 143.412C779.311 144.095 779.613 145.039 779.613 146.242ZM773.64 146.242C773.64 147.257 773.856 148.028 774.286 148.554C774.72 149.077 775.349 149.339 776.173 149.339C777.004 149.339 777.631 149.077 778.055 148.554C778.478 148.031 778.69 147.26 778.69 146.242C778.69 145.234 778.478 144.47 778.055 143.95C777.634 143.427 777.01 143.166 776.183 143.166C775.353 143.166 774.72 143.429 774.286 143.955C773.856 144.478 773.64 145.24 773.64 146.242ZM784.814 143.176C783.99 143.176 783.339 143.451 782.861 144.001C782.386 144.548 782.148 145.299 782.148 146.252C782.148 147.233 782.377 147.992 782.835 148.529C783.297 149.062 783.953 149.328 784.804 149.328C785.327 149.328 785.923 149.234 786.593 149.046V149.81C786.074 150.005 785.433 150.103 784.671 150.103C783.567 150.103 782.714 149.768 782.112 149.098C781.514 148.428 781.215 147.476 781.215 146.242C781.215 145.469 781.359 144.793 781.646 144.212C781.936 143.631 782.353 143.183 782.897 142.868C783.444 142.554 784.086 142.397 784.824 142.397C785.611 142.397 786.298 142.54 786.885 142.827L786.516 143.576C785.949 143.309 785.382 143.176 784.814 143.176ZM792.722 150H788.544V142.504H792.722V143.279H789.415V145.693H792.522V146.462H789.415V149.221H792.722V150ZM799.456 144.688C799.456 145.447 799.196 146.032 798.677 146.442C798.161 146.849 797.421 147.052 796.457 147.052H795.575V150H794.703V142.504H796.647C798.52 142.504 799.456 143.232 799.456 144.688ZM795.575 146.303H796.359C797.132 146.303 797.691 146.179 798.036 145.929C798.381 145.68 798.554 145.28 798.554 144.729C798.554 144.234 798.391 143.865 798.067 143.622C797.742 143.379 797.236 143.258 796.549 143.258H795.575V146.303ZM801.345 142.504H803.463C804.457 142.504 805.177 142.653 805.621 142.95C806.065 143.248 806.288 143.718 806.288 144.36C806.288 144.805 806.163 145.172 805.913 145.463C805.667 145.75 805.307 145.936 804.831 146.021V146.073C805.97 146.268 806.539 146.866 806.539 147.867C806.539 148.537 806.311 149.06 805.857 149.436C805.406 149.812 804.773 150 803.96 150H801.345V142.504ZM802.217 145.714H803.652C804.267 145.714 804.71 145.618 804.98 145.427C805.25 145.232 805.385 144.906 805.385 144.448C805.385 144.027 805.235 143.725 804.934 143.54C804.633 143.352 804.155 143.258 803.498 143.258H802.217V145.714ZM802.217 146.452V149.257H803.78C804.385 149.257 804.84 149.14 805.144 148.908C805.452 148.672 805.606 148.305 805.606 147.806C805.606 147.341 805.448 146.999 805.134 146.78C804.823 146.562 804.348 146.452 803.709 146.452H802.217ZM808.479 142.504H809.294V146.673C809.294 147.442 809.27 148.137 809.222 148.759H809.263L813.467 142.504H814.421V150H813.601V145.873C813.601 145.186 813.63 144.465 813.688 143.709H813.642L809.433 150H808.479V142.504ZM820.001 143.176C819.178 143.176 818.527 143.451 818.048 144.001C817.573 144.548 817.335 145.299 817.335 146.252C817.335 147.233 817.564 147.992 818.022 148.529C818.484 149.062 819.14 149.328 819.991 149.328C820.514 149.328 821.111 149.234 821.781 149.046V149.81C821.261 150.005 820.62 150.103 819.858 150.103C818.754 150.103 817.901 149.768 817.3 149.098C816.701 148.428 816.402 147.476 816.402 146.242C816.402 145.469 816.546 144.793 816.833 144.212C817.124 143.631 817.541 143.183 818.084 142.868C818.631 142.554 819.273 142.397 820.012 142.397C820.798 142.397 821.485 142.54 822.073 142.827L821.704 143.576C821.136 143.309 820.569 143.176 820.001 143.176Z" fill="#0B1331"/>
<path d="M528.657 150L526.114 143.355H526.073C526.121 143.882 526.145 144.507 526.145 145.232V150H525.34V142.504H526.652L529.026 148.687H529.067L531.461 142.504H532.763V150H531.892V145.17C531.892 144.617 531.916 144.015 531.964 143.366H531.923L529.359 150H528.657ZM535.611 150.103C535.232 150.103 534.898 150.051 534.611 149.949V149.098C534.929 149.245 535.252 149.318 535.58 149.318C535.956 149.318 536.257 149.233 536.483 149.062C536.712 148.887 536.939 148.563 537.165 148.088L534.247 142.504H535.211L537.426 146.765C537.512 146.932 537.578 147.096 537.626 147.257H537.667C537.763 146.97 537.829 146.789 537.867 146.714L539.708 142.504H540.63L538.236 147.867C537.949 148.506 537.689 148.971 537.457 149.262C537.228 149.552 536.968 149.766 536.678 149.903C536.39 150.036 536.035 150.103 535.611 150.103ZM544.011 146.145L541.063 142.504H542.037L544.955 146.134V142.504H545.796V146.134L548.718 142.504H549.692L546.739 146.134L549.784 150H548.779L545.796 146.201V150H544.955V146.201L541.976 150H540.956L544.011 146.145ZM559.894 150H559.022V146.473H555.075V150H554.203V142.504H555.075V145.693H559.022V142.504H559.894V150ZM566.982 150L566.049 147.616H563.044L562.121 150H561.24L564.203 142.474H564.936L567.884 150H566.982ZM565.777 146.832L564.905 144.509C564.793 144.215 564.676 143.854 564.557 143.427C564.481 143.755 564.374 144.116 564.234 144.509L563.352 146.832H565.777ZM577.512 150H576.64V146.903C576.131 147.084 575.707 147.209 575.369 147.278C575.03 147.343 574.68 147.375 574.318 147.375C573.61 147.375 573.065 147.213 572.682 146.888C572.303 146.563 572.113 146.095 572.113 145.483V142.504H572.985V145.381C572.985 145.794 573.092 146.1 573.308 146.298C573.527 146.497 573.88 146.596 574.369 146.596C574.701 146.596 575.017 146.572 575.318 146.524C575.622 146.473 576.063 146.353 576.64 146.165V142.504H577.512V150ZM584.6 150L583.666 147.616H580.662L579.739 150H578.857L581.821 142.474H582.554L585.502 150H584.6ZM583.395 146.832L582.523 144.509C582.41 144.215 582.294 143.854 582.175 143.427C582.099 143.755 581.992 144.116 581.852 144.509L580.97 146.832H583.395ZM590.057 143.176C589.233 143.176 588.582 143.451 588.104 144.001C587.628 144.548 587.391 145.299 587.391 146.252C587.391 147.233 587.62 147.992 588.078 148.529C588.539 149.062 589.196 149.328 590.047 149.328C590.57 149.328 591.166 149.234 591.836 149.046V149.81C591.316 150.005 590.676 150.103 589.913 150.103C588.809 150.103 587.957 149.768 587.355 149.098C586.757 148.428 586.458 147.476 586.458 146.242C586.458 145.469 586.601 144.793 586.888 144.212C587.179 143.631 587.596 143.183 588.139 142.868C588.686 142.554 589.329 142.397 590.067 142.397C590.853 142.397 591.54 142.54 592.128 142.827L591.759 143.576C591.192 143.309 590.624 143.176 590.057 143.176Z" fill="#0B1331"/>
<rect x="67.5" y="131.5" width="112.5" height="30" rx="3" fill="#D24B6C"/>
<path d="M115.879 149.25H114.075L111.357 145.451V149.25H109.768V141.754H111.357V145.384L114.044 141.754H115.736L113.003 145.354L115.879 149.25ZM121.726 149.25L121.183 147.466H118.45L117.907 149.25H116.194L118.84 141.724H120.783L123.439 149.25H121.726ZM120.803 146.133C120.301 144.516 120.017 143.602 119.952 143.39C119.891 143.178 119.846 143.01 119.819 142.887C119.706 143.325 119.383 144.407 118.85 146.133H120.803ZM127.594 149.25H126.004V143.077H123.969V141.754H129.629V143.077H127.594V149.25ZM135.686 149.25L135.143 147.466H132.41L131.867 149.25H130.154L132.8 141.724H134.743L137.399 149.25H135.686ZM134.763 146.133C134.261 144.516 133.977 143.602 133.912 143.39C133.851 143.178 133.806 143.01 133.779 142.887C133.666 143.325 133.343 144.407 132.81 146.133H134.763ZM144.594 149.25H143.01V143.077H141.174L141.092 143.764C140.88 145.511 140.692 146.738 140.528 147.445C140.368 148.149 140.132 148.645 139.821 148.932C139.51 149.219 139.089 149.359 138.56 149.353C138.273 149.353 138.02 149.315 137.801 149.24V147.937C137.999 148.006 138.185 148.04 138.36 148.04C138.541 148.04 138.684 147.958 138.79 147.794C138.896 147.626 138.995 147.319 139.088 146.871C139.183 146.42 139.308 145.683 139.462 144.661C139.619 143.636 139.753 142.667 139.862 141.754H144.594V149.25ZM153.604 145.492C153.604 146.733 153.297 147.686 152.682 148.353C152.066 149.019 151.184 149.353 150.036 149.353C148.888 149.353 148.006 149.019 147.39 148.353C146.775 147.686 146.468 146.729 146.468 145.482C146.468 144.234 146.775 143.282 147.39 142.626C148.009 141.966 148.894 141.636 150.046 141.636C151.198 141.636 152.078 141.968 152.687 142.631C153.298 143.294 153.604 144.248 153.604 145.492ZM148.134 145.492C148.134 146.329 148.293 146.96 148.611 147.384C148.929 147.808 149.404 148.02 150.036 148.02C151.304 148.02 151.938 147.177 151.938 145.492C151.938 143.803 151.307 142.959 150.046 142.959C149.414 142.959 148.937 143.173 148.616 143.6C148.295 144.024 148.134 144.655 148.134 145.492ZM160.21 141.754V143.067H157.062V149.25H155.473V141.754H160.21Z" fill="white"/>
<path d="M86.9948 142.072H100.402C100.599 142.072 100.789 141.974 100.928 141.8C101.068 141.625 101.147 141.388 101.147 141.142C101.147 140.895 101.068 140.658 100.928 140.484C100.789 140.309 100.599 140.211 100.402 140.211H86.9948C86.7973 140.211 86.6078 140.309 86.4682 140.484C86.3285 140.658 86.25 140.895 86.25 141.142C86.25 141.388 86.3285 141.625 86.4682 141.8C86.6078 141.974 86.7973 142.072 86.9948 142.072ZM100.402 149.518H86.9948C86.7973 149.518 86.6078 149.616 86.4682 149.791C86.3285 149.965 86.25 150.202 86.25 150.449C86.25 150.696 86.3285 150.932 86.4682 151.107C86.6078 151.281 86.7973 151.379 86.9948 151.379H100.402C100.599 151.379 100.789 151.281 100.928 151.107C101.068 150.932 101.147 150.696 101.147 150.449C101.147 150.202 101.068 149.965 100.928 149.791C100.789 149.616 100.599 149.518 100.402 149.518ZM100.402 144.864H86.9948C86.7973 144.864 86.6078 144.963 86.4682 145.137C86.3285 145.312 86.25 145.548 86.25 145.795C86.25 146.042 86.3285 146.279 86.4682 146.453C86.6078 146.628 86.7973 146.726 86.9948 146.726H100.402C100.599 146.726 100.789 146.628 100.928 146.453C101.068 146.279 101.147 146.042 101.147 145.795C101.147 145.548 101.068 145.312 100.928 145.137C100.789 144.963 100.599 144.864 100.402 144.864Z" fill="white"/>
<path d="M1014.77 108.75H1014.02L1011.54 106.036V108.75H1010.92V103.396H1011.54V105.989L1013.96 103.396H1014.67L1012.3 105.996L1014.77 108.75ZM1019.11 106.74C1019.11 107.394 1018.95 107.905 1018.62 108.274C1018.29 108.64 1017.83 108.823 1017.25 108.823C1016.89 108.823 1016.57 108.739 1016.29 108.571C1016.02 108.402 1015.8 108.16 1015.65 107.845C1015.5 107.531 1015.42 107.162 1015.42 106.74C1015.42 106.085 1015.59 105.576 1015.91 105.212C1016.24 104.846 1016.69 104.663 1017.28 104.663C1017.84 104.663 1018.28 104.85 1018.61 105.223C1018.94 105.597 1019.11 106.102 1019.11 106.74ZM1016.05 106.74C1016.05 107.252 1016.15 107.643 1016.36 107.911C1016.56 108.18 1016.87 108.314 1017.26 108.314C1017.66 108.314 1017.96 108.181 1018.17 107.915C1018.38 107.646 1018.48 107.255 1018.48 106.74C1018.48 106.229 1018.38 105.842 1018.17 105.579C1017.96 105.312 1017.66 105.179 1017.26 105.179C1016.86 105.179 1016.56 105.31 1016.36 105.571C1016.15 105.833 1016.05 106.222 1016.05 106.74ZM1022.27 108.823C1022.01 108.823 1021.77 108.776 1021.55 108.68C1021.34 108.583 1021.16 108.434 1021.01 108.234H1020.97C1021 108.468 1021.01 108.69 1021.01 108.9V110.552H1020.4V104.736H1020.9L1020.98 105.286H1021.01C1021.17 105.066 1021.35 104.907 1021.56 104.81C1021.77 104.712 1022 104.663 1022.27 104.663C1022.8 104.663 1023.21 104.845 1023.5 105.209C1023.79 105.573 1023.94 106.083 1023.94 106.74C1023.94 107.399 1023.79 107.911 1023.49 108.278C1023.2 108.641 1022.79 108.823 1022.27 108.823ZM1022.18 105.179C1021.77 105.179 1021.48 105.293 1021.29 105.52C1021.11 105.747 1021.02 106.108 1021.01 106.604V106.74C1021.01 107.303 1021.11 107.708 1021.29 107.952C1021.48 108.193 1021.78 108.314 1022.2 108.314C1022.55 108.314 1022.82 108.174 1023.01 107.893C1023.21 107.612 1023.31 107.225 1023.31 106.732C1023.31 106.232 1023.21 105.848 1023.01 105.582C1022.82 105.314 1022.54 105.179 1022.18 105.179ZM1025.99 106.403C1026.75 106.403 1027.13 106.193 1027.13 105.773C1027.13 105.377 1026.83 105.179 1026.21 105.179C1026.02 105.179 1025.85 105.197 1025.7 105.231C1025.54 105.265 1025.34 105.333 1025.09 105.436L1024.88 104.941C1025.29 104.756 1025.75 104.663 1026.24 104.663C1026.7 104.663 1027.06 104.758 1027.33 104.949C1027.59 105.137 1027.73 105.394 1027.73 105.721C1027.73 106.171 1027.48 106.465 1026.98 106.604V106.633C1027.28 106.724 1027.51 106.853 1027.65 107.021C1027.79 107.187 1027.86 107.396 1027.86 107.648C1027.86 108.019 1027.71 108.308 1027.41 108.516C1027.11 108.721 1026.7 108.823 1026.17 108.823C1025.59 108.823 1025.15 108.737 1024.83 108.563V108.007C1025.28 108.217 1025.73 108.322 1026.19 108.322C1026.54 108.322 1026.8 108.262 1026.98 108.142C1027.16 108.02 1027.25 107.845 1027.25 107.618C1027.25 107.152 1026.87 106.919 1026.11 106.919H1025.56V106.403H1025.99ZM1029.65 104.736V107.281L1029.62 107.948L1029.61 108.157L1031.79 104.736H1032.54V108.75H1031.98V106.296L1031.99 105.813L1032.01 105.337L1029.84 108.75H1029.08V104.736H1029.65ZM1034.67 104.736V106.417H1036.91V104.736H1037.52V108.75H1036.91V106.941H1034.67V108.75H1034.06V104.736H1034.67ZM1041.5 108.75L1041.38 108.179H1041.35C1041.15 108.43 1040.95 108.601 1040.75 108.691C1040.56 108.779 1040.31 108.823 1040.01 108.823C1039.61 108.823 1039.3 108.721 1039.07 108.516C1038.85 108.311 1038.74 108.019 1038.74 107.64C1038.74 106.83 1039.38 106.405 1040.68 106.366L1041.36 106.344V106.095C1041.36 105.78 1041.29 105.548 1041.16 105.399C1041.02 105.248 1040.81 105.172 1040.51 105.172C1040.17 105.172 1039.8 105.275 1039.37 105.48L1039.19 105.015C1039.38 104.907 1039.6 104.823 1039.83 104.762C1040.07 104.701 1040.31 104.67 1040.54 104.67C1041.02 104.67 1041.38 104.777 1041.61 104.989C1041.84 105.201 1041.95 105.542 1041.95 106.011V108.75H1041.5ZM1040.13 108.322C1040.51 108.322 1040.81 108.218 1041.02 108.01C1041.24 107.803 1041.35 107.512 1041.35 107.139V106.776L1040.74 106.802C1040.26 106.819 1039.91 106.895 1039.69 107.029C1039.48 107.161 1039.37 107.367 1039.37 107.648C1039.37 107.867 1039.44 108.035 1039.57 108.149C1039.71 108.264 1039.89 108.322 1040.13 108.322Z" fill="#0B1331"/>
<path d="M942.766 103.649C942.178 103.649 941.713 103.846 941.371 104.239C941.032 104.629 940.862 105.165 940.862 105.846C940.862 106.547 941.026 107.089 941.353 107.472C941.682 107.853 942.151 108.044 942.759 108.044C943.132 108.044 943.558 107.977 944.037 107.842V108.388C943.666 108.527 943.208 108.597 942.664 108.597C941.875 108.597 941.266 108.357 940.836 107.879C940.409 107.4 940.195 106.72 940.195 105.839C940.195 105.287 940.298 104.804 940.503 104.389C940.711 103.974 941.008 103.654 941.397 103.429C941.787 103.205 942.246 103.093 942.774 103.093C943.335 103.093 943.826 103.195 944.246 103.4L943.982 103.935C943.577 103.744 943.172 103.649 942.766 103.649ZM948.803 106.513C948.803 107.167 948.638 107.679 948.309 108.047C947.979 108.414 947.524 108.597 946.943 108.597C946.584 108.597 946.265 108.512 945.987 108.344C945.709 108.176 945.494 107.934 945.342 107.619C945.191 107.304 945.115 106.935 945.115 106.513C945.115 105.859 945.279 105.35 945.606 104.986C945.933 104.62 946.387 104.437 946.968 104.437C947.53 104.437 947.975 104.623 948.305 104.997C948.637 105.37 948.803 105.876 948.803 106.513ZM945.745 106.513C945.745 107.026 945.848 107.416 946.053 107.685C946.258 107.953 946.559 108.088 946.957 108.088C947.355 108.088 947.657 107.955 947.862 107.688C948.069 107.42 948.173 107.028 948.173 106.513C948.173 106.003 948.069 105.616 947.862 105.352C947.657 105.086 947.353 104.953 946.95 104.953C946.552 104.953 946.252 105.083 946.049 105.345C945.846 105.606 945.745 105.995 945.745 106.513ZM951.064 106.469L949.669 104.51H950.361L951.419 106.048L952.474 104.51H953.159L951.764 106.469L953.232 108.523H952.544L951.419 106.897L950.284 108.523H949.596L951.064 106.469ZM956.123 108.597C955.862 108.597 955.623 108.549 955.405 108.454C955.191 108.356 955.01 108.207 954.863 108.007H954.819C954.849 108.241 954.863 108.464 954.863 108.674V110.325H954.255V104.51H954.75L954.834 105.059H954.863C955.02 104.839 955.202 104.681 955.409 104.583C955.617 104.485 955.855 104.437 956.123 104.437C956.655 104.437 957.066 104.618 957.354 104.982C957.644 105.346 957.789 105.856 957.789 106.513C957.789 107.172 957.642 107.685 957.346 108.051C957.053 108.415 956.646 108.597 956.123 108.597ZM956.035 104.953C955.625 104.953 955.328 105.066 955.145 105.293C954.962 105.521 954.868 105.882 954.863 106.377V106.513C954.863 107.077 954.957 107.481 955.145 107.725C955.333 107.967 955.635 108.088 956.05 108.088C956.397 108.088 956.668 107.947 956.863 107.667C957.061 107.386 957.16 106.999 957.16 106.506C957.16 106.005 957.061 105.622 956.863 105.356C956.668 105.087 956.392 104.953 956.035 104.953ZM961.548 108.523L961.427 107.952H961.398C961.198 108.204 960.998 108.375 960.798 108.465C960.6 108.553 960.352 108.597 960.054 108.597C959.656 108.597 959.344 108.494 959.117 108.289C958.892 108.084 958.78 107.792 958.78 107.414C958.78 106.603 959.428 106.178 960.724 106.139L961.406 106.117V105.868C961.406 105.553 961.337 105.322 961.2 105.173C961.066 105.021 960.85 104.946 960.552 104.946C960.218 104.946 959.839 105.048 959.417 105.253L959.23 104.788C959.428 104.681 959.644 104.596 959.878 104.535C960.115 104.474 960.352 104.444 960.589 104.444C961.067 104.444 961.421 104.55 961.651 104.762C961.883 104.975 961.999 105.315 961.999 105.784V108.523H961.548ZM960.175 108.095C960.553 108.095 960.85 107.991 961.065 107.784C961.282 107.576 961.391 107.286 961.391 106.912V106.55L960.783 106.575C960.3 106.592 959.95 106.668 959.736 106.802C959.523 106.934 959.417 107.14 959.417 107.421C959.417 107.641 959.483 107.808 959.615 107.923C959.749 108.038 959.936 108.095 960.175 108.095ZM964.088 104.51V106.191H966.336V104.51H966.944V108.523H966.336V106.714H964.088V108.523H963.48V104.51H964.088ZM970.154 108.597C969.561 108.597 969.092 108.416 968.748 108.055C968.406 107.693 968.235 107.192 968.235 106.55C968.235 105.903 968.394 105.389 968.711 105.008C969.031 104.627 969.459 104.437 969.996 104.437C970.499 104.437 970.897 104.603 971.19 104.935C971.483 105.264 971.63 105.7 971.63 106.242V106.626H968.865C968.877 107.098 968.995 107.455 969.22 107.699C969.447 107.944 969.766 108.066 970.176 108.066C970.608 108.066 971.035 107.975 971.458 107.795V108.337C971.243 108.429 971.039 108.495 970.846 108.534C970.656 108.576 970.425 108.597 970.154 108.597ZM969.989 104.946C969.667 104.946 969.409 105.051 969.216 105.26C969.026 105.47 968.914 105.761 968.879 106.132H970.978C970.978 105.749 970.892 105.456 970.721 105.253C970.551 105.048 970.306 104.946 969.989 104.946ZM973.503 104.51V106.191H975.751V104.51H976.359V108.523H975.751V106.714H973.503V108.523H972.895V104.51H973.503ZM981.338 106.513C981.338 107.167 981.173 107.679 980.843 108.047C980.514 108.414 980.058 108.597 979.477 108.597C979.118 108.597 978.8 108.512 978.521 108.344C978.243 108.176 978.028 107.934 977.877 107.619C977.725 107.304 977.65 106.935 977.65 106.513C977.65 105.859 977.813 105.35 978.14 104.986C978.468 104.62 978.922 104.437 979.503 104.437C980.064 104.437 980.51 104.623 980.839 104.997C981.171 105.37 981.338 105.876 981.338 106.513ZM978.28 106.513C978.28 107.026 978.382 107.416 978.587 107.685C978.792 107.953 979.094 108.088 979.492 108.088C979.89 108.088 980.191 107.955 980.396 107.688C980.604 107.42 980.708 107.028 980.708 106.513C980.708 106.003 980.604 105.616 980.396 105.352C980.191 105.086 979.887 104.953 979.484 104.953C979.087 104.953 978.786 105.083 978.584 105.345C978.381 105.606 978.28 105.995 978.28 106.513Z" fill="#0B1331"/>
<path d="M955.088 93.1812L960.302 98.0796C960.482 98.2483 960.572 98.3327 960.678 98.3535C960.725 98.3628 960.775 98.3628 960.822 98.3535C960.928 98.3327 961.018 98.2483 961.198 98.0796L966.412 93.1812C967.879 91.8029 968.057 89.535 966.823 87.9446L966.591 87.6455C965.115 85.7429 962.152 86.062 961.115 88.2352C960.968 88.5422 960.532 88.5422 960.385 88.2352C959.348 86.062 956.385 85.7429 954.909 87.6455L954.677 87.9446C953.443 89.535 953.621 91.8029 955.088 93.1812Z" stroke="#0B1331" stroke-width="1.5"/>
<path d="M885.835 108.75H885.213V103.949H882.462V108.75H881.84V103.396H885.835V108.75ZM889.312 108.823C889.051 108.823 888.812 108.776 888.594 108.68C888.38 108.583 888.199 108.434 888.052 108.234H888.008C888.038 108.468 888.052 108.69 888.052 108.9V110.552H887.445V104.736H887.939L888.023 105.286H888.052C888.209 105.066 888.391 104.907 888.598 104.81C888.806 104.712 889.044 104.663 889.312 104.663C889.844 104.663 890.255 104.845 890.543 105.209C890.833 105.573 890.978 106.083 890.978 106.74C890.978 107.399 890.831 107.911 890.535 108.278C890.242 108.641 889.835 108.823 889.312 108.823ZM889.224 105.179C888.814 105.179 888.518 105.293 888.334 105.52C888.151 105.747 888.057 106.108 888.052 106.604V106.74C888.052 107.303 888.146 107.708 888.334 107.952C888.522 108.193 888.824 108.314 889.239 108.314C889.586 108.314 889.857 108.174 890.052 107.893C890.25 107.612 890.349 107.225 890.349 106.732C890.349 106.232 890.25 105.848 890.052 105.582C889.857 105.314 889.581 105.179 889.224 105.179ZM895.733 106.74C895.733 107.394 895.569 107.905 895.239 108.274C894.91 108.64 894.454 108.823 893.873 108.823C893.514 108.823 893.196 108.739 892.917 108.571C892.639 108.402 892.424 108.16 892.273 107.845C892.121 107.531 892.046 107.162 892.046 106.74C892.046 106.085 892.209 105.576 892.536 105.212C892.864 104.846 893.318 104.663 893.899 104.663C894.46 104.663 894.906 104.85 895.235 105.223C895.567 105.597 895.733 106.102 895.733 106.74ZM892.676 106.74C892.676 107.252 892.778 107.643 892.983 107.911C893.188 108.18 893.49 108.314 893.888 108.314C894.286 108.314 894.587 108.181 894.792 107.915C895 107.646 895.104 107.255 895.104 106.74C895.104 106.229 895 105.842 894.792 105.579C894.587 105.312 894.283 105.179 893.88 105.179C893.483 105.179 893.182 105.31 892.98 105.571C892.777 105.833 892.676 106.222 892.676 106.74ZM901.327 106.74C901.327 107.347 901.154 107.832 900.807 108.193C900.463 108.552 899.981 108.757 899.361 108.809V110.552H898.76V108.809C898.155 108.762 897.676 108.555 897.324 108.186C896.973 107.817 896.797 107.335 896.797 106.74C896.797 106.132 896.972 105.648 897.321 105.289C897.672 104.93 898.159 104.727 898.782 104.678V103.052H899.361V104.678C899.973 104.734 900.454 104.945 900.803 105.311C901.153 105.677 901.327 106.154 901.327 106.74ZM897.434 106.74C897.434 107.208 897.542 107.576 897.757 107.842C897.971 108.108 898.313 108.263 898.782 108.307V105.187C898.33 105.228 897.992 105.376 897.768 105.63C897.545 105.881 897.434 106.251 897.434 106.74ZM900.697 106.74C900.697 105.804 900.252 105.289 899.361 105.194V108.307C899.824 108.26 900.163 108.104 900.375 107.838C900.59 107.572 900.697 107.206 900.697 106.74ZM903.185 104.736V107.281L903.16 107.948L903.149 108.157L905.32 104.736H906.079V108.75H905.511V106.296L905.522 105.813L905.54 105.337L903.372 108.75H902.614V104.736H903.185ZM910.585 108.75H909.969V105.256H908.764C908.699 106.125 908.607 106.815 908.49 107.325C908.373 107.836 908.22 108.209 908.032 108.446C907.846 108.683 907.61 108.801 907.322 108.801C907.19 108.801 907.085 108.787 907.007 108.757V108.307C907.06 108.322 907.121 108.329 907.19 108.329C907.471 108.329 907.694 108.032 907.86 107.439C908.026 106.846 908.152 105.945 908.237 104.736H910.585V108.75ZM912.71 106.395H913.948C914.973 106.395 915.486 106.772 915.486 107.527C915.486 107.922 915.352 108.225 915.083 108.435C914.817 108.645 914.426 108.75 913.911 108.75H912.102V104.736H912.71V106.395ZM912.71 106.919V108.241H913.882C914.204 108.241 914.451 108.185 914.622 108.073C914.793 107.96 914.878 107.791 914.878 107.563C914.878 107.341 914.799 107.179 914.64 107.076C914.484 106.971 914.225 106.919 913.864 106.919H912.71Z" fill="#0B1331"/>
<path d="M1023.75 88L1023.75 84.625C1023.75 83.1753 1024.93 82 1026.38 82V82C1027.82 82 1029 83.1753 1029 84.625L1029 88" stroke="#0B1331" stroke-width="1.5" stroke-linecap="round"/>
<path d="M1020.75 89.375C1020.75 87.9608 1020.75 87.2537 1021.19 86.8143C1021.63 86.375 1022.34 86.375 1023.75 86.375H1029C1030.41 86.375 1031.12 86.375 1031.56 86.8143C1032 87.2537 1032 87.9608 1032 89.375V92.125C1032 94.5906 1032 95.8234 1031.32 96.6532C1031.19 96.8051 1031.06 96.9444 1030.9 97.069C1030.07 97.75 1028.84 97.75 1026.38 97.75V97.75C1023.91 97.75 1022.68 97.75 1021.85 97.069C1021.69 96.9444 1021.56 96.8051 1021.43 96.6532C1020.75 95.8234 1020.75 94.5906 1020.75 92.125V89.375Z" stroke="#0B1331" stroke-width="1.5"/>
<circle cx="906.375" cy="87.625" r="4.875" fill="#D24B6C"/>
<path d="M905.927 87.1135C905.927 87.3511 905.858 87.5493 905.719 87.7083C905.581 87.8655 905.386 87.9714 905.135 88.0261V88.0466C905.436 88.0842 905.661 88.1782 905.812 88.3286C905.962 88.4773 906.037 88.6755 906.037 88.9233C906.037 89.2839 905.91 89.5625 905.655 89.759C905.401 89.9539 905.038 90.0513 904.568 90.0513C904.153 90.0513 903.803 89.9838 903.517 89.8488V89.313C903.676 89.3916 903.845 89.4523 904.022 89.495C904.2 89.5377 904.371 89.5591 904.535 89.5591C904.826 89.5591 905.043 89.5052 905.186 89.3976C905.33 89.2899 905.402 89.1233 905.402 88.8977C905.402 88.6978 905.322 88.5508 905.163 88.4568C905.004 88.3628 904.755 88.3158 904.415 88.3158H904.089V87.8262H904.42C905.018 87.8262 905.317 87.6194 905.317 87.2058C905.317 87.0452 905.265 86.9213 905.161 86.8341C905.056 86.7469 904.903 86.7034 904.699 86.7034C904.557 86.7034 904.421 86.7239 904.289 86.7649C904.157 86.8042 904.002 86.882 903.822 86.9982L903.528 86.5778C903.871 86.3248 904.27 86.1984 904.725 86.1984C905.103 86.1984 905.397 86.2795 905.609 86.4419C905.821 86.6042 905.927 86.8281 905.927 87.1135ZM907.956 87.6595C908.334 87.6595 908.633 87.7595 908.853 87.9595C909.074 88.1594 909.184 88.432 909.184 88.7772C909.184 89.1771 909.058 89.4899 908.807 89.7155C908.558 89.9393 908.202 90.0513 907.741 90.0513C907.322 90.0513 906.993 89.9838 906.754 89.8488V89.3027C906.892 89.3813 907.051 89.442 907.23 89.4847C907.41 89.5275 907.577 89.5488 907.73 89.5488C908.002 89.5488 908.209 89.4882 908.351 89.3668C908.493 89.2455 908.563 89.0677 908.563 88.8336C908.563 88.3859 908.278 88.162 907.707 88.162C907.627 88.162 907.528 88.1705 907.41 88.1876C907.292 88.203 907.189 88.2209 907.1 88.2415L906.831 88.0825L906.974 86.2522H908.922V86.788H907.505L907.42 87.7159C907.48 87.7057 907.553 87.6937 907.638 87.6801C907.725 87.6664 907.831 87.6595 907.956 87.6595Z" fill="white"/>
<circle cx="1033.88" cy="87.625" r="4.875" fill="#D24B6C"/>
<path d="M1033.88 87.6595C1034.26 87.6595 1034.55 87.7595 1034.77 87.9595C1035 88.1594 1035.11 88.432 1035.11 88.7772C1035.11 89.1771 1034.98 89.4899 1034.73 89.7155C1034.48 89.9393 1034.12 90.0513 1033.66 90.0513C1033.24 90.0513 1032.91 89.9838 1032.68 89.8488V89.3027C1032.81 89.3813 1032.97 89.442 1033.15 89.4847C1033.33 89.5275 1033.5 89.5488 1033.65 89.5488C1033.92 89.5488 1034.13 89.4882 1034.27 89.3668C1034.41 89.2455 1034.49 89.0677 1034.49 88.8336C1034.49 88.3859 1034.2 88.162 1033.63 88.162C1033.55 88.162 1033.45 88.1705 1033.33 88.1876C1033.21 88.203 1033.11 88.2209 1033.02 88.2415L1032.75 88.0825L1032.9 86.2522H1034.84V86.788H1033.43L1033.34 87.7159C1033.4 87.7057 1033.47 87.6937 1033.56 87.6801C1033.65 87.6664 1033.75 87.6595 1033.88 87.6595Z" fill="white"/>
<g clip-path="url(#clip1)">
<path d="M1077.64 126.296L1045.8 96.5708C1045.23 96.0397 1044.42 95.8629 1043.69 96.1094C1042.95 96.3549 1042.41 96.9845 1042.27 97.7507L1034.72 140.647C1034.57 141.495 1034.95 142.346 1035.67 142.805C1036.4 143.264 1037.33 143.236 1038.03 142.739L1048.52 135.274L1056.77 157.554C1057.14 158.661 1058.34 159.261 1059.45 158.891L1070.3 155.26C1071.41 154.89 1072.01 153.689 1071.64 152.58L1063.39 130.304L1076.25 129.959C1077.11 129.936 1077.87 129.397 1078.17 128.595C1078.48 127.789 1078.27 126.881 1077.64 126.296ZM1060.42 126.147C1059.74 126.166 1059.12 126.497 1058.74 127.05C1058.35 127.6 1058.25 128.299 1058.46 128.934L1066.95 151.916L1060.12 154.202L1051.63 131.222C1051.41 130.584 1050.91 130.085 1050.27 129.88C1049.63 129.672 1048.94 129.777 1048.39 130.168L1039.79 136.291L1045.77 102.329L1070.97 125.864L1060.42 126.147Z" fill="#3657C8"/>
</g>
<rect x="471" y="59" width="256" height="73" fill="white"/>
<path fill-rule="evenodd" clip-rule="evenodd" d="M598.955 68.0128C597.208 68.0113 595.481 68.4005 593.903 69.1519C592.325 69.9034 590.935 70.9982 589.834 72.3561C588.309 70.4691 586.237 69.1015 583.902 68.4418C581.567 67.7821 579.085 67.8628 576.798 68.6728C574.511 69.4828 572.532 70.9822 571.133 72.9643C569.734 74.9464 568.984 77.3137 568.986 79.7398V98.8506C568.986 100.233 569.535 101.559 570.513 102.536C571.49 103.513 572.816 104.063 574.198 104.063V79.7398C574.198 78.0119 574.885 76.3548 576.107 75.133C577.328 73.9112 578.985 73.2248 580.713 73.2248C582.441 73.2248 584.098 73.9112 585.32 75.133C586.542 76.3548 587.228 78.0119 587.228 79.7398V94.9416C587.228 95.6327 587.503 96.2956 587.992 96.7843C588.48 97.273 589.143 97.5476 589.834 97.5476C590.526 97.5476 591.188 97.273 591.677 96.7843C592.166 96.2956 592.44 95.6327 592.44 94.9416V79.7398C592.44 78.0119 593.127 76.3548 594.349 75.133C595.57 73.9112 597.228 73.2248 598.955 73.2248C600.683 73.2248 602.34 73.9112 603.562 75.133C604.784 76.3548 605.47 78.0119 605.47 79.7398V104.063C606.853 104.063 608.178 103.513 609.156 102.536C610.133 101.559 610.682 100.233 610.682 98.8506V79.7398C610.682 76.6296 609.447 73.6468 607.248 71.4476C605.048 69.2483 602.066 68.0128 598.955 68.0128Z" fill="#1955A0"/>
<path fill-rule="evenodd" clip-rule="evenodd" d="M596.349 76.6992V94.0726C596.349 95.8005 595.663 97.4576 594.441 98.6794C593.219 99.9012 591.562 100.588 589.834 100.588C588.107 100.588 586.449 99.9012 585.228 98.6794C584.006 97.4576 583.319 95.8005 583.319 94.0726V76.6992C581.937 76.6992 580.611 77.2483 579.634 78.2258C578.657 79.2032 578.107 80.5289 578.107 81.9112V94.0726C578.107 97.1828 579.343 100.166 581.542 102.365C583.741 104.564 586.724 105.8 589.834 105.8C592.945 105.8 595.927 104.564 598.127 102.365C600.326 100.166 601.562 97.1828 601.562 94.0726V81.9112C601.562 80.5289 601.012 79.2032 600.035 78.2258C599.058 77.2483 597.732 76.6992 596.349 76.6992Z" fill="#E61D4D"/>
<path d="M543.116 112.155V116.485C543.145 116.887 543.091 117.29 542.956 117.669C542.821 118.048 542.608 118.395 542.331 118.687C541.693 119.209 540.879 119.467 540.057 119.409C539.235 119.464 538.423 119.206 537.783 118.687C537.51 118.393 537.3 118.046 537.166 117.667C537.033 117.288 536.979 116.886 537.008 116.485V112.155H538.469V116.404C538.432 116.877 538.567 117.348 538.848 117.73C539.175 118.01 539.591 118.164 540.021 118.164C540.451 118.164 540.867 118.01 541.194 117.73C541.475 117.348 541.61 116.877 541.573 116.404V112.137L543.116 112.155Z" fill="#1955A0"/>
<path d="M552.381 112.156V119.302H550.667L548.168 115.097L547.554 113.934H547.545L547.581 115.17V119.302H546.246V112.156H547.942L550.441 116.343L551.064 117.524H551.082L551.037 116.288V112.156H552.381Z" fill="#1955A0"/>
<path d="M557.154 112.156H555.656V119.302H557.154V112.156Z" fill="#1955A0"/>
<path d="M566.06 112.156V113.356H563.669V119.302H562.18V113.356H559.771V112.156H566.06Z" fill="#1955A0"/>
<path d="M568.693 119.302V112.156H574.053V113.356H570.182V115.134H573.231V116.279H570.182V118.102H574.206V119.302H568.693Z" fill="#1955A0"/>
<path d="M582.308 113.083C581.959 112.764 581.549 112.52 581.102 112.365C580.655 112.209 580.182 112.147 579.71 112.181H576.949V119.326H579.71C580.182 119.36 580.655 119.298 581.102 119.143C581.549 118.988 581.959 118.743 582.308 118.424C582.904 117.672 583.228 116.74 583.228 115.781C583.228 114.821 582.904 113.89 582.308 113.137V113.083ZM581.163 117.504C580.971 117.714 580.734 117.877 580.47 117.982C580.206 118.086 579.921 118.13 579.638 118.108H578.447V113.345H579.638C579.922 113.325 580.206 113.37 580.471 113.477C580.735 113.583 580.971 113.747 581.163 113.958C581.547 114.478 581.732 115.118 581.686 115.763C581.717 116.386 581.533 117.001 581.163 117.504Z" fill="#1955A0"/>
<path d="M598.629 112.156V119.302H597.285V115.576L597.357 113.492H597.33L595.354 119.302H594.127L592.161 113.492H592.133L592.215 115.576V119.302H590.861V112.156H593.027L594.308 116.054L594.768 117.669H594.786L595.255 116.063L596.527 112.156H598.629Z" fill="#1955A0"/>
<path d="M605.486 112.156H603.682L601.074 119.302H602.599L603.185 117.561H605.892L606.488 119.302H608.039L605.486 112.156ZM603.573 116.451L604.268 114.421L604.566 113.356L604.891 114.439L605.558 116.451H603.573Z" fill="#1955A0"/>
<path d="M614.812 116.334C615.26 116.228 615.656 115.967 615.93 115.597C616.205 115.228 616.339 114.772 616.31 114.313C616.322 114.015 616.264 113.718 616.142 113.445C616.02 113.173 615.837 112.933 615.606 112.743C615.065 112.327 614.393 112.119 613.711 112.157H610.562V119.302H612.033V116.596H613.35L615.028 119.302H616.707L614.812 116.334ZM613.54 115.432H612.033V113.357H613.54C614.37 113.357 614.785 113.699 614.785 114.394C614.785 115.089 614.37 115.423 613.54 115.423V115.432Z" fill="#1955A0"/>
<path d="M620.823 112.156V115.549L623.764 112.156H625.496L622.925 115.07L625.577 119.302H623.872L621.842 116.036L620.823 117.191V119.302H619.334V112.156H620.823Z" fill="#1955A0"/>
<path d="M628.086 119.302V112.156H633.445V113.356H629.584V115.134H632.624V116.279H629.584V118.102H633.598V119.302H628.086Z" fill="#1955A0"/>
<path d="M641.999 112.156V113.356H639.609V119.302H638.111V113.356H635.711V112.156H641.999Z" fill="#1955A0"/>
</g>
<defs>
<filter id="filter0_d" x="0" y="0.5" width="1110" height="206.25" filterUnits="userSpaceOnUse" color-interpolation-filters="sRGB">
<feFlood flood-opacity="0" result="BackgroundImageFix"/>
<feColorMatrix in="SourceAlpha" type="matrix" values="0 0 0 0 0 0 0 0 0 0 0 0 0 0 0 0 0 0 127 0" result="hardAlpha"/>
<feOffset dy="4"/>
<feGaussianBlur stdDeviation="7.5"/>
<feColorMatrix type="matrix" values="0 0 0 0 0.423529 0 0 0 0 0.423529 0 0 0 0 0.423529 0 0 0 0.25 0"/>
<feBlend mode="normal" in2="BackgroundImageFix" result="effect1_dropShadow"/>
<feBlend mode="normal" in="SourceGraphic" in2="effect1_dropShadow" result="shape"/>
</filter>
<clipPath id="clip0">
<rect width="1080" height="36.75" fill="white" transform="translate(15 13.75)"/>
</clipPath>
<clipPath id="clip1">
<rect width="63.0002" height="63.0001" fill="white" transform="translate(1025 96)"/>
</clipPath>
</defs>
</svg>
