<svg width="126" height="75" viewBox="0 0 126 75" fill="none" xmlns="http://www.w3.org/2000/svg">
<g clip-path="url(#clip0)">
<path d="M124.243 37.7096C124.249 58.0996 107.724 74.6321 87.3342 74.6375C66.9437 74.6425 50.4117 58.1183 50.4063 37.7283C50.4063 37.7217 50.4063 37.7162 50.4063 37.7096C50.4008 17.32 66.9258 0.786668 87.315 0.781251C107.705 0.775835 124.238 17.3008 124.243 37.6908C124.243 37.6971 124.243 37.7029 124.243 37.7096Z" fill="#FF9900"/>
<path d="M37.5636 0.789248C17.2945 0.917998 0.882812 17.4084 0.882812 37.708C0.882812 58.0867 17.4224 74.6263 37.8016 74.6263C47.3661 74.6263 56.0845 70.9813 62.6449 65.0072C62.6445 65.0072 62.6436 65.0063 62.642 65.0055H62.6499C63.9932 63.7813 65.2461 62.4605 66.3978 61.0522H58.8341C57.8241 59.8322 56.9061 58.5609 56.0816 57.2492H69.1266C69.9199 55.9797 70.6382 54.6613 71.2757 53.2959H53.9278C53.3366 52.0284 52.8232 50.7322 52.3849 49.4172H72.8203C74.052 45.7372 74.7203 41.8001 74.7203 37.7076C74.7203 34.9942 74.4261 32.3488 73.8695 29.8017H51.3011C51.5807 28.4909 51.9336 27.1959 52.3545 25.9234H72.7974C72.3403 24.5692 71.8095 23.2497 71.2057 21.9705H53.9257C54.5491 20.6388 55.2553 19.3434 56.0441 18.0926H69.0795C68.212 16.7105 67.252 15.3901 66.2141 14.1392H58.9461C60.0699 12.8167 61.307 11.5713 62.6499 10.4101C56.0891 4.43508 47.3682 0.789248 37.8016 0.789248C37.722 0.789248 37.6432 0.788831 37.5636 0.789248Z" fill="#CC0000"/>
<path d="M120.54 57.0078C120.741 57.0078 120.937 57.0599 121.127 57.1624C121.319 57.2649 121.467 57.4128 121.573 57.6049C121.68 57.7949 121.733 57.9953 121.733 58.2028C121.733 58.4078 121.68 58.6061 121.575 58.7961C121.471 58.9857 121.323 59.1336 121.133 59.2391C120.945 59.3428 120.747 59.3953 120.54 59.3953C120.333 59.3953 120.135 59.3428 119.946 59.2391C119.756 59.1332 119.609 58.9861 119.503 58.7961C119.398 58.6061 119.346 58.4078 119.346 58.2028C119.346 57.9953 119.399 57.7949 119.506 57.6049C119.613 57.4128 119.762 57.2661 119.952 57.1624C120.144 57.0599 120.34 57.0078 120.54 57.0078ZM120.54 57.2057C120.373 57.2057 120.21 57.2491 120.05 57.3353C119.892 57.4216 119.768 57.5436 119.679 57.7053C119.589 57.8645 119.544 58.0295 119.544 58.2028C119.544 58.3745 119.588 58.5403 119.675 58.6978C119.764 58.8549 119.887 58.9782 120.045 59.0666C120.204 59.1545 120.368 59.1978 120.54 59.1978C120.712 59.1978 120.877 59.1545 121.035 59.0666C121.193 58.9782 121.316 58.8549 121.404 58.6978C121.491 58.5403 121.534 58.3749 121.534 58.2028C121.534 58.0295 121.49 57.8641 121.4 57.7053C121.312 57.5436 121.187 57.4216 121.028 57.3353C120.87 57.2486 120.707 57.2057 120.54 57.2057ZM120.017 58.862V57.5778H120.459C120.609 57.5778 120.719 57.5895 120.786 57.6145C120.854 57.6382 120.907 57.6786 120.948 57.7382C120.987 57.797 121.008 57.8595 121.008 57.9261C121.008 58.0203 120.974 58.102 120.907 58.1711C120.841 58.2403 120.752 58.2799 120.641 58.2882C120.686 58.307 120.722 58.3307 120.751 58.3566C120.803 58.4066 120.865 58.4911 120.94 58.6107L121.097 58.862H120.844L120.731 58.6599C120.641 58.5007 120.569 58.4016 120.514 58.3607C120.476 58.332 120.42 58.317 120.348 58.317H120.226V58.8632H120.018L120.017 58.862ZM120.224 58.1391H120.476C120.596 58.1391 120.677 58.1207 120.721 58.0853C120.765 58.0486 120.787 58.002 120.787 57.9428C120.787 57.9045 120.777 57.8703 120.756 57.8411C120.734 57.8107 120.705 57.7891 120.667 57.7736C120.63 57.7591 120.561 57.7507 120.46 57.7507H120.225V58.1391" fill="#FCB340"/>
<path d="M50.0545 48.3029L50.5461 44.9613C50.2774 44.9613 49.8824 45.0775 49.5332 45.0775C48.1649 45.0775 47.9941 44.3463 48.1016 43.8121L49.4499 37.0913H51.5299L51.9586 33.2983H49.9982L50.3974 31H46.2966C46.2099 31.0867 43.9766 43.9258 43.9766 45.49C43.9766 47.8046 45.2757 48.8346 47.1082 48.8183C48.5424 48.8063 49.6603 48.4092 50.0545 48.3029Z" fill="#000066"/>
<path d="M51.2988 41.9315C51.2988 47.4865 54.9651 48.806 58.0892 48.806C60.973 48.806 62.4851 48.1377 62.4851 48.1377L63.1776 44.346C63.1776 44.346 60.7409 45.3369 58.7605 45.3369C54.5392 45.3369 55.2792 42.1894 55.2792 42.1894L63.3888 42.214C63.3888 42.214 63.9051 39.6677 63.9051 38.6298C63.9051 36.0394 62.4938 32.8594 58.178 32.8594C54.2255 32.8602 51.2988 37.119 51.2988 41.9315ZM58.193 36.3794C60.4113 36.3794 60.0022 38.8727 60.0022 39.0748H55.638C55.638 38.8165 56.0501 36.3794 58.193 36.3794Z" fill="#000066"/>
<path d="M83.0833 48.2995L83.7871 44.0145C83.7871 44.0145 81.8571 44.9816 80.5342 44.9816C77.7454 44.9816 76.6267 42.8524 76.6267 40.5645C76.6267 35.9241 79.0259 33.3707 81.6967 33.3707C83.7 33.3707 85.3071 34.4953 85.3071 34.4953L85.9488 30.3316C85.9488 30.3316 84.0513 28.9611 82.0088 28.9532C75.865 28.9291 72.3496 33.2066 72.3496 40.6011C72.3496 45.5024 74.9529 48.8378 79.6438 48.8378C80.97 48.8378 83.0833 48.2995 83.0833 48.2995Z" fill="#000066"/>
<path d="M28.4339 32.9219C25.7385 32.9219 23.6727 33.7881 23.6727 33.7881L23.1018 37.1744C23.1018 37.1744 24.8072 36.4815 27.3856 36.4815C28.8493 36.4815 29.9202 36.646 29.9202 37.8356C29.9202 38.5581 29.7893 38.8248 29.7893 38.8248C29.7893 38.8248 28.6343 38.7285 28.0993 38.7285C24.2618 38.7285 21.1289 40.1794 21.1289 44.5535C21.1289 48.0006 23.4718 48.791 24.9239 48.791C27.6977 48.791 28.7956 47.0398 28.8589 47.0348L28.8268 48.4881C28.8268 48.4881 32.2877 48.4881 32.2881 48.4881L33.8323 37.6631C33.8323 33.0694 29.8256 32.9219 28.4339 32.9219ZM29.0331 41.7119C29.1085 42.3727 28.8622 45.4977 26.4947 45.4977C25.2739 45.4977 24.9568 44.5644 24.9568 44.0135C24.9568 42.9369 25.5414 41.6456 28.4214 41.6456C29.0922 41.6456 28.9202 41.694 29.0331 41.7119Z" fill="#000066"/>
<path d="M37.5109 48.7103C38.3963 48.7103 43.4575 48.9357 43.4575 43.7128C43.4575 38.8291 38.7725 39.7945 38.7725 37.832C38.7725 36.8561 39.5363 36.5486 40.9325 36.5486C41.4863 36.5486 43.6188 36.7249 43.6188 36.7249L44.1142 33.2541C44.1142 33.2545 42.7342 32.9453 40.4875 32.9453C37.5796 32.9453 34.6279 34.1061 34.6279 38.0778C34.6279 42.5786 39.5496 42.1266 39.5496 44.0224C39.5496 45.2878 38.1746 45.392 37.1146 45.392C35.2809 45.392 33.63 44.7624 33.6242 44.7928L33.0996 48.2282C33.195 48.2574 34.2138 48.7103 37.5109 48.7103Z" fill="#000066"/>
<path d="M115.507 29.7695L114.797 35.0649C114.797 35.0649 113.316 33.0212 111 33.0212C106.642 33.0212 104.396 37.3641 104.396 42.3529C104.396 45.5737 105.998 48.7308 109.271 48.7308C111.626 48.7308 112.931 47.0887 112.931 47.0887L112.758 48.4908H116.582L119.585 29.7983L115.507 29.7695ZM113.819 40.0616C113.819 42.1379 112.791 44.9116 110.66 44.9116C109.245 44.9116 108.582 43.7237 108.582 41.8599C108.582 38.812 109.951 36.8016 111.679 36.8016C113.093 36.8016 113.819 37.7724 113.819 40.0616Z" fill="#000066"/>
<path d="M7.14953 48.5084L9.54245 34.3959L9.89411 48.5084H12.602L17.6541 34.3959L15.4162 48.5084H19.4404L22.5391 29.7909L16.1466 29.7422L12.3441 41.2022L12.2399 29.7909H6.38161L3.23828 48.5084H7.14953Z" fill="#000066"/>
<path d="M67.7129 48.5336C68.857 42.0273 69.2645 36.889 72.6012 37.9532C73.0804 35.4348 74.2224 33.2448 74.7441 32.179C74.7441 32.179 74.5791 31.9336 73.5479 31.9336C71.7874 31.9336 69.437 35.5061 69.437 35.5061L69.7883 33.2973H66.1274L63.6758 48.5332H67.7129V48.5336Z" fill="#000066"/>
<path d="M91.3171 32.9219C88.6205 32.9219 86.5546 33.7881 86.5546 33.7881L85.9842 37.1744C85.9842 37.1744 87.6905 36.4815 90.2676 36.4815C91.7317 36.4815 92.8021 36.646 92.8021 37.8356C92.8021 38.5581 92.6717 38.8248 92.6717 38.8248C92.6717 38.8248 91.5171 38.7285 90.9821 38.7285C87.1442 38.7285 84.0117 40.1794 84.0117 44.5535C84.0117 48.0006 86.3542 48.791 87.8063 48.791C90.5792 48.791 91.678 47.0398 91.7409 47.0348L91.7084 48.4881H95.1705L96.7142 37.6631C96.7146 33.0694 92.708 32.9219 91.3171 32.9219ZM91.9155 41.7119C91.9905 42.3727 91.7442 45.4977 89.3771 45.4977C88.1555 45.4977 87.8388 44.5644 87.8388 44.0135C87.8388 42.9369 88.423 41.6456 91.3034 41.6456C91.9746 41.6456 91.803 41.694 91.9155 41.7119Z" fill="#000066"/>
<path d="M100.698 48.5335C101.326 43.7469 102.489 37.0269 105.586 37.9531C106.065 35.4348 105.603 35.4415 104.572 35.4415C102.811 35.4415 102.421 35.5056 102.421 35.5056L102.772 33.2969H99.1118L96.6602 48.5331H100.698V48.5335Z" fill="#000066"/>
<path d="M51.0787 47.108L51.5708 43.7668C51.3021 43.7668 50.9067 43.8818 50.5579 43.8818C49.1896 43.8818 49.0387 43.1543 49.1258 42.6164L50.2312 35.7989H52.3108L52.8129 32.103H50.8521L51.2512 29.8047H47.3204C47.2337 29.8914 45 42.7309 45 44.2943C45 46.6089 46.2996 47.6397 48.1321 47.623C49.5671 47.6109 50.6846 47.2139 51.0787 47.108Z" fill="white"/>
<path d="M52.3242 40.7405C52.3242 46.2955 55.9909 47.6155 59.1146 47.6155C61.998 47.6155 63.2667 46.9709 63.2667 46.9709L63.9592 43.1796C63.9592 43.1796 61.7659 44.1459 59.7851 44.1459C55.5642 44.1459 56.3034 40.9988 56.3034 40.9988H64.2917C64.2917 40.9988 64.8076 38.4517 64.8076 37.4138C64.8076 34.8238 63.5184 31.668 59.2026 31.668C55.2501 31.6688 52.3242 35.9276 52.3242 40.7405ZM59.2176 35.1884C61.4359 35.1884 61.0267 37.6813 61.0267 37.883H56.6626C56.6626 37.6255 57.0751 35.1884 59.2176 35.1884Z" fill="white"/>
<path d="M84.109 47.1079L84.8124 42.8224C84.8124 42.8224 82.8836 43.7895 81.5599 43.7895C78.7715 43.7895 77.6532 41.6604 77.6532 39.3729C77.6532 34.7324 80.0524 32.1795 82.7232 32.1795C84.7261 32.1795 86.3336 33.3041 86.3336 33.3041L86.9753 29.1404C86.9753 29.1404 84.5915 28.1758 82.5482 28.1758C78.0103 28.1758 73.5957 32.1124 73.5957 39.5058C73.5957 44.4083 75.9794 47.6462 80.6703 47.6462C81.9965 47.6466 84.109 47.1079 84.109 47.1079Z" fill="white"/>
<path d="M29.4578 31.7305C26.7623 31.7305 24.6961 32.5967 24.6961 32.5967L24.1257 35.983C24.1257 35.983 25.8311 35.2901 28.409 35.2901C29.8728 35.2901 30.9436 35.4546 30.9436 36.6442C30.9436 37.3667 30.8123 37.6334 30.8123 37.6334C30.8123 37.6334 29.6578 37.5367 29.1232 37.5367C25.7236 37.5367 22.1523 38.9876 22.1523 43.3617C22.1523 46.8084 24.4953 47.5992 25.9473 47.5992C28.7207 47.5992 29.9161 45.7996 29.9798 45.7942L29.8503 47.2963H33.3115L34.8557 36.4709C34.8557 31.8784 30.8494 31.7305 29.4578 31.7305ZM30.2998 40.5446C30.3748 41.2059 29.8853 44.3055 27.5186 44.3055C26.2978 44.3055 25.9803 43.373 25.9803 42.8213C25.9803 41.7455 26.5648 40.4538 29.4453 40.4538C30.1153 40.4546 30.1869 40.5263 30.2998 40.5446Z" fill="white"/>
<path d="M38.5358 47.5193C39.4213 47.5193 44.4829 47.7443 44.4829 42.5214C44.4829 37.6385 39.7975 38.6031 39.7975 36.6414C39.7975 35.6647 40.5613 35.3572 41.9571 35.3572C42.5113 35.3572 44.6433 35.5335 44.6433 35.5335L45.1392 32.0627C45.1392 32.0631 43.7592 31.7539 41.5125 31.7539C38.6046 31.7539 35.6529 32.9147 35.6529 36.8864C35.6529 41.3868 40.5746 40.9352 40.5746 42.831C40.5746 44.0964 39.1996 44.1993 38.14 44.1993C36.3062 44.1993 34.655 43.5702 34.6492 43.6002L34.125 47.036C34.22 47.0652 35.2383 47.5193 38.5358 47.5193Z" fill="white"/>
<path d="M116.669 28.6117L115.821 33.873C115.821 33.873 114.342 31.8292 112.026 31.8292C108.424 31.8292 105.422 36.1717 105.422 41.1613C105.422 44.3821 107.023 47.538 110.296 47.538C112.651 47.538 113.956 45.8963 113.956 45.8963L113.784 47.2984H117.607L120.61 28.6055L116.669 28.6117ZM114.844 38.8701C114.844 40.9463 113.816 43.7196 111.685 43.7196C110.27 43.7196 109.607 42.5321 109.607 40.6684C109.607 37.6209 110.976 35.6101 112.703 35.6101C114.118 35.6096 114.844 36.5817 114.844 38.8701Z" fill="white"/>
<path d="M8.17477 47.3156L10.5677 33.2031L10.9189 47.3156H13.6273L18.6793 33.2031L16.4414 47.3156H20.4656L23.5648 28.5977H17.3418L13.4664 40.0822L13.2648 28.5977H7.52852L4.38477 47.3156H8.17477Z" fill="white"/>
<path d="M68.7378 47.3427C69.882 40.836 70.0941 35.5527 72.8245 36.5197C73.3024 34.0014 73.7637 33.0272 74.2853 31.9614C74.2853 31.9614 74.0408 31.9102 73.5274 31.9102C71.767 31.9102 70.4628 34.3152 70.4628 34.3152L70.8133 32.1064H67.1533L64.7012 47.3427H68.7378V47.3427Z" fill="white"/>
<path d="M93.18 31.7305C90.4846 31.7305 88.4183 32.5967 88.4183 32.5967L87.8483 35.983C87.8483 35.983 89.5537 35.2901 92.1317 35.2901C93.5954 35.2901 94.6654 35.4546 94.6654 36.6442C94.6654 37.3667 94.535 37.6334 94.535 37.6334C94.535 37.6334 93.3804 37.5367 92.8454 37.5367C89.4463 37.5367 85.875 38.9876 85.875 43.3617C85.875 46.8084 88.2175 47.5992 89.6696 47.5992C92.4429 47.5992 93.6383 45.7996 93.7017 45.7942L93.5729 47.2963C93.5729 47.2963 97.0329 47.2963 97.0342 47.2963L98.5779 36.4709C98.5783 31.8784 94.5717 31.7305 93.18 31.7305ZM94.0233 40.5446C94.0983 41.2059 93.6083 44.3055 91.2408 44.3055C90.02 44.3055 89.7033 43.373 89.7033 42.8213C89.7033 41.7455 90.2879 40.4538 93.1679 40.4538C93.8379 40.4546 93.9092 40.5263 94.0233 40.5446Z" fill="white"/>
<path d="M101.741 47.3427C102.886 40.836 103.098 35.5527 105.828 36.5197C106.306 34.0014 106.768 33.0272 107.289 31.9614C107.289 31.9614 107.045 31.9102 106.531 31.9102C104.771 31.9102 103.467 34.3152 103.467 34.3152L103.817 32.1064H100.157L97.7051 47.3427H101.741V47.3427Z" fill="white"/>
<path d="M120.526 44.9922C120.725 44.9922 120.922 45.0434 121.111 45.1476C121.303 45.2484 121.451 45.3968 121.558 45.5889C121.665 45.7797 121.718 45.9784 121.718 46.1864C121.718 46.3918 121.665 46.5901 121.56 46.7797C121.455 46.9693 121.308 47.118 121.118 47.2226C120.929 47.3268 120.731 47.3793 120.525 47.3793C120.318 47.3793 120.119 47.3268 119.93 47.2226C119.74 47.1172 119.594 46.9693 119.489 46.7797C119.382 46.5901 119.33 46.3918 119.33 46.1864C119.33 45.9784 119.383 45.7797 119.49 45.5889C119.598 45.3968 119.747 45.2493 119.937 45.1476C120.129 45.0434 120.326 44.9922 120.526 44.9922ZM120.526 45.1889C120.358 45.1889 120.195 45.2322 120.035 45.3193C119.876 45.4043 119.753 45.5272 119.663 45.688C119.574 45.8468 119.529 46.013 119.529 46.1855C119.529 46.358 119.572 46.523 119.659 46.6805C119.748 46.8376 119.871 46.9609 120.03 47.0497C120.188 47.1364 120.353 47.1801 120.526 47.1801C120.697 47.1801 120.863 47.1364 121.02 47.0497C121.178 46.9609 121.301 46.8376 121.389 46.6805C121.477 46.5218 121.52 46.358 121.52 46.1855C121.52 46.013 121.475 45.8468 121.386 45.688C121.297 45.5272 121.173 45.4043 121.013 45.3193C120.855 45.2326 120.693 45.1889 120.526 45.1889ZM120.003 46.8455V45.5609H120.445C120.595 45.5609 120.705 45.573 120.772 45.5976C120.839 45.6205 120.892 45.6618 120.933 45.7214C120.974 45.7805 120.994 45.8426 120.994 45.9093C120.994 46.003 120.96 46.0851 120.893 46.1543C120.827 46.2234 120.738 46.2634 120.627 46.2709C120.671 46.2901 120.708 46.313 120.736 46.3389C120.788 46.3897 120.851 46.4747 120.926 46.5934L121.083 46.8451H120.829L120.716 46.643C120.626 46.4834 120.554 46.3843 120.499 46.3439C120.461 46.3143 120.406 46.2997 120.333 46.2997H120.212V46.8459L120.003 46.8455ZM120.21 46.1226H120.462C120.582 46.1226 120.663 46.1047 120.707 46.0689C120.751 46.0339 120.773 45.9859 120.773 45.9264C120.773 45.8884 120.763 45.8543 120.742 45.8255C120.721 45.7947 120.691 45.7726 120.653 45.7572C120.615 45.7426 120.548 45.7351 120.446 45.7351H120.21V46.1226" fill="white"/>
</g>
<defs>
<clipPath id="clip0">
<rect width="125" height="75" fill="white" transform="translate(0.0625)"/>
</clipPath>
</defs>
</svg>
