<svg width="21" height="17" viewBox="0 0 21 17" fill="none" xmlns="http://www.w3.org/2000/svg">
<path d="M18.4364 0.509766H2.56797C1.15146 0.509766 0 1.66122 0 3.07774V13.9232C0 15.3397 1.15146 16.4911 2.56797 16.4911H18.432C19.8485 16.4911 21 15.3397 21 13.9232V3.08208C21.0043 1.66557 19.8529 0.509766 18.4364 0.509766ZM19.8312 13.9232C19.8312 14.6923 19.2055 15.318 18.4364 15.318H2.56797C1.79888 15.318 1.17318 14.6923 1.17318 13.9232V3.08208C1.17318 2.31299 1.79888 1.6873 2.56797 1.6873H18.432C19.2011 1.6873 19.8268 2.31299 19.8268 3.08208V13.9232H19.8312Z" fill="#0B1331"/>
<path d="M13.2432 8.36578L18.3791 3.75994C18.6181 3.54268 18.6398 3.17335 18.4226 2.93002C18.2053 2.69104 17.836 2.66931 17.5927 2.88657L10.5101 9.24349L9.12835 8.00948C9.12401 8.00513 9.11966 8.00079 9.11966 7.99644C9.08925 7.96602 9.05883 7.93995 9.02407 7.91388L3.40148 2.88223C3.15815 2.66497 2.78881 2.68669 2.57156 2.93002C2.3543 3.17335 2.37603 3.54268 2.61935 3.75994L7.81612 8.40488L2.64108 13.2497C2.40644 13.4713 2.39341 13.8406 2.61501 14.0796C2.73233 14.2013 2.88875 14.2665 3.04518 14.2665C3.18856 14.2665 3.33195 14.2143 3.44493 14.11L8.69819 9.1957L10.1234 10.4688C10.2364 10.5688 10.3754 10.6166 10.5144 10.6166C10.6535 10.6166 10.7969 10.5644 10.9055 10.4645L12.3698 9.15224L17.5927 14.1144C17.7056 14.223 17.8534 14.2751 17.9968 14.2751C18.1532 14.2751 18.3053 14.2143 18.4226 14.0927C18.6442 13.858 18.6355 13.4843 18.4009 13.2627L13.2432 8.36578Z" fill="#0B1331"/>
</svg>
