<svg width="27" height="27" viewBox="0 0 27 27" fill="none" xmlns="http://www.w3.org/2000/svg">
<path d="M23.7629 15.1852C23.4751 15.1852 23.1741 15.0936 22.8862 15.0281C22.3033 14.8997 21.7304 14.7291 21.1721 14.5178C20.5651 14.297 19.8979 14.3085 19.2988 14.55C18.6997 14.7916 18.2111 15.2462 17.9271 15.8263L17.6392 16.4151C16.3648 15.7062 15.1936 14.8256 14.1586 13.7982C13.1312 12.7632 12.2506 11.5921 11.5417 10.3176L12.0912 9.95121C12.6714 9.66716 13.126 9.17859 13.3675 8.57952C13.6091 7.98044 13.6206 7.3132 13.3997 6.70617C13.192 6.1467 13.0215 5.57407 12.8894 4.99206C12.824 4.70419 12.7717 4.40324 12.7324 4.10229C12.5735 3.18062 12.0908 2.34597 11.3711 1.74864C10.6514 1.15131 9.74212 0.830569 8.80695 0.844165H4.8815C4.31758 0.83887 3.75915 0.955142 3.2442 1.18507C2.72926 1.41499 2.26991 1.75316 1.89741 2.17657C1.52491 2.59998 1.24801 3.09868 1.08557 3.63871C0.923126 4.17875 0.878949 4.74745 0.956046 5.3061C1.65313 10.7878 4.15664 15.8811 8.07113 19.7814C11.9856 23.6817 17.088 26.1666 22.5722 26.8437H23.0694C24.0343 26.8452 24.9659 26.4911 25.6864 25.8493C26.1003 25.4791 26.431 25.0252 26.6566 24.5177C26.8821 24.0102 26.9974 23.4606 26.9949 22.9052V18.9798C26.9788 18.0709 26.6479 17.1957 26.0584 16.5037C25.469 15.8116 24.6577 15.3456 23.7629 15.1852ZM24.4172 23.0361C24.4169 23.2218 24.3771 23.4054 24.3004 23.5747C24.2237 23.7439 24.1119 23.8948 23.9723 24.0174C23.8265 24.1444 23.6556 24.2391 23.4707 24.2955C23.2858 24.3518 23.0911 24.3686 22.8993 24.3445C17.9989 23.7162 13.4471 21.4744 9.96197 17.9726C6.4768 14.4708 4.25658 9.90848 3.65152 5.00515C3.6307 4.81348 3.64895 4.61957 3.70517 4.43516C3.7614 4.25074 3.85443 4.07964 3.97864 3.93219C4.10126 3.79261 4.2522 3.68075 4.42141 3.60404C4.59062 3.52733 4.77422 3.48754 4.96001 3.4873H8.88546C9.18974 3.48053 9.48687 3.58005 9.72569 3.76872C9.96452 3.95739 10.1301 4.22342 10.1939 4.52101C10.2463 4.87866 10.3117 5.23195 10.3902 5.58088C10.5414 6.27064 10.7425 6.94848 10.9921 7.60903L9.16024 8.45954C9.00361 8.53141 8.86272 8.6335 8.74566 8.75997C8.62859 8.88643 8.53766 9.03477 8.47809 9.19648C8.41851 9.35818 8.39147 9.53006 8.3985 9.70224C8.40554 9.87442 8.44652 10.0435 8.51908 10.1998C10.4023 14.2336 13.6447 17.476 17.6785 19.3592C17.997 19.4901 18.3544 19.4901 18.6729 19.3592C18.8361 19.3008 18.9861 19.2106 19.1141 19.0938C19.2421 18.977 19.3457 18.836 19.4188 18.6788L20.23 16.8469C20.9065 17.0888 21.5968 17.2898 22.2974 17.4488C22.6463 17.5273 22.9996 17.5928 23.3573 17.6451C23.6549 17.7089 23.9209 17.8745 24.1096 18.1134C24.2983 18.3522 24.3978 18.6493 24.391 18.9536L24.4172 23.0361Z" fill="#1955A0"/>
</svg>
