<svg width="1304" height="465" viewBox="0 0 1304 465" fill="none" xmlns="http://www.w3.org/2000/svg">
<rect width="1304" height="465" rx="20" fill="#EAA5AA"/>
<g filter="url(#filter0_f)">
<path d="M757.112 102.333C757.451 100.784 759.687 100.803 759.948 102.366C770.202 163.746 816.265 212.991 876.824 227.315L888.537 230.086C890.114 230.459 890.06 232.721 888.467 233.018L880.074 234.585C817.182 246.33 768.804 296.909 759.87 360.262C759.651 361.813 757.425 361.829 757.124 360.293C744.721 296.907 695.298 246.655 632.011 233.757L629.018 233.147C627.399 232.817 627.377 230.512 628.989 230.15L630.747 229.756C693.919 215.594 743.273 165.576 757.112 102.333Z" fill="white"/>
</g>
<g filter="url(#filter1_b)">
<path d="M774.961 102.333C775.3 100.784 777.535 100.803 777.797 102.366C788.05 163.746 834.113 212.991 894.673 227.315L906.386 230.086C907.963 230.459 907.909 232.721 906.316 233.018L897.923 234.585C835.031 246.33 786.653 296.909 777.719 360.262C777.5 361.813 775.274 361.829 774.973 360.293C762.57 296.907 713.147 246.655 649.86 233.757L646.867 233.147C645.248 232.817 645.225 230.512 646.838 230.15L648.596 229.756C711.767 215.594 761.122 165.576 774.961 102.333Z" fill="white" fill-opacity="0.93"/>
</g>
<mask id="mask0" style="mask-type:alpha" maskUnits="userSpaceOnUse" x="0" y="0" width="1304" height="465">
<rect width="1304" height="465" rx="20" fill="#EAA5AA"/>
</mask>
<g mask="url(#mask0)">
<circle cx="1182" cy="325" r="412" fill="#3657C8"/>
<path d="M1165.01 326.714C1165.01 326.714 896.23 159.508 843.944 224.39C791.658 289.273 916.091 386.254 870.046 441.348C820 486 681.626 314.206 644.259 351.596C618.74 377.132 675.021 434.01 675.021 434.01" stroke="white" stroke-width="0.597994"/>
</g>
<rect width="634.635" height="465"/>
<path d="M625.803 84H618.824V73.5234H610.756V84H603.777V58.3008H610.756V67.8281H618.824V58.3008H625.803V84ZM648.223 84L646.957 79.1836H638.607L637.307 84H629.678L638.062 58.1953H647.326L655.816 84H648.223ZM645.516 73.4883L644.408 69.2695C644.15 68.332 643.834 67.1191 643.459 65.6309C643.096 64.1426 642.855 63.0762 642.738 62.4316C642.633 63.0293 642.422 64.0137 642.105 65.3848C641.801 66.7559 641.115 69.457 640.049 73.4883H645.516ZM688.65 64.3125C688.65 67.6992 686.635 69.7383 682.603 70.4297V70.5703C684.924 70.7695 686.676 71.3906 687.859 72.4336C689.043 73.4766 689.635 74.8828 689.635 76.6523C689.635 78.1992 689.201 79.5586 688.334 80.7305C687.478 81.8906 686.236 82.7871 684.607 83.4199C682.978 84.041 681.051 84.3516 678.824 84.3516C674.734 84.3516 671.47 83.8887 669.033 82.9629V76.9863C670.029 77.4902 671.295 77.9004 672.83 78.2168C674.377 78.5215 675.777 78.6738 677.031 78.6738C679.011 78.6738 680.418 78.4688 681.25 78.0586C682.082 77.6484 682.498 76.9629 682.498 76.002C682.498 74.2793 680.529 73.418 676.592 73.418H673.568V67.793H676.275C677.635 67.793 678.695 67.7285 679.457 67.5996C680.23 67.459 680.793 67.2363 681.144 66.9316C681.496 66.627 681.672 66.1699 681.672 65.5605C681.672 64.2715 680.435 63.627 677.963 63.627C675.631 63.627 673.58 64.2246 671.81 65.4199L668.892 60.6387C670.427 59.6543 671.986 58.957 673.568 58.5469C675.15 58.1367 677.06 57.9316 679.299 57.9316C682.123 57.9316 684.385 58.5176 686.084 59.6895C687.795 60.8613 688.65 62.4023 688.65 64.3125ZM710.947 84L709.681 79.1836H701.332L700.031 84H692.402L700.787 58.1953H710.05L718.541 84H710.947ZM708.24 73.4883L707.132 69.2695C706.875 68.332 706.558 67.1191 706.183 65.6309C705.82 64.1426 705.58 63.0762 705.463 62.4316C705.357 63.0293 705.146 64.0137 704.83 65.3848C704.525 66.7559 703.84 69.457 702.773 73.4883H708.24ZM744.88 84H737.023L729.394 70.9746V84H722.416V58.3008H729.394V70.7461L736.742 58.3008H744.371L736.443 70.5703L744.88 84ZM764.365 84L763.099 79.1836H754.75L753.449 84H745.82L754.205 58.1953H763.468L771.959 84H764.365ZM761.658 73.4883L760.55 69.2695C760.292 68.332 759.976 67.1191 759.601 65.6309C759.238 64.1426 758.998 63.0762 758.88 62.4316C758.775 63.0293 758.564 64.0137 758.248 65.3848C757.943 66.7559 757.257 69.457 756.191 73.4883H761.658ZM794.361 64.3125C794.361 67.6992 792.345 69.7383 788.314 70.4297V70.5703C790.634 70.7695 792.386 71.3906 793.57 72.4336C794.753 73.4766 795.345 74.8828 795.345 76.6523C795.345 78.1992 794.912 79.5586 794.044 80.7305C793.189 81.8906 791.947 82.7871 790.318 83.4199C788.689 84.041 786.761 84.3516 784.535 84.3516C780.445 84.3516 777.181 83.8887 774.744 82.9629V76.9863C775.74 77.4902 777.005 77.9004 778.54 78.2168C780.087 78.5215 781.488 78.6738 782.742 78.6738C784.722 78.6738 786.128 78.4688 786.96 78.0586C787.792 77.6484 788.208 76.9629 788.208 76.002C788.208 74.2793 786.24 73.418 782.302 73.418H779.279V67.793H781.986C783.345 67.793 784.406 67.7285 785.167 67.5996C785.941 67.459 786.503 67.2363 786.855 66.9316C787.206 66.627 787.382 66.1699 787.382 65.5605C787.382 64.2715 786.146 63.627 783.673 63.627C781.341 63.627 779.29 64.2246 777.521 65.4199L774.603 60.6387C776.138 59.6543 777.697 58.957 779.279 58.5469C780.861 58.1367 782.771 57.9316 785.009 57.9316C787.833 57.9316 790.095 58.5176 791.794 59.6895C793.505 60.8613 794.361 62.4023 794.361 64.3125ZM822.765 63.627C821.113 63.627 819.824 64.3066 818.898 65.666C817.972 67.0137 817.509 68.877 817.509 71.2559C817.509 76.2012 819.39 78.6738 823.152 78.6738C824.288 78.6738 825.39 78.5156 826.456 78.1992C827.523 77.8828 828.595 77.502 829.673 77.0566V82.9277C827.529 83.877 825.103 84.3516 822.396 84.3516C818.517 84.3516 815.54 83.2266 813.466 80.9766C811.404 78.7266 810.372 75.4746 810.372 71.2207C810.372 68.5605 810.87 66.2227 811.866 64.207C812.874 62.1914 814.316 60.6445 816.191 59.5664C818.077 58.4766 820.292 57.9316 822.835 57.9316C825.613 57.9316 828.267 58.5352 830.798 59.7422L828.671 65.209C827.722 64.7637 826.773 64.3887 825.824 64.084C824.874 63.7793 823.855 63.627 822.765 63.627ZM835.78 58.3008H844.745C848.238 58.3008 850.827 58.8223 852.515 59.8652C854.214 60.8965 855.064 62.5078 855.064 64.6992C855.064 66.1406 854.695 67.3711 853.956 68.3906C853.218 69.4102 852.245 70.0664 851.038 70.3594V70.5352C852.632 70.957 853.786 71.6602 854.501 72.6445C855.216 73.6289 855.573 74.9062 855.573 76.4766C855.573 78.8086 854.695 80.6484 852.937 81.9961C851.191 83.332 848.806 84 845.782 84H835.78V58.3008ZM842.724 68.1621H844.816C845.812 68.1621 846.579 67.957 847.118 67.5469C847.669 67.1367 847.945 66.5273 847.945 65.7188C847.945 64.2773 846.855 63.5566 844.675 63.5566H842.724V68.1621ZM842.724 73.2422V78.6387H845.167C847.335 78.6387 848.419 77.7246 848.419 75.8965C848.419 75.041 848.126 74.3848 847.54 73.9277C846.966 73.4707 846.128 73.2422 845.027 73.2422H842.724ZM879.47 75.4746C879.47 78.2168 878.532 80.3262 876.657 81.8027C874.794 83.2676 872.146 84 868.712 84H861.118V58.3008H868.097V67.4414H868.448C872.034 67.4414 874.765 68.1211 876.64 69.4805C878.526 70.8281 879.47 72.8262 879.47 75.4746ZM868.097 78.6387H868.378C871.097 78.6387 872.456 77.6309 872.456 75.6152C872.456 73.6699 871.085 72.6973 868.343 72.6973H868.097V78.6387ZM888.804 84H881.808V58.3008H888.804V84ZM929.048 84H895.421V58.3008H902.399V78.3047H908.815V58.3008H915.653V78.3047H922.052V58.3008H929.048V84ZM950.923 84H935.665V58.3008H950.923V63.873H942.608V67.916H950.308V73.4883H942.608V78.3398H950.923V84Z" fill="white"/>
<path d="M1094.43 66.4746C1094.43 69.3457 1093.58 71.5664 1091.88 73.1367C1090.19 74.6953 1087.79 75.4746 1084.67 75.4746H1082.72V84H1075.78V58.3008H1084.67C1087.92 58.3008 1090.36 59.0098 1091.98 60.4277C1093.61 61.8457 1094.43 63.8613 1094.43 66.4746ZM1082.72 69.8145H1083.99C1085.03 69.8145 1085.86 69.5215 1086.46 68.9355C1087.09 68.3496 1087.4 67.541 1087.4 66.5098C1087.4 64.7754 1086.44 63.9082 1084.51 63.9082H1082.72V69.8145ZM1102.91 84.3516C1101.27 84.3516 1099.77 84.1758 1098.41 83.8242V78.3047C1099.51 78.7383 1100.9 78.9551 1102.59 78.9551C1103.32 78.9551 1103.93 78.791 1104.42 78.4629C1104.92 78.123 1105.33 77.5312 1105.65 76.6875L1097.27 58.3008H1104.75L1107.92 66.1406C1108.04 66.4453 1108.18 66.8086 1108.34 67.2305C1108.52 67.6523 1108.69 68.0918 1108.85 68.5488C1109.01 68.9941 1109.17 69.4395 1109.31 69.8848C1109.45 70.3301 1109.56 70.7168 1109.64 71.0449H1109.89C1110.29 69.4512 1110.88 67.5879 1111.66 65.4551L1114.28 58.3008H1121.77L1113.96 76.3359C1112.99 78.5859 1112.04 80.2441 1111.1 81.3105C1110.16 82.3652 1109.04 83.1387 1107.72 83.6309C1106.42 84.1113 1104.82 84.3516 1102.91 84.3516ZM1144.22 75.6504C1144.22 78.3457 1143.3 80.4141 1141.45 81.8555C1139.61 83.2852 1136.95 84 1133.47 84H1125.22V58.3008H1142.13V63.873H1132.2V67.793H1133.2C1136.8 67.793 1139.54 68.4492 1141.41 69.7617C1143.29 71.0625 1144.22 73.0254 1144.22 75.6504ZM1132.2 78.6387H1133.13C1134.59 78.6387 1135.63 78.3984 1136.26 77.918C1136.89 77.4375 1137.21 76.7285 1137.21 75.791C1137.21 74.8535 1136.87 74.1621 1136.19 73.7168C1135.52 73.2715 1134.49 73.0488 1133.1 73.0488H1132.2V78.6387ZM1171.5 84H1164.52V63.9785H1159.61C1159.34 66.8965 1158.98 69.8672 1158.52 72.8906C1158.08 75.9141 1157.65 78.0352 1157.24 79.2539C1156.83 80.4727 1156.31 81.4453 1155.68 82.1719C1155.05 82.8867 1154.28 83.4316 1153.36 83.8066C1152.43 84.1699 1151.31 84.3516 1150 84.3516C1149 84.3516 1148.09 84.2227 1147.27 83.9648V78.6035C1147.98 78.8379 1148.55 78.9551 1149 78.9551C1149.61 78.9551 1150.07 78.7031 1150.38 78.1992C1150.71 77.6836 1151.01 76.8164 1151.28 75.5977C1151.55 74.3672 1151.93 72.0938 1152.41 68.7773C1152.89 65.4492 1153.33 61.957 1153.74 58.3008H1171.5V84ZM1193.41 84H1178.15V58.3008H1193.41V63.873H1185.09V67.916H1192.79V73.4883H1185.09V78.3398H1193.41V84ZM1198.99 58.3008H1205.17V69.3398C1205.17 70.5117 1205.08 72.8555 1204.89 76.3711H1205.03L1215.28 58.3008H1223.86V84H1217.71V73.2422C1217.71 71.6133 1217.81 69.1758 1218.02 65.9297H1217.88L1207.55 84H1198.99V58.3008ZM1211.36 56.2441C1208.56 56.2441 1206.46 55.6992 1205.07 54.6094C1203.69 53.5195 1202.91 51.832 1202.75 49.5469H1208.48C1208.54 50.6953 1208.79 51.5273 1209.23 52.043C1209.68 52.5586 1210.39 52.8164 1211.36 52.8164C1213.12 52.8164 1214.08 51.7266 1214.24 49.5469H1220.06C1219.58 54.0117 1216.68 56.2441 1211.36 56.2441Z" fill="white"/>
<g filter="url(#filter2_f)">
<path d="M143.893 344.797C143.81 344.417 143.262 344.422 143.198 344.805C140.686 359.845 129.399 371.911 114.56 375.421L111.69 376.1C111.304 376.192 111.317 376.746 111.707 376.819L113.764 377.203C129.174 380.081 141.028 392.474 143.218 407.998C143.271 408.377 143.817 408.382 143.89 408.005C146.929 392.473 159.04 380.16 174.547 377L175.28 376.85C175.677 376.77 175.683 376.205 175.287 376.116L174.857 376.02C159.378 372.549 147.284 360.293 143.893 344.797Z" fill="white"/>
</g>
<g filter="url(#filter3_b)">
<path d="M151.893 344.797C151.81 344.417 151.262 344.422 151.198 344.805C148.686 359.845 137.399 371.911 122.56 375.421L119.69 376.1C119.304 376.192 119.317 376.746 119.707 376.819L121.764 377.203C137.174 380.081 149.028 392.474 151.218 407.998C151.271 408.377 151.817 408.382 151.89 408.005C154.929 392.473 167.04 380.16 182.547 377L183.28 376.85C183.677 376.77 183.683 376.205 183.287 376.116L182.857 376.02C167.378 372.549 155.284 360.293 151.893 344.797Z" fill="white" fill-opacity="0.93"/>
</g>
<g filter="url(#filter4_f)">
<path d="M1069.82 361.475C1069.75 361.163 1069.31 361.167 1069.25 361.482C1067.19 373.828 1057.92 383.733 1045.74 386.615L1043.39 387.172C1043.07 387.247 1043.08 387.702 1043.4 387.762L1045.09 388.077C1057.74 390.439 1067.47 400.613 1069.27 413.356C1069.31 413.668 1069.76 413.671 1069.82 413.362C1072.32 400.613 1082.26 390.505 1094.99 387.91L1095.59 387.788C1095.91 387.721 1095.92 387.258 1095.59 387.185L1095.24 387.106C1082.53 384.257 1072.61 374.196 1069.82 361.475Z" fill="white"/>
</g>
<g filter="url(#filter5_b)">
<path d="M1077.82 361.475C1077.75 361.163 1077.31 361.167 1077.25 361.482C1075.19 373.828 1065.92 383.733 1053.74 386.615L1051.39 387.172C1051.07 387.247 1051.08 387.702 1051.4 387.762L1053.09 388.077C1065.74 390.439 1075.47 400.613 1077.27 413.356C1077.31 413.668 1077.76 413.671 1077.82 413.362C1080.32 400.613 1090.26 390.505 1102.99 387.91L1103.59 387.788C1103.91 387.721 1103.92 387.258 1103.59 387.185L1103.24 387.106C1090.53 384.257 1080.61 374.196 1077.82 361.475Z" fill="white" fill-opacity="0.93"/>
</g>
<path d="M1151.45 279.662L1148.93 283.979L1148.96 283.994L1148.98 284.009L1151.45 279.662ZM1156.08 284.496L1151.65 286.815L1151.66 286.831L1151.67 286.847L1156.08 284.496ZM1153.42 302.748L1150.1 299.004L1150.1 299.01L1150.09 299.015L1153.42 302.748ZM1128.1 304.271H1123.1V307.396L1125.91 308.766L1128.1 304.271ZM1128.1 294.779L1130.19 290.236L1123.1 286.977V294.779H1128.1ZM1133.85 296.713L1132.69 301.576L1132.7 301.579L1133.85 296.713ZM1144.33 296.127L1147.41 300.07L1147.43 300.054L1147.45 300.038L1144.33 296.127ZM1133.08 287.895L1130.86 292.373L1132.69 293.279L1134.63 292.651L1133.08 287.895ZM1128.84 285.785L1123.85 285.43L1123.61 288.773L1126.61 290.263L1128.84 285.785ZM1130.45 263.168V258.168H1125.79L1125.46 262.813L1130.45 263.168ZM1154.88 263.168H1159.88V258.168H1154.88V263.168ZM1154.88 272.807V277.807H1159.88V272.807H1154.88ZM1140.29 272.807V267.807H1135.74L1135.31 272.342L1140.29 272.807ZM1139.76 278.461L1134.78 277.997L1134.17 284.629L1140.71 283.371L1139.76 278.461ZM1143.02 277.992L1143.17 282.99L1143.24 282.988L1143.32 282.983L1143.02 277.992ZM1144.8 282.934C1146.45 282.934 1147.78 283.309 1148.93 283.979L1153.97 275.345C1151.18 273.711 1148.08 272.934 1144.8 272.934V282.934ZM1148.98 284.009C1150.11 284.653 1150.99 285.548 1151.65 286.815L1160.51 282.178C1158.99 279.264 1156.78 276.937 1153.92 275.316L1148.98 284.009ZM1151.67 286.847C1152.34 288.108 1152.75 289.69 1152.75 291.732H1162.75C1162.75 288.306 1162.05 285.064 1160.49 282.145L1151.67 286.847ZM1152.75 291.732C1152.75 295.456 1151.67 297.615 1150.1 299.004L1156.73 306.492C1160.94 302.764 1162.75 297.579 1162.75 291.732H1152.75ZM1150.09 299.015C1148.51 300.425 1145.58 301.586 1140.35 301.586V311.586C1146.8 311.586 1152.58 310.189 1156.74 306.481L1150.09 299.015ZM1140.35 301.586C1135.81 301.586 1132.55 300.878 1130.29 299.777L1125.91 308.766C1129.98 310.751 1134.89 311.586 1140.35 311.586V301.586ZM1133.1 304.271V294.779H1123.1V304.271H1133.1ZM1126.01 299.322C1128.06 300.261 1130.29 301.005 1132.69 301.576L1135.01 291.849C1133.14 291.405 1131.55 290.86 1130.19 290.236L1126.01 299.322ZM1132.7 301.579C1135.07 302.141 1137.33 302.475 1139.38 302.475V292.475C1138.35 292.475 1136.91 292.3 1135 291.847L1132.7 301.579ZM1139.38 302.475C1142.14 302.475 1145.05 301.91 1147.41 300.07L1141.26 292.184C1141.31 292.141 1140.92 292.475 1139.38 292.475V302.475ZM1147.45 300.038C1150.04 297.973 1151.06 295.035 1151.06 292.084H1141.06C1141.06 292.437 1141 292.527 1141.03 292.462C1141.05 292.43 1141.07 292.38 1141.11 292.325C1141.16 292.27 1141.2 292.234 1141.22 292.216L1147.45 300.038ZM1151.06 292.084C1151.06 289.086 1149.9 286.281 1147.39 284.31L1141.22 292.182C1141.23 292.187 1141.2 292.17 1141.17 292.126C1141.13 292.081 1141.1 292.028 1141.08 291.976C1141.05 291.925 1141.05 291.897 1141.05 291.905C1141.05 291.915 1141.06 291.971 1141.06 292.084H1151.06ZM1147.39 284.31C1144.95 282.397 1141.85 281.869 1138.97 281.869V291.869C1139.86 291.869 1140.46 291.956 1140.84 292.055C1141.22 292.151 1141.29 292.235 1141.22 292.182L1147.39 284.31ZM1138.97 281.869C1136.53 281.869 1134.04 282.327 1131.54 283.138L1134.63 292.651C1136.34 292.094 1137.78 291.869 1138.97 291.869V281.869ZM1135.31 283.416L1131.06 281.307L1126.61 290.263L1130.86 292.373L1135.31 283.416ZM1133.82 286.14L1135.43 263.523L1125.46 262.813L1123.85 285.43L1133.82 286.14ZM1130.45 268.168H1154.88V258.168H1130.45V268.168ZM1149.88 263.168V272.807H1159.88V263.168H1149.88ZM1154.88 267.807H1140.29V277.807H1154.88V267.807ZM1135.31 272.342L1134.78 277.997L1144.74 278.925L1145.27 273.271L1135.31 272.342ZM1140.71 283.371C1142.23 283.078 1142.96 282.996 1143.17 282.99L1142.86 272.994C1141.78 273.027 1140.34 273.258 1138.82 273.551L1140.71 283.371ZM1143.32 282.983C1143.88 282.949 1144.37 282.934 1144.8 282.934V272.934C1144.14 272.934 1143.44 272.957 1142.71 273.001L1143.32 282.983ZM1183.88 280.951L1179.2 279.175L1179.19 279.216L1179.17 279.258L1183.88 280.951ZM1183.88 271.195L1179.16 272.859L1179.17 272.9L1179.19 272.941L1183.88 271.195ZM1180.54 271.225L1175.84 269.509L1175.82 269.549L1175.81 269.589L1180.54 271.225ZM1190.38 285.932L1194.24 289.114L1194.24 289.106L1194.25 289.098L1190.38 285.932ZM1174.12 285.814L1170.21 288.938L1170.23 288.955L1170.24 288.972L1174.12 285.814ZM1174.06 266.039L1177.91 269.234L1177.91 269.226L1177.92 269.218L1174.06 266.039ZM1214.64 263.168L1219.01 265.593L1223.13 258.168H1214.64V263.168ZM1190.88 306V311H1193.82L1195.25 308.425L1190.88 306ZM1182.18 306L1177.8 303.575L1173.68 311H1182.18V306ZM1205.94 263.168V258.168H1202.99L1201.56 260.743L1205.94 263.168ZM1216.54 297.768L1211.74 296.383L1211.73 296.411L1211.72 296.438L1216.54 297.768ZM1216.54 288.48L1211.72 289.789L1211.73 289.838L1211.74 289.887L1216.54 288.48ZM1213.11 288.275L1208.42 286.559L1208.4 286.6L1208.39 286.64L1213.11 288.275ZM1222.93 302.953L1219.07 299.768L1219.07 299.771L1222.93 302.953ZM1206.7 302.836L1202.79 305.959L1202.81 305.977L1202.82 305.994L1206.7 302.836ZM1206.64 283.09L1210.49 286.284L1210.49 286.276L1210.5 286.268L1206.64 283.09ZM1175.01 276.059C1175.01 278.387 1175.17 280.778 1175.88 282.667L1185.25 279.176C1185.26 279.203 1185.18 278.988 1185.11 278.39C1185.05 277.824 1185.01 277.057 1185.01 276.059H1175.01ZM1175.88 282.667C1176.24 283.624 1176.84 284.799 1177.93 285.769C1179.11 286.832 1180.62 287.416 1182.23 287.416V277.416C1183.1 277.416 1183.96 277.751 1184.59 278.316C1184.87 278.56 1185.03 278.79 1185.13 278.938C1185.22 279.085 1185.25 279.176 1185.25 279.176L1175.88 282.667ZM1182.23 287.416C1183.82 287.416 1185.33 286.853 1186.53 285.779C1187.63 284.799 1188.23 283.609 1188.58 282.645L1179.17 279.258C1179.18 279.244 1179.21 279.138 1179.31 278.978C1179.41 278.815 1179.59 278.573 1179.87 278.32C1180.53 277.735 1181.39 277.416 1182.23 277.416V287.416ZM1188.55 282.727C1189.27 280.831 1189.43 278.402 1189.43 276.059H1179.43C1179.43 277.079 1179.39 277.859 1179.32 278.43C1179.26 279.038 1179.18 279.232 1179.2 279.175L1188.55 282.727ZM1189.43 276.059C1189.43 273.73 1189.26 271.34 1188.56 269.45L1179.19 272.941C1179.18 272.915 1179.26 273.129 1179.32 273.727C1179.39 274.293 1179.43 275.06 1179.43 276.059H1189.43ZM1188.59 269.531C1188.25 268.567 1187.66 267.37 1186.57 266.378C1185.37 265.287 1183.85 264.701 1182.23 264.701V274.701C1181.36 274.701 1180.49 274.364 1179.83 273.771C1179.56 273.517 1179.38 273.275 1179.29 273.118C1179.2 272.963 1179.16 272.864 1179.16 272.859L1188.59 269.531ZM1182.23 264.701C1180.62 264.701 1179.1 265.282 1177.9 266.359C1176.8 267.342 1176.19 268.535 1175.84 269.509L1185.23 272.941C1185.23 272.942 1185.22 272.965 1185.2 273.004C1185.19 273.043 1185.15 273.103 1185.11 273.179C1185.02 273.328 1184.85 273.56 1184.58 273.805C1183.94 274.375 1183.08 274.701 1182.23 274.701V264.701ZM1175.81 269.589C1175.17 271.437 1175.01 273.754 1175.01 276.059H1185.01C1185.01 275.076 1185.05 274.312 1185.11 273.737C1185.14 273.453 1185.18 273.238 1185.21 273.082C1185.24 272.923 1185.26 272.857 1185.26 272.86L1175.81 269.589ZM1188.28 275.941C1188.28 279.547 1187.46 281.598 1186.51 282.765L1194.25 289.098C1197.16 285.539 1198.28 280.93 1198.28 275.941H1188.28ZM1186.52 282.75C1185.71 283.734 1184.49 284.447 1182.12 284.447V294.447C1186.89 294.447 1191.18 292.817 1194.24 289.114L1186.52 282.75ZM1182.12 284.447C1180.13 284.447 1178.94 283.816 1178 282.657L1170.24 288.972C1173.24 292.657 1177.38 294.447 1182.12 294.447V284.447ZM1178.02 282.691C1176.98 281.387 1176.19 279.316 1176.19 275.941H1166.19C1166.19 280.848 1167.35 285.359 1170.21 288.938L1178.02 282.691ZM1176.19 275.941C1176.19 272.315 1177 270.321 1177.91 269.234L1170.21 262.845C1167.29 266.366 1166.19 270.974 1166.19 275.941H1176.19ZM1177.92 269.218C1178.74 268.225 1179.91 267.553 1182.12 267.553V257.553C1177.41 257.553 1173.21 259.204 1170.2 262.861L1177.92 269.218ZM1182.12 267.553C1184.21 267.553 1185.46 268.21 1186.43 269.366L1194.1 262.946C1191.04 259.297 1186.86 257.553 1182.12 257.553V267.553ZM1186.43 269.366C1187.48 270.618 1188.28 272.62 1188.28 275.941H1198.28C1198.28 271.021 1197.07 266.499 1194.1 262.946L1186.43 269.366ZM1210.26 260.743L1186.5 303.575L1195.25 308.425L1219.01 265.593L1210.26 260.743ZM1190.88 301H1182.18V311H1190.88V301ZM1186.55 308.425L1210.31 265.593L1201.56 260.743L1177.8 303.575L1186.55 308.425ZM1205.94 268.168H1214.64V258.168H1205.94V268.168ZM1207.59 293.109C1207.59 295.438 1207.75 297.828 1208.46 299.718L1217.83 296.227C1217.84 296.253 1217.76 296.039 1217.69 295.441C1217.63 294.875 1217.59 294.108 1217.59 293.109H1207.59ZM1208.46 299.718C1208.81 300.675 1209.42 301.85 1210.5 302.819C1211.69 303.883 1213.2 304.467 1214.81 304.467V294.467C1215.68 294.467 1216.54 294.802 1217.17 295.367C1217.44 295.61 1217.61 295.841 1217.7 295.989C1217.79 296.135 1217.83 296.227 1217.83 296.227L1208.46 299.718ZM1214.81 304.467C1216.49 304.467 1218.12 303.85 1219.38 302.608C1220.52 301.49 1221.07 300.151 1221.36 299.097L1211.72 296.438C1211.7 296.517 1211.81 296.028 1212.37 295.476C1212.67 295.181 1213.06 294.908 1213.54 294.718C1214.01 294.53 1214.45 294.467 1214.81 294.467V304.467ZM1221.35 299.152C1221.86 297.357 1222.04 295.276 1222.04 293.109H1212.04C1212.04 294.849 1211.88 295.873 1211.74 296.383L1221.35 299.152ZM1222.04 293.109C1222.04 290.948 1221.86 288.864 1221.34 287.074L1211.74 289.887C1211.88 290.362 1212.04 291.365 1212.04 293.109H1222.04ZM1221.37 287.172C1221.08 286.119 1220.54 284.775 1219.41 283.649C1218.15 282.391 1216.51 281.752 1214.81 281.752V291.752C1214.44 291.752 1213.99 291.686 1213.51 291.491C1213.03 291.296 1212.64 291.016 1212.34 290.72C1211.79 290.169 1211.69 289.689 1211.72 289.789L1221.37 287.172ZM1214.81 281.752C1213.2 281.752 1211.68 282.332 1210.48 283.41C1209.38 284.393 1208.77 285.586 1208.42 286.559L1217.81 289.991C1217.81 289.993 1217.8 290.015 1217.78 290.054C1217.76 290.093 1217.73 290.154 1217.69 290.229C1217.59 290.379 1217.43 290.611 1217.15 290.856C1216.52 291.425 1215.66 291.752 1214.81 291.752V281.752ZM1208.39 286.64C1207.75 288.488 1207.59 290.805 1207.59 293.109H1217.59C1217.59 292.127 1217.63 291.362 1217.69 290.788C1217.72 290.504 1217.75 290.289 1217.78 290.133C1217.82 289.974 1217.84 289.908 1217.84 289.911L1208.39 286.64ZM1220.86 292.992C1220.86 296.561 1220.04 298.598 1219.07 299.768L1226.78 306.138C1229.72 302.582 1230.86 297.978 1230.86 292.992H1220.86ZM1219.07 299.771C1218.25 300.762 1217.04 301.469 1214.7 301.469V311.469C1219.46 311.469 1223.73 309.832 1226.78 306.135L1219.07 299.771ZM1214.7 301.469C1212.71 301.469 1211.52 300.837 1210.57 299.678L1202.82 305.994C1205.82 309.678 1209.96 311.469 1214.7 311.469V301.469ZM1210.6 299.712C1209.56 298.405 1208.77 296.341 1208.77 292.992H1198.77C1198.77 297.886 1199.93 302.384 1202.79 305.959L1210.6 299.712ZM1208.77 292.992C1208.77 289.366 1209.58 287.372 1210.49 286.284L1202.79 279.895C1199.87 283.417 1198.77 288.025 1198.77 292.992H1208.77ZM1210.5 286.268C1211.32 285.276 1212.48 284.604 1214.7 284.604V274.604C1209.99 274.604 1205.79 276.255 1202.78 279.911L1210.5 286.268ZM1214.7 284.604C1216.79 284.604 1218.04 285.261 1219.01 286.417L1226.67 279.997C1223.62 276.348 1219.44 274.604 1214.7 274.604V284.604ZM1219.01 286.417C1220.05 287.669 1220.86 289.671 1220.86 292.992H1230.86C1230.86 288.072 1229.65 283.55 1226.67 279.997L1219.01 286.417Z" fill="white"/>
<path d="M930.416 173.443L934.537 176.274L934.543 176.266L934.549 176.258L930.416 173.443ZM943.014 194.332L941.591 189.539L943.014 194.332ZM948.375 192.428H953.375V184.953L946.466 187.806L948.375 192.428ZM948.375 202.213L950.399 206.785L953.375 205.468V202.213H948.375ZM921.363 198.961L917.677 202.34L917.687 202.35L921.363 198.961ZM918.697 171.012L914.225 168.776L914.22 168.786L914.215 168.797L918.697 171.012ZM925.904 163.277L928.397 167.612L928.405 167.607L925.904 163.277ZM950.25 163.57L954.91 165.383L956.593 161.056L952.402 159.057L950.25 163.57ZM946.705 172.682L944.581 177.208L949.425 179.481L951.365 174.495L946.705 172.682ZM936.861 165.045C932.462 165.045 928.763 166.988 926.283 170.629L934.549 176.258C935.155 175.367 935.752 175.045 936.861 175.045V165.045ZM926.295 170.612C923.973 173.991 923.102 178.222 923.102 182.76H933.102C933.102 179.368 933.773 177.388 934.537 176.274L926.295 170.612ZM923.102 182.76C923.102 187.373 923.954 191.748 926.473 195.059C929.189 198.629 933.177 200.123 937.506 200.123V190.123C935.565 190.123 934.851 189.556 934.432 189.005C933.816 188.196 933.102 186.389 933.102 182.76H923.102ZM937.506 200.123C939.871 200.123 942.187 199.793 944.436 199.125L941.591 189.539C940.286 189.926 938.929 190.123 937.506 190.123V200.123ZM944.436 199.125C946.386 198.547 948.335 197.854 950.284 197.049L946.466 187.806C944.821 188.486 943.196 189.062 941.591 189.539L944.436 199.125ZM943.375 192.428V202.213H953.375V192.428H943.375ZM946.351 197.641C943.505 198.9 940.168 199.586 936.246 199.586V209.586C941.348 209.586 946.096 208.689 950.399 206.785L946.351 197.641ZM936.246 199.586C930.78 199.586 927.31 198.035 925.04 195.572L917.687 202.35C922.33 207.387 928.783 209.586 936.246 209.586V199.586ZM925.049 195.582C922.74 193.063 921.207 189.034 921.207 182.701H911.207C911.207 190.548 913.111 197.358 917.678 202.34L925.049 195.582ZM921.207 182.701C921.207 178.896 921.917 175.782 923.18 173.227L914.215 168.797C912.157 172.96 911.207 177.639 911.207 182.701H921.207ZM923.169 173.248C924.429 170.728 926.16 168.898 928.397 167.612L923.412 158.943C919.398 161.251 916.325 164.576 914.225 168.776L923.169 173.248ZM928.405 167.607C930.671 166.298 933.47 165.553 936.979 165.553V155.553C932.01 155.553 927.427 156.624 923.403 158.948L928.405 167.607ZM936.979 165.553C940.855 165.553 944.545 166.389 948.098 168.083L952.402 159.057C947.518 156.728 942.36 155.553 936.979 155.553V165.553ZM945.59 161.757L942.045 170.869L951.365 174.495L954.91 165.383L945.59 161.757ZM948.829 168.155C947.063 167.327 945.283 166.622 943.487 166.046L940.431 175.567C941.799 176.007 943.183 176.552 944.581 177.208L948.829 168.155ZM943.487 166.046C941.367 165.365 939.148 165.045 936.861 165.045V175.045C938.207 175.045 939.386 175.232 940.431 175.567L943.487 166.046ZM1003.8 204V209H1012.84L1008.03 201.34L1003.8 204ZM990.7 204L986.385 206.527L987.834 209H990.7V204ZM977.985 182.291L982.299 179.764L972.985 163.861V182.291H977.985ZM977.985 204V209H982.985V204H977.985ZM966.354 204H961.354V209H966.354V204ZM966.354 161.168V156.168H961.354V161.168H966.354ZM977.985 161.168H982.985V156.168H977.985V161.168ZM977.985 181.91H972.985V200.214L982.29 184.452L977.985 181.91ZM990.231 161.168V156.168H987.376L985.925 158.626L990.231 161.168ZM1002.95 161.168L1007.15 163.881L1012.13 156.168H1002.95V161.168ZM989.733 181.617L985.533 178.904L983.804 181.58L985.499 184.277L989.733 181.617ZM1003.8 199H990.7V209H1003.8V199ZM995.014 201.473L982.299 179.764L973.67 184.818L986.385 206.527L995.014 201.473ZM972.985 182.291V204H982.985V182.291H972.985ZM977.985 199H966.354V209H977.985V199ZM971.354 204V161.168H961.354V204H971.354ZM966.354 166.168H977.985V156.168H966.354V166.168ZM972.985 161.168V181.91H982.985V161.168H972.985ZM982.29 184.452L994.536 163.71L985.925 158.626L973.679 179.368L982.29 184.452ZM990.231 166.168H1002.95V156.168H990.231V166.168ZM998.746 158.454L985.533 178.904L993.932 184.331L1007.15 163.881L998.746 158.454ZM985.499 184.277L999.562 206.66L1008.03 201.34L993.967 178.957L985.499 184.277ZM1017.79 161.168V156.168H1012.79V161.168H1017.79ZM1028.1 161.168H1033.1V156.168H1028.1V161.168ZM1027.63 191.285L1022.64 191.019L1022.36 196.285H1027.63V191.285ZM1027.87 191.285V196.285H1030.78L1032.22 193.752L1027.87 191.285ZM1044.95 161.168V156.168H1042.04L1040.6 158.701L1044.95 161.168ZM1059.24 161.168H1064.24V156.168H1059.24V161.168ZM1059.24 204V209H1064.24V204H1059.24ZM1048.99 204H1043.99V209H1048.99V204ZM1049.52 173.883L1054.51 174.207L1054.85 168.883H1049.52V173.883ZM1049.28 173.883V168.883H1046.38L1044.94 171.4L1049.28 173.883ZM1032.06 204V209H1034.96L1036.4 206.483L1032.06 204ZM1017.79 204H1012.79V209H1017.79V204ZM1017.79 166.168H1028.1V156.168H1017.79V166.168ZM1023.1 161.168V179.566H1033.1V161.168H1023.1ZM1023.1 179.566C1023.1 181.364 1022.95 185.137 1022.64 191.019L1032.63 191.551C1032.94 185.714 1033.1 181.675 1033.1 179.566H1023.1ZM1027.63 196.285H1027.87V186.285H1027.63V196.285ZM1032.22 193.752L1049.3 163.635L1040.6 158.701L1023.52 188.819L1032.22 193.752ZM1044.95 166.168H1059.24V156.168H1044.95V166.168ZM1054.24 161.168V204H1064.24V161.168H1054.24ZM1059.24 199H1048.99V209H1059.24V199ZM1053.99 204V186.07H1043.99V204H1053.99ZM1053.99 186.07C1053.99 183.524 1054.16 179.593 1054.51 174.207L1044.53 173.559C1044.18 178.993 1043.99 183.187 1043.99 186.07H1053.99ZM1049.52 168.883H1049.28V178.883H1049.52V168.883ZM1044.94 171.4L1027.72 201.517L1036.4 206.483L1053.62 176.365L1044.94 171.4ZM1032.06 199H1017.79V209H1032.06V199ZM1022.79 204V161.168H1012.79V204H1022.79ZM1121.26 217.33V222.33H1126.26V217.33H1121.26ZM1109.98 217.33H1104.98V222.33H1109.98V217.33ZM1109.98 204H1114.98V199H1109.98V204ZM1085.02 204V199H1080.02V204H1085.02ZM1085.02 217.33V222.33H1090.02V217.33H1085.02ZM1073.74 217.33H1068.74V222.33H1073.74V217.33ZM1073.74 194.508V189.508H1068.74V194.508H1073.74ZM1077.28 194.508V199.508H1080.14L1081.59 197.049L1077.28 194.508ZM1083.61 179.479L1088.41 180.88L1088.41 180.876L1083.61 179.479ZM1086.83 161.168V156.168H1082.19L1081.85 160.794L1086.83 161.168ZM1115.4 161.168H1120.4V156.168H1115.4V161.168ZM1115.4 194.508H1110.4V199.508H1115.4V194.508ZM1121.26 194.508H1126.26V189.508H1121.26V194.508ZM1103.74 194.508V199.508H1108.74V194.508H1103.74ZM1103.74 170.631H1108.74V165.631H1103.74V170.631ZM1096.12 170.631V165.631H1091.58L1091.14 170.154L1096.12 170.631ZM1089.53 194.508L1085.01 192.361L1081.61 199.508H1089.53V194.508ZM1121.26 212.33H1109.98V222.33H1121.26V212.33ZM1114.98 217.33V204H1104.98V217.33H1114.98ZM1109.98 199H1085.02V209H1109.98V199ZM1080.02 204V217.33H1090.02V204H1080.02ZM1085.02 212.33H1073.74V222.33H1085.02V212.33ZM1078.74 217.33V194.508H1068.74V217.33H1078.74ZM1073.74 199.508H1077.28V189.508H1073.74V199.508ZM1081.59 197.049C1084.39 192.299 1086.65 186.895 1088.41 180.88L1078.81 178.077C1077.25 183.429 1075.29 188.045 1072.98 191.967L1081.59 197.049ZM1088.41 180.876C1090.18 174.808 1091.31 168.359 1091.82 161.542L1081.85 160.794C1081.38 166.984 1080.36 172.742 1078.81 178.081L1088.41 180.876ZM1086.83 166.168H1115.4V156.168H1086.83V166.168ZM1110.4 161.168V194.508H1120.4V161.168H1110.4ZM1115.4 199.508H1121.26V189.508H1115.4V199.508ZM1116.26 194.508V217.33H1126.26V194.508H1116.26ZM1108.74 194.508V170.631H1098.74V194.508H1108.74ZM1103.74 165.631H1096.12V175.631H1103.74V165.631ZM1091.14 170.154C1090.4 177.936 1088.36 185.33 1085.01 192.361L1094.04 196.655C1097.89 188.569 1100.24 180.044 1101.1 171.108L1091.14 170.154ZM1089.53 199.508H1103.74V189.508H1089.53V199.508ZM1174.04 204V209H1183.09L1178.27 201.34L1174.04 204ZM1160.94 204L1156.63 206.527L1158.08 209H1160.94V204ZM1148.23 182.291L1152.54 179.764L1143.23 163.861V182.291H1148.23ZM1148.23 204V209H1153.23V204H1148.23ZM1136.6 204H1131.6V209H1136.6V204ZM1136.6 161.168V156.168H1131.6V161.168H1136.6ZM1148.23 161.168H1153.23V156.168H1148.23V161.168ZM1148.23 181.91H1143.23V200.214L1152.54 184.452L1148.23 181.91ZM1160.48 161.168V156.168H1157.62L1156.17 158.626L1160.48 161.168ZM1173.19 161.168L1177.39 163.881L1182.37 156.168H1173.19V161.168ZM1159.98 181.617L1155.78 178.904L1154.05 181.58L1155.74 184.277L1159.98 181.617ZM1174.04 199H1160.94V209H1174.04V199ZM1165.26 201.473L1152.54 179.764L1143.92 184.818L1156.63 206.527L1165.26 201.473ZM1143.23 182.291V204H1153.23V182.291H1143.23ZM1148.23 199H1136.6V209H1148.23V199ZM1141.6 204V161.168H1131.6V204H1141.6ZM1136.6 166.168H1148.23V156.168H1136.6V166.168ZM1143.23 161.168V181.91H1153.23V161.168H1143.23ZM1152.54 184.452L1164.78 163.71L1156.17 158.626L1143.92 179.368L1152.54 184.452ZM1160.48 166.168H1173.19V156.168H1160.48V166.168ZM1168.99 158.454L1155.78 178.904L1164.18 184.331L1177.39 163.881L1168.99 158.454ZM1155.74 184.277L1169.81 206.66L1178.27 201.34L1164.21 178.957L1155.74 184.277ZM1214.31 204L1209.48 205.271L1210.46 209H1214.31V204ZM1212.21 195.973L1217.04 194.702L1216.06 190.973H1212.21V195.973ZM1198.29 195.973V190.973H1194.46L1193.46 194.669L1198.29 195.973ZM1196.12 204V209H1199.95L1200.95 205.304L1196.12 204ZM1183.41 204L1178.65 202.455L1176.52 209H1183.41V204ZM1197.38 160.992V155.992H1193.75L1192.63 159.447L1197.38 160.992ZM1212.82 160.992L1217.57 159.43L1216.44 155.992H1212.82V160.992ZM1226.97 204V209H1233.88L1231.72 202.437L1226.97 204ZM1209.8 186.48V191.48H1216.28L1214.64 185.211L1209.8 186.48ZM1207.96 179.449L1212.79 178.18L1212.79 178.152L1212.78 178.123L1207.96 179.449ZM1206.38 173.385L1201.52 174.57L1201.52 174.588L1201.53 174.606L1206.38 173.385ZM1205.17 168.053L1210.09 167.158L1200.25 167.184L1205.17 168.053ZM1204.12 172.975L1199.25 171.85L1199.24 171.87L1199.24 171.89L1204.12 172.975ZM1200.69 186.48L1195.86 185.202L1194.2 191.48H1200.69V186.48ZM1219.15 202.729L1217.04 194.702L1207.37 197.243L1209.48 205.271L1219.15 202.729ZM1212.21 190.973H1198.29V200.973H1212.21V190.973ZM1193.46 194.669L1191.29 202.696L1200.95 205.304L1203.12 197.276L1193.46 194.669ZM1196.12 199H1183.41V209H1196.12V199ZM1188.16 205.545L1202.14 162.537L1192.63 159.447L1178.65 202.455L1188.16 205.545ZM1197.38 165.992H1212.82V155.992H1197.38V165.992ZM1208.07 162.555L1222.22 205.563L1231.72 202.437L1217.57 159.43L1208.07 162.555ZM1226.97 199H1214.31V209H1226.97V199ZM1214.64 185.211L1212.79 178.18L1203.12 180.719L1204.97 187.75L1214.64 185.211ZM1212.78 178.123C1212.36 176.609 1211.84 174.626 1211.22 172.163L1201.53 174.606C1202.16 177.104 1202.69 179.164 1203.14 180.775L1212.78 178.123ZM1211.23 172.199C1210.63 169.722 1210.26 168.072 1210.09 167.158L1200.25 168.947C1200.48 170.182 1200.91 172.086 1201.52 174.57L1211.23 172.199ZM1200.25 167.184C1200.1 168.04 1199.77 169.569 1199.25 171.85L1208.99 174.099C1209.52 171.81 1209.9 170.058 1210.1 168.922L1200.25 167.184ZM1199.24 171.89C1198.76 174.062 1197.64 178.468 1195.86 185.202L1205.53 187.759C1207.3 181.056 1208.47 176.458 1209 174.059L1199.24 171.89ZM1200.69 191.48H1209.8V181.48H1200.69V191.48Z" fill="#EAA5AA"/>
<path d="M970.23 73.1367C970.23 69.5508 970.74 66.6504 971.76 64.4355C972.791 62.209 974.303 60.5684 976.295 59.5137C978.299 58.459 980.766 57.9316 983.695 57.9316C984.738 57.9316 985.957 58.0312 987.352 58.2305V63.6621C986.18 63.4395 984.908 63.3281 983.537 63.3281C981.217 63.3281 979.488 63.8379 978.352 64.8574C977.215 65.877 976.594 67.541 976.488 69.8496H976.699C977.754 67.8574 979.447 66.8613 981.779 66.8613C984.064 66.8613 985.834 67.5996 987.088 69.0762C988.354 70.541 988.986 72.5859 988.986 75.2109C988.986 78.0352 988.189 80.2676 986.596 81.9082C985.002 83.5371 982.775 84.3516 979.916 84.3516C976.881 84.3516 974.508 83.3672 972.797 81.3984C971.086 79.4297 970.23 76.6758 970.23 73.1367ZM979.758 78.8496C980.496 78.8496 981.094 78.5742 981.551 78.0234C982.02 77.4609 982.254 76.5703 982.254 75.3516C982.254 73.2656 981.445 72.2227 979.828 72.2227C979.031 72.2227 978.381 72.4922 977.877 73.0312C977.385 73.5703 977.139 74.2266 977.139 75C977.139 76.125 977.379 77.0508 977.859 77.7773C978.34 78.4922 978.973 78.8496 979.758 78.8496ZM1011 71.1855C1011 75.7324 1010.24 79.0664 1008.72 81.1875C1007.19 83.2969 1004.86 84.3516 1001.72 84.3516C998.65 84.3516 996.336 83.25 994.777 81.0469C993.219 78.832 992.439 75.5449 992.439 71.1855C992.439 66.6152 993.201 63.2637 994.725 61.1309C996.248 58.998 998.58 57.9316 1001.72 57.9316C1004.78 57.9316 1007.09 59.0449 1008.65 61.2715C1010.22 63.4863 1011 66.791 1011 71.1855ZM999.348 71.1855C999.348 74.0918 999.529 76.0898 999.892 77.1797C1000.26 78.2695 1000.87 78.8145 1001.72 78.8145C1002.59 78.8145 1003.2 78.252 1003.55 77.127C1003.91 76.002 1004.09 74.0215 1004.09 71.1855C1004.09 68.3379 1003.91 66.3457 1003.55 65.209C1003.19 64.0605 1002.58 63.4863 1001.72 63.4863C1000.87 63.4863 1000.26 64.0371 999.892 65.1387C999.529 66.2402 999.348 68.2559 999.348 71.1855ZM1033.18 71.1855C1033.18 75.7324 1032.41 79.0664 1030.89 81.1875C1029.37 83.2969 1027.03 84.3516 1023.89 84.3516C1020.82 84.3516 1018.51 83.25 1016.95 81.0469C1015.39 78.832 1014.61 75.5449 1014.61 71.1855C1014.61 66.6152 1015.37 63.2637 1016.9 61.1309C1018.42 58.998 1020.75 57.9316 1023.89 57.9316C1026.95 57.9316 1029.26 59.0449 1030.82 61.2715C1032.39 63.4863 1033.18 66.791 1033.18 71.1855ZM1021.52 71.1855C1021.52 74.0918 1021.7 76.0898 1022.07 77.1797C1022.43 78.2695 1023.04 78.8145 1023.89 78.8145C1024.76 78.8145 1025.37 78.252 1025.72 77.127C1026.09 76.002 1026.27 74.0215 1026.27 71.1855C1026.27 68.3379 1026.09 66.3457 1025.72 65.209C1025.36 64.0605 1024.75 63.4863 1023.89 63.4863C1023.04 63.4863 1022.43 64.0371 1022.07 65.1387C1021.7 66.2402 1021.52 68.2559 1021.52 71.1855ZM1055.35 71.1855C1055.35 75.7324 1054.59 79.0664 1053.06 81.1875C1051.54 83.2969 1049.21 84.3516 1046.07 84.3516C1043 84.3516 1040.68 83.25 1039.12 81.0469C1037.57 78.832 1036.79 75.5449 1036.79 71.1855C1036.79 66.6152 1037.55 63.2637 1039.07 61.1309C1040.6 58.998 1042.93 57.9316 1046.07 57.9316C1049.13 57.9316 1051.44 59.0449 1052.99 61.2715C1054.56 63.4863 1055.35 66.791 1055.35 71.1855ZM1043.7 71.1855C1043.7 74.0918 1043.88 76.0898 1044.24 77.1797C1044.6 78.2695 1045.21 78.8145 1046.07 78.8145C1046.94 78.8145 1047.54 78.252 1047.9 77.127C1048.26 76.002 1048.44 74.0215 1048.44 71.1855C1048.44 68.3379 1048.26 66.3457 1047.9 65.209C1047.53 64.0605 1046.92 63.4863 1046.07 63.4863C1045.21 63.4863 1044.6 64.0371 1044.24 65.1387C1043.88 66.2402 1043.7 68.2559 1043.7 71.1855Z" fill="#EAA5AA"/>
<defs>
<filter id="filter0_f" x="570.792" y="44.1836" width="375.899" height="374.25" filterUnits="userSpaceOnUse" color-interpolation-filters="sRGB">
<feFlood flood-opacity="0" result="BackgroundImageFix"/>
<feBlend mode="normal" in="SourceGraphic" in2="BackgroundImageFix" result="shape"/>
<feGaussianBlur stdDeviation="28.5" result="effect1_foregroundBlur"/>
</filter>
<filter id="filter1_b" x="610.641" y="66.1836" width="331.899" height="330.25" filterUnits="userSpaceOnUse" color-interpolation-filters="sRGB">
<feFlood flood-opacity="0" result="BackgroundImageFix"/>
<feGaussianBlur in="BackgroundImage" stdDeviation="17.5"/>
<feComposite in2="SourceAlpha" operator="in" result="effect1_backgroundBlur"/>
<feBlend mode="normal" in="SourceGraphic" in2="effect1_backgroundBlur" result="shape"/>
</filter>
<filter id="filter2_f" x="76.4072" y="309.516" width="134.174" height="133.77" filterUnits="userSpaceOnUse" color-interpolation-filters="sRGB">
<feFlood flood-opacity="0" result="BackgroundImageFix"/>
<feBlend mode="normal" in="SourceGraphic" in2="BackgroundImageFix" result="shape"/>
<feGaussianBlur stdDeviation="17.5" result="effect1_foregroundBlur"/>
</filter>
<filter id="filter3_b" x="84.4072" y="309.516" width="134.174" height="133.77" filterUnits="userSpaceOnUse" color-interpolation-filters="sRGB">
<feFlood flood-opacity="0" result="BackgroundImageFix"/>
<feGaussianBlur in="BackgroundImage" stdDeviation="17.5"/>
<feComposite in2="SourceAlpha" operator="in" result="effect1_backgroundBlur"/>
<feBlend mode="normal" in="SourceGraphic" in2="effect1_backgroundBlur" result="shape"/>
</filter>
<filter id="filter4_f" x="1003.16" y="321.242" width="132.68" height="132.352" filterUnits="userSpaceOnUse" color-interpolation-filters="sRGB">
<feFlood flood-opacity="0" result="BackgroundImageFix"/>
<feBlend mode="normal" in="SourceGraphic" in2="BackgroundImageFix" result="shape"/>
<feGaussianBlur stdDeviation="20" result="effect1_foregroundBlur"/>
</filter>
<filter id="filter5_b" x="1013.16" y="323.242" width="128.68" height="128.352" filterUnits="userSpaceOnUse" color-interpolation-filters="sRGB">
<feFlood flood-opacity="0" result="BackgroundImageFix"/>
<feGaussianBlur in="BackgroundImage" stdDeviation="19"/>
<feComposite in2="SourceAlpha" operator="in" result="effect1_backgroundBlur"/>
<feBlend mode="normal" in="SourceGraphic" in2="effect1_backgroundBlur" result="shape"/>
</filter>
</defs>
</svg>
