<svg width="17" height="15" viewBox="0 0 17 15" fill="none" xmlns="http://www.w3.org/2000/svg">
<path d="M16.6922 4.54114L8.74657 0.594982C8.59124 0.517818 8.40872 0.517818 8.25337 0.594982L0.307727 4.54114C0.120262 4.63437 0 4.82765 0 5.03766V13.9072C0 14.2133 0.248193 14.4616 0.554359 14.4616H16.4457C16.7518 14.4616 17 14.2134 17 13.9072V5.03766C17 4.83256 16.8846 4.6368 16.6922 4.54114ZM8.5 1.71044L15.1994 5.03766C14.9011 5.18581 8.78306 8.2243 8.5 8.36488C8.21 8.22084 2.10043 5.18654 1.80064 5.03766L8.5 1.71044ZM15.8913 13.3529H1.10869V5.93195L6.035 8.37856L2.43923 10.8476C2.18682 11.0209 2.12274 11.366 2.29603 11.6184C2.46932 11.8708 2.81443 11.9349 3.06681 11.7616L7.17154 8.94304L8.2534 9.48037C8.40816 9.55727 8.59064 9.55783 8.74663 9.48037L9.82846 8.94304L13.9332 11.7616C14.1855 11.9349 14.5307 11.8708 14.704 11.6184C14.8773 11.366 14.8132 11.0209 14.5608 10.8476L10.965 8.37856L15.8913 5.93192V13.3529Z" fill="#0B1331"/>
</svg>
