<svg width="21" height="19" viewBox="0 0 21 19" fill="none" xmlns="http://www.w3.org/2000/svg">
<path d="M20.6198 5.84459L10.8046 0.969928C10.6127 0.874607 10.3872 0.874607 10.1953 0.969928L0.380133 5.84459C0.148559 5.95976 0 6.19852 0 6.45794V17.4144C0 17.7926 0.306592 18.0992 0.684797 18.0992H20.3152C20.6934 18.0992 21 17.7926 21 17.4144V6.45794C21 6.20459 20.8575 5.96276 20.6198 5.84459ZM10.5 2.34785L18.7757 6.45794C18.4072 6.64095 10.8497 10.3944 10.5 10.568C10.1418 10.3901 2.59465 6.64185 2.22432 6.45794L10.5 2.34785ZM19.6304 16.7297H1.36955V7.56266L7.455 10.5849L3.01317 13.635C2.70137 13.849 2.62221 14.2754 2.83627 14.5871C3.05033 14.8989 3.47665 14.978 3.78841 14.764L8.85896 11.2822L10.1954 11.946C10.3866 12.041 10.612 12.0417 10.8047 11.946L12.141 11.2822L17.2116 14.764C17.5233 14.978 17.9497 14.8988 18.1637 14.5871C18.3778 14.2753 18.2986 13.849 17.9868 13.635L13.545 10.5849L19.6304 7.56261V16.7297Z" fill="#3657C8"/>
</svg>
