<svg width="63" height="63" viewBox="0 0 63 63" fill="none" xmlns="http://www.w3.org/2000/svg">
<path fill-rule="evenodd" clip-rule="evenodd" d="M52.5041 54.9754C58.9461 49.2077 63 40.8273 63 31.5C63 14.103 48.897 0 31.5 0C14.103 0 0 14.103 0 31.5C0 41.2223 4.40455 49.9158 11.3271 55.6941C11.9659 52.6428 13.2819 49.7626 15.1889 47.2685C17.5006 44.245 20.594 41.9021 24.1392 40.4896C22.0702 38.8707 20.5601 36.6507 19.8188 34.1385C19.0775 31.6263 19.142 28.9468 20.0034 26.4727C20.8647 23.9987 22.4799 21.8531 24.6245 20.3346C26.769 18.816 29.3361 18 31.9687 18C34.6013 18 37.1684 18.816 39.3129 20.3346C41.4575 21.8531 43.0727 23.9987 43.934 26.4727C44.7954 28.9468 44.8599 31.6263 44.1186 34.1385C43.3773 36.6507 41.8672 38.8707 39.7982 40.4896C43.3582 41.8947 46.4666 44.2368 48.7901 47.2649C50.5529 49.5621 51.8135 52.1885 52.5041 54.9754ZM48.7566 57.8569C48.2404 53.8552 46.2917 50.1688 43.2629 47.476C40.168 44.7245 36.1622 43.2034 32.0109 43.2034C27.8596 43.2034 23.8538 44.7245 20.7589 47.476C17.664 50.2276 15.6969 54.0167 15.2335 58.1194C15.2213 58.2294 15.2005 58.3376 15.1717 58.443C19.9332 61.3348 25.5221 63 31.5 63C37.8709 63 43.8 61.1087 48.7566 57.8569ZM27.2789 37.5846C28.6671 38.5071 30.2991 38.9994 31.9687 38.9994C34.2075 38.9994 36.3546 38.1149 37.9377 36.5406C39.5208 34.9662 40.4102 32.8308 40.4102 30.6043C40.4102 28.9439 39.9151 27.3208 38.9875 25.9402C38.06 24.5596 36.7416 23.4836 35.1991 22.8482C33.6566 22.2127 31.9593 22.0465 30.3218 22.3704C28.6844 22.6944 27.1802 23.4939 25.9997 24.668C24.8191 25.8421 24.0151 27.338 23.6894 28.9665C23.3637 30.595 23.5309 32.2829 24.1698 33.817C24.8087 35.351 25.8907 36.6621 27.2789 37.5846Z" fill="#BFC6E0"/>
</svg>
