<svg width="26" height="26" viewBox="0 0 26 26" fill="none" xmlns="http://www.w3.org/2000/svg">
<g clip-path="url(#clip0)">
<path d="M21.9818 3.69464C16.8814 -1.23155 8.79513 -1.23155 3.69466 3.69464C-1.35522 8.92318 -1.21039 17.2554 4.01815 22.3053C9.11862 27.2315 17.2048 27.2315 22.3053 22.3053C27.3552 17.0768 27.2104 8.74452 21.9818 3.69464ZM21.6867 21.6867L21.6823 21.6823C16.8829 26.4775 9.1049 26.4739 4.30977 21.6744C-0.485362 16.8749 -0.481814 9.09701 4.31769 4.30188C9.11718 -0.493256 16.8951 -0.489709 21.6903 4.30974C23.9935 6.6151 25.2864 9.74116 25.2843 13C25.2845 16.2581 23.9904 19.3828 21.6867 21.6867Z" fill="#3657C8"/>
<path d="M20.3923 16.7474L17.9267 14.2905C17.3671 13.7296 16.4587 13.7285 15.8978 14.2881C15.897 14.2889 15.8962 14.2897 15.8954 14.2905L14.4827 15.7032C14.3759 15.8103 14.2074 15.8251 14.0835 15.7383C13.3103 15.1979 12.5865 14.5901 11.9206 13.922C11.3242 13.3269 10.7756 12.6859 10.2798 12.0047C10.1899 11.8824 10.203 11.7127 10.3105 11.6055L11.7583 10.1577C12.3172 9.59767 12.3172 8.69085 11.7583 8.13081L9.29266 5.6652C8.72449 5.12202 7.82955 5.12202 7.26138 5.6652L6.48047 6.44611C5.30111 7.6122 4.88009 9.34369 5.39242 10.9211C5.77473 12.0752 6.31513 13.1707 6.99815 14.1764C7.61305 15.0984 8.31848 15.9567 9.10402 16.7386C9.95804 17.5987 10.904 18.3622 11.925 19.0155C13.0473 19.7479 14.2797 20.2959 15.5752 20.6388C15.9082 20.7209 16.25 20.7622 16.593 20.7616C17.7689 20.7544 18.8938 20.2811 19.7211 19.4455L20.3924 18.7742C20.9513 18.2142 20.9513 17.3074 20.3923 16.7474ZM19.771 18.1759C19.7705 18.1764 19.7699 18.1771 19.7693 18.1776L19.7737 18.1645L19.1024 18.8357C18.24 19.7091 16.9839 20.0684 15.79 19.7833C14.5872 19.4614 13.4438 18.9489 12.4031 18.2654C11.4362 17.6475 10.5402 16.9251 9.73126 16.1112C8.98696 15.3724 8.31828 14.5611 7.73505 13.6895C7.09712 12.7516 6.59219 11.7299 6.23461 10.6535C5.8247 9.38893 6.16438 8.00135 7.11208 7.06913L7.89299 6.28822C8.11011 6.07012 8.4629 6.06935 8.68095 6.28647C8.68151 6.28704 8.68213 6.2876 8.68269 6.28822L11.1483 8.75383C11.3664 8.97095 11.3672 9.32374 11.1501 9.54179C11.1495 9.54235 11.1489 9.54292 11.1483 9.54353L9.70052 10.9913C9.2851 11.4022 9.23286 12.0552 9.57769 12.5269C10.1013 13.2455 10.6808 13.9218 11.3107 14.5494C12.0129 15.2547 12.7763 15.8963 13.592 16.4666C14.0633 16.7954 14.7023 16.74 15.11 16.335L16.5095 14.9136C16.7266 14.6955 17.0794 14.6947 17.2975 14.9118C17.298 14.9124 17.2986 14.9129 17.2992 14.9136L19.7692 17.388C19.9874 17.605 19.9881 17.9578 19.771 18.1759Z" fill="#3657C8"/>
</g>
<defs>
<clipPath id="clip0">
<rect width="26" height="26" fill="white"/>
</clipPath>
</defs>
</svg>
