<svg width="19" height="19" fill="none" xmlns="http://www.w3.org/2000/svg"><path d="M16.01 10.375c-.193 0-.394-.061-.587-.105a8.33 8.33 0 01-1.146-.341 1.75 1.75 0 00-2.17.875l-.192.393a10.654 10.654 0 01-2.328-1.75 10.658 10.658 0 01-1.75-2.327l.368-.245a1.75 1.75 0 00.875-2.17 9.04 9.04 0 01-.341-1.146 6.491 6.491 0 01-.105-.595A2.625 2.625 0 006.009.784H3.384A2.625 2.625 0 00.759 3.77a16.625 16.625 0 0014.454 14.4h.333a2.625 2.625 0 002.399-1.555c.15-.34.228-.707.226-1.079v-2.625a2.624 2.624 0 00-2.161-2.537zm.437 5.25a.875.875 0 01-.633.842.918.918 0 01-.382.033A14.875 14.875 0 012.561 3.567a.954.954 0 01.219-.717.875.875 0 01.656-.298h2.625a.875.875 0 01.875.692c.035.239.079.475.131.708.101.462.236.915.403 1.357l-1.225.568a.875.875 0 00-.429 1.164 12.679 12.679 0 006.125 6.125.875.875 0 00.665 0 .875.875 0 00.499-.455l.542-1.225c.453.162.914.296 1.383.403.233.052.47.096.709.13a.875.875 0 01.69.876l.018 2.73z" fill="#0B1331"/></svg>