<svg width="405" height="252" viewBox="0 0 405 252" fill="none" xmlns="http://www.w3.org/2000/svg">
<rect x="0.105469" width="404" height="251" rx="4" fill="#4264EE"/>
<g opacity="0.3">
<path d="M35.3544 159.813C51.5758 159.157 66.9481 161.717 80.8645 166.697C86.8176 168.826 92.2941 171.381 98.1951 173.567C103.724 175.612 109.469 177.47 115.5 178.932C126.704 181.638 138.896 183.142 150.967 182.101C173.635 180.155 192.335 170.163 204.458 158.97C227.152 138.008 233.036 110.599 264.482 93.0571C273.901 87.8064 285.305 83.6901 296.96 80.4637C308.736 77.2008 321.214 74.8799 334.004 73.5529C355.549 71.3256 377.46 71.7359 399.106 73.272C401.93 73.4724 404.106 75.8299 404.106 78.6605V245.566C404.106 248.562 401.678 250.99 398.682 250.99H5.42425C2.42853 250.99 0 248.562 0 245.566V168.909C0 166.308 1.84497 164.069 4.40313 163.601C14.5418 161.746 24.8589 160.24 35.3544 159.813Z" fill="url(#paint0_linear)"/>
<path d="M32.0789 178.265C44.115 179.166 55.7872 181.409 66.9134 184.281C79.2095 187.461 90.613 191.733 102.848 194.996C155.906 209.145 211.91 197.051 236.684 165.802C241.467 159.765 245.427 153.516 249.223 147.245C256.926 134.521 263.988 121.262 276.7 109.954C282.61 104.693 289.811 99.8062 298.502 96.153C305.911 93.0411 314.316 90.819 322.938 89.2318C342.548 85.6255 363.864 84.7253 384.167 86.4269C389.31 86.8589 394.526 87.4601 399.666 88.2839C402.242 88.6967 404.097 90.9445 404.097 93.5532V245.576C404.097 248.572 401.669 251 398.673 251H5.42426C2.42853 251 0 248.572 0 245.576V184.22C0 181.55 1.94241 179.265 4.59284 178.938C13.6173 177.827 22.8765 177.581 32.0789 178.265Z" fill="url(#paint1_linear)"/>
<path d="M20.892 208.407C43.3958 207.678 65.1457 210.884 86.0291 215.677C109.555 221.083 132.778 227.796 158.358 228.619C181.581 229.368 204.735 224.96 223.729 216.993C242.325 209.198 257.117 198.426 267.801 186.467C278.78 174.175 287.385 160.989 300.66 149.462C315.391 136.671 336.69 127.268 361.819 123.146C374.54 121.064 387.772 120.544 400.865 121.491C402.703 121.624 404.106 123.177 404.106 125.02V245.566C404.106 248.562 401.678 250.99 398.682 250.99H5.42425C2.42853 250.99 0 248.562 0 245.566V214.926C0 212.236 1.97007 209.944 4.64056 209.623C10.0169 208.978 15.4597 208.576 20.892 208.407Z" fill="url(#paint2_linear)"/>
</g>
<mask id="path-5-inside-1" fill="white">
<path fill-rule="evenodd" clip-rule="evenodd" d="M171.121 149.941C170.56 147.633 171.977 145.307 174.285 144.747L212.806 135.391L216.34 137.188L218.657 133.97L321.406 109.015C323.714 108.455 326.04 109.871 326.601 112.18L329.747 125.136L331.432 132.072C330.012 131.959 328.55 132.066 327.091 132.421C319.704 134.215 315.17 141.657 316.964 149.044C318.758 156.43 326.201 160.964 333.587 159.17C335.047 158.815 336.395 158.24 337.605 157.489L338.985 163.17L342.233 176.545C342.794 178.853 341.377 181.179 339.069 181.74L236.32 206.694L232.785 204.897L230.468 208.116L191.964 217.467C189.649 218.029 187.319 216.603 186.766 214.286L183.574 200.92L183.573 200.914C183.56 200.862 183.016 198.699 182.156 195.231C187.05 192.173 189.67 186.223 188.233 180.309C186.794 174.382 181.718 170.291 175.952 169.833L174.166 162.48L171.121 149.941Z"/>
</mask>
<path fill-rule="evenodd" clip-rule="evenodd" d="M171.121 149.941C170.56 147.633 171.977 145.307 174.285 144.747L212.806 135.391L216.34 137.188L218.657 133.97L321.406 109.015C323.714 108.455 326.04 109.871 326.601 112.18L329.747 125.136L331.432 132.072C330.012 131.959 328.55 132.066 327.091 132.421C319.704 134.215 315.17 141.657 316.964 149.044C318.758 156.43 326.201 160.964 333.587 159.17C335.047 158.815 336.395 158.24 337.605 157.489L338.985 163.17L342.233 176.545C342.794 178.853 341.377 181.179 339.069 181.74L236.32 206.694L232.785 204.897L230.468 208.116L191.964 217.467C189.649 218.029 187.319 216.603 186.766 214.286L183.574 200.92L183.573 200.914C183.56 200.862 183.016 198.699 182.156 195.231C187.05 192.173 189.67 186.223 188.233 180.309C186.794 174.382 181.718 170.291 175.952 169.833L174.166 162.48L171.121 149.941Z" fill="#F6DA69"/>
<path d="M174.285 144.747L174.993 147.662L174.285 144.747ZM171.121 149.941L168.205 150.649L171.121 149.941ZM212.806 135.391L214.165 132.717L213.176 132.214L212.098 132.476L212.806 135.391ZM216.34 137.188L214.981 139.862L217.273 141.028L218.775 138.941L216.34 137.188ZM218.657 133.97L217.949 131.055L216.871 131.317L216.222 132.217L218.657 133.97ZM321.406 109.015L320.698 106.1L321.406 109.015ZM326.601 112.18L323.685 112.888L326.601 112.18ZM329.747 125.136L332.663 124.428L329.747 125.136ZM331.432 132.072L331.194 135.062L335.325 135.39L334.347 131.364L331.432 132.072ZM337.605 157.489L340.52 156.781L339.542 152.754L336.022 154.94L337.605 157.489ZM236.32 206.694L234.96 209.369L235.949 209.872L237.028 209.61L236.32 206.694ZM232.785 204.897L234.145 202.223L231.852 201.058L230.35 203.145L232.785 204.897ZM230.468 208.116L231.176 211.031L232.255 210.769L232.903 209.868L230.468 208.116ZM191.964 217.467L192.672 220.382L191.964 217.467ZM186.766 214.286L189.684 213.59L186.766 214.286ZM183.574 200.92L186.492 200.224L186.491 200.218L183.574 200.92ZM183.573 200.914L186.49 200.212L186.486 200.198L186.483 200.183L183.573 200.914ZM182.156 195.231L180.566 192.687L178.72 193.841L179.244 195.953L182.156 195.231ZM175.952 169.833L173.037 170.541L173.549 172.652L175.714 172.824L175.952 169.833ZM174.166 162.48L171.251 163.188L171.251 163.188L174.166 162.48ZM173.577 141.831C169.659 142.783 167.254 146.731 168.205 150.649L174.036 149.233C173.866 148.535 174.295 147.831 174.993 147.662L173.577 141.831ZM212.098 132.476L173.577 141.831L174.993 147.662L213.514 138.306L212.098 132.476ZM217.7 134.514L214.165 132.717L211.446 138.065L214.981 139.862L217.7 134.514ZM216.222 132.217L213.906 135.436L218.775 138.941L221.092 135.723L216.222 132.217ZM320.698 106.1L217.949 131.055L219.365 136.885L322.114 111.93L320.698 106.1ZM329.516 111.472C328.564 107.553 324.616 105.148 320.698 106.1L322.114 111.93C322.812 111.761 323.516 112.189 323.685 112.888L329.516 111.472ZM332.663 124.428L329.516 111.472L323.685 112.888L326.832 125.844L332.663 124.428ZM334.347 131.364L332.663 124.428L326.832 125.844L328.517 132.78L334.347 131.364ZM327.799 135.336C328.945 135.057 330.088 134.974 331.194 135.062L331.669 129.081C329.936 128.943 328.155 129.075 326.382 129.505L327.799 135.336ZM319.879 148.336C318.476 142.559 322.022 136.739 327.799 135.336L326.382 129.505C317.386 131.69 311.864 140.755 314.049 149.752L319.879 148.336ZM332.879 156.255C327.103 157.658 321.282 154.112 319.879 148.336L314.049 149.752C316.234 158.748 325.299 164.27 334.295 162.085L332.879 156.255ZM336.022 154.94C335.079 155.526 334.026 155.976 332.879 156.255L334.295 162.085C336.068 161.655 337.711 160.955 339.188 160.037L336.022 154.94ZM341.9 162.462L340.52 156.781L334.69 158.197L336.07 163.878L341.9 162.462ZM345.148 175.837L341.9 162.462L336.07 163.878L339.318 177.253L345.148 175.837ZM339.777 184.655C343.695 183.703 346.1 179.755 345.148 175.837L339.318 177.253C339.487 177.951 339.059 178.655 338.361 178.824L339.777 184.655ZM237.028 209.61L339.777 184.655L338.361 178.824L235.612 203.779L237.028 209.61ZM231.425 207.571L234.96 209.369L237.679 204.02L234.145 202.223L231.425 207.571ZM232.903 209.868L235.22 206.65L230.35 203.145L228.034 206.363L232.903 209.868ZM192.672 220.382L231.176 211.031L229.76 205.2L191.256 214.552L192.672 220.382ZM183.848 214.983C184.786 218.916 188.743 221.337 192.672 220.382L191.256 214.552C190.556 214.722 189.851 214.291 189.684 213.59L183.848 214.983ZM180.656 201.617L183.848 214.983L189.684 213.59L186.492 200.224L180.656 201.617ZM180.656 201.617L180.658 201.623L186.491 200.218L186.49 200.212L180.656 201.617ZM179.244 195.953C180.106 199.425 180.65 201.591 180.663 201.646L186.483 200.183C186.47 200.133 185.927 197.973 185.068 194.509L179.244 195.953ZM185.318 181.017C186.44 185.638 184.396 190.294 180.566 192.687L183.746 197.775C189.703 194.053 192.899 186.809 191.149 179.601L185.318 181.017ZM175.714 172.824C180.227 173.182 184.194 176.386 185.318 181.017L191.149 179.601C189.394 172.377 183.209 167.401 176.189 166.843L175.714 172.824ZM171.251 163.188L173.037 170.541L178.867 169.125L177.081 161.772L171.251 163.188ZM168.205 150.649L171.251 163.188L177.081 161.772L174.036 149.233L168.205 150.649Z" fill="#3441A2" mask="url(#path-5-inside-1)"/>
<line x1="217.514" y1="139.54" x2="232.74" y2="202.234" stroke="#4151CB" stroke-width="1.72043" stroke-dasharray="5.16 6.88"/>
<path d="M301.393 163.678C299.917 157.603 293.797 153.875 287.722 155.35C281.647 156.826 277.919 162.946 279.394 169.021C280.869 175.096 286.99 178.824 293.065 177.349C299.135 175.875 302.867 169.748 301.393 163.678ZM284.144 167.867C283.306 164.417 285.42 160.94 288.871 160.102C292.321 159.264 295.799 161.382 296.637 164.833C297.475 168.284 295.362 171.76 291.906 172.6C288.459 173.432 284.982 171.318 284.144 167.867Z" fill="url(#paint3_linear)"/>
<path d="M287.608 131.926L292.452 130.749L263.332 184.36L258.488 185.536L287.608 131.926Z" fill="url(#paint4_linear)"/>
<path d="M270.408 147.751C268.933 141.677 262.812 137.948 256.738 139.423C250.663 140.899 246.934 147.019 248.41 153.094C249.885 159.169 256.006 162.897 262.08 161.422C268.15 159.948 271.882 153.821 270.408 147.751ZM253.16 151.94C252.322 148.49 254.436 145.013 257.886 144.175C261.337 143.337 264.815 145.456 265.653 148.906C266.491 152.357 264.377 155.834 260.922 156.673C257.475 157.505 253.998 155.391 253.16 151.94Z" fill="url(#paint5_linear)"/>
<g opacity="0.1">
<path d="M379.893 219.893C379.893 211.116 372.777 204 363.999 204C355.221 204 348.105 211.116 348.105 219.893C348.105 228.671 355.221 235.787 363.999 235.787C372.77 235.787 379.893 228.664 379.893 219.893ZM354.969 219.893C354.969 214.907 359.006 210.864 363.992 210.864C368.978 210.864 373.022 214.907 373.022 219.893C373.022 224.879 368.985 228.923 363.992 228.923C359.013 228.916 354.969 224.879 354.969 219.893Z" fill="url(#paint6_linear)"/>
<path d="M143.004 79.9926C143.004 71.2148 135.881 64.099 127.11 64.099C118.325 64.099 111.217 71.2148 111.217 79.9926C111.217 88.7632 118.325 95.8862 127.11 95.8862C135.881 95.8862 143.004 88.7632 143.004 79.9926ZM118.074 79.9926C118.074 75.0065 122.117 70.963 127.103 70.963C132.089 70.963 136.133 75.0065 136.133 79.9926C136.133 84.9715 132.089 89.0151 127.103 89.0151C122.124 89.0222 118.074 84.9715 118.074 79.9926Z" fill="url(#paint7_linear)"/>
<path d="M296.91 22.6275C296.91 17.4831 292.737 13.3101 287.593 13.3101C282.448 13.3101 278.275 17.4831 278.275 22.6275C278.275 27.7647 282.448 31.9449 287.593 31.9449C292.737 31.9449 296.91 27.7647 296.91 22.6275ZM282.305 22.6275C282.305 19.6992 284.679 17.3392 287.593 17.3392C290.521 17.3392 292.888 19.7064 292.888 22.6275C292.888 25.5415 290.521 27.9158 287.593 27.9158C284.679 27.9158 282.305 25.5415 282.305 22.6275Z" fill="url(#paint8_linear)"/>
<path d="M347.711 121.303C347.711 117.266 344.445 114 340.408 114C336.372 114 333.105 117.266 333.105 121.303C333.105 125.339 336.372 128.613 340.408 128.613C344.445 128.605 347.711 125.339 347.711 121.303ZM336.264 121.303C336.264 119.007 338.12 117.151 340.416 117.151C342.704 117.151 344.567 119.007 344.567 121.303C344.567 123.598 342.696 125.454 340.416 125.454C338.12 125.447 336.264 123.591 336.264 121.303Z" fill="url(#paint9_linear)"/>
<path d="M195.102 13.3101C195.102 9.2737 191.828 6 187.799 6C183.763 6 180.496 9.2737 180.496 13.3101C180.496 17.3464 183.763 20.6057 187.799 20.6057C191.828 20.6057 195.102 17.3464 195.102 13.3101ZM183.655 13.3101C183.655 11.0149 185.511 9.15857 187.806 9.15857C190.101 9.15857 191.95 11.0149 191.95 13.3101C191.95 15.6052 190.101 17.4615 187.806 17.4615C185.504 17.4543 183.655 15.6052 183.655 13.3101Z" fill="url(#paint10_linear)"/>
<path d="M136.733 226.31C136.733 221.166 132.56 217 127.416 217C122.279 217 118.105 221.166 118.105 226.31C118.105 231.454 122.279 235.627 127.416 235.627C132.553 235.627 136.733 231.454 136.733 226.31ZM122.12 226.31C122.12 223.382 124.495 221.015 127.416 221.015C130.344 221.015 132.711 223.382 132.711 226.31C132.711 229.231 130.344 231.605 127.416 231.605C124.495 231.605 122.12 229.231 122.12 226.31Z" fill="url(#paint11_linear)"/>
<path d="M46.7331 181.31C46.7331 176.173 42.5601 172 37.4157 172C32.2785 172 28.1055 176.173 28.1055 181.31C28.1055 186.454 32.2785 190.627 37.4157 190.627C42.5601 190.627 46.7331 186.454 46.7331 181.31ZM32.1274 181.31C32.1274 178.382 34.5018 176.015 37.4157 176.015C40.344 176.015 42.7184 178.382 42.7184 181.31C42.7184 184.238 40.344 186.605 37.4157 186.605C34.4946 186.605 32.1274 184.231 32.1274 181.31Z" fill="url(#paint12_linear)"/>
<path d="M31.7403 25.31C31.7403 20.1656 27.5673 15.9998 22.4229 15.9998C17.2857 15.9998 13.1055 20.1656 13.1055 25.31C13.1055 30.4544 17.2857 34.6274 22.4229 34.6274C27.5673 34.6274 31.7403 30.4544 31.7403 25.31ZM17.1274 25.31C17.1274 22.3817 19.4946 20.0145 22.4229 20.0145C25.344 20.0145 27.7184 22.3817 27.7184 25.31C27.7184 28.2239 25.3512 30.6055 22.4229 30.6055C19.4946 30.6055 17.1274 28.2239 17.1274 25.31Z" fill="url(#paint13_linear)"/>
</g>
<g opacity="0.1">
<path d="M301.872 230.47L309.976 238.599L301.935 246.627L306.405 251.11L318.916 238.611L306.342 226.013L301.872 230.47Z" fill="#B31C81"/>
<path d="M284.391 230.483L292.52 238.599L284.479 246.627L288.936 251.11L301.473 238.611L288.861 226L284.379 230.483H284.391Z" fill="#B31C81"/>
<path d="M266.935 230.47L275.051 238.599L267.01 246.627L271.467 251.11L283.979 238.611L271.405 226.013L266.935 230.47Z" fill="#B31C81"/>
<path d="M249.466 230.47L257.582 238.599L249.541 246.627L253.998 251.11L266.51 238.611L253.936 226.013L249.466 230.47Z" fill="#B31C81"/>
<path d="M232 230.47L240.116 238.599L232.075 246.627L236.545 251.11L249.057 238.611L236.47 226L232 230.483V230.47Z" fill="#B31C81"/>
</g>
<path d="M55.9922 31.875C55.9922 32.9766 55.6016 33.8867 54.8203 34.6055C54.0391 35.3242 52.9805 35.7812 51.6445 35.9766V36.0469C53.2148 36.2031 54.418 36.6367 55.2539 37.3477C56.0977 38.0586 56.5195 38.9844 56.5195 40.125C56.5195 41.7031 55.8789 42.9492 54.5977 43.8633C53.3242 44.7773 51.5586 45.2344 49.3008 45.2344C46.7852 45.2344 44.7656 44.9258 43.2422 44.3086V41.2617C43.9766 41.6133 44.8359 41.8906 45.8203 42.0938C46.8125 42.2891 47.7383 42.3867 48.5977 42.3867C51.4805 42.3867 52.9219 41.5469 52.9219 39.8672C52.9219 39.1094 52.457 38.5273 51.5273 38.1211C50.6055 37.7148 49.2383 37.5117 47.4258 37.5117H45.8203V34.6758H47.2617C49.0742 34.6758 50.3945 34.5039 51.2227 34.1602C52.0508 33.8164 52.4648 33.2461 52.4648 32.4492C52.4648 31.8633 52.2031 31.3984 51.6797 31.0547C51.1641 30.7031 50.3867 30.5273 49.3477 30.5273C47.7383 30.5273 46.1836 30.9922 44.6836 31.9219L43.1016 29.4961C44.0781 28.8477 45.1133 28.375 46.207 28.0781C47.3008 27.7734 48.5156 27.6211 49.8516 27.6211C51.7188 27.6211 53.207 28.0117 54.3164 28.793C55.4336 29.5742 55.9922 30.6016 55.9922 31.875ZM72.127 45L70.8848 40.9219H64.6388L63.3966 45H59.4825L65.5294 27.7969H69.9708L76.0411 45H72.127ZM70.0177 37.875C68.8692 34.1797 68.2208 32.0898 68.0723 31.6055C67.9317 31.1211 67.8302 30.7383 67.7677 30.457C67.5098 31.457 66.7716 33.9297 65.5528 37.875H70.0177ZM94.0978 45H89.9728L83.7619 36.3164V45H80.1291V27.8672H83.7619V36.1641L89.9025 27.8672H93.7697L87.5236 36.0938L94.0978 45ZM108.662 45L107.42 40.9219H101.174L99.9319 45H96.0178L102.065 27.7969H106.506L112.576 45H108.662ZM106.553 37.875C105.405 34.1797 104.756 32.0898 104.608 31.6055C104.467 31.1211 104.365 30.7383 104.303 30.457C104.045 31.457 103.307 33.9297 102.088 37.875H106.553ZM120.602 36.0938L114.848 27.8672H118.586L124.129 36.1641V27.8672H127.516V36.1641L133.059 27.8672H136.809L131.043 36.0938L137.137 45H133.246L127.516 36.3164V45H124.129V36.3164L118.399 45H114.508L120.602 36.0938ZM141.225 27.8672H144.495V36.1406L144.448 38.3555L144.33 40.875H144.401L152.311 27.8672H156.659V45H153.424V36.7734C153.424 35.6719 153.495 34.0391 153.635 31.875H153.541L145.596 45H141.225V27.8672ZM174.69 34.4414H176.12C178.354 34.4414 180.081 34.8945 181.299 35.8008C182.518 36.707 183.128 37.9883 183.128 39.6445C183.128 43.2148 180.768 45 176.049 45H171.057V27.8672H181.885V30.8672H174.69V34.4414ZM174.69 42.0234H175.909C177.135 42.0234 178.034 41.8281 178.604 41.4375C179.174 41.0391 179.46 40.4414 179.46 39.6445C179.46 38.8555 179.17 38.2891 178.592 37.9453C178.014 37.5938 177.022 37.418 175.616 37.418H174.69V42.0234ZM201.817 27.8672L196.52 39.9844C195.856 41.5078 195.231 42.6016 194.645 43.2656C194.067 43.9297 193.38 44.4258 192.583 44.7539C191.786 45.0742 190.817 45.2344 189.676 45.2344C188.7 45.2344 187.79 45.1172 186.946 44.8828V41.7656C187.633 42.0469 188.489 42.1875 189.512 42.1875C190.161 42.1875 190.684 42.0391 191.083 41.7422C191.481 41.4375 191.813 40.9141 192.079 40.1719L186.149 27.8672H189.993L194.212 37.418H194.329L194.54 36.832L198.079 27.8672H201.817ZM219.874 45H215.749L209.538 36.3164V45H205.905V27.8672H209.538V36.1641L215.678 27.8672H219.546L213.3 36.0938L219.874 45ZM233.817 45H223.95V27.8672H233.817V30.8438H227.583V34.6055H233.384V37.582H227.583V42H233.817V45ZM245.932 45H242.3V30.8906H237.647V27.8672H250.585V30.8906H245.932V45ZM262.101 39.8906V37.1953H272.179V39.8906H262.101Z" fill="white"/>
<path d="M107.891 80H103.227V66.6523H98.5039V80H93.8516V62.8672H107.891V80ZM128.345 71.4102C128.345 74.293 127.638 76.4844 126.224 77.9844C124.81 79.4844 122.74 80.2344 120.013 80.2344C117.325 80.2344 115.263 79.4805 113.825 77.9727C112.396 76.4648 111.681 74.2695 111.681 71.3867C111.681 68.5352 112.392 66.3594 113.814 64.8594C115.243 63.3516 117.318 62.5977 120.036 62.5977C122.763 62.5977 124.829 63.3438 126.236 64.8359C127.642 66.3281 128.345 68.5195 128.345 71.4102ZM116.556 71.4102C116.556 74.7227 117.708 76.3789 120.013 76.3789C121.185 76.3789 122.052 75.9766 122.615 75.1719C123.185 74.3672 123.47 73.1133 123.47 71.4102C123.47 69.6992 123.181 68.4375 122.603 67.625C122.032 66.8047 121.177 66.3945 120.036 66.3945C117.716 66.3945 116.556 68.0664 116.556 71.4102ZM146.749 80H142.096V66.6523H138.827C138.647 68.5977 138.405 70.5781 138.1 72.5938C137.803 74.6094 137.518 76.0234 137.245 76.8359C136.971 77.6484 136.624 78.2969 136.202 78.7812C135.788 79.2578 135.272 79.6211 134.655 79.8711C134.038 80.1133 133.292 80.2344 132.417 80.2344C131.752 80.2344 131.147 80.1484 130.6 79.9766V76.4023C131.069 76.5586 131.452 76.6367 131.749 76.6367C132.155 76.6367 132.463 76.4688 132.674 76.1328C132.893 75.7891 133.092 75.2109 133.272 74.3984C133.452 73.5781 133.702 72.0625 134.022 69.8516C134.342 67.6328 134.639 65.3047 134.913 62.8672H146.749V80ZM153.387 80.2344C152.293 80.2344 151.293 80.1172 150.387 79.8828V76.2031C151.121 76.4922 152.051 76.6367 153.176 76.6367C153.66 76.6367 154.066 76.5273 154.394 76.3086C154.73 76.082 155.004 75.6875 155.215 75.125L149.625 62.8672H154.617L156.726 68.0938C156.805 68.2969 156.898 68.5391 157.008 68.8203C157.125 69.1016 157.238 69.3945 157.347 69.6992C157.457 69.9961 157.558 70.293 157.652 70.5898C157.746 70.8867 157.82 71.1445 157.875 71.3633H158.039C158.305 70.3008 158.699 69.0586 159.222 67.6367L160.969 62.8672H165.961L160.758 74.8906C160.109 76.3906 159.472 77.4961 158.847 78.207C158.222 78.9102 157.472 79.4258 156.597 79.7539C155.73 80.0742 154.66 80.2344 153.387 80.2344ZM182.782 80H178.118V73.6602C176.142 74.3477 174.376 74.6914 172.821 74.6914C171.196 74.6914 169.927 74.293 169.013 73.4961C168.107 72.6914 167.653 71.5625 167.653 70.1094V62.8672H172.317V68.5742C172.317 69.4102 172.485 70.0078 172.821 70.3672C173.157 70.7266 173.692 70.9062 174.427 70.9062C175.427 70.9062 176.657 70.6406 178.118 70.1094V62.8672H182.782V80ZM187.194 62.8672H191.319V70.2266C191.319 71.0078 191.256 72.5703 191.131 74.9141H191.225L198.057 62.8672H203.776V80H199.674V72.8281C199.674 71.7422 199.745 70.1172 199.885 67.9531H199.791L192.901 80H187.194V62.8672ZM230.142 80H224.903L219.817 71.3164V80H215.165V62.8672H219.817V71.1641L224.716 62.8672H229.802L224.517 71.0469L230.142 80ZM234.822 80.2344C233.729 80.2344 232.729 80.1172 231.822 79.8828V76.2031C232.557 76.4922 233.487 76.6367 234.612 76.6367C235.096 76.6367 235.502 76.5273 235.83 76.3086C236.166 76.082 236.44 75.6875 236.651 75.125L231.061 62.8672H236.053L238.162 68.0938C238.24 68.2969 238.334 68.5391 238.444 68.8203C238.561 69.1016 238.674 69.3945 238.783 69.6992C238.893 69.9961 238.994 70.293 239.088 70.5898C239.182 70.8867 239.256 71.1445 239.311 71.3633H239.475C239.74 70.3008 240.135 69.0586 240.658 67.6367L242.405 62.8672H247.397L242.194 74.8906C241.545 76.3906 240.908 77.4961 240.283 78.207C239.658 78.9102 238.908 79.4258 238.033 79.7539C237.166 80.0742 236.096 80.2344 234.822 80.2344ZM263.738 80H259.074V66.6523H254.351V80H249.699V62.8672H263.738V80ZM284.192 71.4102C284.192 74.293 283.485 76.4844 282.071 77.9844C280.657 79.4844 278.587 80.2344 275.86 80.2344C273.173 80.2344 271.11 79.4805 269.673 77.9727C268.243 76.4648 267.528 74.2695 267.528 71.3867C267.528 68.5352 268.239 66.3594 269.661 64.8594C271.091 63.3516 273.165 62.5977 275.884 62.5977C278.61 62.5977 280.677 63.3438 282.083 64.8359C283.489 66.3281 284.192 68.5195 284.192 71.4102ZM272.403 71.4102C272.403 74.7227 273.555 76.3789 275.86 76.3789C277.032 76.3789 277.899 75.9766 278.462 75.1719C279.032 74.3672 279.317 73.1133 279.317 71.4102C279.317 69.6992 279.028 68.4375 278.45 67.625C277.88 66.8047 277.024 66.3945 275.884 66.3945C273.563 66.3945 272.403 68.0664 272.403 71.4102ZM302.69 80H298.037V73.0156H292.658V80H288.006V62.8672H292.658V69.2188H298.037V62.8672H302.69V80Z" fill="white"/>
<path d="M140.797 104.156C138.078 104.156 136.719 102.664 136.719 99.6797C136.719 98.1953 137.089 97.0625 137.828 96.2812C138.568 95.4948 139.628 95.1016 141.008 95.1016C142.018 95.1016 142.924 95.2995 143.727 95.6953L143.023 97.5391C142.648 97.388 142.299 97.2656 141.977 97.1719C141.654 97.0729 141.331 97.0234 141.008 97.0234C139.768 97.0234 139.148 97.9036 139.148 99.6641C139.148 101.372 139.768 102.227 141.008 102.227C141.466 102.227 141.891 102.167 142.281 102.047C142.672 101.922 143.062 101.729 143.453 101.469V103.508C143.068 103.753 142.677 103.922 142.281 104.016C141.891 104.109 141.396 104.156 140.797 104.156ZM147.863 99.6172C147.863 100.482 148.003 101.135 148.285 101.578C148.571 102.021 149.035 102.242 149.675 102.242C150.311 102.242 150.766 102.023 151.042 101.586C151.324 101.143 151.464 100.487 151.464 99.6172C151.464 98.7526 151.324 98.1042 151.042 97.6719C150.761 97.2396 150.3 97.0234 149.66 97.0234C149.024 97.0234 148.566 97.2396 148.285 97.6719C148.003 98.099 147.863 98.7474 147.863 99.6172ZM153.902 99.6172C153.902 101.039 153.527 102.151 152.777 102.953C152.027 103.755 150.983 104.156 149.644 104.156C148.806 104.156 148.066 103.974 147.425 103.609C146.785 103.24 146.292 102.711 145.949 102.023C145.605 101.336 145.433 100.534 145.433 99.6172C145.433 98.1901 145.806 97.0807 146.55 96.2891C147.295 95.4974 148.342 95.1016 149.691 95.1016C150.529 95.1016 151.269 95.2839 151.91 95.6484C152.55 96.013 153.042 96.5365 153.386 97.2188C153.73 97.901 153.902 98.7005 153.902 99.6172ZM164.534 104.156C161.815 104.156 160.456 102.664 160.456 99.6797C160.456 98.1953 160.825 97.0625 161.565 96.2812C162.305 95.4948 163.364 95.1016 164.745 95.1016C165.755 95.1016 166.661 95.2995 167.463 95.6953L166.76 97.5391C166.385 97.388 166.036 97.2656 165.713 97.1719C165.391 97.0729 165.068 97.0234 164.745 97.0234C163.505 97.0234 162.885 97.9036 162.885 99.6641C162.885 101.372 163.505 102.227 164.745 102.227C165.203 102.227 165.628 102.167 166.018 102.047C166.409 101.922 166.799 101.729 167.19 101.469V103.508C166.805 103.753 166.414 103.922 166.018 104.016C165.628 104.109 165.133 104.156 164.534 104.156ZM175.428 95.2656H178.053L174.592 99.4531L178.357 104H175.654L172.084 99.5703V104H169.701V95.2656H172.084V99.5078L175.428 95.2656ZM182.392 95.2656V98.7188C182.392 99.0833 182.332 99.974 182.213 101.391L186.244 95.2656H189.111V104H186.806V100.516C186.806 99.8958 186.858 99.0208 186.963 97.8906L182.947 104H180.088V95.2656H182.392ZM197.568 102.258V97.0547H195.778C195.648 98.0234 195.469 98.9427 195.239 99.8125C195.015 100.682 194.703 101.497 194.302 102.258H197.568ZM201.232 107.133H199.091V104H193.216V107.133H191.075V102.258H191.81C192.31 101.482 192.729 100.503 193.068 99.3203C193.406 98.138 193.643 96.7865 193.778 95.2656H199.95V102.258H201.232V107.133ZM208.93 95.2656H211.555L208.094 99.4531L211.86 104H209.157L205.587 99.5703V104H203.204V95.2656H205.587V99.5078L208.93 95.2656ZM215.488 99.6172C215.488 100.482 215.629 101.135 215.91 101.578C216.197 102.021 216.66 102.242 217.301 102.242C217.936 102.242 218.392 102.023 218.668 101.586C218.949 101.143 219.09 100.487 219.09 99.6172C219.09 98.7526 218.949 98.1042 218.668 97.6719C218.387 97.2396 217.926 97.0234 217.285 97.0234C216.65 97.0234 216.192 97.2396 215.91 97.6719C215.629 98.099 215.488 98.7474 215.488 99.6172ZM221.527 99.6172C221.527 101.039 221.152 102.151 220.402 102.953C219.652 103.755 218.608 104.156 217.27 104.156C216.431 104.156 215.692 103.974 215.051 103.609C214.41 103.24 213.918 102.711 213.574 102.023C213.231 101.336 213.059 100.534 213.059 99.6172C213.059 98.1901 213.431 97.0807 214.176 96.2891C214.921 95.4974 215.968 95.1016 217.317 95.1016C218.155 95.1016 218.895 95.2839 219.535 95.6484C220.176 96.013 220.668 96.5365 221.012 97.2188C221.356 97.901 221.527 98.7005 221.527 99.6172ZM226.281 95.2656V98.7188C226.281 99.0833 226.221 99.974 226.101 101.391L230.132 95.2656H233V104H230.695V100.516C230.695 99.8958 230.747 99.0208 230.851 97.8906L226.836 104H223.976V95.2656H226.281ZM232.297 91.5078C232.198 92.4818 231.83 93.1927 231.195 93.6406C230.56 94.0833 229.643 94.3047 228.445 94.3047C227.211 94.3047 226.297 94.0911 225.703 93.6641C225.114 93.237 224.784 92.5182 224.711 91.5078H226.843C226.88 92.0443 227.013 92.4219 227.242 92.6406C227.476 92.8542 227.893 92.9609 228.492 92.9609C229.018 92.9609 229.409 92.8438 229.664 92.6094C229.924 92.3698 230.083 92.0026 230.14 91.5078H232.297Z" fill="white"/>
<path d="M78.8332 93.3337L84.6663 99.1668L78.8332 105" stroke="#CFD7FA" stroke-width="2.06234"/>
<path d="M103.581 93.3337L109.414 99.1668L103.581 105" stroke="#CFD7FA" stroke-width="2.06234"/>
<path d="M91.2082 93L97.0413 98.8332L91.2082 104.666" stroke="#CFD7FA" stroke-width="2.06234"/>
<path d="M115.956 93L121.789 98.8332L115.956 104.666" stroke="#CFD7FA" stroke-width="2.06234"/>
<defs>
<linearGradient id="paint0_linear" x1="202.058" y1="250.991" x2="202.058" y2="24.5745" gradientUnits="userSpaceOnUse">
<stop stop-color="#502883"/>
<stop offset="0.5472" stop-color="#41247B"/>
<stop offset="1" stop-color="#3A2277"/>
</linearGradient>
<linearGradient id="paint1_linear" x1="411.041" y1="168.29" x2="-18.6648" y2="168.29" gradientUnits="userSpaceOnUse">
<stop stop-color="#952082"/>
<stop offset="0.0114" stop-color="#932082"/>
<stop offset="0.1391" stop-color="#822182"/>
<stop offset="0.2937" stop-color="#752282"/>
<stop offset="0.5028" stop-color="#6E2382"/>
<stop offset="1" stop-color="#6C2382"/>
</linearGradient>
<linearGradient id="paint2_linear" x1="411.041" y1="186.011" x2="-18.6648" y2="186.011" gradientUnits="userSpaceOnUse">
<stop stop-color="#B91C82"/>
<stop offset="0.2164" stop-color="#B51C82"/>
<stop offset="0.4522" stop-color="#A71E82"/>
<stop offset="0.6972" stop-color="#922082"/>
<stop offset="0.947" stop-color="#732282"/>
<stop offset="1" stop-color="#6C2382"/>
</linearGradient>
<linearGradient id="paint3_linear" x1="287.72" y1="155.348" x2="293.063" y2="177.347" gradientUnits="userSpaceOnUse">
<stop stop-color="#E83C87"/>
<stop offset="1" stop-color="#E3032C"/>
</linearGradient>
<linearGradient id="paint4_linear" x1="270.129" y1="136.167" x2="280.802" y2="180.113" gradientUnits="userSpaceOnUse">
<stop stop-color="#E83C87"/>
<stop offset="1" stop-color="#E3032C"/>
</linearGradient>
<linearGradient id="paint5_linear" x1="256.736" y1="139.422" x2="262.078" y2="161.421" gradientUnits="userSpaceOnUse">
<stop stop-color="#E83C87"/>
<stop offset="1" stop-color="#E3032C"/>
</linearGradient>
<linearGradient id="paint6_linear" x1="363.997" y1="203.997" x2="363.997" y2="235.784" gradientUnits="userSpaceOnUse">
<stop stop-color="#E83C87"/>
<stop offset="1" stop-color="#E3032C"/>
</linearGradient>
<linearGradient id="paint7_linear" x1="127.106" y1="64.101" x2="127.106" y2="95.8854" gradientUnits="userSpaceOnUse">
<stop stop-color="#E83C87"/>
<stop offset="1" stop-color="#E3032C"/>
</linearGradient>
<linearGradient id="paint8_linear" x1="287.593" y1="13.3097" x2="287.593" y2="31.9431" gradientUnits="userSpaceOnUse">
<stop stop-color="#682B85"/>
<stop offset="0.2755" stop-color="#582984"/>
<stop offset="0.7002" stop-color="#462782"/>
<stop offset="1" stop-color="#3F2682"/>
</linearGradient>
<linearGradient id="paint9_linear" x1="340.409" y1="113.999" x2="340.409" y2="128.608" gradientUnits="userSpaceOnUse">
<stop stop-color="#682B85"/>
<stop offset="0.2755" stop-color="#582984"/>
<stop offset="0.7002" stop-color="#462782"/>
<stop offset="1" stop-color="#3F2682"/>
</linearGradient>
<linearGradient id="paint10_linear" x1="187.802" y1="5.99918" x2="187.802" y2="20.6083" gradientUnits="userSpaceOnUse">
<stop stop-color="#682B85"/>
<stop offset="0.2755" stop-color="#582984"/>
<stop offset="0.7002" stop-color="#462782"/>
<stop offset="1" stop-color="#3F2682"/>
</linearGradient>
<linearGradient id="paint11_linear" x1="127.414" y1="216.997" x2="127.414" y2="235.628" gradientUnits="userSpaceOnUse">
<stop stop-color="#E83C87"/>
<stop offset="1" stop-color="#E3032C"/>
</linearGradient>
<linearGradient id="paint12_linear" x1="37.4151" y1="171.997" x2="37.4151" y2="190.628" gradientUnits="userSpaceOnUse">
<stop stop-color="#E83C87"/>
<stop offset="1" stop-color="#E3032C"/>
</linearGradient>
<linearGradient id="paint13_linear" x1="22.42" y1="15.9979" x2="22.42" y2="34.6261" gradientUnits="userSpaceOnUse">
<stop stop-color="#E83C87"/>
<stop offset="1" stop-color="#E3032C"/>
</linearGradient>
</defs>
</svg>
