<svg width="597" height="331" viewBox="0 0 597 331" fill="none" xmlns="http://www.w3.org/2000/svg">
<rect width="597" height="331" rx="20" fill="#4264EE"/>
<path opacity="0.2" d="M367.438 169.547C367.438 181.453 368.469 190.359 370.531 196.266C372.688 202.078 376.109 204.984 380.797 204.984C389.797 204.984 394.297 193.172 394.297 169.547C394.297 146.109 389.797 134.391 380.797 134.391C376.109 134.391 372.688 137.297 370.531 143.109C368.469 148.828 367.438 157.641 367.438 169.547ZM429.734 169.266C429.734 190.828 425.562 207.047 417.219 217.922C408.875 228.703 396.641 234.094 380.516 234.094C365.047 234.094 353.094 228.562 344.656 217.5C336.219 206.344 332 190.266 332 169.266C332 126.422 348.172 105 380.516 105C396.359 105 408.5 110.578 416.938 121.734C425.469 132.797 429.734 148.641 429.734 169.266ZM526.484 107.953L412.438 313.547H378.688L492.734 107.953H526.484ZM511.438 251.672C511.438 263.578 512.469 272.484 514.531 278.391C516.688 284.203 520.109 287.109 524.797 287.109C533.797 287.109 538.297 275.297 538.297 251.672C538.297 228.234 533.797 216.516 524.797 216.516C520.109 216.516 516.688 219.422 514.531 225.234C512.469 230.953 511.438 239.766 511.438 251.672ZM573.734 251.391C573.734 272.859 569.562 289.031 561.219 299.906C552.875 310.688 540.641 316.078 524.516 316.078C509.047 316.078 497.094 310.547 488.656 299.484C480.219 288.328 476 272.297 476 251.391C476 208.547 492.172 187.125 524.516 187.125C540.359 187.125 552.5 192.703 560.938 203.859C569.469 214.922 573.734 230.766 573.734 251.391Z" fill="white"/>
<path opacity="0.2" d="M201.351 230.167C201.351 236.653 201.914 241.506 203.04 244.724C204.218 247.89 206.086 249.474 208.646 249.474C213.56 249.474 216.017 243.038 216.017 230.167C216.017 217.397 213.56 211.013 208.646 211.013C206.086 211.013 204.218 212.596 203.04 215.763C201.914 218.879 201.351 223.68 201.351 230.167ZM235.368 230.013C235.368 241.761 233.09 250.597 228.534 256.522C223.978 262.396 217.297 265.333 208.492 265.333C200.045 265.333 193.518 262.32 188.911 256.292C184.304 250.214 182 241.455 182 230.013C182 206.671 190.831 195 208.492 195C217.144 195 223.773 198.039 228.38 204.117C233.039 210.144 235.368 218.776 235.368 230.013ZM288.199 196.609L225.923 308.621H207.494L269.77 196.609H288.199ZM279.983 274.91C279.983 281.397 280.546 286.249 281.672 289.467C282.849 292.634 284.718 294.217 287.277 294.217C292.192 294.217 294.649 287.781 294.649 274.91C294.649 262.141 292.192 255.756 287.277 255.756C284.718 255.756 282.849 257.34 281.672 260.506C280.546 263.622 279.983 268.423 279.983 274.91ZM314 274.757C314 286.453 311.722 295.264 307.166 301.189C302.61 307.063 295.929 310 287.124 310C278.677 310 272.15 306.986 267.543 300.959C262.935 294.881 260.632 286.147 260.632 274.757C260.632 251.415 269.462 239.744 287.124 239.744C295.775 239.744 302.405 242.783 307.012 248.861C311.671 254.888 314 263.52 314 274.757Z" fill="white"/>
<path opacity="0.2" d="M78.1937 255.852C78.1937 260.252 78.5777 263.543 79.3455 265.726C80.1483 267.873 81.4223 268.947 83.1675 268.947C86.5183 268.947 88.1937 264.582 88.1937 255.852C88.1937 247.191 86.5183 242.861 83.1675 242.861C81.4223 242.861 80.1483 243.935 79.3455 246.083C78.5777 248.196 78.1937 251.452 78.1937 255.852ZM101.387 255.748C101.387 263.716 99.8342 269.71 96.7277 273.728C93.6213 277.712 89.0663 279.704 83.0628 279.704C77.3037 279.704 72.8534 277.66 69.712 273.572C66.5707 269.45 65 263.508 65 255.748C65 239.916 71.0209 232 83.0628 232C88.9616 232 93.4817 234.061 96.623 238.184C99.7993 242.272 101.387 248.127 101.387 255.748ZM137.408 233.091L94.9476 309.065H82.3822L124.843 233.091H137.408ZM131.806 286.2C131.806 290.6 132.19 293.891 132.958 296.073C133.761 298.221 135.035 299.295 136.78 299.295C140.131 299.295 141.806 294.93 141.806 286.2C141.806 277.539 140.131 273.209 136.78 273.209C135.035 273.209 133.761 274.282 132.958 276.43C132.19 278.544 131.806 281.8 131.806 286.2ZM155 286.096C155 294.029 153.447 300.005 150.34 304.024C147.234 308.008 142.679 310 136.675 310C130.916 310 126.466 307.956 123.325 303.868C120.183 299.746 118.613 293.821 118.613 286.096C118.613 270.264 124.634 262.348 136.675 262.348C142.574 262.348 147.094 264.409 150.236 268.532C153.412 272.62 155 278.474 155 286.096Z" fill="white"/>
</svg>
