<svg width="20" height="20" viewBox="0 0 20 20" fill="none" xmlns="http://www.w3.org/2000/svg">
<path d="M18.8417 5.87534L14.1667 1.15867C14.0888 1.08144 13.9965 1.02033 13.8949 0.978863C13.7934 0.937393 13.6847 0.916372 13.575 0.917006C13.3564 0.917927 13.1469 1.00472 12.9917 1.15867L1.15834 12.9503C1.00313 13.1065 0.916016 13.3177 0.916016 13.5378C0.916016 13.758 1.00313 13.9692 1.15834 14.1253L5.87501 18.842C5.95288 18.9192 6.04522 18.9803 6.14675 19.0218C6.24828 19.0633 6.357 19.0843 6.46668 19.0837C6.68529 19.0828 6.89479 18.996 7.05001 18.842L9.40834 16.4837L16.4833 9.40867L18.8417 7.05034C18.9969 6.8942 19.084 6.68299 19.084 6.46284C19.084 6.24268 18.9969 6.03148 18.8417 5.87534ZM15.8917 7.64201L15.3 7.05034C15.1439 6.89513 14.9327 6.80801 14.7125 6.80801C14.4924 6.80801 14.2811 6.89513 14.125 7.05034C14.0469 7.12781 13.9849 7.21998 13.9426 7.32153C13.9003 7.42307 13.8785 7.532 13.8785 7.64201C13.8785 7.75202 13.9003 7.86094 13.9426 7.96249C13.9849 8.06404 14.0469 8.1562 14.125 8.23367L14.7167 8.82534L13.5333 10.0003L11.7667 8.23367C11.6073 8.09715 11.4022 8.02581 11.1925 8.03391C10.9827 8.04201 10.7838 8.12896 10.6354 8.27737C10.487 8.42578 10.4 8.62473 10.3919 8.83446C10.3838 9.04419 10.4552 9.24926 10.5917 9.40867L12.3583 11.1753L11.175 12.3587L10.5917 11.767C10.4348 11.6101 10.2219 11.5219 10 11.5219C9.77809 11.5219 9.56526 11.6101 9.40834 11.767C9.25142 11.9239 9.16327 12.1368 9.16327 12.3587C9.16327 12.5806 9.25142 12.7934 9.40834 12.9503L10 13.5337L8.82501 14.717L7.05001 12.9503C6.89387 12.7951 6.68266 12.708 6.46251 12.708C6.24235 12.708 6.03115 12.7951 5.87501 12.9503C5.7198 13.1065 5.63268 13.3177 5.63268 13.5378C5.63268 13.758 5.7198 13.9692 5.87501 14.1253L7.64168 15.892L6.46668 17.0753L2.92501 13.5337L13.5333 2.92534L17.075 6.46701L15.8917 7.64201Z" fill="#0B1331"/>
</svg>
