<svg width="22" height="19" fill="none" xmlns="http://www.w3.org/2000/svg"><path fill-rule="evenodd" clip-rule="evenodd" d="M17.999 4.14c-1.512-1.948-4.547-1.622-5.61.604-.557 1.169-2.22 1.169-2.778 0-1.062-2.226-4.097-2.552-5.61-.604l-.309.4a4.203 4.203 0 00.444 5.64L11 16.627l6.865-6.449a4.203 4.203 0 00.443-5.64l-.31-.399zM11 3.158c1.977-2.9 6.33-3.143 8.579-.244l.31.4a6.203 6.203 0 01-.655 8.323l-6.952 6.531-.02.02c-.102.095-.224.21-.342.3a1.5 1.5 0 01-.63.298 1.524 1.524 0 01-.579 0 1.5 1.5 0 01-.63-.298 4.816 4.816 0 01-.362-.32l-6.953-6.53a6.203 6.203 0 01-.654-8.325l.31-.399C4.672.015 9.023.257 11 3.158z" fill="#0B1331"/></svg>