<svg width="20" height="21" fill="none" xmlns="http://www.w3.org/2000/svg"><path d="M19.72 18.573l-3.71-3.733a9.222 9.222 0 001.948-6.46 9.179 9.179 0 00-2.961-6.05A8.917 8.917 0 008.748.003a8.931 8.931 0 00-6.114 2.67A9.195 9.195 0 00.004 8.88a9.21 9.21 0 002.292 6.342 8.948 8.948 0 005.961 3.006 8.904 8.904 0 006.365-1.977l3.678 3.733a1 1 0 00.71.3.986.986 0 00.71-.3 1.023 1.023 0 000-1.41zM9.015 16.25a6.923 6.923 0 01-3.887-1.197 7.079 7.079 0 01-2.577-3.186 7.199 7.199 0 01-.398-4.102A7.133 7.133 0 014.07 4.129a6.965 6.965 0 013.58-1.943 6.9 6.9 0 014.042.404 7.019 7.019 0 013.14 2.615A7.176 7.176 0 0116.01 9.15a7.154 7.154 0 01-2.049 5.02 6.944 6.944 0 01-4.946 2.08z" fill="#fff"/></svg>