<svg width="24" height="23" viewBox="0 0 24 23" fill="none" xmlns="http://www.w3.org/2000/svg">
<path d="M7.91646 10.457L7.91564 10.4574C7.91483 10.4582 7.91483 10.459 7.91483 10.459C7.85913 10.5155 7.81725 10.5838 7.78309 10.6566C7.77374 10.6749 7.76724 10.6916 7.75992 10.7107C7.7526 10.7294 7.74244 10.7465 7.73674 10.7664L6.10712 16.7946C6.04287 17.0336 6.11118 17.2886 6.28561 17.4638C6.41735 17.5951 6.59381 17.6663 6.77393 17.6663C6.83411 17.6663 6.8955 17.6586 6.95405 17.6419L12.7504 16.0753C12.7887 16.0818 12.8253 16.0977 12.8639 16.0977C13.0412 16.0977 13.218 16.0302 13.353 15.8952L22.7396 6.50775C23.2397 6.00723 23.5162 5.34164 23.5162 4.63376C23.5162 3.92588 23.2397 3.26029 22.7396 2.75977L21.0506 1.07078C20.05 0.0693428 18.3021 0.0709692 17.3031 1.07078L7.91646 10.457ZM18.2813 2.04783C18.7587 1.56927 19.5946 1.56967 20.0736 2.04823L21.7626 3.73682C22.0025 3.9763 22.1342 4.29466 22.1342 4.63376C22.1342 4.97286 22.0025 5.29081 21.7626 5.5307L21.2543 6.03895L17.7723 2.55729L18.2813 2.04783ZM16.7948 3.53474L20.2769 7.0164L12.8647 14.429L9.38182 10.9469L16.7948 3.53474ZM8.97482 12.494L11.4701 14.9897L7.75585 15.9944L8.75973 12.2797L8.97482 12.494Z" fill="#BFC6E0"/>
<path d="M17.6802 7.10628L16.7026 6.12891L12.3656 10.4671L13.3433 11.4444L17.6802 7.10628Z" fill="#BFC6E0"/>
<path d="M1.52296 22.1546H20.1205C21.5826 22.1546 22.7707 20.9653 22.7707 19.5036V10.1446H21.3887V19.504C21.3887 20.2038 20.8203 20.7722 20.1205 20.7722H2.21457V2.4332H14.0107V1.05078H1.52296C1.14116 1.05078 0.832153 1.3602 0.832153 1.74199V21.463C0.832153 21.8448 1.14076 22.1546 1.52296 22.1546Z" fill="#BFC6E0"/>
</svg>
