<svg width="29" height="27" viewBox="0 0 29 27" fill="none" xmlns="http://www.w3.org/2000/svg">
<path d="M23.925 16.3992C22.2949 16.3992 20.8576 17.1855 19.9284 18.3839L10.1111 14.6081C10.121 14.4791 10.15 14.3556 10.15 14.2242C10.15 13.9803 10.1114 13.7468 10.0779 13.512L20.1379 8.86837C21.0686 9.921 22.413 10.5993 23.9249 10.5993C26.723 10.5993 28.9999 8.32231 28.9999 5.52424C28.9999 2.72617 26.723 0.449219 23.9249 0.449219C21.1268 0.449219 18.85 2.7261 18.85 5.52417C18.85 5.76811 18.8886 6.00165 18.922 6.23641L8.86203 10.88C7.93134 9.8274 6.58691 9.14914 5.07502 9.14914C2.27695 9.14914 0 11.4261 0 14.2242C0 17.0222 2.27695 19.2992 5.07502 19.2992C6.70511 19.2992 8.14245 18.5129 9.07165 17.3144L18.8889 21.0903C18.879 21.2192 18.85 21.3427 18.85 21.4741C18.85 24.2722 21.127 26.5491 23.925 26.5491C26.7231 26.5491 29.0001 24.2722 29.0001 21.4741C29 18.6761 26.723 16.3992 23.925 16.3992Z" fill="#F0F0F0"/>
</svg>
