<svg width="22" height="19" viewBox="0 0 22 19" fill="none" xmlns="http://www.w3.org/2000/svg">
<path fill-rule="evenodd" clip-rule="evenodd" d="M16.7072 0L15.293 1.41421L17.5859 3.70711H1.00009C0.447809 3.70711 9.34601e-05 4.15482 9.34601e-05 4.70711C9.34601e-05 5.25939 0.447809 5.70711 1.00009 5.70711H17.5859L15.293 8L16.7072 9.41421L21.4143 4.70711L16.7072 0Z" fill="#BFC6E0"/>
<path fill-rule="evenodd" clip-rule="evenodd" d="M4.70735 9L6.12156 10.4142L3.82867 12.7071H20.4145C20.9667 12.7071 21.4145 13.1548 21.4145 13.7071C21.4145 14.2594 20.9667 14.7071 20.4145 14.7071H3.82867L6.12156 17L4.70735 18.4142L0.000244141 13.7071L4.70735 9Z" fill="#BFC6E0"/>
</svg>
