<svg width="299" height="248" viewBox="0 0 299 248" fill="none" xmlns="http://www.w3.org/2000/svg">
<path d="M295 0H4C1.79086 0 0 1.79086 0 4V244C0 246.209 1.79085 248 3.99999 248H295C297.209 248 299 246.209 299 244V4C299 1.79086 297.209 0 295 0Z" fill="#4264EE"/>
<mask id="mask0" mask-type="alpha" maskUnits="userSpaceOnUse" x="0" y="0" width="299" height="248">
<path d="M295 0H4C1.79086 0 0 1.79086 0 4V244C0 246.209 1.79085 248 3.99999 248H295C297.209 248 299 246.209 299 244V4C299 1.79086 297.209 0 295 0Z" fill="#4264EE"/>
</mask>
<g mask="url(#mask0)">
<g opacity="0.3">
<path d="M26.0714 190.755C38.0336 190.271 49.3695 192.16 59.632 195.832C64.0219 197.402 68.0604 199.286 72.4121 200.898C76.4889 202.406 80.7255 203.776 85.173 204.854C93.4353 206.85 102.426 207.959 111.327 207.191C128.044 205.756 141.834 198.388 150.773 190.133C167.509 174.676 171.848 154.464 195.037 141.527C201.983 137.655 210.392 134.62 218.987 132.241C227.671 129.835 236.873 128.123 246.304 127.144C263.417 125.375 280.843 125.863 298 127.214V257.992H0V194.159C8.51794 192.52 17.2084 191.116 26.0714 190.755Z" fill="url(#paint0_linear)"/>
<path d="M23.656 204.363C32.5317 205.027 41.1391 206.681 49.344 208.799C58.4114 211.144 66.8208 214.295 75.8435 216.701C114.97 227.135 156.269 218.217 174.538 195.172C178.065 190.721 180.985 186.112 183.784 181.488C189.465 172.105 194.673 162.327 204.047 153.988C208.405 150.108 213.715 146.505 220.124 143.811C225.588 141.516 231.786 139.878 238.144 138.707C252.605 136.048 268.325 135.384 283.297 136.639C288.185 137.049 293.163 137.667 297.994 138.577V258H0V205.334C7.71279 204.121 15.7131 203.772 23.656 204.363Z" fill="url(#paint1_linear)"/>
<path d="M15.4064 226.59C32.0014 226.052 48.0404 228.416 63.4404 231.951C80.7894 235.938 97.9147 240.888 116.778 241.495C133.904 242.047 150.978 238.797 164.985 232.922C178.698 227.173 189.606 219.229 197.485 210.411C205.581 201.347 211.926 191.622 221.716 183.122C232.579 173.69 248.285 166.755 266.817 163.716C276.197 162.181 285.955 161.797 295.61 162.496C296.409 162.553 297.201 162.626 298 162.699V257.992H0V227.944C5.06731 227.196 10.2433 226.751 15.4064 226.59Z" fill="url(#paint2_linear)"/>
</g>
<g opacity="0.2">
<path d="M297.787 233.894C297.787 225.116 290.671 218 281.894 218C273.116 218 266 225.116 266 233.894C266 242.671 273.116 249.787 281.894 249.787C290.664 249.787 297.787 242.664 297.787 233.894ZM272.864 233.894C272.864 228.908 276.9 224.864 281.886 224.864C286.873 224.864 290.916 228.908 290.916 233.894C290.916 238.88 286.88 242.923 281.886 242.923C276.908 242.916 272.864 238.88 272.864 233.894Z" fill="url(#paint3_linear)"/>
<path d="M147.899 80.9928C147.899 72.215 140.776 65.0992 132.005 65.0992C123.22 65.0992 116.112 72.215 116.112 80.9928C116.112 89.7635 123.22 96.8864 132.005 96.8864C140.776 96.8864 147.899 89.7635 147.899 80.9928ZM122.968 80.9928C122.968 76.0068 127.012 71.9632 131.998 71.9632C136.984 71.9632 141.028 76.0068 141.028 80.9928C141.028 85.9717 136.984 90.0153 131.998 90.0153C127.019 90.0225 122.968 85.9717 122.968 80.9928Z" fill="url(#paint4_linear)"/>
<path d="M301.805 23.6277C301.805 18.4834 297.632 14.3103 292.488 14.3103C287.343 14.3103 283.17 18.4834 283.17 23.6277C283.17 28.7649 287.343 32.9452 292.488 32.9452C297.632 32.9452 301.805 28.7649 301.805 23.6277ZM287.2 23.6277C287.2 20.6994 289.574 18.3395 292.488 18.3395C295.416 18.3395 297.783 20.7066 297.783 23.6277C297.783 26.5417 295.416 28.916 292.488 28.916C289.574 28.916 287.2 26.5417 287.2 23.6277Z" fill="url(#paint5_linear)"/>
<path d="M306 143.956C306 139.919 302.733 136.653 298.697 136.653C294.661 136.653 291.394 139.919 291.394 143.956C291.394 147.992 294.661 151.266 298.697 151.266C302.733 151.259 306 147.992 306 143.956ZM294.553 143.956C294.553 141.661 296.409 139.804 298.704 139.804C300.992 139.804 302.856 141.661 302.856 143.956C302.856 146.251 300.985 148.107 298.704 148.107C296.409 148.1 294.553 146.244 294.553 143.956Z" fill="url(#paint6_linear)"/>
<path d="M199.997 14.3103C199.997 10.2739 196.723 7.00024 192.694 7.00024C188.658 7.00024 185.391 10.2739 185.391 14.3103C185.391 18.3467 188.658 21.606 192.694 21.606C196.723 21.606 199.997 18.3467 199.997 14.3103ZM188.55 14.3103C188.55 12.0151 190.406 10.1588 192.701 10.1588C194.997 10.1588 196.846 12.0151 196.846 14.3103C196.846 16.6055 194.997 18.4618 192.701 18.4618C190.399 18.4546 188.55 16.6055 188.55 14.3103Z" fill="url(#paint7_linear)"/>
<path d="M116.111 246.31C116.111 241.166 111.938 237 106.794 237C101.657 237 97.4836 241.166 97.4836 246.31C97.4836 251.455 101.657 255.628 106.794 255.628C111.931 255.628 116.111 251.455 116.111 246.31ZM101.498 246.31C101.498 243.382 103.873 241.015 106.794 241.015C109.722 241.015 112.089 243.382 112.089 246.31C112.089 249.231 109.722 251.606 106.794 251.606C103.873 251.606 101.498 249.231 101.498 246.31Z" fill="url(#paint8_linear)"/>
<path d="M23.6277 166.706C23.6277 161.569 19.4546 157.396 14.3102 157.396C9.17306 157.396 5 161.569 5 166.706C5 171.85 9.17306 176.024 14.3102 176.024C19.4546 176.024 23.6277 171.85 23.6277 166.706ZM9.02196 166.706C9.02196 163.778 11.3963 161.411 14.3102 161.411C17.2386 161.411 19.6129 163.778 19.6129 166.706C19.6129 169.634 17.2386 172.002 14.3102 172.002C11.3891 172.002 9.02196 169.627 9.02196 166.706Z" fill="url(#paint9_linear)"/>
<path d="M32.9452 14.3102C32.9452 9.16587 28.7721 5 23.6277 5C18.4906 5 14.3103 9.16587 14.3103 14.3102C14.3103 19.4546 18.4906 23.6277 23.6277 23.6277C28.7721 23.6277 32.9452 19.4546 32.9452 14.3102ZM18.3323 14.3102C18.3323 11.3819 20.6994 9.01477 23.6277 9.01477C26.5489 9.01477 28.9232 11.3819 28.9232 14.3102C28.9232 17.2242 26.5561 19.6057 23.6277 19.6057C20.6994 19.6057 18.3323 17.2242 18.3323 14.3102Z" fill="url(#paint10_linear)"/>
</g>
<g opacity="0.1">
<path d="M211.96 237.58L218.45 244.09L212.01 250.52L215.59 254.11L225.61 244.1L215.54 234.01L211.96 237.58Z" fill="#B31C81"/>
<path d="M197.96 237.59L204.47 244.09L198.03 250.52L201.6 254.11L211.64 244.1L201.54 234L197.95 237.59H197.96Z" fill="#B31C81"/>
<path d="M183.98 237.58L190.48 244.09L184.04 250.52L187.61 254.11L197.63 244.1L187.56 234.01L183.98 237.58Z" fill="#B31C81"/>
<path d="M169.99 237.58L176.49 244.09L170.05 250.52L173.62 254.11L183.64 244.1L173.57 234.01L169.99 237.58Z" fill="#B31C81"/>
<path d="M156 237.58L162.5 244.09L156.06 250.52L159.64 254.11L169.66 244.1L159.58 234L156 237.59V237.58Z" fill="#B31C81"/>
</g>
<path d="M34.6602 45.0625C34.6602 45.9805 34.3346 46.7389 33.6836 47.3379C33.0326 47.9368 32.1504 48.3177 31.0371 48.4805V48.5391C32.3457 48.6693 33.3483 49.0306 34.0449 49.623C34.748 50.2155 35.0996 50.987 35.0996 51.9375C35.0996 53.2526 34.5658 54.291 33.498 55.0527C32.4368 55.8145 30.9655 56.1953 29.084 56.1953C26.9876 56.1953 25.3047 55.9382 24.0352 55.4238V52.8848C24.6471 53.1777 25.3633 53.4089 26.1836 53.5781C27.0104 53.7409 27.7819 53.8223 28.498 53.8223C30.9004 53.8223 32.1016 53.1224 32.1016 51.7227C32.1016 51.0911 31.7142 50.6061 30.9395 50.2676C30.1712 49.929 29.0319 49.7598 27.5215 49.7598H26.1836V47.3965H27.3848C28.8952 47.3965 29.9954 47.2533 30.6855 46.9668C31.3757 46.6803 31.7207 46.2051 31.7207 45.541C31.7207 45.0527 31.5026 44.6654 31.0664 44.3789C30.6367 44.0859 29.9889 43.9395 29.123 43.9395C27.7819 43.9395 26.4863 44.3268 25.2363 45.1016L23.918 43.0801C24.7318 42.5397 25.5944 42.1458 26.5059 41.8984C27.4173 41.6445 28.4297 41.5176 29.543 41.5176C31.099 41.5176 32.3392 41.8431 33.2637 42.4941C34.1947 43.1452 34.6602 44.0013 34.6602 45.0625ZM48.1059 56L47.0707 52.6016H41.8656L40.8305 56H37.5688L42.6078 41.6641H46.309L51.3676 56H48.1059ZM46.348 50.0625C45.391 46.9831 44.8507 45.2415 44.727 44.8379C44.6098 44.4342 44.5251 44.1152 44.473 43.8809C44.2582 44.7142 43.643 46.7747 42.6273 50.0625H46.348ZM66.4148 56H62.9773L57.8016 48.7637V56H54.7742V41.7227H57.8016V48.6367L62.9188 41.7227H66.1414L60.9363 48.5781L66.4148 56ZM78.552 56L77.5168 52.6016H72.3117L71.2766 56H68.0148L73.0539 41.6641H76.7551L81.8137 56H78.552ZM76.7941 50.0625C75.8371 46.9831 75.2967 45.2415 75.173 44.8379C75.0559 44.4342 74.9712 44.1152 74.9191 43.8809C74.7043 44.7142 74.0891 46.7747 73.0734 50.0625H76.7941ZM88.5016 48.5781L83.7066 41.7227H86.8219L91.441 48.6367V41.7227H94.2633V48.6367L98.8824 41.7227H102.007L97.2027 48.5781L102.281 56H99.0387L94.2633 48.7637V56H91.441V48.7637L86.6656 56H83.4234L88.5016 48.5781ZM105.688 41.7227H108.412V48.6172L108.373 50.4629L108.275 52.5625H108.334L114.926 41.7227H118.549V56H115.854V49.1445C115.854 48.2266 115.912 46.8659 116.029 45.0625H115.951L109.33 56H105.688V41.7227ZM133.575 47.2012H134.766C136.628 47.2012 138.067 47.5788 139.083 48.334C140.098 49.0892 140.606 50.1569 140.606 51.5371C140.606 54.5124 138.64 56 134.708 56H130.548V41.7227H139.571V44.2227H133.575V47.2012ZM133.575 53.5195H134.591C135.613 53.5195 136.361 53.3568 136.837 53.0312C137.312 52.6992 137.55 52.2012 137.55 51.5371C137.55 50.8796 137.309 50.4076 136.827 50.1211C136.345 49.8281 135.518 49.6816 134.346 49.6816H133.575V53.5195ZM156.181 41.7227L151.767 51.8203C151.213 53.0898 150.693 54.0013 150.204 54.5547C149.723 55.1081 149.15 55.5215 148.486 55.7949C147.821 56.0618 147.014 56.1953 146.064 56.1953C145.25 56.1953 144.491 56.0977 143.788 55.9023V53.3047C144.361 53.5391 145.074 53.6562 145.927 53.6562C146.467 53.6562 146.904 53.5326 147.236 53.2852C147.568 53.0312 147.844 52.5951 148.066 51.9766L143.124 41.7227H146.327L149.843 49.6816H149.941L150.116 49.1934L153.066 41.7227H156.181ZM171.228 56H167.791L162.615 48.7637V56H159.587V41.7227H162.615V48.6367L167.732 41.7227H170.955L165.75 48.5781L171.228 56ZM182.848 56H174.625V41.7227H182.848V44.2031H177.652V47.3379H182.486V49.8184H177.652V53.5H182.848V56ZM192.944 56H189.916V44.2422H186.039V41.7227H196.821V44.2422H192.944V56ZM206.417 51.7422V49.4961H214.816V51.7422H206.417Z" fill="white"/>
<path d="M80.2422 86H76.3555V74.877H72.4199V86H68.543V71.7227H80.2422V86ZM97.2875 78.8418C97.2875 81.2441 96.6983 83.0703 95.5199 84.3203C94.3415 85.5703 92.6163 86.1953 90.3441 86.1953C88.1046 86.1953 86.3858 85.5671 85.1879 84.3105C83.9965 83.054 83.4008 81.2246 83.4008 78.8223C83.4008 76.446 83.9932 74.6328 85.1781 73.3828C86.3695 72.1263 88.098 71.498 90.3637 71.498C92.6358 71.498 94.3578 72.1198 95.5297 73.3633C96.7016 74.6068 97.2875 76.4329 97.2875 78.8418ZM87.4633 78.8418C87.4633 81.6022 88.4236 82.9824 90.3441 82.9824C91.3207 82.9824 92.0434 82.6471 92.5121 81.9766C92.9874 81.306 93.225 80.2611 93.225 78.8418C93.225 77.416 92.9841 76.3646 92.5023 75.6875C92.0271 75.0039 91.3142 74.6621 90.3637 74.6621C88.4301 74.6621 87.4633 76.0553 87.4633 78.8418ZM112.624 86H108.747V74.877H106.022C105.873 76.498 105.671 78.1484 105.417 79.8281C105.169 81.5078 104.932 82.6862 104.704 83.3633C104.476 84.0404 104.186 84.5807 103.835 84.9844C103.49 85.3815 103.06 85.6842 102.546 85.8926C102.031 86.0944 101.41 86.1953 100.68 86.1953C100.127 86.1953 99.6225 86.1237 99.1668 85.9805V83.002C99.5574 83.1322 99.8764 83.1973 100.124 83.1973C100.462 83.1973 100.72 83.0573 100.895 82.7773C101.078 82.4909 101.244 82.0091 101.393 81.332C101.543 80.6484 101.751 79.3854 102.018 77.543C102.285 75.694 102.533 73.7539 102.761 71.7227H112.624V86ZM118.155 86.1953C117.244 86.1953 116.411 86.0977 115.655 85.9023V82.8359C116.267 83.0768 117.042 83.1973 117.98 83.1973C118.383 83.1973 118.722 83.1061 118.995 82.9238C119.275 82.735 119.503 82.4062 119.679 81.9375L115.021 71.7227H119.181L120.939 76.0781C121.004 76.2474 121.082 76.4492 121.173 76.6836C121.271 76.918 121.365 77.1621 121.456 77.416C121.547 77.6634 121.632 77.9108 121.71 78.1582C121.788 78.4056 121.85 78.6204 121.896 78.8027H122.032C122.254 77.9173 122.583 76.8822 123.019 75.6973L124.474 71.7227H128.634L124.298 81.7422C123.758 82.9922 123.227 83.9134 122.706 84.5059C122.185 85.0918 121.56 85.5215 120.831 85.7949C120.109 86.0618 119.217 86.1953 118.155 86.1953ZM142.652 86H138.765V80.7168C137.118 81.2897 135.647 81.5762 134.351 81.5762C132.997 81.5762 131.939 81.2441 131.177 80.5801C130.422 79.9095 130.045 78.9688 130.045 77.7578V71.7227H133.931V76.4785C133.931 77.1751 134.071 77.6732 134.351 77.9727C134.631 78.2721 135.077 78.4219 135.689 78.4219C136.522 78.4219 137.548 78.2005 138.765 77.7578V71.7227H142.652V86ZM146.328 71.7227H149.766V77.8555C149.766 78.5065 149.714 79.8086 149.609 81.7617H149.688L155.381 71.7227H160.146V86H156.729V80.0234C156.729 79.1185 156.787 77.7643 156.904 75.9609H156.826L151.084 86H146.328V71.7227ZM182.118 86H177.753L173.514 78.7637V86H169.637V71.7227H173.514V78.6367L177.596 71.7227H181.835L177.43 78.5391L182.118 86ZM186.019 86.1953C185.107 86.1953 184.274 86.0977 183.519 85.9023V82.8359C184.131 83.0768 184.905 83.1973 185.843 83.1973C186.247 83.1973 186.585 83.1061 186.859 82.9238C187.139 82.735 187.366 82.4062 187.542 81.9375L182.884 71.7227H187.044L188.802 76.0781C188.867 76.2474 188.945 76.4492 189.036 76.6836C189.134 76.918 189.228 77.1621 189.32 77.416C189.411 77.6634 189.495 77.9108 189.573 78.1582C189.652 78.4056 189.713 78.6204 189.759 78.8027H189.896C190.117 77.9173 190.446 76.8822 190.882 75.6973L192.337 71.7227H196.497L192.161 81.7422C191.621 82.9922 191.09 83.9134 190.57 84.5059C190.049 85.0918 189.424 85.5215 188.695 85.7949C187.972 86.0618 187.08 86.1953 186.019 86.1953ZM210.115 86H206.228V74.877H202.293V86H198.416V71.7227H210.115V86ZM227.16 78.8418C227.16 81.2441 226.571 83.0703 225.393 84.3203C224.214 85.5703 222.489 86.1953 220.217 86.1953C217.977 86.1953 216.258 85.5671 215.061 84.3105C213.869 83.054 213.273 81.2246 213.273 78.8223C213.273 76.446 213.866 74.6328 215.051 73.3828C216.242 72.1263 217.971 71.498 220.236 71.498C222.508 71.498 224.23 72.1198 225.402 73.3633C226.574 74.6068 227.16 76.4329 227.16 78.8418ZM217.336 78.8418C217.336 81.6022 218.296 82.9824 220.217 82.9824C221.193 82.9824 221.916 82.6471 222.385 81.9766C222.86 81.306 223.098 80.2611 223.098 78.8418C223.098 77.416 222.857 76.3646 222.375 75.6875C221.9 75.0039 221.187 74.6621 220.236 74.6621C218.303 74.6621 217.336 76.0553 217.336 78.8418ZM242.575 86H238.698V80.1797H234.215V86H230.338V71.7227H234.215V77.0156H238.698V71.7227H242.575V86Z" fill="white"/>
<path d="M123.197 107.137C120.818 107.137 119.629 105.831 119.629 103.22C119.629 101.921 119.952 100.93 120.6 100.246C121.247 99.5579 122.174 99.2139 123.382 99.2139C124.266 99.2139 125.059 99.387 125.761 99.7334L125.146 101.347C124.817 101.215 124.512 101.107 124.229 101.025C123.947 100.939 123.664 100.896 123.382 100.896C122.297 100.896 121.755 101.666 121.755 103.206C121.755 104.701 122.297 105.448 123.382 105.448C123.783 105.448 124.154 105.396 124.496 105.291C124.838 105.182 125.18 105.013 125.521 104.785V106.569C125.184 106.784 124.842 106.932 124.496 107.014C124.154 107.096 123.721 107.137 123.197 107.137ZM129.38 103.165C129.38 103.922 129.503 104.493 129.749 104.881C130 105.268 130.405 105.462 130.966 105.462C131.522 105.462 131.921 105.271 132.162 104.888C132.408 104.5 132.531 103.926 132.531 103.165C132.531 102.409 132.408 101.841 132.162 101.463C131.916 101.085 131.513 100.896 130.952 100.896C130.396 100.896 129.995 101.085 129.749 101.463C129.503 101.837 129.38 102.404 129.38 103.165ZM134.664 103.165C134.664 104.409 134.336 105.382 133.68 106.084C133.024 106.786 132.11 107.137 130.939 107.137C130.205 107.137 129.558 106.977 128.997 106.658C128.437 106.335 128.006 105.872 127.705 105.271C127.404 104.669 127.254 103.967 127.254 103.165C127.254 101.916 127.58 100.946 128.232 100.253C128.883 99.5602 129.799 99.2139 130.98 99.2139C131.713 99.2139 132.36 99.3734 132.921 99.6924C133.482 100.011 133.912 100.469 134.213 101.066C134.514 101.663 134.664 102.363 134.664 103.165ZM143.967 107.137C141.588 107.137 140.399 105.831 140.399 103.22C140.399 101.921 140.722 100.93 141.369 100.246C142.017 99.5579 142.944 99.2139 144.152 99.2139C145.036 99.2139 145.829 99.387 146.531 99.7334L145.915 101.347C145.587 101.215 145.282 101.107 144.999 101.025C144.717 100.939 144.434 100.896 144.152 100.896C143.067 100.896 142.525 101.666 142.525 103.206C142.525 104.701 143.067 105.448 144.152 105.448C144.553 105.448 144.924 105.396 145.266 105.291C145.608 105.182 145.949 105.013 146.291 104.785V106.569C145.954 106.784 145.612 106.932 145.266 107.014C144.924 107.096 144.491 107.137 143.967 107.137ZM153.499 99.3574H155.796L152.768 103.021L156.063 107H153.698L150.574 103.124V107H148.489V99.3574H150.574V103.069L153.499 99.3574ZM159.593 99.3574V102.379C159.593 102.698 159.541 103.477 159.436 104.717L162.963 99.3574H165.472V107H163.455V103.951C163.455 103.409 163.501 102.643 163.592 101.654L160.079 107H157.577V99.3574H159.593ZM172.872 105.476V100.923H171.306C171.192 101.771 171.035 102.575 170.834 103.336C170.638 104.097 170.365 104.81 170.014 105.476H172.872ZM176.078 109.741H174.205V107H169.064V109.741H167.191V105.476H167.833C168.271 104.797 168.638 103.94 168.934 102.905C169.23 101.871 169.438 100.688 169.556 99.3574H174.957V105.476H176.078V109.741ZM182.814 99.3574H185.111L182.083 103.021L185.377 107H183.012L179.888 103.124V107H177.803V99.3574H179.888V103.069L182.814 99.3574ZM188.552 103.165C188.552 103.922 188.675 104.493 188.922 104.881C189.172 105.268 189.578 105.462 190.138 105.462C190.694 105.462 191.093 105.271 191.335 104.888C191.581 104.5 191.704 103.926 191.704 103.165C191.704 102.409 191.581 101.841 191.335 101.463C191.089 101.085 190.685 100.896 190.125 100.896C189.569 100.896 189.168 101.085 188.922 101.463C188.675 101.837 188.552 102.404 188.552 103.165ZM193.837 103.165C193.837 104.409 193.508 105.382 192.852 106.084C192.196 106.786 191.282 107.137 190.111 107.137C189.377 107.137 188.73 106.977 188.17 106.658C187.609 106.335 187.178 105.872 186.878 105.271C186.577 104.669 186.426 103.967 186.426 103.165C186.426 101.916 186.752 100.946 187.404 100.253C188.056 99.5602 188.972 99.2139 190.152 99.2139C190.886 99.2139 191.533 99.3734 192.093 99.6924C192.654 100.011 193.085 100.469 193.385 101.066C193.686 101.663 193.837 102.363 193.837 103.165ZM197.996 99.3574V102.379C197.996 102.698 197.943 103.477 197.839 104.717L201.366 99.3574H203.875V107H201.858V103.951C201.858 103.409 201.904 102.643 201.995 101.654L198.481 107H195.979V99.3574H197.996ZM203.259 96.0693C203.173 96.9215 202.852 97.5436 202.296 97.9355C201.74 98.3229 200.938 98.5166 199.889 98.5166C198.809 98.5166 198.009 98.3298 197.49 97.9561C196.975 97.5824 196.686 96.9535 196.622 96.0693H198.488C198.52 96.5387 198.636 96.8691 198.837 97.0605C199.042 97.2474 199.406 97.3408 199.93 97.3408C200.391 97.3408 200.732 97.2383 200.956 97.0332C201.184 96.8236 201.323 96.5023 201.373 96.0693H203.259Z" fill="white"/>
<path d="M64.2426 99.2427L68.4853 103.485L64.2426 107.728" stroke="#CFD7FA" stroke-width="1.5"/>
<path d="M82.2426 99.2427L86.4853 103.485L82.2426 107.728" stroke="#CFD7FA" stroke-width="1.5"/>
<path d="M73.2426 99L77.4853 103.243L73.2426 107.485" stroke="#CFD7FA" stroke-width="1.5"/>
<path d="M91.2426 99L95.4853 103.243L91.2426 107.485" stroke="#CFD7FA" stroke-width="1.5"/>
<mask id="path-26-inside-1" fill="white">
<path fill-rule="evenodd" clip-rule="evenodd" d="M85.4438 164.198C84.8832 161.89 86.3 159.564 88.6083 159.003L127.129 149.648L130.664 151.445L132.98 148.227L235.729 123.272C238.038 122.711 240.363 124.128 240.924 126.436L244.071 139.393L245.755 146.328C244.335 146.216 242.873 146.323 241.414 146.678C234.027 148.472 229.493 155.914 231.287 163.3C233.081 170.687 240.524 175.221 247.91 173.427C249.37 173.072 250.718 172.497 251.928 171.746L253.308 177.427L256.556 190.802C257.117 193.11 255.7 195.436 253.392 195.996L150.643 220.951L147.108 219.154L144.792 222.372L106.287 231.724C103.973 232.286 101.642 230.86 101.089 228.543L97.8977 215.177L97.8963 215.171C97.883 215.119 97.3397 212.956 96.4794 209.488C101.373 206.43 103.993 200.48 102.557 194.566C101.117 188.639 96.041 184.548 90.275 184.09L88.4891 176.737L85.4438 164.198Z"/>
</mask>
<path fill-rule="evenodd" clip-rule="evenodd" d="M85.4438 164.198C84.8832 161.89 86.3 159.564 88.6083 159.003L127.129 149.648L130.664 151.445L132.98 148.227L235.729 123.272C238.038 122.711 240.363 124.128 240.924 126.436L244.071 139.393L245.755 146.328C244.335 146.216 242.873 146.323 241.414 146.678C234.027 148.472 229.493 155.914 231.287 163.3C233.081 170.687 240.524 175.221 247.91 173.427C249.37 173.072 250.718 172.497 251.928 171.746L253.308 177.427L256.556 190.802C257.117 193.11 255.7 195.436 253.392 195.996L150.643 220.951L147.108 219.154L144.792 222.372L106.287 231.724C103.973 232.286 101.642 230.86 101.089 228.543L97.8977 215.177L97.8963 215.171C97.883 215.119 97.3397 212.956 96.4794 209.488C101.373 206.43 103.993 200.48 102.557 194.566C101.117 188.639 96.041 184.548 90.275 184.09L88.4891 176.737L85.4438 164.198Z" fill="#F6DA69"/>
<path d="M85.4438 164.198L82.5286 164.906L85.4438 164.198ZM127.129 149.648L128.488 146.974L127.499 146.471L126.421 146.733L127.129 149.648ZM130.664 151.445L129.304 154.119L131.596 155.285L133.098 153.198L130.664 151.445ZM132.98 148.227L132.272 145.312L131.194 145.573L130.545 146.474L132.98 148.227ZM244.071 139.393L246.986 138.685L244.071 139.393ZM245.755 146.328L245.517 149.319L249.648 149.647L248.67 145.62L245.755 146.328ZM251.928 171.746L254.843 171.038L253.865 167.011L250.345 169.197L251.928 171.746ZM150.643 220.951L149.283 223.626L150.273 224.128L151.351 223.867L150.643 220.951ZM147.108 219.154L148.468 216.48L146.176 215.315L144.673 217.401L147.108 219.154ZM144.792 222.372L145.5 225.288L146.578 225.026L147.226 224.125L144.792 222.372ZM101.089 228.543L104.007 227.847L101.089 228.543ZM97.8977 215.177L100.816 214.481L100.814 214.475L97.8977 215.177ZM97.8963 215.171L100.813 214.469L100.809 214.455L100.806 214.44L97.8963 215.171ZM96.4794 209.488L94.8896 206.944L93.0435 208.097L93.5676 210.21L96.4794 209.488ZM90.275 184.09L87.3598 184.798L87.8724 186.909L90.0374 187.081L90.275 184.09ZM88.4891 176.737L85.5739 177.445L85.5739 177.445L88.4891 176.737ZM87.9003 156.088C83.9819 157.04 81.5769 160.988 82.5286 164.906L88.3591 163.49C88.1895 162.792 88.6181 162.088 89.3163 161.919L87.9003 156.088ZM126.421 146.733L87.9003 156.088L89.3163 161.919L127.837 152.563L126.421 146.733ZM132.023 148.771L128.488 146.974L125.769 152.322L129.304 154.119L132.023 148.771ZM130.545 146.474L128.229 149.692L133.098 153.198L135.415 149.979L130.545 146.474ZM235.021 120.357L132.272 145.312L133.688 151.142L236.437 126.187L235.021 120.357ZM243.839 125.728C242.887 121.81 238.94 119.405 235.021 120.357L236.437 126.187C237.135 126.018 237.839 126.446 238.009 127.144L243.839 125.728ZM246.986 138.685L243.839 125.728L238.009 127.144L241.155 140.101L246.986 138.685ZM248.67 145.62L246.986 138.685L241.155 140.101L242.84 147.036L248.67 145.62ZM242.122 149.593C243.268 149.314 244.411 149.231 245.517 149.319L245.993 143.338C244.26 143.2 242.478 143.332 240.706 143.762L242.122 149.593ZM234.203 162.592C232.8 156.816 236.345 150.996 242.122 149.593L240.706 143.762C231.709 145.947 226.187 155.012 228.372 164.008L234.203 162.592ZM247.202 170.512C241.426 171.914 235.606 168.369 234.203 162.592L228.372 164.008C230.557 173.005 239.622 178.527 248.618 176.342L247.202 170.512ZM250.345 169.197C249.402 169.783 248.349 170.233 247.202 170.512L248.618 176.342C250.391 175.911 252.034 175.211 253.511 174.294L250.345 169.197ZM256.223 176.719L254.843 171.038L249.013 172.454L250.393 178.135L256.223 176.719ZM259.472 190.094L256.223 176.719L250.393 178.135L253.641 191.51L259.472 190.094ZM254.1 198.912C258.018 197.96 260.423 194.012 259.472 190.094L253.641 191.51C253.811 192.208 253.382 192.912 252.684 193.081L254.1 198.912ZM151.351 223.867L254.1 198.912L252.684 193.081L149.935 218.036L151.351 223.867ZM145.749 221.828L149.283 223.626L152.003 218.277L148.468 216.48L145.749 221.828ZM147.226 224.125L149.543 220.907L144.673 217.401L142.357 220.62L147.226 224.125ZM106.995 234.639L145.5 225.288L144.084 219.457L105.579 228.809L106.995 234.639ZM98.1708 229.24C99.1097 233.173 103.066 235.594 106.995 234.639L105.579 228.809C104.879 228.979 104.174 228.547 104.007 227.847L98.1708 229.24ZM94.9797 215.874L98.1708 229.24L104.007 227.847L100.816 214.481L94.9797 215.874ZM94.9796 215.874L94.9811 215.88L100.814 214.475L100.813 214.469L94.9796 215.874ZM93.5676 210.21C94.4288 213.682 94.9729 215.847 94.9867 215.902L100.806 214.44C100.793 214.39 100.251 212.23 99.3911 208.766L93.5676 210.21ZM99.6414 195.274C100.764 199.894 98.7194 204.551 94.8896 206.944L98.0691 212.032C104.026 208.31 107.223 201.066 105.472 193.857L99.6414 195.274ZM90.0374 187.081C94.5499 187.439 98.5168 190.643 99.6414 195.274L105.472 193.857C103.718 186.634 97.5321 181.657 90.5127 181.1L90.0374 187.081ZM85.5739 177.445L87.3598 184.798L93.1903 183.382L91.4044 176.029L85.5739 177.445ZM82.5286 164.906L85.5739 177.445L91.4044 176.029L88.3591 163.49L82.5286 164.906Z" fill="#3441A2" mask="url(#path-26-inside-1)"/>
<line x1="131.836" y1="153.797" x2="147.062" y2="216.491" stroke="#4151CB" stroke-width="1.72043" stroke-dasharray="5.16 6.88"/>
<path d="M215.717 177.935C214.242 171.86 208.121 168.132 202.046 169.607C195.972 171.083 192.243 177.203 193.719 183.278C195.194 189.353 201.314 193.081 207.389 191.606C213.459 190.132 217.191 184.005 215.717 177.935ZM198.469 182.124C197.631 178.674 199.744 175.197 203.195 174.359C206.646 173.521 210.124 175.639 210.962 179.09C211.8 182.541 209.686 186.017 206.231 186.857C202.784 187.689 199.307 185.575 198.469 182.124Z" fill="url(#paint11_linear)"/>
<path d="M201.932 146.183L206.776 145.006L177.656 198.617L172.812 199.793L201.932 146.183Z" fill="url(#paint12_linear)"/>
<path d="M184.732 162.008C183.257 155.933 177.136 152.205 171.062 153.68C164.987 155.156 161.258 161.276 162.734 167.351C164.209 173.426 170.33 177.154 176.404 175.679C182.474 174.205 186.206 168.078 184.732 162.008ZM167.484 166.197C166.646 162.747 168.76 159.27 172.21 158.432C175.661 157.594 179.139 159.712 179.977 163.163C180.815 166.614 178.701 170.091 175.246 170.93C171.799 171.762 168.322 169.648 167.484 166.197Z" fill="url(#paint13_linear)"/>
</g>
<defs>
<linearGradient id="paint0_linear" x1="149.003" y1="257.992" x2="149.003" y2="91.0263" gradientUnits="userSpaceOnUse">
<stop stop-color="#502883"/>
<stop offset="0.5472" stop-color="#41247B"/>
<stop offset="1" stop-color="#3A2277"/>
</linearGradient>
<linearGradient id="paint1_linear" x1="303.114" y1="197.007" x2="-13.764" y2="197.007" gradientUnits="userSpaceOnUse">
<stop stop-color="#952082"/>
<stop offset="0.0114" stop-color="#932082"/>
<stop offset="0.1391" stop-color="#822182"/>
<stop offset="0.2937" stop-color="#752282"/>
<stop offset="0.5028" stop-color="#6E2382"/>
<stop offset="1" stop-color="#6C2382"/>
</linearGradient>
<linearGradient id="paint2_linear" x1="303.114" y1="210.075" x2="-13.764" y2="210.075" gradientUnits="userSpaceOnUse">
<stop stop-color="#B91C82"/>
<stop offset="0.2164" stop-color="#B51C82"/>
<stop offset="0.4522" stop-color="#A71E82"/>
<stop offset="0.6972" stop-color="#922082"/>
<stop offset="0.947" stop-color="#732282"/>
<stop offset="1" stop-color="#6C2382"/>
</linearGradient>
<linearGradient id="paint3_linear" x1="281.891" y1="217.997" x2="281.891" y2="249.785" gradientUnits="userSpaceOnUse">
<stop stop-color="#E83C87"/>
<stop offset="1" stop-color="#E3032C"/>
</linearGradient>
<linearGradient id="paint4_linear" x1="132.001" y1="65.1012" x2="132.001" y2="96.8857" gradientUnits="userSpaceOnUse">
<stop stop-color="#E83C87"/>
<stop offset="1" stop-color="#E3032C"/>
</linearGradient>
<linearGradient id="paint5_linear" x1="292.488" y1="14.3099" x2="292.488" y2="32.9433" gradientUnits="userSpaceOnUse">
<stop stop-color="#682B85"/>
<stop offset="0.2755" stop-color="#582984"/>
<stop offset="0.7002" stop-color="#462782"/>
<stop offset="1" stop-color="#3F2682"/>
</linearGradient>
<linearGradient id="paint6_linear" x1="298.698" y1="136.652" x2="298.698" y2="151.261" gradientUnits="userSpaceOnUse">
<stop stop-color="#682B85"/>
<stop offset="0.2755" stop-color="#582984"/>
<stop offset="0.7002" stop-color="#462782"/>
<stop offset="1" stop-color="#3F2682"/>
</linearGradient>
<linearGradient id="paint7_linear" x1="192.698" y1="6.99942" x2="192.698" y2="21.6085" gradientUnits="userSpaceOnUse">
<stop stop-color="#682B85"/>
<stop offset="0.2755" stop-color="#582984"/>
<stop offset="0.7002" stop-color="#462782"/>
<stop offset="1" stop-color="#3F2682"/>
</linearGradient>
<linearGradient id="paint8_linear" x1="106.792" y1="236.997" x2="106.792" y2="255.628" gradientUnits="userSpaceOnUse">
<stop stop-color="#E83C87"/>
<stop offset="1" stop-color="#E3032C"/>
</linearGradient>
<linearGradient id="paint9_linear" x1="14.3096" y1="157.394" x2="14.3096" y2="176.024" gradientUnits="userSpaceOnUse">
<stop stop-color="#E83C87"/>
<stop offset="1" stop-color="#E3032C"/>
</linearGradient>
<linearGradient id="paint10_linear" x1="23.6248" y1="4.99812" x2="23.6248" y2="23.6264" gradientUnits="userSpaceOnUse">
<stop stop-color="#E83C87"/>
<stop offset="1" stop-color="#E3032C"/>
</linearGradient>
<linearGradient id="paint11_linear" x1="202.044" y1="169.605" x2="207.387" y2="191.604" gradientUnits="userSpaceOnUse">
<stop stop-color="#E83C87"/>
<stop offset="1" stop-color="#E3032C"/>
</linearGradient>
<linearGradient id="paint12_linear" x1="184.453" y1="150.423" x2="195.126" y2="194.37" gradientUnits="userSpaceOnUse">
<stop stop-color="#E83C87"/>
<stop offset="1" stop-color="#E3032C"/>
</linearGradient>
<linearGradient id="paint13_linear" x1="171.059" y1="153.679" x2="176.402" y2="175.677" gradientUnits="userSpaceOnUse">
<stop stop-color="#E83C87"/>
<stop offset="1" stop-color="#E3032C"/>
</linearGradient>
</defs>
</svg>
