<svg width="26" height="26" viewBox="0 0 26 26" fill="none" xmlns="http://www.w3.org/2000/svg">
<path fill-rule="evenodd" clip-rule="evenodd" d="M2.16663 13.0013C2.16663 7.01822 7.01687 2.16797 13 2.16797C18.983 2.16797 23.8333 7.01822 23.8333 13.0013C23.8333 16.2985 22.3603 19.2517 20.0364 21.2387C19.5477 19.9141 18.6931 18.7496 17.5657 17.8845C16.2558 16.8794 14.651 16.3346 13 16.3346C11.349 16.3346 9.74408 16.8794 8.43425 17.8845C7.30681 18.7496 6.4522 19.9141 5.96354 21.2387C3.63966 19.2517 2.16663 16.2985 2.16663 13.0013ZM18.318 22.4308C18.3189 22.4339 18.3199 22.437 18.3208 22.4401C16.7492 23.328 14.9337 23.8346 13 23.8346C11.0662 23.8346 9.25073 23.328 7.67913 22.4401C7.68201 22.4305 7.68476 22.4209 7.68737 22.4111C8.00073 21.2416 8.69123 20.2082 9.65177 19.4712C10.6123 18.7341 11.7892 18.3346 13 18.3346C14.2107 18.3346 15.3876 18.7341 16.3481 19.4712C17.3087 20.2082 17.9992 21.2416 18.3126 22.4111C18.3143 22.4177 18.3161 22.4243 18.318 22.4308ZM10.75 9.7513C10.75 8.50866 11.7573 7.5013 13 7.5013C14.2426 7.5013 15.25 8.50866 15.25 9.7513C15.25 10.9939 14.2426 12.0013 13 12.0013C11.7573 12.0013 10.75 10.9939 10.75 9.7513ZM13 5.5013C10.6527 5.5013 8.74996 7.40409 8.74996 9.7513C8.74996 12.0985 10.6527 14.0013 13 14.0013C15.3472 14.0013 17.25 12.0985 17.25 9.7513C17.25 7.40409 15.3472 5.5013 13 5.5013Z" fill="#0B1331"/>
<rect x="2.66663" y="2.66797" width="20.6667" height="20.6667" rx="10.3333" stroke="#3657C8"/>
</svg>
