<svg width="231" height="75" viewBox="0 0 231 75" fill="none" xmlns="http://www.w3.org/2000/svg">
<g clip-path="url(#clip0)">
<path d="M150.42 0.117188C134.035 0.117188 119.392 8.60989 119.392 24.3008C119.392 42.2953 145.361 43.5382 145.361 52.5781C145.361 56.3845 140.999 59.7917 133.549 59.7917C122.976 59.7917 115.073 55.0308 115.073 55.0308L111.692 70.8646C111.692 70.8646 120.795 74.8862 132.882 74.8862C150.796 74.8862 164.892 65.9765 164.892 50.0173C164.892 31.0029 138.815 29.7969 138.815 21.4063C138.815 18.4246 142.396 15.1576 149.825 15.1576C158.207 15.1576 165.045 18.6201 165.045 18.6201L168.355 3.32724C168.355 3.32724 160.913 0.117188 150.42 0.117188V0.117188ZM0.511983 1.27137L0.115234 3.57972C0.115234 3.57972 7.00847 4.84129 13.2169 7.35784C21.2109 10.2436 21.7803 11.9235 23.1266 17.1413L37.7973 73.696H57.4634L87.7605 1.27137H68.1395L48.6718 50.5132L40.7278 8.77352C39.9993 3.99644 36.309 1.27137 31.792 1.27137H0.511983V1.27137ZM95.6504 1.27137L80.2584 73.696H98.9687L114.307 1.27137H95.6504V1.27137ZM200.004 1.27137C195.492 1.27137 193.102 3.68686 191.348 7.90788L163.936 73.696H183.557L187.353 62.7313H211.257L213.566 73.696H230.878L215.775 1.27137H200.004V1.27137ZM202.556 20.8383L208.372 48.0155H192.791L202.556 20.8383V20.8383Z" fill="url(#paint0_linear)"/>
</g>
<defs>
<linearGradient id="paint0_linear" x1="0.0291246" y1="25.6665" x2="230.893" y2="25.6665" gradientUnits="userSpaceOnUse">
<stop stop-color="#20225F"/>
<stop offset="0.2" stop-color="#1A1F61"/>
<stop offset="0.410233" stop-color="#172272"/>
<stop offset="0.595197" stop-color="#152682"/>
<stop offset="0.802083" stop-color="#12288E"/>
<stop offset="1" stop-color="#0E2C9A"/>
</linearGradient>
<clipPath id="clip0">
<rect width="230.994" height="75" fill="white"/>
</clipPath>
</defs>
</svg>
