<svg width="120" height="75" viewBox="0 0 120 75" fill="none" xmlns="http://www.w3.org/2000/svg">
<g clip-path="url(#clip0)">
<path d="M119.062 75H0.994141V3.29554e-06H119.062V75Z" fill="white"/>
<path d="M2.95898 62.8132H117.091V73.0469H2.95898V62.8132V62.8132Z" fill="#F7B600"/>
<path d="M2.95898 12.1992H117.091V1.96658H2.95898V12.1992V12.1992Z" fill="#1A1F71"/>
<path d="M57.7581 21.4391L52.0383 48.1779H45.1203L50.8401 21.4391H57.7581ZM86.8599 38.7045L90.5025 28.6631L92.5949 38.7045H86.8599V38.7045ZM94.5819 48.1779H100.978L95.3898 21.4391H89.4885C88.1575 21.4391 87.0391 22.2114 86.5428 23.3992L76.1626 48.1779H83.4271L84.868 44.1837H93.7434L94.5819 48.1779ZM76.5234 39.4479C76.5523 32.3922 66.7674 32.0008 66.8313 28.8479C66.8548 27.8897 67.7677 26.8692 69.7661 26.6084C70.756 26.4805 73.4907 26.3783 76.5884 27.8055L77.8003 22.1322C76.1358 21.5304 73.9942 20.9509 71.33 20.9509C64.4913 20.9509 59.6805 24.5832 59.6422 29.7886C59.5974 33.639 63.0783 35.785 65.696 37.0674C68.3925 38.377 69.2966 39.2188 69.284 40.3891C69.2649 42.1831 67.1309 42.9774 65.1467 43.0069C61.6675 43.0621 59.6504 42.0667 58.0418 41.3173L56.7862 47.1786C58.4047 47.9204 61.3876 48.5649 64.4771 48.5977C71.747 48.5977 76.502 45.0069 76.5234 39.4479ZM47.8725 21.4391L36.6647 48.1779H29.3521L23.8362 26.838C23.5022 25.5267 23.2114 25.044 22.1936 24.4897C20.5303 23.5862 17.7835 22.7411 15.3691 22.2153L15.532 21.4391H27.3045C28.8028 21.4391 30.1518 22.4366 30.4945 24.164L33.4091 39.6381L40.6042 21.4391H47.8725Z" fill="#1A1F71"/>
<path d="M66.6115 55.5387H63.8008V58.1548H66.9449V58.9414H62.8535V51.6834H66.7837V52.47H63.8008V54.7631H66.6115V55.5387Z" fill="#1A1F71"/>
<path d="M68.3965 51.2925H69.3438V58.9375H68.3965V51.2925Z" fill="#1A1F71"/>
<path d="M74.5121 55.8281C74.523 55.2361 74.2645 54.2992 73.1986 54.2992C72.2294 54.2992 71.82 55.1716 71.7446 55.8281H74.5121ZM71.7342 56.5064C71.7555 57.7883 72.5634 58.3157 73.5211 58.3157C74.2 58.3157 74.6198 58.1971 74.9647 58.0468L75.1369 58.7252C74.8029 58.8755 74.2218 59.0586 73.3921 59.0586C71.7883 59.0586 70.8301 57.9927 70.8301 56.4206C70.8301 54.8486 71.7555 53.6209 73.274 53.6209C74.986 53.6209 75.4277 55.1071 75.4277 56.0653C75.4277 56.2588 75.4167 56.3988 75.3949 56.5064H71.7342V56.5064Z" fill="#1A1F71"/>
<path d="M80.5836 58.7569C80.336 58.8755 79.7866 59.0586 79.087 59.0586C77.5149 59.0586 76.4922 57.9927 76.4922 56.3988C76.4922 54.7944 77.5898 53.6209 79.2914 53.6209C79.8511 53.6209 80.3464 53.7602 80.6049 53.9007L80.3901 54.6223C80.1633 54.5036 79.808 54.3741 79.2914 54.3741C78.096 54.3741 77.4504 55.2678 77.4504 56.3452C77.4504 57.551 78.2255 58.2939 79.2592 58.2939C79.7976 58.2939 80.1529 58.1649 80.4218 58.0463L80.5836 58.7569Z" fill="#1A1F71"/>
<path d="M83.2397 52.4795V53.7285H84.5959V54.4495H83.2397V57.2602C83.2397 57.9069 83.4228 58.2726 83.9503 58.2726C84.2083 58.2726 84.3597 58.2512 84.4997 58.2075L84.5428 58.9296C84.3597 58.9941 84.0689 59.0586 83.7027 59.0586C83.261 59.0586 82.9057 58.9077 82.68 58.6607C82.4214 58.3693 82.3138 57.9069 82.3138 57.293V54.4495H81.5059V53.7285H82.3138V52.7594L83.2397 52.4795Z" fill="#1A1F71"/>
<path d="M85.9201 55.3556C85.9201 54.7418 85.9087 54.2143 85.877 53.7294H86.7062L86.7494 54.7631H86.7811C87.0183 54.0634 87.5993 53.6217 88.2345 53.6217C88.3318 53.6217 88.4072 53.6327 88.4936 53.6431V54.5373C88.3963 54.5155 88.3001 54.5155 88.17 54.5155C87.5031 54.5155 87.0287 55.0107 86.8997 55.7218C86.8784 55.8508 86.8674 56.0121 86.8674 56.1635V58.9414H85.9201V55.3556Z" fill="#1A1F71"/>
<path d="M90.1932 56.3452C90.1932 57.4865 90.8393 58.348 91.7653 58.348C92.6699 58.348 93.3477 57.4969 93.3477 56.3233C93.3477 55.4405 92.9066 54.3309 91.7866 54.3309C90.6781 54.3309 90.1932 55.3651 90.1932 56.3452ZM94.3174 56.2911C94.3174 58.2184 92.9711 59.0586 91.7221 59.0586C90.3222 59.0586 89.2246 58.0244 89.2246 56.3774C89.2246 54.6436 90.3763 53.6209 91.8085 53.6209C93.3051 53.6209 94.3174 54.7081 94.3174 56.2911" fill="#1A1F71"/>
<path d="M95.7697 55.1363C95.7697 54.5875 95.7583 54.1568 95.7266 53.7261H96.5662L96.6203 54.5875H96.6416C96.9001 54.1027 97.5031 53.6184 98.3645 53.6184C99.0855 53.6184 100.206 54.0491 100.206 55.836V58.9375H99.2582V55.9333C99.2582 55.0937 98.9461 54.3935 98.0524 54.3935C97.4386 54.3935 96.9537 54.8352 96.7821 55.3626C96.7383 55.4813 96.717 55.6425 96.717 55.8043V58.9375H95.7697V55.1363Z" fill="#1A1F71"/>
</g>
<defs>
<clipPath id="clip0">
<rect width="118.068" height="75" fill="white" transform="translate(0.994141)"/>
</clipPath>
</defs>
</svg>
