<svg width="37" height="37" fill="none" xmlns="http://www.w3.org/2000/svg"><path d="M24.006.583H13.013C2.973.583.583 2.973.583 12.995v10.992c0 10.04 2.37 12.43 12.412 12.43h10.992c10.041 0 12.43-2.37 12.43-12.411V13.013c0-10.04-2.37-12.43-12.411-12.43zm5.505 25.569H26.9c-.99 0-1.288-.803-3.061-2.576-1.55-1.492-2.202-1.68-2.594-1.68-.541 0-.69.15-.69.897v2.351c0 .635-.206 1.008-1.867 1.008a10.198 10.198 0 01-7.97-4.778 20.83 20.83 0 01-4.124-8.66c0-.391.15-.746.896-.746h2.613c.672 0 .914.299 1.175.99 1.27 3.732 3.435 6.98 4.312 6.98.336 0 .485-.15.485-.99v-3.845c-.112-1.754-1.045-1.903-1.045-2.538a.645.645 0 01.672-.597h4.106c.56 0 .746.28.746.952v5.188c0 .56.243.747.41.747.337 0 .598-.187 1.214-.803a21.497 21.497 0 003.21-5.338 1.125 1.125 0 011.138-.746h2.613c.784 0 .952.392.784.952a32.614 32.614 0 01-3.509 6.028c-.28.43-.392.653 0 1.157.262.392 1.176 1.157 1.792 1.885a11.62 11.62 0 012.202 3.06c.224.729-.149 1.102-.896 1.102z" fill="#fff"/></svg>