<svg width="39" height="48" viewBox="0 0 39 48" fill="none" xmlns="http://www.w3.org/2000/svg">
<path d="M32.2685 14.7167C28.6618 8.57159 25.9767 5.41312 21.7954 2.51108C20.0169 1.27675 17.5964 1.94361 16.5163 3.81976C14.9807 6.48726 17.01 9.79254 20.0573 10.2257C23.9954 10.7856 27.4927 12.1551 32.2685 14.7167Z" fill="white"/>
<path d="M37.5415 27.3265C26.7618 24.5331 19.6399 22.4359 10.9729 19.0227C6.49673 17.2599 1.50041 20.2125 1.08556 25.0053C0.715749 29.2778 4.22906 32.8999 8.50144 32.5294C19.0902 31.6109 26.4991 30.2113 37.5415 27.3265Z" fill="white"/>
<path d="M33.7771 40.2106C30.9742 41.0772 28.8805 41.4808 26.0708 41.5636C24.2193 41.6182 22.908 43.4709 23.6155 45.1828C24.1517 46.4802 25.6468 47.1063 26.9158 46.5059C30.6755 44.7274 32.4244 43.1593 33.7771 40.2106Z" fill="white"/>
</svg>
