<svg width="34" height="53" viewBox="0 0 34 53" fill="none" xmlns="http://www.w3.org/2000/svg">
<path d="M3.54401 15.5975C7.3055 9.18856 10.1059 5.89446 14.4669 2.8678C16.3217 1.58047 18.8462 2.27596 19.9726 4.23268C21.5742 7.01473 19.4577 10.4619 16.2796 10.9138C12.1723 11.4976 8.52487 12.926 3.54401 15.5975Z" fill="white"/>
<path d="M1.35203 28.9064C10.7488 26.4713 16.9571 24.6432 24.5122 21.6679C28.4141 20.1312 32.7695 22.705 33.1311 26.883C33.4534 30.6073 30.3909 33.7648 26.6666 33.4418C17.4362 32.6412 10.9778 31.4211 1.35203 28.9064Z" fill="white"/>
<path d="M5.0855 39.1693C10.0278 40.6974 13.7195 41.4092 18.6738 41.5551C21.9385 41.6513 24.2507 44.9183 23.0032 47.9367C22.0577 50.2244 19.4214 51.3284 17.1838 50.2699C10.5545 47.1338 7.47067 44.3688 5.0855 39.1693Z" fill="white"/>
</svg>
