<svg width="154" height="31" viewBox="0 0 154 31" fill="none" xmlns="http://www.w3.org/2000/svg">
<path d="M2.78711 12.517L17.9109 3.48788C20.0062 2.23697 22.619 2.23696 24.7143 3.48788L36.4364 10.4862C38.5317 11.7371 41.1444 11.7371 43.2397 10.4862L54.9618 3.48788C57.0571 2.23696 59.6699 2.23696 61.7652 3.48787L73.4873 10.4862C75.5826 11.7371 78.1954 11.7371 80.2907 10.4862L92.0128 3.48787C94.1081 2.23696 96.7209 2.23696 98.8161 3.48787L110.513 10.4708C112.621 11.7298 115.253 11.7211 117.354 10.4481L128.8 3.51076C130.887 2.24578 133.501 2.22861 135.604 3.46606L150.991 12.517" stroke="white" stroke-width="4.42399" stroke-linecap="round"/>
<path d="M2.78711 28.0014L17.9109 18.9723C20.0062 17.7213 22.619 17.7213 24.7143 18.9723L36.4364 25.9705C38.5317 27.2214 41.1444 27.2214 43.2397 25.9705L54.9618 18.9723C57.0571 17.7213 59.6699 17.7213 61.7652 18.9722L73.4873 25.9705C75.5826 27.2214 78.1954 27.2214 80.2907 25.9705L92.0128 18.9722C94.1081 17.7213 96.7209 17.7213 98.8161 18.9722L110.513 25.9552C112.621 27.2142 115.253 27.2055 117.354 25.9325L128.8 18.9951C130.887 17.7302 133.501 17.713 135.604 18.9504L150.991 28.0014" stroke="white" stroke-width="4.42399" stroke-linecap="round"/>
</svg>
