<svg width="40" height="40" viewBox="0 0 40 40" fill="none" xmlns="http://www.w3.org/2000/svg">
<path d="M1.66664 1.66664H18.3333V9.16664C18.3333 9.625 18.7083 10 19.1666 10H26.6666V15.8334H28.3333V9.16672C28.3333 9.08336 28.3083 9.00008 28.2833 8.91672C28.2749 8.89172 28.2749 8.87508 28.2666 8.85008C28.225 8.74172 28.1583 8.65008 28.075 8.56672L19.7584 0.241641C19.6 0.0916406 19.3916 0 19.1666 0H0.833359C0.375 0 0 0.375 0 0.833359V35.8334C0 36.2917 0.375 36.6667 0.833359 36.6667H17.5V35H1.66664V1.66664ZM20 2.85L25.4834 8.33336H20V2.85Z" fill="#828282"/>
<path d="M29.1673 18.332C23.184 18.332 18.334 23.182 18.334 29.1654C18.334 35.1487 23.1841 39.9987 29.1673 39.9987C35.1506 39.9987 40.0007 35.1487 40.0007 29.1653C39.9923 23.182 35.1507 18.3403 29.1673 18.332ZM29.1673 38.332C24.1007 38.332 20.0007 34.232 20.0007 29.1653C20.0007 24.0986 24.1007 19.9987 29.1673 19.9987C34.234 19.9987 38.334 24.0987 38.334 29.1653C38.3257 34.2237 34.2257 38.3237 29.1673 38.332Z" fill="#828282"/>
<path d="M32.2495 29.4653L29.9995 31.7153V24.6403C29.9995 24.2237 29.6995 23.8487 29.2912 23.7903C28.7745 23.7153 28.3328 24.1153 28.3328 24.6153V31.6987L26.0995 29.4653C25.7745 29.1403 25.2411 29.1403 24.9078 29.4653C24.5828 29.7903 24.5828 30.3237 24.9078 30.657L28.5745 34.3236C28.8995 34.6486 29.4328 34.6486 29.7661 34.3236L33.4327 30.657C33.7577 30.3236 33.7494 29.7903 33.4161 29.4653C33.0912 29.1487 32.5745 29.1487 32.2495 29.4653Z" fill="#828282"/>
</svg>
